<?xml version="1.0" encoding="utf-8"?>
<!-- Generator: Adobe Illustrator 24.2.0, SVG Export Plug-In . SVG Version: 6.00 Build 0)  -->
<svg version="1.1" xmlns="http://www.w3.org/2000/svg" xmlns:xlink="http://www.w3.org/1999/xlink" x="0px" y="0px"
	 viewBox="0 0 415 897" style="enable-background:new 0 0 415 897;" xml:space="preserve">
<style type="text/css">
	.st0{fill:none;}
	.st1{fill:none;stroke:#FAB906;stroke-width:3.5433;stroke-miterlimit:10;}
	.st2{fill:#FFFFFF;}
	.st3{fill:#1D1E1B;}
	.st4{fill:url(#SVGID_1_);}
</style>
<pattern  x="-221.34" y="72.78" width="128" height="128" patternUnits="userSpaceOnUse" id="DASH_45_PROXIMA" viewBox="129.25 -257.25 128 128" style="overflow:visible;">
	<g>
		<rect x="129.25" y="-257.25" class="st0" width="128" height="128"/>
		<g>
			<line class="st1" x1="257.25" y1="-1.25" x2="385.25" y2="-129.25"/>
			<line class="st1" x1="150.59" y1="-1.25" x2="278.59" y2="-129.25"/>
			<line class="st1" x1="171.92" y1="-1.25" x2="299.92" y2="-129.25"/>
			<line class="st1" x1="193.25" y1="-1.25" x2="321.25" y2="-129.25"/>
			<line class="st1" x1="214.59" y1="-1.25" x2="342.59" y2="-129.25"/>
			<line class="st1" x1="235.92" y1="-1.25" x2="363.92" y2="-129.25"/>
			<line class="st1" x1="246.59" y1="-1.25" x2="374.59" y2="-129.25"/>
			<line class="st1" x1="139.92" y1="-1.25" x2="267.92" y2="-129.25"/>
			<line class="st1" x1="161.25" y1="-1.25" x2="289.25" y2="-129.25"/>
			<line class="st1" x1="182.59" y1="-1.25" x2="310.59" y2="-129.25"/>
			<line class="st1" x1="203.92" y1="-1.25" x2="331.92" y2="-129.25"/>
			<line class="st1" x1="225.25" y1="-1.25" x2="353.25" y2="-129.25"/>
		</g>
		<g>
			<line class="st1" x1="129.25" y1="-1.25" x2="257.25" y2="-129.25"/>
			<line class="st1" x1="22.59" y1="-1.25" x2="150.59" y2="-129.25"/>
			<line class="st1" x1="43.92" y1="-1.25" x2="171.92" y2="-129.25"/>
			<line class="st1" x1="65.25" y1="-1.25" x2="193.25" y2="-129.25"/>
			<line class="st1" x1="86.59" y1="-1.25" x2="214.59" y2="-129.25"/>
			<line class="st1" x1="107.92" y1="-1.25" x2="235.92" y2="-129.25"/>
			<line class="st1" x1="150.59" y1="-1.25" x2="278.59" y2="-129.25"/>
			<line class="st1" x1="171.92" y1="-1.25" x2="299.92" y2="-129.25"/>
			<line class="st1" x1="193.25" y1="-1.25" x2="321.25" y2="-129.25"/>
			<line class="st1" x1="214.59" y1="-1.25" x2="342.59" y2="-129.25"/>
			<line class="st1" x1="235.92" y1="-1.25" x2="363.92" y2="-129.25"/>
			<line class="st1" x1="246.59" y1="-1.25" x2="374.59" y2="-129.25"/>
			<line class="st1" x1="118.59" y1="-1.25" x2="246.59" y2="-129.25"/>
			<line class="st1" x1="11.92" y1="-1.25" x2="139.92" y2="-129.25"/>
			<line class="st1" x1="33.25" y1="-1.25" x2="161.25" y2="-129.25"/>
			<line class="st1" x1="54.59" y1="-1.25" x2="182.59" y2="-129.25"/>
			<line class="st1" x1="75.92" y1="-1.25" x2="203.92" y2="-129.25"/>
			<line class="st1" x1="97.25" y1="-1.25" x2="225.25" y2="-129.25"/>
			<line class="st1" x1="139.92" y1="-1.25" x2="267.92" y2="-129.25"/>
			<line class="st1" x1="161.25" y1="-1.25" x2="289.25" y2="-129.25"/>
			<line class="st1" x1="182.59" y1="-1.25" x2="310.59" y2="-129.25"/>
			<line class="st1" x1="203.92" y1="-1.25" x2="331.92" y2="-129.25"/>
			<line class="st1" x1="225.25" y1="-1.25" x2="353.25" y2="-129.25"/>
		</g>
		<g>
			<line class="st1" x1="1.25" y1="-1.25" x2="129.25" y2="-129.25"/>
			<line class="st1" x1="22.59" y1="-1.25" x2="150.59" y2="-129.25"/>
			<line class="st1" x1="43.92" y1="-1.25" x2="171.92" y2="-129.25"/>
			<line class="st1" x1="65.25" y1="-1.25" x2="193.25" y2="-129.25"/>
			<line class="st1" x1="86.59" y1="-1.25" x2="214.59" y2="-129.25"/>
			<line class="st1" x1="107.92" y1="-1.25" x2="235.92" y2="-129.25"/>
			<line class="st1" x1="118.59" y1="-1.25" x2="246.59" y2="-129.25"/>
			<line class="st1" x1="11.92" y1="-1.25" x2="139.92" y2="-129.25"/>
			<line class="st1" x1="33.25" y1="-1.25" x2="161.25" y2="-129.25"/>
			<line class="st1" x1="54.59" y1="-1.25" x2="182.59" y2="-129.25"/>
			<line class="st1" x1="75.92" y1="-1.25" x2="203.92" y2="-129.25"/>
			<line class="st1" x1="97.25" y1="-1.25" x2="225.25" y2="-129.25"/>
		</g>
		<g>
			<line class="st1" x1="257.25" y1="-129.25" x2="385.25" y2="-257.25"/>
			<line class="st1" x1="150.59" y1="-129.25" x2="278.59" y2="-257.25"/>
			<line class="st1" x1="171.92" y1="-129.25" x2="299.92" y2="-257.25"/>
			<line class="st1" x1="193.25" y1="-129.25" x2="321.25" y2="-257.25"/>
			<line class="st1" x1="214.59" y1="-129.25" x2="342.59" y2="-257.25"/>
			<line class="st1" x1="235.92" y1="-129.25" x2="363.92" y2="-257.25"/>
			<line class="st1" x1="246.59" y1="-129.25" x2="374.59" y2="-257.25"/>
			<line class="st1" x1="139.92" y1="-129.25" x2="267.92" y2="-257.25"/>
			<line class="st1" x1="161.25" y1="-129.25" x2="289.25" y2="-257.25"/>
			<line class="st1" x1="182.59" y1="-129.25" x2="310.59" y2="-257.25"/>
			<line class="st1" x1="203.92" y1="-129.25" x2="331.92" y2="-257.25"/>
			<line class="st1" x1="225.25" y1="-129.25" x2="353.25" y2="-257.25"/>
		</g>
		<g>
			<line class="st1" x1="129.25" y1="-129.25" x2="257.25" y2="-257.25"/>
			<line class="st1" x1="22.59" y1="-129.25" x2="150.59" y2="-257.25"/>
			<line class="st1" x1="43.92" y1="-129.25" x2="171.92" y2="-257.25"/>
			<line class="st1" x1="65.25" y1="-129.25" x2="193.25" y2="-257.25"/>
			<line class="st1" x1="86.59" y1="-129.25" x2="214.59" y2="-257.25"/>
			<line class="st1" x1="107.92" y1="-129.25" x2="235.92" y2="-257.25"/>
			<line class="st1" x1="150.59" y1="-129.25" x2="278.59" y2="-257.25"/>
			<line class="st1" x1="171.92" y1="-129.25" x2="299.92" y2="-257.25"/>
			<line class="st1" x1="193.25" y1="-129.25" x2="321.25" y2="-257.25"/>
			<line class="st1" x1="214.59" y1="-129.25" x2="342.59" y2="-257.25"/>
			<line class="st1" x1="235.92" y1="-129.25" x2="363.92" y2="-257.25"/>
			<line class="st1" x1="246.59" y1="-129.25" x2="374.59" y2="-257.25"/>
			<line class="st1" x1="118.59" y1="-129.25" x2="246.59" y2="-257.25"/>
			<line class="st1" x1="11.92" y1="-129.25" x2="139.92" y2="-257.25"/>
			<line class="st1" x1="33.25" y1="-129.25" x2="161.25" y2="-257.25"/>
			<line class="st1" x1="54.59" y1="-129.25" x2="182.59" y2="-257.25"/>
			<line class="st1" x1="75.92" y1="-129.25" x2="203.92" y2="-257.25"/>
			<line class="st1" x1="97.25" y1="-129.25" x2="225.25" y2="-257.25"/>
			<line class="st1" x1="139.92" y1="-129.25" x2="267.92" y2="-257.25"/>
			<line class="st1" x1="161.25" y1="-129.25" x2="289.25" y2="-257.25"/>
			<line class="st1" x1="182.59" y1="-129.25" x2="310.59" y2="-257.25"/>
			<line class="st1" x1="203.92" y1="-129.25" x2="331.92" y2="-257.25"/>
			<line class="st1" x1="225.25" y1="-129.25" x2="353.25" y2="-257.25"/>
		</g>
		<g>
			<line class="st1" x1="1.25" y1="-129.25" x2="129.25" y2="-257.25"/>
			<line class="st1" x1="22.59" y1="-129.25" x2="150.59" y2="-257.25"/>
			<line class="st1" x1="43.92" y1="-129.25" x2="171.92" y2="-257.25"/>
			<line class="st1" x1="65.25" y1="-129.25" x2="193.25" y2="-257.25"/>
			<line class="st1" x1="86.59" y1="-129.25" x2="214.59" y2="-257.25"/>
			<line class="st1" x1="107.92" y1="-129.25" x2="235.92" y2="-257.25"/>
			<line class="st1" x1="118.59" y1="-129.25" x2="246.59" y2="-257.25"/>
			<line class="st1" x1="11.92" y1="-129.25" x2="139.92" y2="-257.25"/>
			<line class="st1" x1="33.25" y1="-129.25" x2="161.25" y2="-257.25"/>
			<line class="st1" x1="54.59" y1="-129.25" x2="182.59" y2="-257.25"/>
			<line class="st1" x1="75.92" y1="-129.25" x2="203.92" y2="-257.25"/>
			<line class="st1" x1="97.25" y1="-129.25" x2="225.25" y2="-257.25"/>
		</g>
		<g>
			<line class="st1" x1="257.25" y1="-257.25" x2="385.25" y2="-385.25"/>
			<line class="st1" x1="150.59" y1="-257.25" x2="278.59" y2="-385.25"/>
			<line class="st1" x1="171.92" y1="-257.25" x2="299.92" y2="-385.25"/>
			<line class="st1" x1="193.25" y1="-257.25" x2="321.25" y2="-385.25"/>
			<line class="st1" x1="214.59" y1="-257.25" x2="342.59" y2="-385.25"/>
			<line class="st1" x1="235.92" y1="-257.25" x2="363.92" y2="-385.25"/>
			<line class="st1" x1="246.59" y1="-257.25" x2="374.59" y2="-385.25"/>
			<line class="st1" x1="139.92" y1="-257.25" x2="267.92" y2="-385.25"/>
			<line class="st1" x1="161.25" y1="-257.25" x2="289.25" y2="-385.25"/>
			<line class="st1" x1="182.59" y1="-257.25" x2="310.59" y2="-385.25"/>
			<line class="st1" x1="203.92" y1="-257.25" x2="331.92" y2="-385.25"/>
			<line class="st1" x1="225.25" y1="-257.25" x2="353.25" y2="-385.25"/>
		</g>
		<g>
			<line class="st1" x1="129.25" y1="-257.25" x2="257.25" y2="-385.25"/>
			<line class="st1" x1="22.59" y1="-257.25" x2="150.59" y2="-385.25"/>
			<line class="st1" x1="43.92" y1="-257.25" x2="171.92" y2="-385.25"/>
			<line class="st1" x1="65.25" y1="-257.25" x2="193.25" y2="-385.25"/>
			<line class="st1" x1="86.59" y1="-257.25" x2="214.59" y2="-385.25"/>
			<line class="st1" x1="107.92" y1="-257.25" x2="235.92" y2="-385.25"/>
			<line class="st1" x1="150.59" y1="-257.25" x2="278.59" y2="-385.25"/>
			<line class="st1" x1="171.92" y1="-257.25" x2="299.92" y2="-385.25"/>
			<line class="st1" x1="193.25" y1="-257.25" x2="321.25" y2="-385.25"/>
			<line class="st1" x1="214.59" y1="-257.25" x2="342.59" y2="-385.25"/>
			<line class="st1" x1="235.92" y1="-257.25" x2="363.92" y2="-385.25"/>
			<line class="st1" x1="246.59" y1="-257.25" x2="374.59" y2="-385.25"/>
			<line class="st1" x1="118.59" y1="-257.25" x2="246.59" y2="-385.25"/>
			<line class="st1" x1="11.92" y1="-257.25" x2="139.92" y2="-385.25"/>
			<line class="st1" x1="33.25" y1="-257.25" x2="161.25" y2="-385.25"/>
			<line class="st1" x1="54.59" y1="-257.25" x2="182.59" y2="-385.25"/>
			<line class="st1" x1="75.92" y1="-257.25" x2="203.92" y2="-385.25"/>
			<line class="st1" x1="97.25" y1="-257.25" x2="225.25" y2="-385.25"/>
			<line class="st1" x1="139.92" y1="-257.25" x2="267.92" y2="-385.25"/>
			<line class="st1" x1="161.25" y1="-257.25" x2="289.25" y2="-385.25"/>
			<line class="st1" x1="182.59" y1="-257.25" x2="310.59" y2="-385.25"/>
			<line class="st1" x1="203.92" y1="-257.25" x2="331.92" y2="-385.25"/>
			<line class="st1" x1="225.25" y1="-257.25" x2="353.25" y2="-385.25"/>
		</g>
		<g>
			<line class="st1" x1="1.25" y1="-257.25" x2="129.25" y2="-385.25"/>
			<line class="st1" x1="22.59" y1="-257.25" x2="150.59" y2="-385.25"/>
			<line class="st1" x1="43.92" y1="-257.25" x2="171.92" y2="-385.25"/>
			<line class="st1" x1="65.25" y1="-257.25" x2="193.25" y2="-385.25"/>
			<line class="st1" x1="86.59" y1="-257.25" x2="214.59" y2="-385.25"/>
			<line class="st1" x1="107.92" y1="-257.25" x2="235.92" y2="-385.25"/>
			<line class="st1" x1="118.59" y1="-257.25" x2="246.59" y2="-385.25"/>
			<line class="st1" x1="11.92" y1="-257.25" x2="139.92" y2="-385.25"/>
			<line class="st1" x1="33.25" y1="-257.25" x2="161.25" y2="-385.25"/>
			<line class="st1" x1="54.59" y1="-257.25" x2="182.59" y2="-385.25"/>
			<line class="st1" x1="75.92" y1="-257.25" x2="203.92" y2="-385.25"/>
			<line class="st1" x1="97.25" y1="-257.25" x2="225.25" y2="-385.25"/>
		</g>
	</g>
</pattern>
<g id="Layer_9">
	<rect x="305.4" y="507" class="st2" width="66.35" height="30.59"/>
	<rect x="244.47" y="571.47" class="st2" width="57.29" height="26.82"/>
	<rect x="107.55" y="569.59" class="st2" width="61.38" height="28.71"/>
	<rect x="39.52" y="504.18" class="st2" width="72.47" height="30.59"/>
</g>
<g id="Layer_8">
	<g id="INFO_5_">
		
			<rect x="118.27" y="628.3" transform="matrix(0.7071 -0.7071 0.7071 0.7071 -446.5018 356.6664)" class="st2" width="178.02" height="178.02"/>
		<g>
			<path class="st3" d="M181.26,664.3h3.17l4.3,13.02h-2.51l-1.04-3.22h-4.97l-1.02,3.22h-2.28L181.26,664.3z M180.77,672.33h3.84
				l-1.91-6.04L180.77,672.33z"/>
			<path class="st3" d="M190.72,664.3h4.37c2.86,0,4.86,1.17,4.86,3.82v0.07c0,2.04-1.27,3.08-2.89,3.5l3.66,5.62h-2.62l-3.4-5.26
				h-1.55v5.26h-2.42V664.3z M195.08,670.33c1.62,0,2.48-0.69,2.48-2.08v-0.07c0-1.49-0.93-2-2.48-2h-1.95v4.15H195.08z"/>
			<path class="st3" d="M202.64,664.3h8.14v1.91h-5.72v3.57h4.59v1.82h-4.59v3.8h6.03v1.91h-8.45V664.3z"/>
			<path class="st3" d="M213.27,664.3h2.89l5.48,9.41v-9.41h2.2v13.02h-2.51l-5.86-9.98v9.98h-2.2V664.3z"/>
			<path class="st3" d="M230.19,664.3h3.17l4.3,13.02h-2.51l-1.04-3.22h-4.97l-1.02,3.22h-2.28L230.19,664.3z M229.7,672.33h3.84
				l-1.91-6.04L229.7,672.33z"/>
		</g>
		<g>
			<polygon class="st3" points="207.28,830.77 138.13,761.61 276.44,761.61 			"/>
			<path class="st2" d="M190.66,774.26h4.52v1.06H192v1.98h2.55v1.01H192v2.11h3.35v1.06h-4.69V774.26z"/>
			<path class="st2" d="M197.32,774.26h1.61l3.04,5.23v-5.23h1.22v7.23h-1.4l-3.26-5.54v5.54h-1.22V774.26z"/>
			<path class="st2" d="M207.07,775.32h-2.01v-1.06h5.38v1.06h-2.01v6.17h-1.36V775.32z"/>
			<path class="st2" d="M212.28,774.26h4.52v1.06h-3.18v1.98h2.55v1.01h-2.55v2.11h3.35v1.06h-4.69V774.26z"/>
			<path class="st2" d="M218.94,774.26h2.43c1.59,0,2.7,0.65,2.7,2.12v0.04c0,1.13-0.71,1.71-1.61,1.94l2.03,3.13h-1.46l-1.89-2.92
				h-0.86v2.92h-1.35V774.26z M221.37,777.6c0.9,0,1.38-0.38,1.38-1.15v-0.04c0-0.83-0.52-1.11-1.38-1.11h-1.08v2.31H221.37z"/>
			<path class="st2" d="M190.93,786.39h2.43c1.59,0,2.7,0.65,2.7,2.12v0.04c0,1.13-0.71,1.71-1.61,1.94l2.03,3.13h-1.46l-1.89-2.92
				h-0.86v2.92h-1.35V786.39z M193.35,789.74c0.9,0,1.38-0.38,1.38-1.15v-0.04c0-0.83-0.52-1.11-1.38-1.11h-1.08v2.31H193.35z"/>
			<path class="st2" d="M197.95,790.06v-0.08c0-2.11,1.52-3.68,3.66-3.68c2.15,0,3.64,1.53,3.64,3.65v0.08c0,2.11-1.45,3.7-3.64,3.7
				C199.39,793.73,197.95,792.14,197.95,790.06z M203.85,790.04v-0.08c0-1.49-0.83-2.59-2.25-2.59c-1.42,0-2.26,1.04-2.26,2.6v0.08
				c0,1.58,0.96,2.6,2.28,2.6C203,792.65,203.85,791.6,203.85,790.04z"/>
			<path class="st2" d="M206.94,790.06v-0.08c0-2.11,1.52-3.68,3.66-3.68c2.15,0,3.64,1.53,3.64,3.65v0.08c0,2.11-1.45,3.7-3.64,3.7
				C208.39,793.73,206.94,792.14,206.94,790.06z M212.85,790.04v-0.08c0-1.49-0.83-2.59-2.25-2.59c-1.42,0-2.26,1.04-2.26,2.6v0.08
				c0,1.58,0.96,2.6,2.28,2.6C211.99,792.65,212.85,791.6,212.85,790.04z"/>
			<path class="st2" d="M216.3,786.39h1.8l1.9,4.94l1.86-4.94h1.78v7.23h-1.34v-5.46l-2.16,5.46h-0.43l-2.2-5.46v5.46h-1.21V786.39z
				"/>
		</g>
		<g>
			<path class="st3" d="M137.49,707.75v-0.88c0.32,0.13,0.63,0.24,1.15,0.24c0.86,0,1.41-0.49,1.41-1.65v-6.28h1.06v6.33
				c0,1.74-1.08,2.47-2.41,2.47C138.05,707.98,137.72,707.87,137.49,707.75z"/>
			<path class="st3" d="M142.67,704.75v-0.1c0-1.91,1.32-3.24,3.12-3.24s3.12,1.32,3.12,3.23v0.1c0,1.92-1.32,3.24-3.13,3.24
				C143.97,707.98,142.67,706.61,142.67,704.75z M147.87,704.75v-0.08c0-1.47-0.81-2.42-2.08-2.42c-1.28,0-2.08,0.95-2.08,2.41v0.1
				c0,1.45,0.79,2.39,2.08,2.39C147.07,707.14,147.87,706.18,147.87,704.75z"/>
			<path class="st3" d="M150.32,699.52c0-0.36,0.3-0.67,0.67-0.67s0.67,0.3,0.67,0.67c0,0.37-0.3,0.67-0.67,0.67
				S150.32,699.89,150.32,699.52z M150.5,701.52h1.01v6.35h-1.01V701.52z"/>
			<path class="st3" d="M153.57,701.52h1.01v1.01c0.29-0.59,1-1.12,2.04-1.12c1.31,0,2.23,0.72,2.23,2.56v3.9h-1.01v-3.97
				c0-1.12-0.47-1.62-1.49-1.62c-0.94,0-1.77,0.59-1.77,1.74v3.85h-1.01V701.52z"/>
			<path class="st3" d="M168.13,705.54v-4.02h1.01v3.97c0,1.12,0.47,1.62,1.47,1.62c0.9,0,1.75-0.59,1.75-1.74v-3.85h1.01v6.35
				h-1.01v-1.01c-0.29,0.59-1,1.12-2.02,1.12C169.08,707.98,168.13,707.29,168.13,705.54z"/>
			<path class="st3" d="M174.88,705.91h0.98c0.07,0.75,0.47,1.23,1.49,1.23c0.96,0,1.38-0.33,1.38-1.01c0-0.67-0.5-0.89-1.48-1.07
				c-1.65-0.3-2.21-0.77-2.21-1.87c0-1.18,1.15-1.79,2.15-1.79c1.14,0,2.12,0.46,2.29,1.83h-0.97c-0.15-0.69-0.53-1-1.34-1
				c-0.73,0-1.2,0.37-1.2,0.91c0,0.57,0.32,0.8,1.48,1.01c1.31,0.24,2.24,0.53,2.24,1.88c0,1.15-0.79,1.93-2.33,1.93
				C175.85,707.98,174.94,707.21,174.88,705.91z"/>
			<path class="st3" d="M188.44,699.52c0-0.36,0.3-0.67,0.67-0.67s0.67,0.3,0.67,0.67c0,0.37-0.3,0.67-0.67,0.67
				S188.44,699.89,188.44,699.52z M188.62,701.52h1.01v6.35h-1.01V701.52z"/>
			<path class="st3" d="M191.69,701.52h1.01v1.01c0.29-0.59,1-1.12,2.04-1.12c1.31,0,2.23,0.72,2.23,2.56v3.9h-1.01v-3.97
				c0-1.12-0.47-1.62-1.49-1.62c-0.94,0-1.77,0.59-1.77,1.74v3.85h-1.01V701.52z"/>
			<path class="st3" d="M205.84,704.76v-0.1c0-1.94,1.38-3.26,3.08-3.26c1.32,0,2.56,0.61,2.76,2.22h-1
				c-0.16-1.01-0.89-1.38-1.76-1.38c-1.15,0-2.04,0.92-2.04,2.42v0.1c0,1.55,0.85,2.38,2.08,2.38c0.9,0,1.71-0.52,1.82-1.55h0.93
				c-0.13,1.37-1.24,2.39-2.77,2.39C207.18,707.98,205.84,706.73,205.84,704.76z"/>
			<path class="st3" d="M212.76,704.76v-0.1c0-1.92,1.23-3.26,2.98-3.26c1.47,0,2.85,0.89,2.85,3.16v0.33h-4.79
				c0.05,1.45,0.74,2.25,2.04,2.25c0.98,0,1.55-0.36,1.69-1.11h1.01c-0.22,1.28-1.28,1.94-2.71,1.94
				C214.04,707.98,212.76,706.72,212.76,704.76z M217.56,704.08c-0.1-1.31-0.78-1.83-1.82-1.83c-1.03,0-1.72,0.71-1.89,1.83H217.56z
				"/>
			<path class="st3" d="M220.13,701.52h1.01v1.14c0.4-0.72,0.95-1.21,2.09-1.25v0.95c-1.28,0.06-2.09,0.46-2.09,2.03v3.49h-1.01
				V701.52z"/>
			<path class="st3" d="M224.22,704.76v-0.1c0-1.92,1.23-3.26,2.98-3.26c1.47,0,2.85,0.89,2.85,3.16v0.33h-4.79
				c0.05,1.45,0.74,2.25,2.04,2.25c0.98,0,1.55-0.36,1.69-1.11H230c-0.22,1.28-1.28,1.94-2.71,1.94
				C225.5,707.98,224.22,706.72,224.22,704.76z M229.02,704.08c-0.1-1.31-0.78-1.83-1.82-1.83c-1.03,0-1.72,0.71-1.89,1.83H229.02z"
				/>
			<path class="st3" d="M231.59,701.52h1.01v0.97c0.29-0.59,0.98-1.08,1.89-1.08c0.81,0,1.53,0.34,1.86,1.19
				c0.44-0.83,1.38-1.19,2.17-1.19c1.14,0,2.14,0.68,2.14,2.53v3.94h-1.01v-4.01c0-1.12-0.47-1.58-1.35-1.58
				c-0.83,0-1.68,0.56-1.68,1.7v3.89h-1.01v-4.01c0-1.12-0.47-1.58-1.35-1.58c-0.83,0-1.68,0.56-1.68,1.7v3.89h-1.01V701.52z"/>
			<path class="st3" d="M242.16,704.75v-0.1c0-1.91,1.32-3.24,3.12-3.24s3.12,1.32,3.12,3.23v0.1c0,1.92-1.32,3.24-3.13,3.24
				C243.46,707.98,242.16,706.61,242.16,704.75z M247.36,704.75v-0.08c0-1.47-0.81-2.42-2.08-2.42c-1.28,0-2.08,0.95-2.08,2.41v0.1
				c0,1.45,0.79,2.39,2.08,2.39C246.56,707.14,247.36,706.18,247.36,704.75z"/>
			<path class="st3" d="M249.97,701.52h1.01v1.01c0.29-0.59,1-1.12,2.04-1.12c1.31,0,2.23,0.72,2.23,2.56v3.9h-1.01v-3.97
				c0-1.12-0.47-1.62-1.49-1.62c-0.94,0-1.77,0.59-1.77,1.74v3.85h-1.01V701.52z"/>
			<path class="st3" d="M257.07,699.52c0-0.36,0.3-0.67,0.67-0.67s0.67,0.3,0.67,0.67c0,0.37-0.3,0.67-0.67,0.67
				S257.07,699.89,257.07,699.52z M257.25,701.52h1.01v6.35h-1.01V701.52z"/>
			<path class="st3" d="M259.85,704.76v-0.1c0-1.92,1.23-3.26,2.98-3.26c1.47,0,2.85,0.89,2.85,3.16v0.33h-4.79
				c0.05,1.45,0.74,2.25,2.04,2.25c0.98,0,1.55-0.36,1.69-1.11h1.01c-0.22,1.28-1.28,1.94-2.71,1.94
				C261.12,707.98,259.85,706.72,259.85,704.76z M264.64,704.08c-0.1-1.31-0.78-1.83-1.82-1.83c-1.03,0-1.72,0.71-1.89,1.83H264.64z
				"/>
			<path class="st3" d="M266.69,705.91h0.98c0.07,0.75,0.47,1.23,1.49,1.23c0.96,0,1.38-0.33,1.38-1.01c0-0.67-0.5-0.89-1.48-1.07
				c-1.65-0.3-2.21-0.77-2.21-1.87c0-1.18,1.15-1.79,2.15-1.79c1.14,0,2.12,0.46,2.29,1.83h-0.97c-0.15-0.69-0.53-1-1.34-1
				c-0.73,0-1.2,0.37-1.2,0.91c0,0.57,0.32,0.8,1.48,1.01c1.31,0.24,2.24,0.53,2.24,1.88c0,1.15-0.79,1.93-2.33,1.93
				C267.67,707.98,266.75,707.21,266.69,705.91z"/>
			<path class="st3" d="M272.46,709.02l1.17-2.66l0.98,0.46l-1.49,2.54L272.46,709.02z"/>
			<path class="st3" d="M138.07,713.05h1.02v9.39h-1.02V713.05z"/>
			<path class="st3" d="M140.68,719.33v-0.1c0-1.92,1.23-3.26,2.98-3.26c1.47,0,2.85,0.89,2.85,3.16v0.33h-4.79
				c0.05,1.45,0.74,2.25,2.04,2.25c0.98,0,1.55-0.36,1.69-1.11h1.01c-0.22,1.28-1.28,1.94-2.71,1.94
				C141.95,722.55,140.68,721.28,140.68,719.33z M145.48,718.65c-0.1-1.31-0.78-1.83-1.82-1.83c-1.03,0-1.72,0.71-1.89,1.83H145.48z
				"/>
			<path class="st3" d="M147.57,719.33v-0.1c0-1.94,1.38-3.26,3.08-3.26c1.32,0,2.56,0.61,2.76,2.22h-1
				c-0.16-1.01-0.89-1.38-1.76-1.38c-1.15,0-2.04,0.92-2.04,2.42v0.1c0,1.55,0.85,2.38,2.08,2.38c0.9,0,1.71-0.52,1.82-1.55h0.93
				c-0.13,1.37-1.24,2.39-2.77,2.39C148.91,722.55,147.57,721.29,147.57,719.33z"/>
			<path class="st3" d="M155.18,720.85v-3.91h-0.91v-0.85h0.91v-1.45h1.01v1.45h1.48v0.85h-1.48v3.81c0,0.62,0.28,0.92,0.79,0.92
				c0.32,0,0.56-0.05,0.78-0.13v0.85c-0.21,0.07-0.45,0.13-0.86,0.13C155.74,722.52,155.18,721.84,155.18,720.85z"/>
			<path class="st3" d="M159.22,720.1v-4.02h1.01v3.97c0,1.12,0.47,1.62,1.47,1.62c0.9,0,1.75-0.59,1.75-1.74v-3.85h1.01v6.35h-1.01
				v-1.01c-0.29,0.59-1,1.12-2.02,1.12C160.16,722.55,159.22,721.85,159.22,720.1z"/>
			<path class="st3" d="M166.49,716.08h1.01v1.14c0.4-0.72,0.95-1.21,2.09-1.25v0.95c-1.28,0.06-2.09,0.46-2.09,2.03v3.49h-1.01
				V716.08z"/>
			<path class="st3" d="M170.58,719.33v-0.1c0-1.92,1.23-3.26,2.98-3.26c1.47,0,2.85,0.89,2.85,3.16v0.33h-4.79
				c0.05,1.45,0.74,2.25,2.04,2.25c0.98,0,1.55-0.36,1.69-1.11h1.01c-0.22,1.28-1.28,1.94-2.71,1.94
				C171.85,722.55,170.58,721.28,170.58,719.33z M175.37,718.65c-0.1-1.31-0.78-1.83-1.82-1.83c-1.03,0-1.72,0.71-1.89,1.83H175.37z
				"/>
			<path class="st3" d="M177.42,720.48h0.98c0.07,0.75,0.47,1.23,1.49,1.23c0.96,0,1.38-0.33,1.38-1.01c0-0.67-0.5-0.89-1.48-1.07
				c-1.65-0.3-2.21-0.77-2.21-1.87c0-1.18,1.15-1.79,2.15-1.79c1.14,0,2.12,0.46,2.29,1.83h-0.97c-0.15-0.69-0.53-1-1.34-1
				c-0.73,0-1.2,0.37-1.2,0.91c0,0.57,0.32,0.8,1.48,1.01c1.31,0.24,2.24,0.53,2.24,1.88c0,1.15-0.79,1.93-2.33,1.93
				C178.39,722.55,177.48,721.78,177.42,720.48z"/>
			<path class="st3" d="M183.19,723.59l1.17-2.66l0.98,0.46l-1.49,2.54L183.19,723.59z"/>
			<path class="st3" d="M193.28,720.68c0-1.47,1.55-1.97,3.18-1.97h0.91v-0.46c0-1.01-0.39-1.43-1.36-1.43
				c-0.87,0-1.36,0.37-1.46,1.14h-1.01c0.13-1.45,1.29-1.98,2.51-1.98c1.21,0,2.32,0.5,2.32,2.27v4.19h-1.01v-0.8
				c-0.47,0.6-1.04,0.91-1.98,0.91C194.22,722.55,193.28,721.97,193.28,720.68z M197.37,720.21v-0.79h-0.87
				c-1.28,0-2.21,0.32-2.21,1.25c0,0.66,0.32,1.07,1.2,1.07C196.56,721.74,197.37,721.2,197.37,720.21z"/>
			<path class="st3" d="M200.36,716.08h1.01v1.01c0.29-0.59,1-1.12,2.04-1.12c1.31,0,2.23,0.72,2.23,2.56v3.9h-1.01v-3.97
				c0-1.12-0.47-1.62-1.49-1.62c-0.94,0-1.77,0.59-1.77,1.74v3.85h-1.01V716.08z"/>
			<path class="st3" d="M207.14,719.39v-0.1c0-1.94,1.21-3.32,2.96-3.32c1.06,0,1.71,0.51,2.08,1.13v-4.06h1.01v9.39h-1.01v-1.09
				c-0.36,0.62-1.25,1.2-2.17,1.2C208.34,722.55,207.14,721.37,207.14,719.39z M212.22,719.3v-0.1c0-1.63-0.78-2.39-2.02-2.39
				c-1.26,0-2.02,0.89-2.02,2.43v0.1c0,1.6,0.86,2.37,1.93,2.37C211.3,721.71,212.22,720.93,212.22,719.3z"/>
			<path class="st3" d="M221.36,719.33v-0.1c0-1.92,1.23-3.26,2.98-3.26c1.47,0,2.85,0.89,2.85,3.16v0.33h-4.79
				c0.05,1.45,0.74,2.25,2.04,2.25c0.98,0,1.55-0.36,1.69-1.11h1.01c-0.22,1.28-1.28,1.94-2.71,1.94
				C222.64,722.55,221.36,721.28,221.36,719.33z M226.16,718.65c-0.1-1.31-0.78-1.83-1.82-1.83c-1.03,0-1.72,0.71-1.89,1.83H226.16z
				"/>
			<path class="st3" d="M228.01,716.08h1.09l1.88,5.33l1.86-5.33h1.04l-2.28,6.35h-1.29L228.01,716.08z"/>
			<path class="st3" d="M234.74,719.33v-0.1c0-1.92,1.23-3.26,2.98-3.26c1.47,0,2.85,0.89,2.85,3.16v0.33h-4.79
				c0.05,1.45,0.74,2.25,2.04,2.25c0.98,0,1.55-0.36,1.69-1.11h1.01c-0.22,1.28-1.28,1.94-2.71,1.94
				C236.02,722.55,234.74,721.28,234.74,719.33z M239.54,718.65c-0.1-1.31-0.78-1.83-1.82-1.83c-1.03,0-1.72,0.71-1.89,1.83H239.54z
				"/>
			<path class="st3" d="M242.11,716.08h1.01v1.01c0.29-0.59,1-1.12,2.04-1.12c1.31,0,2.23,0.72,2.23,2.56v3.9h-1.01v-3.97
				c0-1.12-0.47-1.62-1.49-1.62c-0.94,0-1.77,0.59-1.77,1.74v3.85h-1.01V716.08z"/>
			<path class="st3" d="M249.59,720.85v-3.91h-0.91v-0.85h0.91v-1.45h1.01v1.45h1.48v0.85h-1.48v3.81c0,0.62,0.28,0.92,0.79,0.92
				c0.32,0,0.56-0.05,0.78-0.13v0.85c-0.21,0.07-0.45,0.13-0.86,0.13C250.14,722.52,249.59,721.84,249.59,720.85z"/>
			<path class="st3" d="M253.15,720.48h0.98c0.07,0.75,0.47,1.23,1.49,1.23c0.96,0,1.38-0.33,1.38-1.01c0-0.67-0.5-0.89-1.48-1.07
				c-1.65-0.3-2.21-0.77-2.21-1.87c0-1.18,1.15-1.79,2.15-1.79c1.14,0,2.12,0.46,2.29,1.83h-0.97c-0.15-0.69-0.53-1-1.34-1
				c-0.73,0-1.2,0.37-1.2,0.91c0,0.57,0.32,0.8,1.48,1.01c1.31,0.24,2.24,0.53,2.24,1.88c0,1.15-0.79,1.93-2.33,1.93
				C254.13,722.55,253.22,721.78,253.15,720.48z"/>
			<path class="st3" d="M265.95,714.09c0-0.36,0.3-0.67,0.67-0.67s0.67,0.3,0.67,0.67c0,0.37-0.3,0.67-0.67,0.67
				S265.95,714.46,265.95,714.09z M266.14,716.08h1.01v6.35h-1.01V716.08z"/>
			<path class="st3" d="M269.21,716.08h1.01v1.01c0.29-0.59,1-1.12,2.04-1.12c1.31,0,2.23,0.72,2.23,2.56v3.9h-1.01v-3.97
				c0-1.12-0.47-1.62-1.49-1.62c-0.94,0-1.77,0.59-1.77,1.74v3.85h-1.01V716.08z"/>
			<path class="st3" d="M148,733.88v-0.1c0-1.91,1.32-3.24,3.12-3.24s3.12,1.32,3.12,3.23v0.1c0,1.92-1.32,3.24-3.13,3.24
				S148,735.74,148,733.88z M153.2,733.88v-0.08c0-1.47-0.81-2.42-2.08-2.42c-1.28,0-2.08,0.95-2.08,2.41v0.1
				c0,1.45,0.79,2.39,2.08,2.39C152.4,736.27,153.2,735.31,153.2,733.88z"/>
			<path class="st3" d="M155.75,734.67v-4.02h1.01v3.97c0,1.12,0.47,1.62,1.47,1.62c0.9,0,1.75-0.59,1.75-1.74v-3.85h1.01V737h-1.01
				v-1.01c-0.29,0.59-1,1.12-2.02,1.12C156.69,737.11,155.75,736.42,155.75,734.67z"/>
			<path class="st3" d="M163.02,730.65h1.01v1.14c0.4-0.72,0.95-1.21,2.09-1.25v0.95c-1.28,0.06-2.09,0.46-2.09,2.03V737h-1.01
				V730.65z"/>
			<path class="st3" d="M170.28,735.05h0.98c0.07,0.75,0.47,1.23,1.49,1.23c0.96,0,1.38-0.33,1.38-1.01c0-0.67-0.5-0.89-1.48-1.07
				c-1.65-0.3-2.21-0.77-2.21-1.87c0-1.18,1.15-1.79,2.15-1.79c1.14,0,2.12,0.46,2.29,1.83h-0.97c-0.15-0.69-0.53-1-1.34-1
				c-0.73,0-1.2,0.37-1.2,0.91c0,0.57,0.32,0.8,1.48,1.01c1.31,0.24,2.24,0.53,2.24,1.88c0,1.15-0.79,1.93-2.33,1.93
				C171.25,737.11,170.34,736.35,170.28,735.05z"/>
			<path class="st3" d="M176.15,733.88v-0.1c0-1.91,1.32-3.24,3.12-3.24s3.12,1.32,3.12,3.23v0.1c0,1.92-1.32,3.24-3.13,3.24
				C177.45,737.11,176.15,735.74,176.15,733.88z M181.35,733.88v-0.08c0-1.47-0.81-2.42-2.08-2.42c-1.28,0-2.08,0.95-2.08,2.41v0.1
				c0,1.45,0.79,2.39,2.08,2.39C180.55,736.27,181.35,735.31,181.35,733.88z"/>
			<path class="st3" d="M183.48,733.89v-0.1c0-1.94,1.38-3.26,3.08-3.26c1.32,0,2.56,0.61,2.76,2.22h-1
				c-0.16-1.01-0.89-1.38-1.76-1.38c-1.15,0-2.04,0.92-2.04,2.42v0.1c0,1.55,0.85,2.38,2.08,2.38c0.9,0,1.71-0.52,1.82-1.55h0.93
				c-0.13,1.37-1.24,2.39-2.77,2.39C184.82,737.11,183.48,735.86,183.48,733.89z"/>
			<path class="st3" d="M190.72,728.66c0-0.36,0.3-0.67,0.67-0.67s0.67,0.3,0.67,0.67c0,0.37-0.3,0.67-0.67,0.67
				S190.72,729.02,190.72,728.66z M190.9,730.65h1.01V737h-1.01V730.65z"/>
			<path class="st3" d="M193.45,735.24c0-1.47,1.55-1.97,3.18-1.97h0.91v-0.46c0-1.01-0.39-1.43-1.36-1.43
				c-0.87,0-1.36,0.37-1.46,1.14h-1.01c0.13-1.45,1.29-1.98,2.51-1.98c1.21,0,2.32,0.5,2.32,2.27V737h-1.01v-0.8
				c-0.47,0.6-1.04,0.91-1.98,0.91C194.38,737.11,193.45,736.54,193.45,735.24z M197.54,734.78v-0.79h-0.87
				c-1.28,0-2.21,0.32-2.21,1.25c0,0.66,0.32,1.07,1.2,1.07C196.73,736.31,197.54,735.76,197.54,734.78z"/>
			<path class="st3" d="M200.55,727.61h1.02V737h-1.02V727.61z"/>
			<path class="st3" d="M206.17,730.65h1.09l1.48,5.11l1.54-5.11h0.87l1.45,5.11l1.49-5.11h1.03l-1.98,6.35h-1.12l-1.32-4.76
				l-1.48,4.76h-1.1L206.17,730.65z"/>
			<path class="st3" d="M216.01,733.89v-0.1c0-1.92,1.23-3.26,2.98-3.26c1.47,0,2.85,0.89,2.85,3.16v0.33h-4.79
				c0.05,1.45,0.74,2.25,2.04,2.25c0.98,0,1.55-0.36,1.69-1.11h1.01c-0.22,1.28-1.28,1.94-2.71,1.94
				C217.29,737.11,216.01,735.85,216.01,733.89z M220.81,733.21c-0.1-1.31-0.78-1.83-1.82-1.83c-1.03,0-1.72,0.71-1.89,1.83H220.81z
				"/>
			<path class="st3" d="M224.39,735.96V737h-1.01v-9.39h1.01v4.11c0.36-0.62,1.23-1.18,2.15-1.18c1.66,0,2.89,1.21,2.89,3.19v0.1
				c0,1.94-1.14,3.28-2.89,3.28C225.51,737.11,224.75,736.59,224.39,735.96z M228.38,733.88v-0.1c0-1.6-0.89-2.41-1.96-2.41
				c-1.18,0-2.08,0.78-2.08,2.41v0.1c0,1.63,0.85,2.39,2.09,2.39C227.71,736.27,228.38,735.42,228.38,733.88z"/>
			<path class="st3" d="M233.69,735.24c0-1.47,1.55-1.97,3.18-1.97h0.91v-0.46c0-1.01-0.39-1.43-1.36-1.43
				c-0.87,0-1.36,0.37-1.46,1.14h-1.01c0.13-1.45,1.29-1.98,2.51-1.98c1.21,0,2.32,0.5,2.32,2.27V737h-1.01v-0.8
				c-0.47,0.6-1.04,0.91-1.98,0.91C234.62,737.11,233.69,736.54,233.69,735.24z M237.78,734.78v-0.79h-0.87
				c-1.28,0-2.21,0.32-2.21,1.25c0,0.66,0.32,1.07,1.2,1.07C236.97,736.31,237.78,735.76,237.78,734.78z"/>
			<path class="st3" d="M240.76,730.65h1.01v1.14c0.4-0.72,0.95-1.21,2.09-1.25v0.95c-1.28,0.06-2.09,0.46-2.09,2.03V737h-1.01
				V730.65z"/>
			<path class="st3" d="M244.85,733.89v-0.1c0-1.92,1.23-3.26,2.98-3.26c1.47,0,2.85,0.89,2.85,3.16v0.33h-4.79
				c0.05,1.45,0.74,2.25,2.04,2.25c0.98,0,1.55-0.36,1.69-1.11h1.01c-0.22,1.28-1.28,1.94-2.71,1.94
				C246.13,737.11,244.85,735.85,244.85,733.89z M249.65,733.21c-0.1-1.31-0.78-1.83-1.82-1.83c-1.03,0-1.72,0.71-1.89,1.83H249.65z
				"/>
			<path class="st3" d="M252.22,730.65h1.01v1.01c0.29-0.59,1-1.12,2.04-1.12c1.31,0,2.23,0.72,2.23,2.56v3.9h-1.01v-3.97
				c0-1.12-0.47-1.62-1.49-1.62c-0.94,0-1.77,0.59-1.77,1.74V737h-1.01V730.65z"/>
			<path class="st3" d="M258.96,735.24c0-1.47,1.55-1.97,3.18-1.97h0.91v-0.46c0-1.01-0.39-1.43-1.36-1.43
				c-0.87,0-1.36,0.37-1.46,1.14h-1.01c0.13-1.45,1.29-1.98,2.51-1.98c1.21,0,2.32,0.5,2.32,2.27V737h-1.01v-0.8
				c-0.47,0.6-1.04,0.91-1.98,0.91C259.89,737.11,258.96,736.54,258.96,735.24z M263.05,734.78v-0.79h-0.87
				c-1.28,0-2.21,0.32-2.21,1.25c0,0.66,0.32,1.07,1.2,1.07C262.24,736.31,263.05,735.76,263.05,734.78z"/>
		</g>
	</g>
	<g>
		<pattern  id="SVGID_1_" xlink:href="#DASH_45_PROXIMA" patternTransform="matrix(1 0 0 1 -854 805)">
		</pattern>
		<polygon class="st4" points="251.12,397.54 213.96,434.7 200.61,434.7 163.45,397.54 163.45,384.18 200.61,347.02 213.96,347.02 
			251.12,384.18 		"/>
	</g>
	<g>
		<g>
			<g>
				<path class="st3" d="M52.8,517.48h2.19c1.7,0,2.9,0.64,2.9,2.37v0.05c0,1.75-1.18,2.44-2.88,2.44h-1.79v3.83H52.8V517.48z
					 M55.02,521.98c1.51,0,2.43-0.59,2.43-2.08v-0.05c0-1.51-1-2-2.45-2h-1.77v4.13H55.02z"/>
				<path class="st3" d="M59.58,517.48h2.22c1.7,0,2.9,0.63,2.9,2.27v0.05c0,1.45-0.94,2.11-2.31,2.26l2.82,4.11h-0.5l-2.79-4.07
					h-1.92v4.07h-0.43V517.48z M61.82,521.73c1.51,0,2.45-0.53,2.45-1.93v-0.05c0-1.42-1-1.91-2.45-1.91h-1.81v3.89H61.82z"/>
				<path class="st3" d="M66.26,521.88v-0.1c0-2.47,1.83-4.38,4.21-4.38c2.39,0,4.2,1.91,4.2,4.35v0.1c0,2.45-1.81,4.41-4.18,4.41
					C68.07,526.25,66.26,524.31,66.26,521.88z M74.22,521.84v-0.1c0-2.22-1.55-3.98-3.75-3.98c-2.21,0-3.77,1.74-3.77,4.02v0.1
					c0,2.26,1.63,4,3.79,4S74.22,524.14,74.22,521.84z"/>
				<path class="st3" d="M78.93,521.65l-2.79-4.17h0.49l2.59,3.85l2.58-3.85h0.46l-2.81,4.18l3.04,4.51h-0.49l-2.83-4.19l-2.85,4.19
					h-0.45L78.93,521.65z"/>
				<path class="st3" d="M84.23,517.48h0.44v8.68h-0.44V517.48z"/>
				<path class="st3" d="M87.01,517.48h0.64l3.3,7.88l3.37-7.88h0.64v8.68h-0.44V518l-3.5,8.16h-0.17L87.43,518v8.16h-0.41V517.48z"
					/>
				<path class="st3" d="M99.77,517.48h0.58l3.23,8.68h-0.44l-1.03-2.77H98l-1.02,2.77h-0.41L99.77,517.48z M98.13,523.03h3.85
					l-1.93-5.2L98.13,523.03z"/>
			</g>
		</g>
		<g>
			<g>
				<path class="st3" d="M124.82,581.71h2.37c1.48,0,2.53,0.68,2.53,2.17v0.05c0,1.06-0.62,1.69-1.59,1.91
					c1.34,0.21,2.03,0.92,2.03,2.14v0.05c0,1.55-1.01,2.37-2.6,2.37h-2.73V581.71z M127.22,585.7c1.35,0,2.07-0.64,2.07-1.77v-0.05
					c0-1.21-0.78-1.8-2.1-1.8h-1.93v3.62H127.22z M127.54,590.03c1.43,0,2.19-0.72,2.19-2v-0.05c0-1.28-0.86-1.93-2.47-1.93h-2.02
					v3.98H127.54z"/>
				<path class="st3" d="M132.01,581.71h4.93v0.36h-4.49v3.66h3.66v0.38h-3.66v3.91h4.71v0.38h-5.15V581.71z"/>
				<path class="st3" d="M138.36,586.11v-0.1c0-2.56,1.8-4.38,4.02-4.38c1.77,0,3.18,0.92,3.49,2.62h-0.44
					c-0.3-1.43-1.37-2.26-3.05-2.26c-2.04,0-3.57,1.65-3.57,4.01v0.1c0,2.42,1.4,4.01,3.58,4.01c1.65,0,2.87-0.91,3.18-2.44h0.4
					c-0.33,1.79-1.76,2.82-3.6,2.82C139.93,590.48,138.36,588.7,138.36,586.11z"/>
				<path class="st3" d="M150.11,581.71h0.58l3.23,8.68h-0.44l-1.03-2.77h-4.12l-1.02,2.77h-0.41L150.11,581.71z M148.47,587.27
					h3.85l-1.93-5.2L148.47,587.27z"/>
				<path class="st3" d="M154.77,588.01h0.42c0.17,1.14,0.9,2.1,2.73,2.1c1.53,0,2.42-0.86,2.42-2c0-1.35-0.67-1.77-2.47-2.04
					c-1.94-0.28-2.76-0.95-2.76-2.22c0-1.35,1.08-2.21,2.7-2.21c1.54,0,2.47,0.77,2.67,2.05h-0.41c-0.21-1.07-0.91-1.69-2.26-1.69
					c-1.42,0-2.27,0.64-2.27,1.82c0,1.02,0.57,1.58,2.39,1.85c1.97,0.29,2.84,0.8,2.84,2.43c0,1.32-1.07,2.39-2.85,2.39
					C155.9,590.48,154.95,589.39,154.77,588.01z"/>
			</g>
		</g>
		<g>
			<g>
				<path class="st3" d="M318.84,517.53h2.56l2.82,8.68h-2.05l-0.6-1.93h-3.15l-0.59,1.93h-1.85L318.84,517.53z M318.85,522.89h2.3
					l-1.14-3.75L318.85,522.89z"/>
				<path class="st3" d="M325.41,517.53h3.11c2.05,0,3.35,0.84,3.35,2.64v0.05c0,1.31-0.76,2-1.79,2.31l2.3,3.69h-2.09l-2.08-3.35
					h-0.85v3.35h-1.96V517.53z M328.47,521.53c0.98,0,1.48-0.41,1.48-1.25v-0.05c0-0.89-0.53-1.19-1.48-1.19h-1.11v2.49H328.47z"/>
				<path class="st3" d="M333.56,517.53h5.66v1.53h-3.71v2.03h2.96v1.43h-2.96v2.16h3.9v1.53h-5.85V517.53z"/>
				<path class="st3" d="M340.79,517.53h2.28l3.3,5.72v-5.72h1.75v8.68h-1.97l-3.62-6.18v6.18h-1.75V517.53z"/>
				<path class="st3" d="M352.16,517.53h2.56l2.82,8.68h-2.05l-0.6-1.93h-3.15l-0.59,1.93h-1.85L352.16,517.53z M352.17,522.89h2.3
					l-1.14-3.75L352.17,522.89z"/>
			</g>
		</g>
		<g>
			<g>
				<path class="st3" d="M256.01,582.08h-2.79v-0.36h6.04v0.36h-2.81v8.32h-0.44V582.08z"/>
				<path class="st3" d="M260.24,586.11v-0.1c0-2.47,1.83-4.38,4.21-4.38c2.39,0,4.2,1.91,4.2,4.35v0.1c0,2.45-1.81,4.41-4.18,4.41
					C262.05,590.48,260.24,588.54,260.24,586.11z M268.21,586.07v-0.1c0-2.22-1.55-3.98-3.75-3.98c-2.21,0-3.77,1.74-3.77,4.02v0.1
					c0,2.26,1.63,4,3.79,4S268.21,588.37,268.21,586.07z"/>
				<path class="st3" d="M270.24,587.33v-5.61h0.44v5.58c0,1.87,0.96,2.79,2.67,2.79c1.85,0,2.68-0.95,2.68-2.95v-5.42h0.44v5.48
					c0,2.05-1,3.27-3.12,3.27C271.43,590.46,270.24,589.38,270.24,587.33z"/>
				<path class="st3" d="M278.59,581.71h2.22c1.7,0,2.9,0.63,2.9,2.27v0.05c0,1.45-0.94,2.11-2.31,2.26l2.82,4.11h-0.5l-2.79-4.07
					h-1.92v4.07h-0.42V581.71z M280.83,585.97c1.51,0,2.45-0.53,2.45-1.93v-0.05c0-1.42-1-1.91-2.45-1.91h-1.81v3.89H280.83z"/>
				<path class="st3" d="M285.12,588.01h0.42c0.17,1.14,0.9,2.1,2.73,2.1c1.53,0,2.42-0.86,2.42-2c0-1.35-0.67-1.77-2.47-2.04
					c-1.94-0.28-2.76-0.95-2.76-2.22c0-1.35,1.08-2.21,2.7-2.21c1.54,0,2.47,0.77,2.67,2.05h-0.41c-0.21-1.07-0.91-1.69-2.26-1.69
					c-1.42,0-2.27,0.64-2.27,1.82c0,1.02,0.57,1.58,2.39,1.85c1.97,0.29,2.84,0.8,2.84,2.43c0,1.32-1.07,2.39-2.85,2.39
					C286.25,590.48,285.3,589.39,285.12,588.01z"/>
			</g>
		</g>
	</g>
</g>
</svg>
