<?xml version="1.0" encoding="utf-8"?>
<!-- Generator: Adobe Illustrator 24.2.0, SVG Export Plug-In . SVG Version: 6.00 Build 0)  -->
<svg version="1.1" xmlns="http://www.w3.org/2000/svg" xmlns:xlink="http://www.w3.org/1999/xlink" x="0px" y="0px"
	 viewBox="0 0 415 897" style="enable-background:new 0 0 415 897;" xml:space="preserve">
<style type="text/css">
	.st0{fill:none;}
	.st1{fill:none;stroke:#FAB906;stroke-width:3.5433;stroke-miterlimit:10;}
	.st2{fill:url(#SVGID_1_);}
	.st3{fill:none;stroke:#1D1E1B;stroke-width:0.9921;stroke-miterlimit:10;}
	.st4{fill:#1D1D1B;}
	.st5{fill:#FAB900;}
	.st6{fill-rule:evenodd;clip-rule:evenodd;fill:#FAB900;}
	.st7{fill-rule:evenodd;clip-rule:evenodd;fill:#1D1D1B;}
	.st8{fill:#FFFFFF;}
</style>
<pattern  y="897" width="128" height="128" patternUnits="userSpaceOnUse" id="SVGID_8_" viewBox="129.3 -257.3 128 128" style="overflow:visible;">
	<g>
		<rect x="129.3" y="-257.3" class="st0" width="128" height="128"/>
		<g>
			<rect x="129.3" y="-257.3" class="st0" width="128" height="128"/>
			<g>
				<rect x="129.3" y="-257.3" class="st0" width="128" height="128"/>
				<g>
					<line class="st1" x1="257.3" y1="-1.3" x2="385.3" y2="-129.3"/>
					<line class="st1" x1="150.6" y1="-1.3" x2="278.6" y2="-129.3"/>
					<line class="st1" x1="171.9" y1="-1.3" x2="299.9" y2="-129.3"/>
					<line class="st1" x1="193.3" y1="-1.3" x2="321.3" y2="-129.3"/>
					<line class="st1" x1="214.6" y1="-1.3" x2="342.6" y2="-129.3"/>
					<line class="st1" x1="235.9" y1="-1.3" x2="363.9" y2="-129.3"/>
					<line class="st1" x1="246.6" y1="-1.3" x2="374.6" y2="-129.3"/>
					<line class="st1" x1="139.9" y1="-1.3" x2="267.9" y2="-129.3"/>
					<line class="st1" x1="161.3" y1="-1.3" x2="289.3" y2="-129.3"/>
					<line class="st1" x1="182.6" y1="-1.3" x2="310.6" y2="-129.3"/>
					<line class="st1" x1="203.9" y1="-1.3" x2="331.9" y2="-129.3"/>
					<line class="st1" x1="225.3" y1="-1.3" x2="353.3" y2="-129.3"/>
				</g>
				<g>
					<line class="st1" x1="129.3" y1="-1.3" x2="257.3" y2="-129.3"/>
					<line class="st1" x1="22.6" y1="-1.3" x2="150.6" y2="-129.3"/>
					<line class="st1" x1="43.9" y1="-1.3" x2="171.9" y2="-129.3"/>
					<line class="st1" x1="65.3" y1="-1.3" x2="193.3" y2="-129.3"/>
					<line class="st1" x1="86.6" y1="-1.3" x2="214.6" y2="-129.3"/>
					<line class="st1" x1="107.9" y1="-1.3" x2="235.9" y2="-129.3"/>
					<line class="st1" x1="150.6" y1="-1.3" x2="278.6" y2="-129.3"/>
					<line class="st1" x1="171.9" y1="-1.3" x2="299.9" y2="-129.3"/>
					<line class="st1" x1="193.3" y1="-1.3" x2="321.3" y2="-129.3"/>
					<line class="st1" x1="214.6" y1="-1.3" x2="342.6" y2="-129.3"/>
					<line class="st1" x1="235.9" y1="-1.3" x2="363.9" y2="-129.3"/>
					<line class="st1" x1="246.6" y1="-1.3" x2="374.6" y2="-129.3"/>
					<line class="st1" x1="118.6" y1="-1.3" x2="246.6" y2="-129.3"/>
					<line class="st1" x1="11.9" y1="-1.3" x2="139.9" y2="-129.3"/>
					<line class="st1" x1="33.3" y1="-1.3" x2="161.3" y2="-129.3"/>
					<line class="st1" x1="54.6" y1="-1.3" x2="182.6" y2="-129.3"/>
					<line class="st1" x1="75.9" y1="-1.3" x2="203.9" y2="-129.3"/>
					<line class="st1" x1="97.3" y1="-1.3" x2="225.3" y2="-129.3"/>
					<line class="st1" x1="139.9" y1="-1.3" x2="267.9" y2="-129.3"/>
					<line class="st1" x1="161.3" y1="-1.3" x2="289.3" y2="-129.3"/>
					<line class="st1" x1="182.6" y1="-1.3" x2="310.6" y2="-129.3"/>
					<line class="st1" x1="203.9" y1="-1.3" x2="331.9" y2="-129.3"/>
					<line class="st1" x1="225.3" y1="-1.3" x2="353.3" y2="-129.3"/>
				</g>
				<g>
					<line class="st1" x1="1.3" y1="-1.3" x2="129.3" y2="-129.3"/>
					<line class="st1" x1="22.6" y1="-1.3" x2="150.6" y2="-129.3"/>
					<line class="st1" x1="43.9" y1="-1.3" x2="171.9" y2="-129.3"/>
					<line class="st1" x1="65.3" y1="-1.3" x2="193.3" y2="-129.3"/>
					<line class="st1" x1="86.6" y1="-1.3" x2="214.6" y2="-129.3"/>
					<line class="st1" x1="107.9" y1="-1.3" x2="235.9" y2="-129.3"/>
					<line class="st1" x1="118.6" y1="-1.3" x2="246.6" y2="-129.3"/>
					<line class="st1" x1="11.9" y1="-1.3" x2="139.9" y2="-129.3"/>
					<line class="st1" x1="33.3" y1="-1.3" x2="161.3" y2="-129.3"/>
					<line class="st1" x1="54.6" y1="-1.3" x2="182.6" y2="-129.3"/>
					<line class="st1" x1="75.9" y1="-1.3" x2="203.9" y2="-129.3"/>
					<line class="st1" x1="97.3" y1="-1.3" x2="225.3" y2="-129.3"/>
				</g>
				<g>
					<line class="st1" x1="257.3" y1="-129.3" x2="385.3" y2="-257.3"/>
					<line class="st1" x1="150.6" y1="-129.3" x2="278.6" y2="-257.3"/>
					<line class="st1" x1="171.9" y1="-129.3" x2="299.9" y2="-257.3"/>
					<line class="st1" x1="193.3" y1="-129.3" x2="321.3" y2="-257.3"/>
					<line class="st1" x1="214.6" y1="-129.3" x2="342.6" y2="-257.3"/>
					<line class="st1" x1="235.9" y1="-129.3" x2="363.9" y2="-257.3"/>
					<line class="st1" x1="246.6" y1="-129.3" x2="374.6" y2="-257.3"/>
					<line class="st1" x1="139.9" y1="-129.3" x2="267.9" y2="-257.3"/>
					<line class="st1" x1="161.3" y1="-129.3" x2="289.3" y2="-257.3"/>
					<line class="st1" x1="182.6" y1="-129.3" x2="310.6" y2="-257.3"/>
					<line class="st1" x1="203.9" y1="-129.3" x2="331.9" y2="-257.3"/>
					<line class="st1" x1="225.3" y1="-129.3" x2="353.3" y2="-257.3"/>
				</g>
				<g>
					<line class="st1" x1="129.3" y1="-129.3" x2="257.3" y2="-257.3"/>
					<line class="st1" x1="22.6" y1="-129.3" x2="150.6" y2="-257.3"/>
					<line class="st1" x1="43.9" y1="-129.3" x2="171.9" y2="-257.3"/>
					<line class="st1" x1="65.3" y1="-129.3" x2="193.3" y2="-257.3"/>
					<line class="st1" x1="86.6" y1="-129.3" x2="214.6" y2="-257.3"/>
					<line class="st1" x1="107.9" y1="-129.3" x2="235.9" y2="-257.3"/>
					<line class="st1" x1="150.6" y1="-129.3" x2="278.6" y2="-257.3"/>
					<line class="st1" x1="171.9" y1="-129.3" x2="299.9" y2="-257.3"/>
					<line class="st1" x1="193.3" y1="-129.3" x2="321.3" y2="-257.3"/>
					<line class="st1" x1="214.6" y1="-129.3" x2="342.6" y2="-257.3"/>
					<line class="st1" x1="235.9" y1="-129.3" x2="363.9" y2="-257.3"/>
					<line class="st1" x1="246.6" y1="-129.3" x2="374.6" y2="-257.3"/>
					<line class="st1" x1="118.6" y1="-129.3" x2="246.6" y2="-257.3"/>
					<line class="st1" x1="11.9" y1="-129.3" x2="139.9" y2="-257.3"/>
					<line class="st1" x1="33.3" y1="-129.3" x2="161.3" y2="-257.3"/>
					<line class="st1" x1="54.6" y1="-129.3" x2="182.6" y2="-257.3"/>
					<line class="st1" x1="75.9" y1="-129.3" x2="203.9" y2="-257.3"/>
					<line class="st1" x1="97.3" y1="-129.3" x2="225.3" y2="-257.3"/>
					<line class="st1" x1="139.9" y1="-129.3" x2="267.9" y2="-257.3"/>
					<line class="st1" x1="161.3" y1="-129.3" x2="289.3" y2="-257.3"/>
					<line class="st1" x1="182.6" y1="-129.3" x2="310.6" y2="-257.3"/>
					<line class="st1" x1="203.9" y1="-129.3" x2="331.9" y2="-257.3"/>
					<line class="st1" x1="225.3" y1="-129.3" x2="353.3" y2="-257.3"/>
				</g>
				<g>
					<line class="st1" x1="1.3" y1="-129.3" x2="129.3" y2="-257.3"/>
					<line class="st1" x1="22.6" y1="-129.3" x2="150.6" y2="-257.3"/>
					<line class="st1" x1="43.9" y1="-129.3" x2="171.9" y2="-257.3"/>
					<line class="st1" x1="65.3" y1="-129.3" x2="193.3" y2="-257.3"/>
					<line class="st1" x1="86.6" y1="-129.3" x2="214.6" y2="-257.3"/>
					<line class="st1" x1="107.9" y1="-129.3" x2="235.9" y2="-257.3"/>
					<line class="st1" x1="118.6" y1="-129.3" x2="246.6" y2="-257.3"/>
					<line class="st1" x1="11.9" y1="-129.3" x2="139.9" y2="-257.3"/>
					<line class="st1" x1="33.3" y1="-129.3" x2="161.3" y2="-257.3"/>
					<line class="st1" x1="54.6" y1="-129.3" x2="182.6" y2="-257.3"/>
					<line class="st1" x1="75.9" y1="-129.3" x2="203.9" y2="-257.3"/>
					<line class="st1" x1="97.3" y1="-129.3" x2="225.3" y2="-257.3"/>
				</g>
				<g>
					<line class="st1" x1="257.3" y1="-257.3" x2="385.3" y2="-385.3"/>
					<line class="st1" x1="150.6" y1="-257.3" x2="278.6" y2="-385.3"/>
					<line class="st1" x1="171.9" y1="-257.3" x2="299.9" y2="-385.3"/>
					<line class="st1" x1="193.3" y1="-257.3" x2="321.3" y2="-385.3"/>
					<line class="st1" x1="214.6" y1="-257.3" x2="342.6" y2="-385.3"/>
					<line class="st1" x1="235.9" y1="-257.3" x2="363.9" y2="-385.3"/>
					<line class="st1" x1="246.6" y1="-257.3" x2="374.6" y2="-385.3"/>
					<line class="st1" x1="139.9" y1="-257.3" x2="267.9" y2="-385.3"/>
					<line class="st1" x1="161.3" y1="-257.3" x2="289.3" y2="-385.3"/>
					<line class="st1" x1="182.6" y1="-257.3" x2="310.6" y2="-385.3"/>
					<line class="st1" x1="203.9" y1="-257.3" x2="331.9" y2="-385.3"/>
					<line class="st1" x1="225.3" y1="-257.3" x2="353.3" y2="-385.3"/>
				</g>
				<g>
					<line class="st1" x1="129.3" y1="-257.3" x2="257.3" y2="-385.3"/>
					<line class="st1" x1="22.6" y1="-257.3" x2="150.6" y2="-385.3"/>
					<line class="st1" x1="43.9" y1="-257.3" x2="171.9" y2="-385.3"/>
					<line class="st1" x1="65.3" y1="-257.3" x2="193.3" y2="-385.3"/>
					<line class="st1" x1="86.6" y1="-257.3" x2="214.6" y2="-385.3"/>
					<line class="st1" x1="107.9" y1="-257.3" x2="235.9" y2="-385.3"/>
					<line class="st1" x1="150.6" y1="-257.3" x2="278.6" y2="-385.3"/>
					<line class="st1" x1="171.9" y1="-257.3" x2="299.9" y2="-385.3"/>
					<line class="st1" x1="193.3" y1="-257.3" x2="321.3" y2="-385.3"/>
					<line class="st1" x1="214.6" y1="-257.3" x2="342.6" y2="-385.3"/>
					<line class="st1" x1="235.9" y1="-257.3" x2="363.9" y2="-385.3"/>
					<line class="st1" x1="246.6" y1="-257.3" x2="374.6" y2="-385.3"/>
					<line class="st1" x1="118.6" y1="-257.3" x2="246.6" y2="-385.3"/>
					<line class="st1" x1="11.9" y1="-257.3" x2="139.9" y2="-385.3"/>
					<line class="st1" x1="33.3" y1="-257.3" x2="161.3" y2="-385.3"/>
					<line class="st1" x1="54.6" y1="-257.3" x2="182.6" y2="-385.3"/>
					<line class="st1" x1="75.9" y1="-257.3" x2="203.9" y2="-385.3"/>
					<line class="st1" x1="97.3" y1="-257.3" x2="225.3" y2="-385.3"/>
					<line class="st1" x1="139.9" y1="-257.3" x2="267.9" y2="-385.3"/>
					<line class="st1" x1="161.3" y1="-257.3" x2="289.3" y2="-385.3"/>
					<line class="st1" x1="182.6" y1="-257.3" x2="310.6" y2="-385.3"/>
					<line class="st1" x1="203.9" y1="-257.3" x2="331.9" y2="-385.3"/>
					<line class="st1" x1="225.3" y1="-257.3" x2="353.3" y2="-385.3"/>
				</g>
				<g>
					<line class="st1" x1="1.3" y1="-257.3" x2="129.3" y2="-385.3"/>
					<line class="st1" x1="22.6" y1="-257.3" x2="150.6" y2="-385.3"/>
					<line class="st1" x1="43.9" y1="-257.3" x2="171.9" y2="-385.3"/>
					<line class="st1" x1="65.3" y1="-257.3" x2="193.3" y2="-385.3"/>
					<line class="st1" x1="86.6" y1="-257.3" x2="214.6" y2="-385.3"/>
					<line class="st1" x1="107.9" y1="-257.3" x2="235.9" y2="-385.3"/>
					<line class="st1" x1="118.6" y1="-257.3" x2="246.6" y2="-385.3"/>
					<line class="st1" x1="11.9" y1="-257.3" x2="139.9" y2="-385.3"/>
					<line class="st1" x1="33.3" y1="-257.3" x2="161.3" y2="-385.3"/>
					<line class="st1" x1="54.6" y1="-257.3" x2="182.6" y2="-385.3"/>
					<line class="st1" x1="75.9" y1="-257.3" x2="203.9" y2="-385.3"/>
					<line class="st1" x1="97.3" y1="-257.3" x2="225.3" y2="-385.3"/>
				</g>
			</g>
		</g>
	</g>
</pattern>
<g id="Layer_1">
	<g id="Layer_2_1_">
		<g id="Layer_2_2_">
			<g id="PROX_DASH_2_">
				<g>
					<pattern  id="SVGID_1_" xlink:href="#SVGID_8_" patternTransform="matrix(1 0 0 1 -1.89 17519.457)">
					</pattern>
					<polygon class="st2" points="250.9,397.1 213.7,434.3 200.3,434.3 163.2,397.1 163.2,383.7 200.3,346.6 213.7,346.6 
						250.9,383.7 					"/>
				</g>
			</g>
		</g>
		<g id="HIGHLIGHT_9_">
			<polygon class="st3" points="251.2,397.6 213.7,435.1 200.3,435.1 162.8,397.6 162.8,384.1 200.3,346.6 213.7,346.6 251.2,384.1 
							"/>
			<g>
				<polygon class="st3" points="120.6,397.6 83.1,435.1 69.6,435.1 32.1,397.6 32.1,384.1 69.6,346.6 83.1,346.6 120.6,384.1 				
					"/>
				<polygon class="st3" points="381.9,397.6 344.4,435.1 330.9,435.1 293.4,397.6 293.4,384.1 330.9,346.6 344.4,346.6 
					381.9,384.1 				"/>
			</g>
			<g>
				<polygon class="st3" points="213.7,477.3 251.2,514.8 251.2,528.2 213.7,565.7 200.3,565.7 162.8,528.2 162.8,514.8 
					200.3,477.3 				"/>
				<polygon class="st3" points="213.7,216 251.2,253.5 251.2,267 213.7,304.5 200.3,304.5 162.8,267 162.8,253.5 200.3,216 				"/>
			</g>
			<g>
				<polygon class="st3" points="185.9,332.3 148.4,369.8 134.9,369.8 97.4,332.3 97.4,318.8 134.9,281.3 148.4,281.3 185.9,318.8 
									"/>
				<polygon class="st3" points="185.9,462.9 148.4,500.4 134.9,500.4 97.4,462.9 97.4,449.5 134.9,412 148.4,412 185.9,449.5 				
					"/>
				<polygon class="st3" points="316.5,332.3 279.1,369.8 265.6,369.8 228.1,332.3 228.1,318.8 265.6,281.3 279.1,281.3 
					316.5,318.8 				"/>
				<polygon class="st3" points="316.5,462.9 279.1,500.4 265.6,500.4 228.1,462.9 228.1,449.5 265.6,412 279.1,412 316.5,449.5 
									"/>
			</g>
		</g>
	</g>
	<g id="Layer_3">
		<g>
			<path class="st4" d="M52.6,120h1.7l2.4,7.1h-1.4l-0.6-1.8H52l-0.6,1.8h-1.2L52.6,120z M52.3,124.4h2.1l-1-3.3L52.3,124.4z"/>
			<path class="st4" d="M57.1,124.6L57.1,124.6c0-1.7,1.2-2.8,2.6-2.8c1.2,0,2.2,0.5,2.4,2H61c-0.1-0.7-0.6-1-1.2-1
				c-0.8,0-1.4,0.6-1.4,1.7v0.1c0,1.1,0.6,1.7,1.4,1.7c0.6,0,1.2-0.4,1.3-1.1h1.1c-0.1,1.2-1,2-2.4,2
				C58.3,127.3,57.1,126.3,57.1,124.6z"/>
			<path class="st4" d="M62.9,124.6L62.9,124.6c0-1.7,1.1-2.8,2.6-2.8c1.3,0,2.5,0.8,2.5,2.6v0.4h-3.8c0,1,0.5,1.5,1.4,1.5
				c0.7,0,1.1-0.3,1.2-0.8H68c-0.2,1.1-1.1,1.7-2.4,1.7C64,127.3,62.9,126.3,62.9,124.6z M66.8,124c-0.1-0.9-0.5-1.3-1.3-1.3
				c-0.7,0-1.2,0.5-1.3,1.3H66.8z"/>
			<path class="st4" d="M69,122h1.2v1c0.3-0.7,0.8-1,1.7-1.1v1.1c-1.1,0-1.7,0.3-1.7,1.5v2.7H69V122z"/>
			<path class="st4" d="M72.6,124.6L72.6,124.6c0-1.7,1.2-2.8,2.6-2.8c1.2,0,2.2,0.5,2.4,2h-1.2c-0.1-0.7-0.6-1-1.2-1
				c-0.8,0-1.4,0.6-1.4,1.7v0.1c0,1.1,0.6,1.7,1.4,1.7c0.6,0,1.2-0.4,1.3-1.1h1.1c-0.1,1.2-1,2-2.4,2
				C73.7,127.3,72.6,126.3,72.6,124.6z"/>
			<path class="st4" d="M78.3,125.7c0-1.2,1.2-1.7,2.7-1.7h0.6v-0.3c0-0.7-0.2-1-0.9-1c-0.6,0-0.9,0.3-1,0.8h-1.2
				c0.1-1.2,1.1-1.7,2.2-1.7s2.1,0.5,2.1,1.9v3.4h-1.2v-0.6c-0.3,0.4-0.8,0.7-1.6,0.7C79.1,127.3,78.3,126.8,78.3,125.7z
				 M81.6,125.4v-0.5H81c-0.9,0-1.5,0.2-1.5,0.8c0,0.4,0.2,0.7,0.8,0.7C81.1,126.4,81.6,126,81.6,125.4z"/>
			<path class="st4" d="M86.3,124.7L86.3,124.7c0-1.7,1-2.8,2.3-2.8c0.8,0,1.4,0.4,1.7,0.9v-3.2h1.2v7.6h-1.2v-0.9
				c-0.3,0.5-0.9,1-1.7,1C87.2,127.3,86.3,126.4,86.3,124.7z M90.3,124.6L90.3,124.6c0-1.2-0.5-1.8-1.4-1.8s-1.4,0.6-1.4,1.7v0.1
				c0,1.1,0.6,1.7,1.4,1.7C89.7,126.3,90.3,125.8,90.3,124.6z"/>
			<path class="st4" d="M92.6,124.6L92.6,124.6c0-1.7,1.1-2.8,2.6-2.8c1.3,0,2.5,0.8,2.5,2.6v0.4h-3.8c0,1,0.5,1.5,1.4,1.5
				c0.7,0,1.1-0.3,1.2-0.8h1.2c-0.2,1.1-1.1,1.7-2.4,1.7C93.7,127.3,92.6,126.3,92.6,124.6z M96.4,124c-0.1-0.9-0.5-1.3-1.3-1.3
				c-0.7,0-1.2,0.5-1.3,1.3H96.4z"/>
			<path class="st4" d="M98.8,119.5h1.2v7.6h-1.2V119.5z"/>
			<path class="st4" d="M58,132h4.4v1.1h-3.1v2.1h2.4v1h-2.4v2.9H58V132z"/>
			<path class="st4" d="M62.9,136.6L62.9,136.6c0-1.7,1.1-2.8,2.6-2.8c1.3,0,2.5,0.8,2.5,2.6v0.4h-3.8c0,1,0.5,1.5,1.4,1.5
				c0.7,0,1.1-0.3,1.2-0.8H68c-0.2,1.1-1.1,1.7-2.4,1.7C64,139.3,62.9,138.3,62.9,136.6z M66.8,136c-0.1-0.9-0.5-1.3-1.3-1.3
				c-0.7,0-1.2,0.5-1.3,1.3H66.8z"/>
			<path class="st4" d="M68.7,137.6h1.1c0.1,0.5,0.3,0.8,1,0.8c0.6,0,0.9-0.2,0.9-0.7c0-0.4-0.3-0.6-1.1-0.7
				c-1.4-0.2-1.9-0.6-1.9-1.6s1-1.6,2-1.6c1.1,0,1.9,0.4,2,1.6h-1.1c-0.1-0.5-0.4-0.7-0.9-0.7s-0.8,0.2-0.8,0.6
				c0,0.4,0.2,0.5,1.1,0.7c1.2,0.2,2,0.5,2,1.6s-0.8,1.7-2.1,1.7C69.5,139.3,68.7,138.7,68.7,137.6z"/>
			<path class="st4" d="M74.2,137.7v-2.9h-0.7V134h0.7v-1.1h1.2v1.1h1.1v0.9h-1.1v2.7c0,0.5,0.2,0.7,0.6,0.7c0.2,0,0.4,0,0.6-0.1v1
				c-0.2,0.1-0.4,0.1-0.8,0.1C74.8,139.3,74.2,138.7,74.2,137.7z"/>
			<path class="st4" d="M77.6,132.4c0-0.4,0.3-0.7,0.7-0.7s0.7,0.3,0.7,0.7s-0.3,0.7-0.7,0.7S77.6,132.8,77.6,132.4z M77.7,134H79
				v5.2h-1.2V134H77.7z"/>
			<path class="st4" d="M79.9,134h1.3l1.4,4l1.3-4h1.2l-1.9,5.2h-1.4L79.9,134z"/>
			<path class="st4" d="M85.5,137.7c0-1.2,1.2-1.7,2.7-1.7h0.6v-0.3c0-0.7-0.2-1-0.9-1c-0.6,0-0.9,0.3-1,0.8h-1.2
				c0.1-1.2,1.1-1.7,2.2-1.7s2.1,0.5,2.1,1.9v3.4h-1.2v-0.6c-0.3,0.4-0.8,0.7-1.6,0.7C86.3,139.3,85.5,138.8,85.5,137.7z
				 M88.8,137.4v-0.5h-0.6c-0.9,0-1.5,0.2-1.5,0.8c0,0.4,0.2,0.7,0.8,0.7C88.3,138.4,88.8,138,88.8,137.4z"/>
			<path class="st4" d="M91.5,131.5h1.2v7.6h-1.2V131.5z"/>
		</g>
		<g>
			<path class="st4" d="M315.5,120.3h4.5v1h-3.1v2h2.5v1h-2.5v2.1h3.3v1h-4.6L315.5,120.3L315.5,120.3z"/>
			<path class="st4" d="M320.9,125L320.9,125c0-1.7,1-2.8,2.3-2.8c0.8,0,1.4,0.4,1.7,0.9v-3.2h1.2v7.6h-1.2v-0.9
				c-0.3,0.5-0.9,1-1.7,1C321.9,127.6,320.9,126.7,320.9,125z M325,124.9L325,124.9c0-1.2-0.5-1.8-1.4-1.8s-1.4,0.6-1.4,1.7v0.1
				c0,1.1,0.6,1.7,1.4,1.7C324.3,126.6,325,126.1,325,124.9z"/>
			<path class="st4" d="M327.5,120.7c0-0.4,0.3-0.7,0.7-0.7s0.7,0.3,0.7,0.7c0,0.4-0.3,0.7-0.7,0.7S327.5,121.1,327.5,120.7z
				 M327.6,122.3h1.2v5.2h-1.2V122.3z"/>
			<path class="st4" d="M329.9,124.9L329.9,124.9c0-1.7,1.2-2.8,2.6-2.8c1.2,0,2.2,0.5,2.4,2h-1.2c-0.1-0.7-0.6-1-1.2-1
				c-0.8,0-1.4,0.6-1.4,1.7v0.1c0,1.1,0.6,1.7,1.4,1.7c0.6,0,1.2-0.4,1.3-1.1h1.1c-0.1,1.2-1,2-2.4,2
				C331.1,127.6,329.9,126.6,329.9,124.9z"/>
			<path class="st4" d="M335.9,120.7c0-0.4,0.3-0.7,0.7-0.7s0.7,0.3,0.7,0.7c0,0.4-0.3,0.7-0.7,0.7S335.9,121.1,335.9,120.7z
				 M336.1,122.3h1.2v5.2h-1.2V122.3z"/>
			<path class="st4" d="M338.4,124.9L338.4,124.9c0-1.7,1.1-2.8,2.7-2.8c1.5,0,2.7,1.1,2.7,2.7v0.1c0,1.6-1.1,2.7-2.7,2.7
				S338.4,126.5,338.4,124.9z M342.5,124.9L342.5,124.9c0-1.1-0.5-1.8-1.4-1.8s-1.4,0.6-1.4,1.7v0.1c0,1.1,0.5,1.7,1.4,1.7
				C342,126.7,342.5,126,342.5,124.9z"/>
			<path class="st4" d="M344.8,122.3h1.2v0.8c0.2-0.5,0.8-0.9,1.7-0.9c1,0,1.8,0.6,1.8,2v3.3h-1.2v-3.2c0-0.8-0.3-1.1-1-1.1
				s-1.2,0.4-1.2,1.2v3.1h-1.2L344.8,122.3L344.8,122.3z"/>
			<path class="st4" d="M350.6,124.9L350.6,124.9c0-1.7,1.1-2.8,2.6-2.8c1.3,0,2.5,0.8,2.5,2.6v0.4h-3.8c0,1,0.5,1.5,1.4,1.5
				c0.7,0,1.1-0.3,1.2-0.8h1.2c-0.2,1.1-1.1,1.7-2.4,1.7C351.7,127.6,350.6,126.6,350.6,124.9z M354.4,124.3
				c-0.1-0.9-0.5-1.3-1.3-1.3c-0.7,0-1.2,0.5-1.3,1.3H354.4z"/>
			<path class="st4" d="M356.4,125.9h1.1c0.1,0.5,0.3,0.8,1,0.8c0.6,0,0.9-0.2,0.9-0.7c0-0.4-0.3-0.6-1.1-0.7
				c-1.4-0.2-1.9-0.6-1.9-1.6s1-1.6,2-1.6c1.1,0,1.9,0.4,2,1.6h-1.1c-0.1-0.5-0.4-0.7-0.9-0.7s-0.8,0.2-0.8,0.6s0.2,0.5,1.1,0.7
				c1.2,0.2,2,0.5,2,1.6s-0.8,1.7-2.1,1.7C357.2,127.6,356.4,127,356.4,125.9z"/>
			<path class="st4" d="M321.2,134.3h1.2v0.8c0.3-0.5,0.9-0.9,1.7-0.9c1.3,0,2.3,1,2.3,2.7v0.1c0,1.7-1,2.7-2.3,2.7
				c-0.8,0-1.4-0.4-1.7-0.9v2.6h-1.2V134.3z M325.2,136.9L325.2,136.9c0-1.2-0.6-1.8-1.4-1.8s-1.4,0.6-1.4,1.7v0.1
				c0,1.2,0.6,1.7,1.4,1.7C324.7,138.6,325.2,138,325.2,136.9z"/>
			<path class="st4" d="M327.5,134.3h1.2v1c0.3-0.7,0.8-1,1.7-1.1v1.1c-1.1,0-1.7,0.3-1.7,1.5v2.7h-1.2V134.3z"/>
			<path class="st4" d="M331.1,136.9L331.1,136.9c0-1.7,1.1-2.8,2.6-2.8c1.3,0,2.5,0.8,2.5,2.6v0.4h-3.8c0,1,0.5,1.5,1.4,1.5
				c0.7,0,1.1-0.3,1.2-0.8h1.2c-0.2,1.1-1.1,1.7-2.4,1.7C332.2,139.6,331.1,138.6,331.1,136.9z M334.9,136.3
				c-0.1-0.9-0.5-1.3-1.3-1.3c-0.7,0-1.2,0.5-1.3,1.3H334.9z"/>
			<path class="st4" d="M336.6,134.3h1.3l1.4,4l1.3-4h1.2l-1.9,5.2h-1.4L336.6,134.3z"/>
			<path class="st4" d="M342.6,132.7c0-0.4,0.3-0.7,0.7-0.7c0.4,0,0.7,0.3,0.7,0.7s-0.3,0.7-0.7,0.7S342.6,133.1,342.6,132.7z
				 M342.7,134.3h1.2v5.2h-1.2V134.3z"/>
			<path class="st4" d="M345,138c0-1.2,1.2-1.7,2.7-1.7h0.6V136c0-0.7-0.2-1-0.9-1c-0.6,0-0.9,0.3-1,0.8h-1.2
				c0.1-1.2,1.1-1.7,2.2-1.7c1.2,0,2.1,0.5,2.1,1.9v3.4h-1.2v-0.6c-0.3,0.4-0.8,0.7-1.6,0.7C345.8,139.6,345,139.1,345,138z
				 M348.3,137.7v-0.5h-0.6c-0.9,0-1.5,0.2-1.5,0.8c0,0.4,0.2,0.7,0.8,0.7C347.8,138.7,348.3,138.3,348.3,137.7z"/>
			<path class="st4" d="M350.5,137.9h1.1c0.1,0.5,0.3,0.8,1,0.8s0.9-0.2,0.9-0.7c0-0.4-0.3-0.6-1.1-0.7c-1.4-0.2-1.9-0.6-1.9-1.6
				s1-1.6,2-1.6c1.1,0,1.9,0.4,2,1.6h-1.1c-0.1-0.5-0.4-0.7-0.9-0.7s-0.8,0.2-0.8,0.6c0,0.4,0.2,0.5,1.1,0.7c1.2,0.2,2,0.5,2,1.6
				s-0.8,1.7-2.1,1.7S350.6,139,350.5,137.9z"/>
		</g>
		<g>
			<path class="st5" d="M196.7,144.1v6.1c7,0,12.8-5.7,12.8-12.8c0-3.9-1.7-7.4-4.5-9.7c2.8-2.3,4.5-5.8,4.5-9.7c0-0.5,0-1-0.1-1.5
				h-6.2c0.1,0.5,0.2,1,0.2,1.5c0,3.7-3,6.6-6.6,6.6v6.2c3.7,0,6.6,3,6.6,6.6C203.3,141.1,200.3,144.1,196.7,144.1L196.7,144.1z"/>
			<path class="st6" d="M217.2,128.5c0,2.4,1.2,4.5,3.1,5.7l3.6-3.6l3.6,3.6c1.9-1.2,3.1-3.3,3.1-5.6c0-3.7-3-6.7-6.7-6.7
				C220.2,121.8,217.2,124.8,217.2,128.5z M231.2,146.5l-5.3-5.3c-0.6,0.1-1.3,0.2-2,0.2c-7.1,0-12.9-5.8-12.9-12.9
				c0-7.1,5.8-12.9,12.9-12.9c7.1,0,12.9,5.8,12.9,12.9c0,4.1-1.9,7.7-4.8,10.1l3.6,3.6L231.2,146.5z"/>
			<polygon class="st7" points="177.2,116.5 177.2,140.5 183.2,140.5 183.2,130.9 193.4,130.9 193.4,126.2 183.2,126.2 183.2,121.2 
				193.4,121.2 193.4,116.5 			"/>
		</g>
		<g>
			
				<ellipse transform="matrix(3.327795e-02 -0.9994 0.9994 3.327795e-02 -706.1036 830.3943)" class="st5" cx="76.2" cy="780.2" rx="18.7" ry="18.7"/>
			<g>
				<path class="st4" d="M37.9,771.5h1.9c1.2,0,2.3,0.5,2.3,1.8l0,0c0,1.1-0.7,1.6-1.6,1.8l2,2.9h-0.9l-1.9-2.8h-1v2.8h-0.8V771.5z
					 M39.9,774.6c0.9,0,1.4-0.4,1.4-1.2l0,0c0-0.9-0.5-1.2-1.4-1.2h-1.2v2.4H39.9z"/>
				<path class="st4" d="M43,775.7L43,775.7c0-1.5,0.9-2.5,2.2-2.5c1.1,0,2.1,0.7,2.1,2.3v0.2h-3.5c0,1.1,0.5,1.7,1.5,1.7
					c0.7,0,1.2-0.3,1.3-0.8h0.7c-0.2,0.9-0.9,1.4-2,1.4C44,778.1,43,777.1,43,775.7z M46.6,775.2c-0.1-1-0.6-1.4-1.4-1.4
					c-0.8,0-1.3,0.5-1.4,1.4H46.6z"/>
				<path class="st4" d="M48.1,775.7L48.1,775.7c0-1.5,1-2.5,2.3-2.5c1,0,1.9,0.5,2,1.6h-0.7c-0.1-0.7-0.7-1-1.3-1
					c-0.9,0-1.5,0.7-1.5,1.8v0.1c0,1.2,0.6,1.8,1.5,1.8c0.7,0,1.3-0.4,1.4-1.2h0.7c-0.1,1-0.9,1.8-2.1,1.8
					C49.1,778.1,48.1,777.1,48.1,775.7z"/>
				<path class="st4" d="M53.3,775.7L53.3,775.7c0-1.5,1-2.5,2.3-2.5s2.3,1,2.3,2.4v0.1c0,1.4-1,2.4-2.3,2.4S53.3,777,53.3,775.7z
					 M57.1,775.7L57.1,775.7c0-1.2-0.6-1.9-1.5-1.9s-1.5,0.7-1.5,1.8v0.1c0,1.1,0.6,1.8,1.5,1.8C56.5,777.4,57.1,776.7,57.1,775.7z"
					/>
				<path class="st4" d="M59.1,773.3h0.7v0.7c0.2-0.4,0.7-0.8,1.4-0.8c0.6,0,1.1,0.3,1.4,0.9c0.3-0.6,1-0.9,1.6-0.9
					c0.8,0,1.6,0.5,1.6,1.9v2.9H65v-3c0-0.8-0.4-1.2-1-1.2s-1.2,0.4-1.2,1.3v2.9h-0.7v-3c0-0.8-0.4-1.2-1-1.2s-1.2,0.4-1.2,1.3v2.9
					h-0.7L59.1,773.3L59.1,773.3z"/>
				<path class="st4" d="M66.9,775.7L66.9,775.7c0-1.5,0.9-2.5,2.2-2.5c1.1,0,2.1,0.7,2.1,2.3v0.2h-3.5c0,1.1,0.5,1.7,1.5,1.7
					c0.7,0,1.2-0.3,1.3-0.8h0.7c-0.2,0.9-0.9,1.4-2,1.4C67.9,778.1,66.9,777.1,66.9,775.7z M70.5,775.2c-0.1-1-0.6-1.4-1.4-1.4
					s-1.3,0.5-1.4,1.4H70.5z"/>
				<path class="st4" d="M72.4,773.3h0.7v0.7c0.2-0.4,0.7-0.8,1.5-0.8c1,0,1.7,0.5,1.7,1.9v2.9h-0.7v-3c0-0.8-0.4-1.2-1.1-1.2
					s-1.3,0.4-1.3,1.3v2.9h-0.7L72.4,773.3L72.4,773.3z"/>
				<path class="st4" d="M77.4,775.7L77.4,775.7c0-1.5,0.9-2.5,2.2-2.5c0.8,0,1.3,0.4,1.5,0.8v-3h0.7v7h-0.7v-0.8
					c-0.3,0.5-0.9,0.9-1.6,0.9C78.3,778.1,77.4,777.2,77.4,775.7z M81.2,775.7L81.2,775.7c0-1.3-0.6-1.8-1.5-1.8s-1.5,0.7-1.5,1.8
					v0.1c0,1.2,0.6,1.8,1.4,1.8C80.5,777.4,81.2,776.9,81.2,775.7z"/>
				<path class="st4" d="M83,776.7c0-1.1,1.2-1.5,2.4-1.5H86v-0.3c0-0.7-0.3-1.1-1-1.1c-0.6,0-1,0.3-1.1,0.8h-0.7
					c0.1-1.1,1-1.5,1.9-1.5s1.7,0.4,1.7,1.7v3.1H86v-0.6c-0.4,0.4-0.8,0.7-1.5,0.7C83.7,778.1,83,777.6,83,776.7z M86,776.3v-0.6
					h-0.6c-0.9,0-1.6,0.2-1.6,0.9c0,0.5,0.2,0.8,0.9,0.8C85.4,777.5,86,777.1,86,776.3z"/>
				<path class="st4" d="M87.9,775.7L87.9,775.7c0-1.5,1-2.5,2.3-2.5c1,0,1.9,0.5,2,1.6h-0.7c-0.1-0.7-0.7-1-1.3-1
					c-0.9,0-1.5,0.7-1.5,1.8v0.1c0,1.2,0.6,1.8,1.5,1.8c0.7,0,1.3-0.4,1.4-1.2h0.7c-0.1,1-0.9,1.8-2.1,1.8
					C88.9,778.1,87.9,777.1,87.9,775.7z"/>
				<path class="st4" d="M93.3,771.8c0-0.3,0.2-0.5,0.5-0.5s0.5,0.2,0.5,0.5s-0.2,0.5-0.5,0.5S93.3,772.1,93.3,771.8z M93.4,773.3
					h0.7v4.7h-0.7V773.3z"/>
				<path class="st4" d="M95.3,775.7L95.3,775.7c0-1.5,1-2.5,2.3-2.5s2.3,1,2.3,2.4v0.1c0,1.4-1,2.4-2.3,2.4
					C96.3,778.1,95.3,777,95.3,775.7z M99.2,775.7L99.2,775.7c0-1.2-0.6-1.9-1.5-1.9s-1.5,0.7-1.5,1.8v0.1c0,1.1,0.6,1.8,1.5,1.8
					C98.6,777.4,99.2,776.7,99.2,775.7z"/>
				<path class="st4" d="M101.1,773.3h0.7v0.7c0.2-0.4,0.7-0.8,1.5-0.8c1,0,1.7,0.5,1.7,1.9v2.9h-0.7v-3c0-0.8-0.4-1.2-1.1-1.2
					s-1.3,0.4-1.3,1.3v2.9h-0.7L101.1,773.3L101.1,773.3z"/>
				<path class="st4" d="M106.1,775.7L106.1,775.7c0-1.5,0.9-2.5,2.2-2.5c1.1,0,2.1,0.7,2.1,2.3v0.2h-3.5c0,1.1,0.5,1.7,1.5,1.7
					c0.7,0,1.2-0.3,1.3-0.8h0.7c-0.2,0.9-0.9,1.4-2,1.4C107.1,778.1,106.1,777.1,106.1,775.7z M109.7,775.2c-0.1-1-0.6-1.4-1.4-1.4
					s-1.3,0.5-1.4,1.4H109.7z"/>
				<path class="st4" d="M111.3,776.5h0.7c0.1,0.6,0.4,0.9,1.1,0.9s1-0.2,1-0.7s-0.4-0.7-1.1-0.8c-1.2-0.2-1.6-0.6-1.6-1.4
					c0-0.9,0.9-1.3,1.6-1.3c0.8,0,1.6,0.3,1.7,1.4H114c-0.1-0.5-0.4-0.7-1-0.7c-0.5,0-0.9,0.3-0.9,0.7s0.2,0.6,1.1,0.7
					c1,0.2,1.7,0.4,1.7,1.4c0,0.9-0.6,1.4-1.7,1.4C112,778.1,111.3,777.5,111.3,776.5z"/>
				<path class="st4" d="M41.9,786.5L41.9,786.5c0-1.5,0.9-2.5,2.2-2.5c0.8,0,1.3,0.4,1.5,0.8v-3h0.7v7h-0.7V788
					c-0.3,0.5-0.9,0.9-1.6,0.9C42.8,788.9,41.9,788,41.9,786.5z M45.6,786.5L45.6,786.5c0-1.3-0.6-1.8-1.5-1.8s-1.5,0.7-1.5,1.8v0.1
					c0,1.2,0.6,1.8,1.4,1.8C45,788.2,45.6,787.7,45.6,786.5z"/>
				<path class="st4" d="M47.5,786.5L47.5,786.5c0-1.5,0.9-2.5,2.2-2.5c1.1,0,2.1,0.7,2.1,2.3v0.2h-3.5c0,1.1,0.5,1.7,1.5,1.7
					c0.7,0,1.2-0.3,1.3-0.8h0.7c-0.2,0.9-0.9,1.4-2,1.4C48.5,788.9,47.5,787.9,47.5,786.5z M51.1,786c-0.1-1-0.6-1.4-1.4-1.4
					c-0.8,0-1.3,0.5-1.4,1.4H51.1z"/>
				<path class="st4" d="M55.3,787.1v-3H56v2.9c0,0.8,0.4,1.2,1.1,1.2c0.7,0,1.3-0.4,1.3-1.3V784h0.7v4.7h-0.7V788
					c-0.2,0.4-0.7,0.8-1.5,0.8C56,788.9,55.3,788.4,55.3,787.1z"/>
				<path class="st4" d="M60.3,787.3H61c0.1,0.6,0.4,0.9,1.1,0.9c0.7,0,1-0.2,1-0.7s-0.4-0.7-1.1-0.8c-1.2-0.2-1.6-0.6-1.6-1.4
					c0-0.9,0.9-1.3,1.6-1.3c0.8,0,1.6,0.3,1.7,1.4H63c-0.1-0.5-0.4-0.7-1-0.7c-0.5,0-0.9,0.3-0.9,0.7s0.2,0.6,1.1,0.7
					c1,0.2,1.7,0.4,1.7,1.4c0,0.9-0.6,1.4-1.7,1.4C61,788.9,60.4,788.3,60.3,787.3z"/>
				<path class="st4" d="M64.7,786.5L64.7,786.5c0-1.5,1-2.5,2.3-2.5s2.3,1,2.3,2.4v0.1c0,1.4-1,2.4-2.3,2.4S64.7,787.8,64.7,786.5z
					 M68.5,786.5L68.5,786.5c0-1.2-0.6-1.9-1.5-1.9s-1.5,0.7-1.5,1.8v0.1c0,1.1,0.6,1.8,1.5,1.8C67.9,788.2,68.5,787.5,68.5,786.5z"
					/>
				<path class="st4" d="M72.5,786.5L72.5,786.5c0-1.5,0.9-2.5,2.2-2.5c1.1,0,2.1,0.7,2.1,2.3v0.2h-3.5c0,1.1,0.5,1.7,1.5,1.7
					c0.7,0,1.2-0.3,1.3-0.8h0.7c-0.2,0.9-0.9,1.4-2,1.4C73.4,788.9,72.5,787.9,72.5,786.5z M76.1,786c-0.1-1-0.6-1.4-1.4-1.4
					s-1.3,0.5-1.4,1.4H76.1z"/>
				<path class="st4" d="M78,784.1h0.7v0.7c0.2-0.4,0.7-0.8,1.5-0.8c1,0,1.7,0.5,1.7,1.9v2.9h-0.7v-2.9c0-0.8-0.4-1.2-1.1-1.2
					s-1.3,0.4-1.3,1.3v2.9H78V784.1z"/>
				<path class="st4" d="M85.7,781.8h0.8v7h-0.8V781.8z"/>
				<path class="st4" d="M87.6,787.5c0-1.1,1.2-1.5,2.4-1.5h0.7v-0.3c0-0.7-0.3-1.1-1-1.1c-0.6,0-1,0.3-1.1,0.8h-0.7
					c0.1-1.1,1-1.5,1.9-1.5s1.7,0.4,1.7,1.7v3.1h-0.7v-0.6c-0.4,0.4-0.8,0.7-1.5,0.7C88.3,788.9,87.6,788.4,87.6,787.5z M90.7,787.1
					v-0.6H90c-0.9,0-1.6,0.2-1.6,0.9c0,0.5,0.2,0.8,0.9,0.8C90.1,788.3,90.7,787.9,90.7,787.1z"/>
				<path class="st4" d="M94.9,787.3h0.7c0.1,0.6,0.4,0.9,1.1,0.9s1-0.2,1-0.7s-0.4-0.7-1.1-0.8c-1.2-0.2-1.6-0.6-1.6-1.4
					c0-0.9,0.9-1.3,1.6-1.3c0.8,0,1.6,0.3,1.7,1.4h-0.7c-0.1-0.5-0.4-0.7-1-0.7c-0.5,0-0.9,0.3-0.9,0.7s0.2,0.6,1.1,0.7
					c1,0.2,1.7,0.4,1.7,1.4c0,0.9-0.6,1.4-1.7,1.4C95.6,788.9,94.9,788.3,94.9,787.3z"/>
				<path class="st4" d="M99.2,787.5c0-1.1,1.2-1.5,2.4-1.5h0.7v-0.3c0-0.7-0.3-1.1-1-1.1c-0.6,0-1,0.3-1.1,0.8h-0.7
					c0.1-1.1,1-1.5,1.9-1.5s1.7,0.4,1.7,1.7v3.1h-0.7v-0.6c-0.4,0.4-0.8,0.7-1.5,0.7C99.9,788.9,99.2,788.4,99.2,787.5z
					 M102.2,787.1v-0.6h-0.6c-0.9,0-1.6,0.2-1.6,0.9c0,0.5,0.2,0.8,0.9,0.8C101.6,788.3,102.2,787.9,102.2,787.1z"/>
				<path class="st4" d="M104.5,781.8h0.8v7h-0.8V781.8z"/>
				<path class="st4" d="M106.4,787.5c0-1.1,1.2-1.5,2.4-1.5h0.7v-0.3c0-0.7-0.3-1.1-1-1.1c-0.6,0-1,0.3-1.1,0.8h-0.7
					c0.1-1.1,1-1.5,1.9-1.5s1.7,0.4,1.7,1.7v3.1h-0.7v-0.6c-0.4,0.4-0.8,0.7-1.5,0.7C107.1,788.9,106.4,788.4,106.4,787.5z
					 M109.4,787.1v-0.6h-0.6c-0.9,0-1.6,0.2-1.6,0.9c0,0.5,0.2,0.8,0.9,0.8C108.8,788.3,109.4,787.9,109.4,787.1z"/>
			</g>
			<circle class="st5" cx="337.8" cy="780.2" r="18.7"/>
			<g>
				<path class="st4" d="M319.1,771.6h1.8c1.2,0,2.3,0.5,2.3,1.9l0,0c0,1.4-1,1.9-2.3,1.9h-1v2.6h-0.8V771.6z M321,774.8
					c0.9,0,1.4-0.5,1.4-1.3l0,0c0-0.9-0.5-1.3-1.4-1.3h-1.1v2.6H321z"/>
				<path class="st4" d="M323.8,775.7L323.8,775.7c0-1.5,0.9-2.5,2.2-2.5c1.1,0,2.1,0.7,2.1,2.3v0.2h-3.5c0,1.1,0.5,1.7,1.5,1.7
					c0.7,0,1.2-0.3,1.3-0.8h0.7c-0.2,0.9-0.9,1.4-2,1.4C324.8,778.1,323.8,777.2,323.8,775.7z M327.4,775.2c-0.1-1-0.6-1.4-1.4-1.4
					s-1.3,0.5-1.4,1.4H327.4z"/>
				<path class="st4" d="M329,778.3h0.8c0.1,0.5,0.6,0.8,1.4,0.8c0.9,0,1.5-0.4,1.5-1.4V777c-0.3,0.5-0.9,0.9-1.6,0.9
					c-1.2,0-2.1-0.9-2.1-2.2v-0.1c0-1.3,0.9-2.3,2.2-2.3c0.8,0,1.3,0.4,1.5,0.8v-0.8h0.7v4.4c0,1.4-0.9,2-2.3,2
					C329.8,779.8,329.2,779.1,329,778.3z M332.7,775.6L332.7,775.6c0-1.1-0.6-1.7-1.5-1.7s-1.5,0.7-1.5,1.7v0.1c0,1,0.7,1.6,1.4,1.6
					C332,777.3,332.7,776.7,332.7,775.6z"/>
				<path class="st4" d="M334.9,776.3v-3h0.7v2.9c0,0.8,0.4,1.2,1.1,1.2s1.3-0.4,1.3-1.3v-2.9h0.7v4.7H338v-0.7
					c-0.2,0.4-0.7,0.8-1.5,0.8C335.6,778.1,334.9,777.6,334.9,776.3z"/>
				<path class="st4" d="M340.3,773.3h0.7v0.7c0.2-0.4,0.7-0.8,1.5-0.8c1,0,1.7,0.5,1.7,1.9v2.9h-0.7v-2.9c0-0.8-0.4-1.2-1.1-1.2
					s-1.3,0.4-1.3,1.3v2.9h-0.7v-4.8H340.3z"/>
				<path class="st4" d="M345.8,776.9V774h-0.7v-0.6h0.7v-1.1h0.7v1.1h1.1v0.6h-1.1v2.8c0,0.5,0.2,0.7,0.6,0.7c0.2,0,0.4,0,0.6-0.1
					v0.6c-0.2,0.1-0.3,0.1-0.6,0.1C346.2,778.1,345.8,777.6,345.8,776.9z"/>
				<path class="st4" d="M348.5,776.7c0-1.1,1.2-1.5,2.4-1.5h0.7v-0.3c0-0.7-0.3-1.1-1-1.1c-0.6,0-1,0.3-1.1,0.8h-0.7
					c0.1-1.1,1-1.5,1.9-1.5s1.7,0.4,1.7,1.7v3.1h-0.7v-0.6c-0.4,0.4-0.8,0.7-1.5,0.7C349.2,778.1,348.5,777.7,348.5,776.7z
					 M351.6,776.4v-0.6H351c-0.9,0-1.6,0.2-1.6,0.9c0,0.5,0.2,0.8,0.9,0.8C351,777.5,351.6,777.1,351.6,776.4z"/>
				<path class="st4" d="M353.4,776.6h0.7c0.1,0.6,0.4,0.9,1.1,0.9s1-0.2,1-0.7s-0.4-0.7-1.1-0.8c-1.2-0.2-1.6-0.6-1.6-1.4
					c0-0.9,0.9-1.3,1.6-1.3c0.8,0,1.6,0.3,1.7,1.4h-0.7c-0.1-0.5-0.4-0.7-1-0.7c-0.5,0-0.9,0.3-0.9,0.7s0.2,0.6,1.1,0.7
					c1,0.2,1.7,0.4,1.7,1.4c0,0.9-0.6,1.4-1.7,1.4C354.1,778.1,353.4,777.6,353.4,776.6z"/>
				<path class="st4" d="M316.2,784.8h-0.7v-0.6h0.7v-0.8c0-1,0.5-1.5,1.4-1.5c0.2,0,0.4,0,0.6,0.1v0.6c-0.1-0.1-0.3-0.1-0.5-0.1
					c-0.5,0-0.7,0.3-0.7,0.8v0.8h1.2v0.6H317v4.1h-0.7L316.2,784.8L316.2,784.8z"/>
				<path class="st4" d="M319.1,784.1h0.7v0.8c0.3-0.5,0.7-0.9,1.5-0.9v0.7c-0.9,0-1.5,0.3-1.5,1.5v2.6h-0.7V784.1z"/>
				<path class="st4" d="M322,786.5L322,786.5c0-1.5,0.9-2.5,2.2-2.5c1.1,0,2.1,0.7,2.1,2.3v0.2h-3.5c0,1.1,0.5,1.7,1.5,1.7
					c0.7,0,1.2-0.3,1.3-0.8h0.7c-0.2,0.9-0.9,1.4-2,1.4C323,788.9,322,788,322,786.5z M325.6,786c-0.1-1-0.6-1.4-1.3-1.4
					c-0.8,0-1.3,0.5-1.4,1.4H325.6z"/>
				<path class="st4" d="M327.2,786.5L327.2,786.5c0-1.5,1-2.5,2.3-2.5c1,0,1.9,0.5,2,1.6h-0.7c-0.1-0.7-0.7-1-1.3-1
					c-0.9,0-1.5,0.7-1.5,1.8v0.1c0,1.2,0.6,1.8,1.5,1.8c0.7,0,1.3-0.4,1.4-1.2h0.7c-0.1,1-0.9,1.8-2.1,1.8
					C328.1,788.9,327.2,788,327.2,786.5z"/>
				<path class="st4" d="M332.6,787.1v-3h0.7v2.9c0,0.8,0.4,1.2,1.1,1.2s1.3-0.4,1.3-1.3V784h0.7v4.7h-0.7V788
					c-0.2,0.4-0.7,0.8-1.5,0.8C333.3,788.9,332.6,788.4,332.6,787.1z"/>
				<path class="st4" d="M337.6,786.5L337.6,786.5c0-1.5,0.9-2.5,2.2-2.5c1.1,0,2.1,0.7,2.1,2.3v0.2h-3.5c0,1.1,0.5,1.7,1.5,1.7
					c0.7,0,1.2-0.3,1.3-0.8h0.7c-0.2,0.9-0.9,1.4-2,1.4C338.6,788.9,337.6,788,337.6,786.5z M341.2,786c-0.1-1-0.6-1.4-1.3-1.4
					c-0.8,0-1.3,0.5-1.4,1.4H341.2z"/>
				<path class="st4" d="M343.1,784.1h0.7v0.7c0.2-0.4,0.7-0.8,1.5-0.8c1,0,1.7,0.5,1.7,1.9v2.9h-0.7v-2.9c0-0.8-0.4-1.2-1.1-1.2
					s-1.3,0.4-1.3,1.3v2.9h-0.7v-4.8H343.1z"/>
				<path class="st4" d="M348.6,787.7v-2.9H348v-0.6h0.7v-1.1h0.7v1.1h1.1v0.6h-1.1v2.8c0,0.5,0.2,0.7,0.6,0.7c0.2,0,0.4,0,0.6-0.1
					v0.6c-0.2,0.1-0.3,0.1-0.6,0.1C349.1,788.9,348.6,788.4,348.6,787.7z"/>
				<path class="st4" d="M351.3,786.5L351.3,786.5c0-1.5,0.9-2.5,2.2-2.5c1.1,0,2.1,0.7,2.1,2.3v0.2h-3.5c0,1.1,0.5,1.7,1.5,1.7
					c0.7,0,1.2-0.3,1.3-0.8h0.7c-0.2,0.9-0.9,1.4-2,1.4C352.3,788.9,351.3,788,351.3,786.5z M354.9,786c-0.1-1-0.6-1.4-1.3-1.4
					c-0.8,0-1.3,0.5-1.4,1.4H354.9z"/>
				<path class="st4" d="M356.4,787.4h0.7c0.1,0.6,0.4,0.9,1.1,0.9s1-0.2,1-0.7s-0.4-0.7-1.1-0.8c-1.2-0.2-1.6-0.6-1.6-1.4
					c0-0.9,0.9-1.3,1.6-1.3c0.8,0,1.6,0.3,1.7,1.4h-0.7c-0.1-0.5-0.4-0.7-1-0.7c-0.5,0-0.9,0.3-0.9,0.7s0.2,0.6,1.1,0.7
					c1,0.2,1.7,0.4,1.7,1.4c0,0.9-0.6,1.4-1.7,1.4C357.2,788.9,356.5,788.4,356.4,787.4z"/>
			</g>
		</g>
	</g>
</g>
<g id="Layer_2">
	<g id="INFO_4_">
		
			<rect x="119" y="627.3" transform="matrix(0.7071 -0.7071 0.7071 0.7071 -445.1768 355.8549)" class="st8" width="176" height="176"/>
		<g>
			<path class="st4" d="M179.4,672.1c0-2.6,2.5-3.5,5.6-3.5h1.4V668c0-1.5-0.5-2.2-2-2.2c-1.3,0-2,0.6-2.1,1.7h-2.5
				c0.2-2.6,2.2-3.6,4.7-3.6s4.4,1,4.4,4v7.2h-2.5v-1.3c-0.7,0.9-1.7,1.6-3.4,1.6C181,675.3,179.4,674.4,179.4,672.1z M186.4,671.3
				v-1.1h-1.3c-1.9,0-3.2,0.4-3.2,1.8c0,0.9,0.5,1.5,1.8,1.5C185.2,673.5,186.4,672.7,186.4,671.3z"/>
			<path class="st4" d="M191.8,664.2h2.5v2.1c0.7-1.4,1.7-2.2,3.6-2.2v2.4c-2.2,0-3.6,0.7-3.6,3.1v5.7h-2.5V664.2z"/>
			<path class="st4" d="M199.4,669.8v-0.2c0-3.4,2.3-5.7,5.5-5.7c2.7,0,5.2,1.6,5.2,5.5v0.7h-8c0.1,2.1,1.1,3.3,3,3.3
				c1.5,0,2.3-0.6,2.5-1.7h2.5c-0.4,2.3-2.2,3.6-5,3.6C201.8,675.3,199.4,673.2,199.4,669.8z M207.6,668.5c-0.1-1.9-1.1-2.7-2.7-2.7
				c-1.5,0-2.6,1-2.8,2.7H207.6z"/>
			<path class="st4" d="M212.4,664.2h2.5v1.7c0.5-1.1,1.7-2,3.5-2c2.2,0,3.8,1.3,3.8,4.3v6.9h-2.5v-6.7c0-1.7-0.7-2.4-2.2-2.4
				c-1.4,0-2.6,0.9-2.6,2.6v6.5h-2.5V664.2z"/>
			<path class="st4" d="M224.3,672.1c0-2.6,2.5-3.5,5.6-3.5h1.4V668c0-1.5-0.5-2.2-2-2.2c-1.3,0-2,0.6-2.1,1.7h-2.5
				c0.2-2.6,2.2-3.6,4.7-3.6c2.5,0,4.4,1,4.4,4v7.2h-2.5v-1.3c-0.7,0.9-1.7,1.6-3.4,1.6C226,675.3,224.3,674.4,224.3,672.1z
				 M231.3,671.3v-1.1H230c-1.9,0-3.2,0.4-3.2,1.8c0,0.9,0.5,1.5,1.8,1.5C230.2,673.5,231.3,672.7,231.3,671.3z"/>
		</g>
		<g>
			<path class="st4" d="M138.6,697.4h1.4l2.9,8.6h-1l-0.8-2.5h-3.5l-0.8,2.5h-1L138.6,697.4z M137.8,702.7h3l-1.5-4.4L137.8,702.7z"
				/>
			<path class="st4" d="M143.8,704h1c0.1,0.7,0.5,1.2,1.5,1.2c0.9,0,1.4-0.3,1.4-1c0-0.7-0.5-0.9-1.5-1.1c-1.6-0.3-2.2-0.8-2.2-1.8
				c0-1.2,1.1-1.8,2.1-1.8c1.1,0,2.1,0.5,2.3,1.8h-1c-0.1-0.7-0.5-1-1.3-1c-0.7,0-1.2,0.4-1.2,0.9c0,0.6,0.3,0.8,1.5,1
				c1.3,0.2,2.2,0.5,2.2,1.9c0,1.1-0.8,1.9-2.3,1.9C144.8,706.1,143.9,705.3,143.8,704z"/>
			<path class="st4" d="M150,697.7c0-0.4,0.3-0.7,0.7-0.7s0.7,0.3,0.7,0.7c0,0.4-0.3,0.7-0.7,0.7S150,698.1,150,697.7z M150.1,699.7
				h1v6.3h-1V699.7z"/>
			<path class="st4" d="M152.7,704h1c0.1,0.7,0.5,1.2,1.5,1.2c0.9,0,1.4-0.3,1.4-1c0-0.7-0.5-0.9-1.5-1.1c-1.6-0.3-2.2-0.8-2.2-1.8
				c0-1.2,1.1-1.8,2.1-1.8c1.1,0,2.1,0.5,2.3,1.8h-1c-0.1-0.7-0.5-1-1.3-1c-0.7,0-1.2,0.4-1.2,0.9c0,0.6,0.3,0.8,1.5,1
				c1.3,0.2,2.2,0.5,2.2,1.9c0,1.1-0.8,1.9-2.3,1.9C153.6,706.1,152.7,705.3,152.7,704z"/>
			<path class="st4" d="M159.2,704.4v-3.9h-0.9v-0.8h0.9v-1.4h1v1.4h1.5v0.8h-1.5v3.8c0,0.6,0.3,0.9,0.8,0.9c0.3,0,0.6,0,0.8-0.1
				v0.8c-0.2,0.1-0.4,0.1-0.9,0.1C159.7,706.1,159.2,705.4,159.2,704.4z"/>
			<path class="st4" d="M162.7,702.9L162.7,702.9c0-2,1.2-3.3,2.9-3.3c1.5,0,2.8,0.9,2.8,3.1v0.3h-4.7c0,1.4,0.7,2.2,2,2.2
				c1,0,1.5-0.4,1.7-1.1h1c-0.2,1.3-1.3,1.9-2.7,1.9C164,706.1,162.7,704.8,162.7,702.9z M167.5,702.2c-0.1-1.3-0.8-1.8-1.8-1.8
				c-1,0-1.7,0.7-1.9,1.8H167.5z"/>
			<path class="st4" d="M172.7,704.2c0-1.5,1.5-1.9,3.1-1.9h0.9v-0.5c0-1-0.4-1.4-1.3-1.4c-0.9,0-1.3,0.4-1.4,1.1h-1
				c0.1-1.4,1.3-2,2.5-2c1.2,0,2.3,0.5,2.3,2.2v4.1h-1v-0.8c-0.5,0.6-1,0.9-2,0.9C173.6,706.1,172.7,705.5,172.7,704.2z
				 M176.7,703.8V703h-0.9c-1.3,0-2.2,0.3-2.2,1.2c0,0.6,0.3,1.1,1.2,1.1C175.9,705.3,176.7,704.7,176.7,703.8z"/>
			<path class="st4" d="M182.9,696.7h1v9.3h-1V696.7z"/>
			<path class="st4" d="M185.4,704.2c0-1.5,1.5-1.9,3.1-1.9h0.9v-0.5c0-1-0.4-1.4-1.3-1.4c-0.9,0-1.3,0.4-1.4,1.1h-1
				c0.1-1.4,1.3-2,2.5-2c1.2,0,2.3,0.5,2.3,2.2v4.1h-1v-0.8c-0.5,0.6-1,0.9-2,0.9C186.3,706.1,185.4,705.5,185.4,704.2z
				 M189.5,703.8V703h-0.9c-1.3,0-2.2,0.3-2.2,1.2c0,0.6,0.3,1.1,1.2,1.1C188.6,705.3,189.5,704.7,189.5,703.8z"/>
			<path class="st4" d="M191.9,704h1c0.1,0.7,0.5,1.2,1.5,1.2c0.9,0,1.4-0.3,1.4-1c0-0.7-0.5-0.9-1.5-1.1c-1.6-0.3-2.2-0.8-2.2-1.8
				c0-1.2,1.1-1.8,2.1-1.8c1.1,0,2.1,0.5,2.3,1.8h-1c-0.1-0.7-0.5-1-1.3-1c-0.7,0-1.2,0.4-1.2,0.9c0,0.6,0.3,0.8,1.5,1
				c1.3,0.2,2.2,0.5,2.2,1.9c0,1.1-0.8,1.9-2.3,1.9C192.8,706.1,191.9,705.3,191.9,704z"/>
			<path class="st4" d="M200.9,702.9L200.9,702.9c0-2,1.4-3.3,3-3.3c1.3,0,2.5,0.6,2.7,2.2h-1c-0.2-1-0.9-1.4-1.7-1.4
				c-1.1,0-2,0.9-2,2.4v0.1c0,1.5,0.8,2.4,2.1,2.4c0.9,0,1.7-0.5,1.8-1.5h0.9c-0.1,1.4-1.2,2.4-2.7,2.4
				C202.2,706.1,200.9,704.8,200.9,702.9z"/>
			<path class="st4" d="M207.7,702.9L207.7,702.9c0-2,1.3-3.3,3.1-3.3c1.8,0,3.1,1.3,3.1,3.2v0.1c0,1.9-1.3,3.2-3.1,3.2
				C209,706.1,207.7,704.7,207.7,702.9z M212.9,702.9L212.9,702.9c0-1.5-0.8-2.5-2.1-2.5c-1.3,0-2.1,0.9-2.1,2.4v0.1
				c0,1.4,0.8,2.4,2.1,2.4C212.1,705.3,212.9,704.3,212.9,702.9z"/>
			<path class="st4" d="M215.4,699.7h1v1c0.3-0.6,1-1.1,2-1.1c1.3,0,2.2,0.7,2.2,2.5v3.9h-1v-3.9c0-1.1-0.5-1.6-1.5-1.6
				c-0.9,0-1.8,0.6-1.8,1.7v3.8h-1V699.7z"/>
			<path class="st4" d="M222.8,700.5h-0.9v-0.8h0.9v-1c0-1.3,0.6-2,1.9-2c0.3,0,0.5,0,0.7,0.1v0.8c-0.2-0.1-0.4-0.1-0.7-0.1
				c-0.6,0-0.9,0.4-0.9,1.1v1.1h1.5v0.8h-1.5v5.4h-1V700.5z"/>
			<path class="st4" d="M226.3,702.9L226.3,702.9c0-2,1.2-3.3,2.9-3.3c1.5,0,2.8,0.9,2.8,3.1v0.3h-4.7c0,1.4,0.7,2.2,2,2.2
				c1,0,1.5-0.4,1.7-1.1h1c-0.2,1.3-1.3,1.9-2.7,1.9C227.6,706.1,226.3,704.8,226.3,702.9z M231,702.2c-0.1-1.3-0.8-1.8-1.8-1.8
				c-1,0-1.7,0.7-1.9,1.8H231z"/>
			<path class="st4" d="M233.6,699.7h1v1.1c0.4-0.7,0.9-1.2,2.1-1.2v0.9c-1.3,0.1-2.1,0.5-2.1,2v3.4h-1V699.7z"/>
			<path class="st4" d="M237.6,702.9L237.6,702.9c0-2,1.2-3.3,2.9-3.3c1.5,0,2.8,0.9,2.8,3.1v0.3h-4.7c0,1.4,0.7,2.2,2,2.2
				c1,0,1.5-0.4,1.7-1.1h1c-0.2,1.3-1.3,1.9-2.7,1.9C238.9,706.1,237.6,704.8,237.6,702.9z M242.4,702.2c-0.1-1.3-0.8-1.8-1.8-1.8
				c-1,0-1.7,0.7-1.9,1.8H242.4z"/>
			<path class="st4" d="M244.9,699.7h1v1c0.3-0.6,1-1.1,2-1.1c1.3,0,2.2,0.7,2.2,2.5v3.9h-1v-3.9c0-1.1-0.5-1.6-1.5-1.6
				c-0.9,0-1.8,0.6-1.8,1.7v3.8h-1V699.7z"/>
			<path class="st4" d="M251.6,702.9L251.6,702.9c0-2,1.4-3.3,3-3.3c1.3,0,2.5,0.6,2.7,2.2h-1c-0.2-1-0.9-1.4-1.7-1.4
				c-1.1,0-2,0.9-2,2.4v0.1c0,1.5,0.8,2.4,2.1,2.4c0.9,0,1.7-0.5,1.8-1.5h0.9c-0.1,1.4-1.2,2.4-2.7,2.4
				C252.9,706.1,251.6,704.8,251.6,702.9z"/>
			<path class="st4" d="M258.8,697.7c0-0.4,0.3-0.7,0.7-0.7c0.4,0,0.7,0.3,0.7,0.7c0,0.4-0.3,0.7-0.7,0.7
				C259.1,698.4,258.8,698.1,258.8,697.7z M258.9,699.7h1v6.3h-1V699.7z"/>
			<path class="st4" d="M261.5,704.2c0-1.5,1.5-1.9,3.1-1.9h0.9v-0.5c0-1-0.4-1.4-1.3-1.4c-0.9,0-1.3,0.4-1.4,1.1h-1
				c0.1-1.4,1.3-2,2.5-2c1.2,0,2.3,0.5,2.3,2.2v4.1h-1v-0.8c-0.5,0.6-1,0.9-2,0.9C262.4,706.1,261.5,705.5,261.5,704.2z
				 M265.5,703.8V703h-0.9c-1.3,0-2.2,0.3-2.2,1.2c0,0.6,0.3,1.1,1.2,1.1C264.7,705.3,265.5,704.7,265.5,703.8z"/>
			<path class="st4" d="M267.9,704h1c0.1,0.7,0.5,1.2,1.5,1.2c0.9,0,1.4-0.3,1.4-1c0-0.7-0.5-0.9-1.5-1.1c-1.6-0.3-2.2-0.8-2.2-1.8
				c0-1.2,1.1-1.8,2.1-1.8c1.1,0,2.1,0.5,2.3,1.8h-1c-0.1-0.7-0.5-1-1.3-1c-0.7,0-1.2,0.4-1.2,0.9c0,0.6,0.3,0.8,1.5,1
				c1.3,0.2,2.2,0.5,2.2,1.9c0,1.1-0.8,1.9-2.3,1.9C268.9,706.1,268,705.3,267.9,704z"/>
			<path class="st4" d="M273.6,707.1l1.2-2.6l1,0.5l-1.5,2.5L273.6,707.1z"/>
			<path class="st4" d="M132.5,717.4L132.5,717.4c0-2,1.2-3.4,2.9-3.4c1,0,1.7,0.5,2.1,1.1v-4h1v9.3h-1v-1.1
				c-0.4,0.6-1.2,1.2-2.1,1.2C133.7,720.5,132.5,719.3,132.5,717.4z M137.5,717.3L137.5,717.3c0-1.7-0.8-2.5-2-2.5
				c-1.2,0-2,0.9-2,2.4v0.1c0,1.6,0.9,2.3,1.9,2.3C136.6,719.7,137.5,718.9,137.5,717.3z"/>
			<path class="st4" d="M140,717.3L140,717.3c0-2,1.2-3.3,2.9-3.3c1.5,0,2.8,0.9,2.8,3.1v0.3H141c0,1.4,0.7,2.2,2,2.2
				c1,0,1.5-0.4,1.7-1.1h1c-0.2,1.3-1.3,1.9-2.7,1.9C141.2,720.5,140,719.2,140,717.3z M144.7,716.6c-0.1-1.3-0.8-1.8-1.8-1.8
				c-1,0-1.7,0.7-1.9,1.8H144.7z"/>
			<path class="st4" d="M148.3,719.3v1h-1v-9.3h1v4.1c0.4-0.6,1.2-1.2,2.1-1.2c1.6,0,2.9,1.2,2.9,3.2v0.1c0,1.9-1.1,3.2-2.9,3.2
				C149.4,720.5,148.6,720,148.3,719.3z M152.2,717.3L152.2,717.3c0-1.7-0.9-2.5-1.9-2.5c-1.2,0-2.1,0.8-2.1,2.4v0.1
				c0,1.6,0.8,2.4,2.1,2.4C151.5,719.7,152.2,718.8,152.2,717.3z"/>
			<path class="st4" d="M154.3,718.6c0-1.5,1.5-1.9,3.1-1.9h0.9v-0.5c0-1-0.4-1.4-1.3-1.4c-0.9,0-1.3,0.4-1.4,1.1h-1
				c0.1-1.4,1.3-2,2.5-2c1.2,0,2.3,0.5,2.3,2.2v4.1h-1v-0.8c-0.5,0.6-1,0.9-2,0.9C155.2,720.5,154.3,719.9,154.3,718.6z
				 M158.3,718.2v-0.8h-0.9c-1.3,0-2.2,0.3-2.2,1.2c0,0.6,0.3,1.1,1.2,1.1C157.5,719.7,158.3,719.1,158.3,718.2z"/>
			<path class="st4" d="M161.5,718.8v-3.9h-0.9v-0.8h0.9v-1.4h1v1.4h1.5v0.8h-1.5v3.8c0,0.6,0.3,0.9,0.8,0.9c0.3,0,0.6,0,0.8-0.1
				v0.8c-0.2,0.1-0.4,0.1-0.9,0.1C162,720.5,161.5,719.8,161.5,718.8z"/>
			<path class="st4" d="M165.1,717.3L165.1,717.3c0-2,1.2-3.3,2.9-3.3c1.5,0,2.8,0.9,2.8,3.1v0.3h-4.7c0,1.4,0.7,2.2,2,2.2
				c1,0,1.5-0.4,1.7-1.1h1c-0.2,1.3-1.3,1.9-2.7,1.9C166.3,720.5,165.1,719.2,165.1,717.3z M169.8,716.6c-0.1-1.3-0.8-1.8-1.8-1.8
				c-1,0-1.7,0.7-1.9,1.8H169.8z"/>
			<path class="st4" d="M171.8,718.4h1c0.1,0.7,0.5,1.2,1.5,1.2c0.9,0,1.4-0.3,1.4-1c0-0.7-0.5-0.9-1.5-1.1
				c-1.6-0.3-2.2-0.8-2.2-1.8c0-1.2,1.1-1.8,2.1-1.8c1.1,0,2.1,0.5,2.3,1.8h-1c-0.1-0.7-0.5-1-1.3-1c-0.7,0-1.2,0.4-1.2,0.9
				c0,0.6,0.3,0.8,1.5,1c1.3,0.2,2.2,0.5,2.2,1.9c0,1.1-0.8,1.9-2.3,1.9C172.8,720.5,171.9,719.7,171.8,718.4z"/>
			<path class="st4" d="M183,719.7l-2.5-5.6h1.1l1.9,4.5l1.7-4.5h1l-3.5,8.5h-1L183,719.7z"/>
			<path class="st4" d="M190.8,711.1h1v9.3h-1V711.1z"/>
			<path class="st4" d="M193.4,718.6c0-1.5,1.5-1.9,3.1-1.9h0.9v-0.5c0-1-0.4-1.4-1.3-1.4c-0.9,0-1.3,0.4-1.4,1.1h-1
				c0.1-1.4,1.3-2,2.5-2c1.2,0,2.3,0.5,2.3,2.2v4.1h-1v-0.8c-0.5,0.6-1,0.9-2,0.9C194.3,720.5,193.4,719.9,193.4,718.6z
				 M197.4,718.2v-0.8h-0.9c-1.3,0-2.2,0.3-2.2,1.2c0,0.6,0.3,1.1,1.2,1.1C196.6,719.7,197.4,719.1,197.4,718.2z"/>
			<path class="st4" d="M203.1,717.3L203.1,717.3c0-2,1.4-3.3,3-3.3c1.3,0,2.5,0.6,2.7,2.2h-1c-0.2-1-0.9-1.4-1.7-1.4
				c-1.1,0-2,0.9-2,2.4v0.1c0,1.5,0.8,2.4,2.1,2.4c0.9,0,1.7-0.5,1.8-1.5h0.9c-0.1,1.4-1.2,2.4-2.7,2.4
				C204.4,720.5,203.1,719.2,203.1,717.3z"/>
			<path class="st4" d="M209.9,717.3L209.9,717.3c0-2,1.2-3.3,2.9-3.3c1.5,0,2.8,0.9,2.8,3.1v0.3H211c0,1.4,0.7,2.2,2,2.2
				c1,0,1.5-0.4,1.7-1.1h1c-0.2,1.3-1.3,1.9-2.7,1.9C211.2,720.5,209.9,719.2,209.9,717.3z M214.7,716.6c-0.1-1.3-0.8-1.8-1.8-1.8
				c-1,0-1.7,0.7-1.9,1.8H214.7z"/>
			<path class="st4" d="M217.2,714.1h1v1.1c0.4-0.7,0.9-1.2,2.1-1.2v0.9c-1.3,0.1-2.1,0.5-2.1,2v3.4h-1V714.1z"/>
			<path class="st4" d="M221.3,717.3L221.3,717.3c0-2,1.2-3.3,2.9-3.3c1.5,0,2.8,0.9,2.8,3.1v0.3h-4.7c0,1.4,0.7,2.2,2,2.2
				c1,0,1.5-0.4,1.7-1.1h1c-0.2,1.3-1.3,1.9-2.7,1.9C222.5,720.5,221.3,719.2,221.3,717.3z M226,716.6c-0.1-1.3-0.8-1.8-1.8-1.8
				c-1,0-1.7,0.7-1.9,1.8H226z"/>
			<path class="st4" d="M228.5,714.1h1v1c0.3-0.6,1-1.1,1.9-1.1c0.8,0,1.5,0.3,1.8,1.2c0.4-0.8,1.4-1.2,2.1-1.2
				c1.1,0,2.1,0.7,2.1,2.5v3.9h-1v-4c0-1.1-0.5-1.6-1.3-1.6c-0.8,0-1.7,0.6-1.7,1.7v3.8h-1v-4c0-1.1-0.5-1.6-1.3-1.6
				c-0.8,0-1.7,0.6-1.7,1.7v3.8h-1V714.1z"/>
			<path class="st4" d="M239,717.3L239,717.3c0-2,1.3-3.3,3.1-3.3c1.8,0,3.1,1.3,3.1,3.2v0.1c0,1.9-1.3,3.2-3.1,3.2
				C240.3,720.5,239,719.1,239,717.3z M244.1,717.3L244.1,717.3c0-1.5-0.8-2.5-2.1-2.5c-1.3,0-2.1,0.9-2.1,2.4v0.1
				c0,1.4,0.8,2.4,2.1,2.4C243.3,719.7,244.1,718.7,244.1,717.3z"/>
			<path class="st4" d="M246.7,714.1h1v1c0.3-0.6,1-1.1,2-1.1c1.3,0,2.2,0.7,2.2,2.5v3.8h-1v-3.9c0-1.1-0.5-1.6-1.5-1.6
				c-0.9,0-1.8,0.6-1.8,1.7v3.8h-1V714.1z"/>
			<path class="st4" d="M253.7,712.1c0-0.4,0.3-0.7,0.7-0.7c0.4,0,0.7,0.3,0.7,0.7s-0.3,0.7-0.7,0.7
				C254,712.8,253.7,712.5,253.7,712.1z M253.9,714.1h1v6.3h-1V714.1z"/>
			<path class="st4" d="M256.4,718.6c0-1.5,1.5-1.9,3.1-1.9h0.9v-0.5c0-1-0.4-1.4-1.3-1.4c-0.9,0-1.3,0.4-1.4,1.1h-1
				c0.1-1.4,1.3-2,2.5-2c1.2,0,2.3,0.5,2.3,2.2v4.1h-1v-0.8c-0.5,0.6-1,0.9-2,0.9C257.3,720.5,256.4,719.9,256.4,718.6z
				 M260.5,718.2v-0.8h-0.9c-1.3,0-2.2,0.3-2.2,1.2c0,0.6,0.3,1.1,1.2,1.1C259.7,719.7,260.5,719.1,260.5,718.2z"/>
			<path class="st4" d="M266.1,717.4L266.1,717.4c0-2,1.2-3.4,2.9-3.4c1,0,1.7,0.5,2.1,1.1v-4h1v9.3h-1v-1.1
				c-0.4,0.6-1.2,1.2-2.1,1.2C267.3,720.5,266.1,719.3,266.1,717.4z M271.1,717.3L271.1,717.3c0-1.7-0.8-2.5-2-2.5
				c-1.2,0-2,0.9-2,2.4v0.1c0,1.6,0.9,2.3,1.9,2.3C270.2,719.7,271.1,718.9,271.1,717.3z"/>
			<path class="st4" d="M273.7,717.3L273.7,717.3c0-2,1.2-3.3,2.9-3.3c1.5,0,2.8,0.9,2.8,3.1v0.3h-4.7c0,1.4,0.7,2.2,2,2.2
				c1,0,1.5-0.4,1.7-1.1h1c-0.2,1.3-1.3,1.9-2.7,1.9C274.9,720.5,273.7,719.2,273.7,717.3z M278.4,716.6c-0.1-1.3-0.8-1.8-1.8-1.8
				c-1,0-1.7,0.7-1.9,1.8H278.4z"/>
			<path class="st4" d="M153.7,728.5h1v1.1c0.4-0.6,1.2-1.2,2.1-1.2c1.6,0,2.9,1.2,2.9,3.2v0.1c0,1.9-1.1,3.2-2.9,3.2
				c-1,0-1.8-0.5-2.1-1.1v3.2h-1V728.5z M158.7,731.7L158.7,731.7c0-1.7-0.9-2.5-1.9-2.5c-1.2,0-2.1,0.8-2.1,2.4v0.1
				c0,1.6,0.8,2.4,2.1,2.4C158,734.1,158.7,733.2,158.7,731.7z"/>
			<path class="st4" d="M161.2,728.5h1v1.1c0.4-0.7,0.9-1.2,2.1-1.2v0.9c-1.3,0.1-2.1,0.5-2.1,2v3.4h-1V728.5z"/>
			<path class="st4" d="M165.3,731.7L165.3,731.7c0-2,1.2-3.3,2.9-3.3c1.5,0,2.8,0.9,2.8,3.1v0.3h-4.7c0,1.4,0.7,2.2,2,2.2
				c1,0,1.5-0.4,1.7-1.1h1c-0.2,1.3-1.3,1.9-2.7,1.9C166.5,734.9,165.3,733.6,165.3,731.7z M170,731c-0.1-1.3-0.8-1.8-1.8-1.8
				c-1,0-1.7,0.7-1.9,1.8H170z"/>
			<path class="st4" d="M172.6,728.5h1v1c0.3-0.6,1-1.1,1.9-1.1c0.8,0,1.5,0.3,1.8,1.2c0.4-0.8,1.4-1.2,2.1-1.2
				c1.1,0,2.1,0.7,2.1,2.5v3.9h-1v-4c0-1.1-0.5-1.6-1.3-1.6c-0.8,0-1.7,0.6-1.7,1.7v3.8h-1v-4c0-1.1-0.5-1.6-1.3-1.6
				c-0.8,0-1.7,0.6-1.7,1.7v3.8h-1V728.5z"/>
			<path class="st4" d="M183.3,726.5c0-0.4,0.3-0.7,0.7-0.7s0.7,0.3,0.7,0.7s-0.3,0.7-0.7,0.7S183.3,726.9,183.3,726.5z
				 M183.5,728.5h1v6.3h-1V728.5z"/>
			<path class="st4" d="M186.1,731.7L186.1,731.7c0-2,1.3-3.3,3.1-3.3s3.1,1.3,3.1,3.2v0.1c0,1.9-1.3,3.2-3.1,3.2
				C187.4,734.9,186.1,733.5,186.1,731.7z M191.2,731.7L191.2,731.7c0-1.5-0.8-2.5-2.1-2.5c-1.3,0-2.1,0.9-2.1,2.4v0.1
				c0,1.4,0.8,2.4,2.1,2.4C190.4,734.1,191.2,733.1,191.2,731.7z"/>
			<path class="st4" d="M193.3,732.8h1c0.1,0.7,0.5,1.2,1.5,1.2c0.9,0,1.4-0.3,1.4-1c0-0.7-0.5-0.9-1.5-1.1
				c-1.6-0.3-2.2-0.8-2.2-1.8c0-1.2,1.1-1.8,2.1-1.8c1.1,0,2.1,0.5,2.3,1.8h-1c-0.1-0.7-0.5-1-1.3-1c-0.7,0-1.2,0.4-1.2,0.9
				c0,0.6,0.3,0.8,1.5,1c1.3,0.2,2.2,0.5,2.2,1.9c0,1.1-0.8,1.9-2.3,1.9C194.2,734.9,193.3,734.1,193.3,732.8z"/>
			<path class="st4" d="M202.3,731.7L202.3,731.7c0-2,1.2-3.3,2.9-3.3c1.5,0,2.8,0.9,2.8,3.1v0.3h-4.7c0,1.4,0.7,2.2,2,2.2
				c1,0,1.5-0.4,1.7-1.1h1c-0.2,1.3-1.3,1.9-2.7,1.9C203.5,734.9,202.3,733.6,202.3,731.7z M207,731c-0.1-1.3-0.8-1.8-1.8-1.8
				c-1,0-1.7,0.7-1.9,1.8H207z"/>
			<path class="st4" d="M209.5,728.5h1v1c0.3-0.6,1-1.1,2-1.1c1.3,0,2.2,0.7,2.2,2.5v3.8h-1v-3.9c0-1.1-0.5-1.6-1.5-1.6
				c-0.9,0-1.8,0.6-1.8,1.7v3.8h-1V728.5z"/>
			<path class="st4" d="M219.4,731.8L219.4,731.8c0-2,1.2-3.4,2.9-3.4c1,0,1.7,0.5,2.1,1.1v-4h1v9.3h-1v-1.1
				c-0.4,0.6-1.2,1.2-2.1,1.2C220.6,734.9,219.4,733.7,219.4,731.8z M224.4,731.7L224.4,731.7c0-1.7-0.8-2.5-2-2.5
				c-1.2,0-2,0.9-2,2.4v0.1c0,1.6,0.9,2.3,1.9,2.3C223.5,734.1,224.4,733.3,224.4,731.7z"/>
			<path class="st4" d="M227.3,726.5c0-0.4,0.3-0.7,0.7-0.7c0.4,0,0.7,0.3,0.7,0.7s-0.3,0.7-0.7,0.7
				C227.6,727.2,227.3,726.9,227.3,726.5z M227.5,728.5h1v6.3h-1V728.5z"/>
			<path class="st4" d="M230.5,728.5h1v1.1c0.4-0.7,0.9-1.2,2.1-1.2v0.9c-1.3,0.1-2.1,0.5-2.1,2v3.4h-1V728.5z"/>
			<path class="st4" d="M234.5,731.7L234.5,731.7c0-2,1.2-3.3,2.9-3.3c1.5,0,2.8,0.9,2.8,3.1v0.3h-4.7c0,1.4,0.7,2.2,2,2.2
				c1,0,1.5-0.4,1.7-1.1h1c-0.2,1.3-1.3,1.9-2.7,1.9C235.8,734.9,234.5,733.6,234.5,731.7z M239.3,731c-0.1-1.3-0.8-1.8-1.8-1.8
				c-1,0-1.7,0.7-1.9,1.8H239.3z"/>
			<path class="st4" d="M241.3,731.7L241.3,731.7c0-2,1.4-3.3,3-3.3c1.3,0,2.5,0.6,2.7,2.2h-1c-0.2-1-0.9-1.4-1.7-1.4
				c-1.1,0-2,0.9-2,2.4v0.1c0,1.5,0.8,2.4,2.1,2.4c0.9,0,1.7-0.5,1.8-1.5h0.9c-0.1,1.4-1.2,2.4-2.7,2.4
				C242.7,734.9,241.3,733.6,241.3,731.7z"/>
			<path class="st4" d="M248.9,733.2v-3.9H248v-0.8h0.9v-1.4h1v1.4h1.5v0.8h-1.5v3.8c0,0.6,0.3,0.9,0.8,0.9c0.3,0,0.6,0,0.8-0.1v0.8
				c-0.2,0.1-0.4,0.1-0.9,0.1C249.4,734.9,248.9,734.2,248.9,733.2z"/>
			<path class="st4" d="M252.4,731.7L252.4,731.7c0-2,1.3-3.3,3.1-3.3c1.8,0,3.1,1.3,3.1,3.2v0.1c0,1.9-1.3,3.2-3.1,3.2
				C253.7,734.9,252.4,733.5,252.4,731.7z M257.6,731.7L257.6,731.7c0-1.5-0.8-2.5-2.1-2.5c-1.3,0-2.1,0.9-2.1,2.4v0.1
				c0,1.4,0.8,2.4,2.1,2.4C256.8,734.1,257.6,733.1,257.6,731.7z"/>
		</g>
		<g>
			<polygon class="st4" points="207,827.5 138.6,759.1 275.3,759.1 			"/>
			<path class="st8" d="M185,776.7h5.4v1.3h-3.8v2.4h3v1.2h-3v2.5h4v1.3H185V776.7z"/>
			<path class="st8" d="M191.8,776.7h1.9l3.6,6.2v-6.2h1.5v8.6h-1.7l-3.9-6.6v6.6h-1.5V776.7z"/>
			<path class="st8" d="M202.2,778h-2.4v-1.3h6.4v1.3h-2.4v7.3h-1.6V778z"/>
			<path class="st8" d="M207.2,776.7h2.9c1.9,0,3.2,0.8,3.2,2.5v0c0,1.3-0.8,2-1.9,2.3l2.4,3.7h-1.7l-2.2-3.5h-1v3.5h-1.6V776.7z
				 M210.1,780.7c1.1,0,1.6-0.5,1.6-1.4v0c0-1-0.6-1.3-1.6-1.3h-1.3v2.7H210.1z"/>
			<path class="st8" d="M217,776.7h2.1l2.8,8.6h-1.7l-0.7-2.1h-3.3l-0.7,2.1h-1.5L217,776.7z M216.7,782h2.5l-1.3-4L216.7,782z"/>
			<path class="st8" d="M223,776.7h2.9c1.9,0,3.2,0.8,3.2,2.5v0c0,1.3-0.8,2-1.9,2.3l2.4,3.7h-1.7l-2.2-3.5h-1v3.5H223V776.7z
				 M225.9,780.7c1.1,0,1.6-0.5,1.6-1.4v0c0-1-0.6-1.3-1.6-1.3h-1.3v2.7H225.9z"/>
		</g>
	</g>
	<g>
		<g>
			<g>
				<path class="st4" d="M54.6,519.2h0.5v2c0.4-1.1,1.5-2.1,3-2.1c1.8,0,3.2,1.4,3.2,3.7v0.1c0,2.3-1.4,3.7-3.2,3.7
					c-1.6,0-2.6-1.1-3-2.1v4.5h-0.5V519.2z M60.9,522.9v-0.1c0-2.1-1.3-3.3-2.8-3.3c-1.5,0-2.9,1.2-2.9,3.3v0.1c0,2.1,1.4,3.3,3,3.3
					C59.7,526.2,60.9,525,60.9,522.9z"/>
				<path class="st4" d="M63.1,519.2h0.5v1.7c0.4-0.9,1.2-1.7,2.5-1.8v0.4c-1.4,0.1-2.5,0.8-2.5,2.9v4.1h-0.5V519.2z"/>
				<path class="st4" d="M67.2,522.9v-0.1c0-2.2,1.6-3.7,3.5-3.7c1.9,0,3.5,1.5,3.5,3.7v0.1c0,2.2-1.6,3.7-3.5,3.7
					S67.2,525,67.2,522.9z M73.7,522.9v-0.1c0-2.1-1.4-3.3-3-3.3c-1.6,0-3,1.3-3,3.3v0.1c0,2,1.4,3.3,3,3.3
					C72.3,526.2,73.7,524.9,73.7,522.9z M71.3,516h0.6l-1.2,2.1h-0.4L71.3,516z"/>
				<path class="st4" d="M77.9,522.7l-2.6-3.5h0.6l2.3,3.2l2.3-3.2H81l-2.5,3.5l2.8,3.8h-0.6l-2.5-3.5l-2.5,3.5h-0.5L77.9,522.7z"/>
				<path class="st4" d="M82.8,517.2c0-0.2,0.2-0.4,0.4-0.4c0.2,0,0.4,0.2,0.4,0.4c0,0.2-0.2,0.4-0.4,0.4
					C82.9,517.6,82.8,517.4,82.8,517.2z M82.9,519.2h0.5v7.3h-0.5V519.2z"/>
				<path class="st4" d="M85.7,519.2h0.5v1.6c0.3-0.9,1.3-1.7,2.5-1.7c1.2,0,2,0.5,2.3,1.8c0.4-1.1,1.4-1.8,2.7-1.8
					c1.5,0,2.4,0.8,2.4,2.8v4.6h-0.5v-4.6c0-1.7-0.7-2.4-2-2.4c-1.2,0-2.5,0.9-2.5,2.6v4.5h-0.5v-4.6c0-1.7-0.7-2.4-2-2.4
					c-1.2,0-2.5,0.9-2.5,2.6v4.5h-0.5V519.2z"/>
				<path class="st4" d="M97.8,524.5c0-1.7,1.5-2.2,3.3-2.2h1.8v-0.7c0-1.5-0.6-2.2-2-2.2c-1.2,0-2.1,0.5-2.3,1.7h-0.5
					c0.2-1.4,1.4-2.1,2.8-2.1c1.6,0,2.5,0.8,2.5,2.6v4.9h-0.5v-1.2c-0.4,0.7-1.3,1.4-2.6,1.4C98.8,526.6,97.8,525.9,97.8,524.5z
					 M102.9,524.2v-1.5h-1.8c-1.6,0-2.8,0.3-2.8,1.8c0,1.1,0.7,1.7,2.1,1.7C101.7,526.2,102.9,525.3,102.9,524.2z"/>
			</g>
		</g>
		<g>
			<g>
				<path class="st4" d="M124.6,588.4c0-1.7,1.7-2.3,3.8-2.3h0.9v-0.4c0-1-0.3-1.5-1.3-1.5c-0.9,0-1.3,0.4-1.4,1.1h-1.6
					c0.1-1.7,1.5-2.4,3.1-2.4c1.6,0,2.9,0.7,2.9,2.7v4.8h-1.7v-0.9c-0.5,0.6-1.1,1-2.2,1C125.7,590.6,124.6,590,124.6,588.4z
					 M129.2,587.9v-0.7h-0.9c-1.3,0-2.1,0.3-2.1,1.2c0,0.6,0.3,1,1.2,1C128.5,589.4,129.2,588.8,129.2,587.9z"/>
				<path class="st4" d="M132.9,583.1h1.7v1.4c0.5-0.9,1.1-1.5,2.4-1.5v1.6c-1.5,0-2.4,0.5-2.4,2v3.8h-1.7V583.1z"/>
				<path class="st4" d="M137.9,586.9v-0.1c0-2.3,1.6-3.8,3.6-3.8c1.8,0,3.5,1.1,3.5,3.7v0.5h-5.4c0.1,1.4,0.8,2.2,2,2.2
					c1,0,1.6-0.4,1.7-1.1h1.6c-0.2,1.5-1.5,2.4-3.4,2.4C139.5,590.6,137.9,589.2,137.9,586.9z M143.4,586c-0.1-1.3-0.7-1.8-1.8-1.8
					c-1,0-1.7,0.7-1.9,1.8H143.4z"/>
				<path class="st4" d="M146.6,583.1h1.7v1.2c0.4-0.7,1.2-1.3,2.4-1.3c1.5,0,2.5,0.9,2.5,2.9v4.6h-1.7V586c0-1.1-0.4-1.6-1.5-1.6
					c-1,0-1.7,0.6-1.7,1.8v4.3h-1.7V583.1z"/>
				<path class="st4" d="M154.5,588.4c0-1.7,1.7-2.3,3.8-2.3h0.9v-0.4c0-1-0.3-1.5-1.3-1.5c-0.9,0-1.3,0.4-1.4,1.1h-1.6
					c0.1-1.7,1.5-2.4,3.1-2.4c1.6,0,2.9,0.7,2.9,2.7v4.8h-1.7v-0.9c-0.5,0.6-1.1,1-2.2,1C155.6,590.6,154.5,590,154.5,588.4z
					 M159.2,587.9v-0.7h-0.9c-1.3,0-2.1,0.3-2.1,1.2c0,0.6,0.3,1,1.2,1C158.4,589.4,159.2,588.8,159.2,587.9z"/>
			</g>
		</g>
		<g>
			<path class="st4" d="M317.9,524.5v2h-0.5v-10.8h0.5v5.5c0.4-1.1,1.5-2.1,3-2.1c1.8,0,3.2,1.4,3.2,3.7v0.1c0,2.3-1.4,3.7-3.2,3.7
				C319.3,526.6,318.3,525.5,317.9,524.5z M323.6,522.9v-0.1c0-2.1-1.3-3.3-2.8-3.3c-1.5,0-2.9,1.2-2.9,3.3v0.1c0,2.1,1.4,3.3,3,3.3
				C322.4,526.2,323.6,525,323.6,522.9z"/>
			<path class="st4" d="M325.3,522.9v-0.1c0-2.2,1.4-3.7,3.3-3.7c1.8,0,3.1,1.2,3.1,3.5v0.2h-6c0,2.1,1,3.4,2.9,3.4
				c1.3,0,2.2-0.6,2.5-1.7h0.5c-0.3,1.4-1.5,2.1-3,2.1C326.6,526.6,325.3,525.1,325.3,522.9z M331.3,522.4c-0.1-1.9-1.1-2.9-2.7-2.9
				s-2.7,1.1-2.8,2.9H331.3z"/>
			<path class="st4" d="M332.9,522.9v-0.1c0-2.2,1.6-3.7,3.5-3.7c1.5,0,2.8,0.9,3,2.4h-0.5c-0.2-1.3-1.3-1.9-2.5-1.9
				c-1.6,0-3,1.3-3,3.3v0.1c0,2,1.3,3.3,3,3.3c1.3,0,2.4-0.8,2.6-2.2h0.4c-0.2,1.6-1.5,2.6-3.1,2.6
				C334.4,526.6,332.9,525.1,332.9,522.9z"/>
			<path class="st4" d="M340.6,524.5c0-1.7,1.5-2.2,3.3-2.2h1.8v-0.7c0-1.5-0.6-2.2-2-2.2c-1.2,0-2.1,0.5-2.3,1.7H341
				c0.2-1.4,1.4-2.1,2.8-2.1c1.6,0,2.5,0.8,2.5,2.6v4.9h-0.5v-1.2c-0.4,0.7-1.3,1.4-2.6,1.4C341.6,526.6,340.6,525.9,340.6,524.5z
				 M345.7,524.2v-1.5h-1.8c-1.6,0-2.8,0.3-2.8,1.8c0,1.1,0.7,1.7,2.1,1.7C344.6,526.2,345.7,525.3,345.7,524.2z"/>
			<path class="st4" d="M347.8,524.3h0.5c0.1,1.1,0.9,1.9,2.3,1.9c1.3,0,2-0.7,2-1.6c0-1.1-0.5-1.4-2-1.7c-1.7-0.3-2.5-0.7-2.5-2
				c0-1.1,1.1-1.9,2.4-1.9c1.3,0,2.3,0.6,2.5,1.9h-0.5c-0.2-1-0.9-1.5-2-1.5c-1.1,0-1.9,0.6-1.9,1.5c0,1,0.6,1.3,2.2,1.6
				c1.6,0.3,2.4,0.7,2.4,2c0,1.1-0.9,2.1-2.5,2.1C348.9,526.6,347.9,525.7,347.8,524.3z"/>
		</g>
		<g>
			<path class="st4" d="M234,587v-0.1c0-2.3,1.5-3.7,3.4-3.7c1.6,0,2.4,1,2.8,2v-5.4h0.5v10.8h-0.5v-2c-0.3,1-1.4,2.1-2.9,2.1
				C235.4,590.7,234,589.3,234,587z M240.2,587v-0.1c0-2.1-1.2-3.3-2.8-3.3c-1.6,0-2.9,1.2-2.9,3.3v0.1c0,2.1,1.2,3.3,2.8,3.3
				C238.9,590.3,240.2,589.1,240.2,587z"/>
			<path class="st4" d="M242.4,587v-0.1c0-2.2,1.6-3.7,3.5-3.7c1.9,0,3.5,1.5,3.5,3.7v0.1c0,2.2-1.6,3.7-3.5,3.7
				S242.4,589.1,242.4,587z M248.9,587v-0.1c0-2.1-1.4-3.3-3-3.3c-1.6,0-3,1.3-3,3.3v0.1c0,2,1.4,3.3,3,3.3
				C247.5,590.3,248.9,589,248.9,587z"/>
			<path class="st4" d="M250.6,587v-0.1c0-2.2,1.6-3.7,3.5-3.7c1.5,0,2.8,0.9,3,2.4h-0.5c-0.2-1.3-1.3-1.9-2.5-1.9
				c-1.6,0-3,1.3-3,3.3v0.1c0,2,1.3,3.3,3,3.3c1.3,0,2.4-0.8,2.6-2.2h0.4c-0.2,1.6-1.5,2.6-3.1,2.6
				C252.1,590.7,250.6,589.2,250.6,587z"/>
			<path class="st4" d="M258.7,587.9v-4.6h0.5v4.6c0,1.7,0.8,2.4,2.2,2.4c1.3,0,2.6-0.9,2.6-2.5v-4.5h0.5v7.3H264V589
				c-0.3,0.9-1.3,1.7-2.7,1.7C259.7,590.7,258.7,589.9,258.7,587.9z"/>
			<path class="st4" d="M266.7,583.2h0.5v1.6c0.3-0.9,1.3-1.7,2.5-1.7c1.2,0,2,0.5,2.3,1.8c0.4-1.1,1.4-1.8,2.7-1.8
				c1.5,0,2.4,0.8,2.4,2.8v4.6h-0.5v-4.6c0-1.7-0.7-2.4-2-2.4c-1.2,0-2.5,0.9-2.5,2.6v4.5h-0.5v-4.6c0-1.7-0.7-2.4-2-2.4
				c-1.2,0-2.5,0.9-2.5,2.6v4.5h-0.5V583.2z"/>
			<path class="st4" d="M278.8,587v-0.1c0-2.2,1.4-3.7,3.3-3.7c1.8,0,3.1,1.2,3.1,3.5v0.2h-6c0,2.1,1.1,3.4,2.9,3.4
				c1.3,0,2.2-0.6,2.5-1.7h0.5c-0.3,1.4-1.5,2.1-3,2.1C280.1,590.7,278.8,589.1,278.8,587z M284.8,586.5c-0.1-1.9-1.1-2.9-2.7-2.9
				c-1.6,0-2.7,1.1-2.8,2.9H284.8z"/>
			<path class="st4" d="M287,583.2h0.5v1.6c0.3-0.9,1.4-1.7,2.7-1.7c1.6,0,2.6,0.9,2.6,2.9v4.5h-0.5V586c0-1.7-0.8-2.5-2.2-2.5
				c-1.3,0-2.7,0.9-2.7,2.6v4.4H287V583.2z"/>
			<path class="st4" d="M295.3,588.8v-5.2h-1.1v-0.4h1.1v-1.7h0.5v1.7h2v0.4h-2v5.2c0,1,0.5,1.4,1.2,1.4c0.4,0,0.7-0.1,0.9-0.2v0.4
				c-0.2,0.1-0.5,0.2-1,0.2C295.9,590.7,295.3,590.1,295.3,588.8z"/>
			<path class="st4" d="M299.1,588.6c0-1.7,1.5-2.2,3.3-2.2h1.8v-0.7c0-1.5-0.6-2.2-2-2.2c-1.2,0-2.1,0.5-2.3,1.7h-0.5
				c0.2-1.4,1.4-2.1,2.8-2.1c1.6,0,2.5,0.8,2.5,2.6v4.9h-0.5v-1.2c-0.4,0.7-1.3,1.4-2.6,1.4C300.1,590.7,299.1,590,299.1,588.6z
				 M304.2,588.3v-1.5h-1.8c-1.6,0-2.8,0.3-2.8,1.8c0,1.1,0.7,1.7,2.1,1.7C303,590.3,304.2,589.4,304.2,588.3z"/>
			<path class="st4" d="M306.9,579.7h0.5v10.8h-0.5V579.7z"/>
		</g>
	</g>
	<g>
		<g id="BUTTONS_24_">
			<g>
				<g>
					<path class="st4" d="M63.5,510.2h0.3c0.1,0.6,0.7,1.1,1.8,1.1c1,0,1.8-0.5,1.8-1.7v-1.1c-0.2,0.6-0.9,1.3-1.9,1.3
						c-1.2,0-2.1-0.8-2.1-2.3v-0.1c0-1.4,1-2.3,2.2-2.3c1,0,1.6,0.6,1.8,1.3v-1.2h0.3v4.4c0,1.4-0.9,2-2.1,2
						C64.3,511.6,63.6,510.9,63.5,510.2z M67.4,507.5L67.4,507.5c0-1.3-0.8-2.1-1.8-2.1c-1,0-1.9,0.7-1.9,2v0.1c0,1.3,0.8,2,1.8,2
						C66.6,509.5,67.4,508.7,67.4,507.5z"/>
					<path class="st4" d="M68.9,508.6c0-1.1,1-1.4,2.1-1.4h1.2v-0.5c0-1-0.4-1.4-1.3-1.4c-0.7,0-1.3,0.3-1.5,1.1h-0.3
						c0.1-0.9,0.9-1.4,1.8-1.4c1,0,1.6,0.5,1.6,1.7v3.1h-0.3v-0.8c-0.3,0.5-0.8,0.9-1.7,0.9C69.5,510,68.9,509.5,68.9,508.6z
						 M72.2,508.5v-1H71c-1,0-1.8,0.2-1.8,1.2c0,0.7,0.5,1.1,1.3,1.1C71.4,509.7,72.2,509.1,72.2,508.5z"/>
					<path class="st4" d="M73.9,502.9h0.3v7h-0.3V502.9z"/>
					<path class="st4" d="M75.3,507.6L75.3,507.6c0-1.5,0.9-2.5,2.1-2.5c1.2,0,2,0.8,2,2.3v0.1h-3.8c0,1.4,0.7,2.2,1.9,2.2
						c0.8,0,1.4-0.4,1.6-1.1h0.3c-0.2,0.9-0.9,1.4-1.9,1.4C76.2,510,75.3,509,75.3,507.6z M79.2,507.3c0-1.2-0.7-1.9-1.7-1.9
						c-1,0-1.7,0.7-1.8,1.9H79.2z"/>
					<path class="st4" d="M80.6,505.2h0.3v1.1c0.2-0.6,0.8-1.1,1.6-1.1v0.3c-0.9,0-1.6,0.5-1.6,1.8v2.6h-0.3V505.2z"/>
					<path class="st4" d="M84.2,503.2h0.4l-0.8,1.3h-0.3L84.2,503.2z M83.6,505.2h0.3v4.7h-0.3V505.2z"/>
					<path class="st4" d="M85.1,508.6c0-1.1,1-1.4,2.1-1.4h1.2v-0.5c0-1-0.4-1.4-1.3-1.4c-0.7,0-1.3,0.3-1.5,1.1h-0.3
						c0.1-0.9,0.9-1.4,1.8-1.4c1,0,1.6,0.5,1.6,1.7v3.1h-0.3v-0.8c-0.3,0.5-0.8,0.9-1.7,0.9C85.7,510,85.1,509.5,85.1,508.6z
						 M88.3,508.5v-1h-1.2c-1,0-1.8,0.2-1.8,1.2c0,0.7,0.5,1.1,1.3,1.1C87.6,509.7,88.3,509.1,88.3,508.5z"/>
					<path class="st4" d="M94.2,502.9h0.3l-2.6,8.3h-0.3L94.2,502.9z"/>
				</g>
			</g>
		</g>
		<g id="BUTTONS_18_">
			<g>
				<g>
					<path class="st4" d="M319.5,510.2h0.3c0.1,0.6,0.7,1.1,1.8,1.1c1,0,1.8-0.5,1.8-1.7v-1.1c-0.2,0.6-0.9,1.3-1.9,1.3
						c-1.2,0-2.1-0.8-2.1-2.3v-0.1c0-1.4,1-2.3,2.2-2.3c1,0,1.6,0.6,1.8,1.3v-1.2h0.3v4.4c0,1.4-0.9,2-2.1,2
						C320.3,511.6,319.6,510.9,319.5,510.2z M323.4,507.5L323.4,507.5c0-1.3-0.8-2.1-1.8-2.1c-1,0-1.9,0.7-1.9,2v0.1
						c0,1.3,0.8,2,1.8,2C322.6,509.5,323.4,508.7,323.4,507.5z"/>
					<path class="st4" d="M324.9,508.6c0-1.1,1-1.4,2.1-1.4h1.2v-0.5c0-1-0.4-1.4-1.3-1.4c-0.7,0-1.3,0.3-1.5,1.1h-0.3
						c0.1-0.9,0.9-1.4,1.8-1.4c1,0,1.6,0.5,1.6,1.7v3.1h-0.3v-0.8c-0.3,0.5-0.8,0.9-1.7,0.9C325.5,510,324.9,509.5,324.9,508.6z
						 M328.2,508.5v-1H327c-1,0-1.8,0.2-1.8,1.2c0,0.7,0.5,1.1,1.3,1.1C327.4,509.7,328.2,509.1,328.2,508.5z"/>
					<path class="st4" d="M329.9,502.9h0.3v7h-0.3V502.9z"/>
					<path class="st4" d="M331.3,507.6L331.3,507.6c0-1.5,0.9-2.5,2.1-2.5c1.2,0,2,0.8,2,2.3v0.1h-3.8c0,1.4,0.7,2.2,1.9,2.2
						c0.8,0,1.4-0.4,1.6-1.1h0.3c-0.2,0.9-0.9,1.4-1.9,1.4C332.2,510,331.3,509,331.3,507.6z M335.2,507.3c0-1.2-0.7-1.9-1.7-1.9
						c-1,0-1.7,0.7-1.8,1.9H335.2z"/>
					<path class="st4" d="M336.6,505.2h0.3v1.1c0.2-0.6,0.8-1.1,1.6-1.1v0.3c-0.9,0-1.6,0.5-1.6,1.8v2.6h-0.3V505.2z"/>
					<path class="st4" d="M340.2,503.2h0.4l-0.8,1.3h-0.3L340.2,503.2z M339.6,505.2h0.3v4.7h-0.3V505.2z"/>
					<path class="st4" d="M341.1,508.6c0-1.1,1-1.4,2.1-1.4h1.2v-0.5c0-1-0.4-1.4-1.3-1.4c-0.7,0-1.3,0.3-1.5,1.1h-0.3
						c0.1-0.9,0.9-1.4,1.8-1.4c1,0,1.6,0.5,1.6,1.7v3.1h-0.3v-0.8c-0.3,0.5-0.8,0.9-1.7,0.9C341.7,510,341.1,509.5,341.1,508.6z
						 M344.3,508.5v-1h-1.2c-1,0-1.8,0.2-1.8,1.2c0,0.7,0.5,1.1,1.3,1.1C343.6,509.7,344.3,509.1,344.3,508.5z"/>
					<path class="st4" d="M350.2,502.9h0.3l-2.6,8.3h-0.3L350.2,502.9z"/>
				</g>
			</g>
		</g>
	</g>
</g>
</svg>
