<?xml version="1.0" encoding="UTF-8" standalone="no"?>
<!-- Generator: Adobe Illustrator 24.2.0, SVG Export Plug-In . SVG Version: 6.00 Build 0)  -->

<svg
   xmlns:dc="http://purl.org/dc/elements/1.1/"
   xmlns:cc="http://creativecommons.org/ns#"
   xmlns:rdf="http://www.w3.org/1999/02/22-rdf-syntax-ns#"
   xmlns:svg="http://www.w3.org/2000/svg"
   xmlns="http://www.w3.org/2000/svg"
   xmlns:xlink="http://www.w3.org/1999/xlink"
   xmlns:sodipodi="http://sodipodi.sourceforge.net/DTD/sodipodi-0.dtd"
   xmlns:inkscape="http://www.inkscape.org/namespaces/inkscape"
   version="1.1"
   id="Layer_5"
   x="0px"
   y="0px"
   viewBox="0 0 415 897"
   style="enable-background:new 0 0 415 897;"
   xml:space="preserve"
   sodipodi:docname="becas.svg"
   inkscape:version="0.92.5 (2060ec1f9f, 2020-04-08)"><metadata
   id="metadata64413"><rdf:RDF><cc:Work
       rdf:about=""><dc:format>image/svg+xml</dc:format><dc:type
         rdf:resource="http://purl.org/dc/dcmitype/StillImage" /><dc:title></dc:title></cc:Work></rdf:RDF></metadata><defs
   id="defs64411" /><sodipodi:namedview
   pagecolor="#ffffff"
   bordercolor="#666666"
   borderopacity="1"
   objecttolerance="10"
   gridtolerance="10"
   guidetolerance="10"
   inkscape:pageopacity="0"
   inkscape:pageshadow="2"
   inkscape:window-width="1366"
   inkscape:window-height="704"
   id="namedview64409"
   showgrid="false"
   inkscape:zoom="0.74415697"
   inkscape:cx="130.05004"
   inkscape:cy="455.57415"
   inkscape:window-x="0"
   inkscape:window-y="27"
   inkscape:window-maximized="1"
   inkscape:current-layer="Layer_5" />
<style
   type="text/css"
   id="style63286">
	.st0{fill:none;}
	.st1{fill:none;stroke:#FAB906;stroke-width:3.5433;stroke-miterlimit:10;}
	.st2{fill:#FFFFFF;}
	.st3{fill:#1D1D1B;}
	.st4{fill:url(#SVGID_3_);}
	.st5{fill:url(#SVGID_4_);}
	.st6{fill:none;stroke:#1D1E1B;stroke-width:0.9921;stroke-miterlimit:10;}
	.st7{fill:#FAB900;}
	.st8{fill-rule:evenodd;clip-rule:evenodd;fill:#FAB900;}
	.st9{fill-rule:evenodd;clip-rule:evenodd;fill:#1D1D1B;}
</style>
<pattern
   y="897"
   width="128"
   height="128"
   patternUnits="userSpaceOnUse"
   id="SVGID_1_"
   viewBox="129.3 -257.3 128 128"
   style="overflow:visible;">
	<g
   id="g63594">
		<rect
   x="129.3"
   y="-257.3"
   class="st0"
   width="128"
   height="128"
   id="rect63288" />
		<g
   id="g63592">
			<rect
   x="129.3"
   y="-257.3"
   class="st0"
   width="128"
   height="128"
   id="rect63290" />
			<g
   id="g63316">
				<line
   class="st1"
   x1="257.3"
   y1="-385.3"
   x2="385.3"
   y2="-257.3"
   id="line63292" />
				<line
   class="st1"
   x1="150.6"
   y1="-385.3"
   x2="278.6"
   y2="-257.3"
   id="line63294" />
				<line
   class="st1"
   x1="171.9"
   y1="-385.3"
   x2="299.9"
   y2="-257.3"
   id="line63296" />
				<line
   class="st1"
   x1="193.3"
   y1="-385.3"
   x2="321.3"
   y2="-257.3"
   id="line63298" />
				<line
   class="st1"
   x1="214.6"
   y1="-385.3"
   x2="342.6"
   y2="-257.3"
   id="line63300" />
				<line
   class="st1"
   x1="235.9"
   y1="-385.3"
   x2="363.9"
   y2="-257.3"
   id="line63302" />
				<line
   class="st1"
   x1="246.6"
   y1="-385.3"
   x2="374.6"
   y2="-257.3"
   id="line63304" />
				<line
   class="st1"
   x1="139.9"
   y1="-385.3"
   x2="267.9"
   y2="-257.3"
   id="line63306" />
				<line
   class="st1"
   x1="161.3"
   y1="-385.3"
   x2="289.3"
   y2="-257.3"
   id="line63308" />
				<line
   class="st1"
   x1="182.6"
   y1="-385.3"
   x2="310.6"
   y2="-257.3"
   id="line63310" />
				<line
   class="st1"
   x1="203.9"
   y1="-385.3"
   x2="331.9"
   y2="-257.3"
   id="line63312" />
				<line
   class="st1"
   x1="225.3"
   y1="-385.3"
   x2="353.3"
   y2="-257.3"
   id="line63314" />
			</g>
			<g
   id="g63364">
				<line
   class="st1"
   x1="129.3"
   y1="-385.3"
   x2="257.3"
   y2="-257.3"
   id="line63318" />
				<line
   class="st1"
   x1="22.6"
   y1="-385.3"
   x2="150.6"
   y2="-257.3"
   id="line63320" />
				<line
   class="st1"
   x1="43.9"
   y1="-385.3"
   x2="171.9"
   y2="-257.3"
   id="line63322" />
				<line
   class="st1"
   x1="65.3"
   y1="-385.3"
   x2="193.3"
   y2="-257.3"
   id="line63324" />
				<line
   class="st1"
   x1="86.6"
   y1="-385.3"
   x2="214.6"
   y2="-257.3"
   id="line63326" />
				<line
   class="st1"
   x1="107.9"
   y1="-385.3"
   x2="235.9"
   y2="-257.3"
   id="line63328" />
				<line
   class="st1"
   x1="150.6"
   y1="-385.3"
   x2="278.6"
   y2="-257.3"
   id="line63330" />
				<line
   class="st1"
   x1="171.9"
   y1="-385.3"
   x2="299.9"
   y2="-257.3"
   id="line63332" />
				<line
   class="st1"
   x1="193.3"
   y1="-385.3"
   x2="321.3"
   y2="-257.3"
   id="line63334" />
				<line
   class="st1"
   x1="214.6"
   y1="-385.3"
   x2="342.6"
   y2="-257.3"
   id="line63336" />
				<line
   class="st1"
   x1="235.9"
   y1="-385.3"
   x2="363.9"
   y2="-257.3"
   id="line63338" />
				<line
   class="st1"
   x1="246.6"
   y1="-385.3"
   x2="374.6"
   y2="-257.3"
   id="line63340" />
				<line
   class="st1"
   x1="118.6"
   y1="-385.3"
   x2="246.6"
   y2="-257.3"
   id="line63342" />
				<line
   class="st1"
   x1="11.9"
   y1="-385.3"
   x2="139.9"
   y2="-257.3"
   id="line63344" />
				<line
   class="st1"
   x1="33.3"
   y1="-385.3"
   x2="161.3"
   y2="-257.3"
   id="line63346" />
				<line
   class="st1"
   x1="54.6"
   y1="-385.3"
   x2="182.6"
   y2="-257.3"
   id="line63348" />
				<line
   class="st1"
   x1="75.9"
   y1="-385.3"
   x2="203.9"
   y2="-257.3"
   id="line63350" />
				<line
   class="st1"
   x1="97.3"
   y1="-385.3"
   x2="225.3"
   y2="-257.3"
   id="line63352" />
				<line
   class="st1"
   x1="139.9"
   y1="-385.3"
   x2="267.9"
   y2="-257.3"
   id="line63354" />
				<line
   class="st1"
   x1="161.3"
   y1="-385.3"
   x2="289.3"
   y2="-257.3"
   id="line63356" />
				<line
   class="st1"
   x1="182.6"
   y1="-385.3"
   x2="310.6"
   y2="-257.3"
   id="line63358" />
				<line
   class="st1"
   x1="203.9"
   y1="-385.3"
   x2="331.9"
   y2="-257.3"
   id="line63360" />
				<line
   class="st1"
   x1="225.3"
   y1="-385.3"
   x2="353.3"
   y2="-257.3"
   id="line63362" />
			</g>
			<g
   id="g63390">
				<line
   class="st1"
   x1="1.3"
   y1="-385.3"
   x2="129.3"
   y2="-257.3"
   id="line63366" />
				<line
   class="st1"
   x1="22.6"
   y1="-385.3"
   x2="150.6"
   y2="-257.3"
   id="line63368" />
				<line
   class="st1"
   x1="43.9"
   y1="-385.3"
   x2="171.9"
   y2="-257.3"
   id="line63370" />
				<line
   class="st1"
   x1="65.3"
   y1="-385.3"
   x2="193.3"
   y2="-257.3"
   id="line63372" />
				<line
   class="st1"
   x1="86.6"
   y1="-385.3"
   x2="214.6"
   y2="-257.3"
   id="line63374" />
				<line
   class="st1"
   x1="107.9"
   y1="-385.3"
   x2="235.9"
   y2="-257.3"
   id="line63376" />
				<line
   class="st1"
   x1="118.6"
   y1="-385.3"
   x2="246.6"
   y2="-257.3"
   id="line63378" />
				<line
   class="st1"
   x1="11.9"
   y1="-385.3"
   x2="139.9"
   y2="-257.3"
   id="line63380" />
				<line
   class="st1"
   x1="33.3"
   y1="-385.3"
   x2="161.3"
   y2="-257.3"
   id="line63382" />
				<line
   class="st1"
   x1="54.6"
   y1="-385.3"
   x2="182.6"
   y2="-257.3"
   id="line63384" />
				<line
   class="st1"
   x1="75.9"
   y1="-385.3"
   x2="203.9"
   y2="-257.3"
   id="line63386" />
				<line
   class="st1"
   x1="97.3"
   y1="-385.3"
   x2="225.3"
   y2="-257.3"
   id="line63388" />
			</g>
			<g
   id="g63416">
				<line
   class="st1"
   x1="257.3"
   y1="-257.3"
   x2="385.3"
   y2="-129.3"
   id="line63392" />
				<line
   class="st1"
   x1="150.6"
   y1="-257.3"
   x2="278.6"
   y2="-129.3"
   id="line63394" />
				<line
   class="st1"
   x1="171.9"
   y1="-257.3"
   x2="299.9"
   y2="-129.3"
   id="line63396" />
				<line
   class="st1"
   x1="193.3"
   y1="-257.3"
   x2="321.3"
   y2="-129.3"
   id="line63398" />
				<line
   class="st1"
   x1="214.6"
   y1="-257.3"
   x2="342.6"
   y2="-129.3"
   id="line63400" />
				<line
   class="st1"
   x1="235.9"
   y1="-257.3"
   x2="363.9"
   y2="-129.3"
   id="line63402" />
				<line
   class="st1"
   x1="246.6"
   y1="-257.3"
   x2="374.6"
   y2="-129.3"
   id="line63404" />
				<line
   class="st1"
   x1="139.9"
   y1="-257.3"
   x2="267.9"
   y2="-129.3"
   id="line63406" />
				<line
   class="st1"
   x1="161.3"
   y1="-257.3"
   x2="289.3"
   y2="-129.3"
   id="line63408" />
				<line
   class="st1"
   x1="182.6"
   y1="-257.3"
   x2="310.6"
   y2="-129.3"
   id="line63410" />
				<line
   class="st1"
   x1="203.9"
   y1="-257.3"
   x2="331.9"
   y2="-129.3"
   id="line63412" />
				<line
   class="st1"
   x1="225.3"
   y1="-257.3"
   x2="353.3"
   y2="-129.3"
   id="line63414" />
			</g>
			<g
   id="g63464">
				<line
   class="st1"
   x1="129.3"
   y1="-257.3"
   x2="257.3"
   y2="-129.3"
   id="line63418" />
				<line
   class="st1"
   x1="22.6"
   y1="-257.3"
   x2="150.6"
   y2="-129.3"
   id="line63420" />
				<line
   class="st1"
   x1="43.9"
   y1="-257.3"
   x2="171.9"
   y2="-129.3"
   id="line63422" />
				<line
   class="st1"
   x1="65.3"
   y1="-257.3"
   x2="193.3"
   y2="-129.3"
   id="line63424" />
				<line
   class="st1"
   x1="86.6"
   y1="-257.3"
   x2="214.6"
   y2="-129.3"
   id="line63426" />
				<line
   class="st1"
   x1="107.9"
   y1="-257.3"
   x2="235.9"
   y2="-129.3"
   id="line63428" />
				<line
   class="st1"
   x1="150.6"
   y1="-257.3"
   x2="278.6"
   y2="-129.3"
   id="line63430" />
				<line
   class="st1"
   x1="171.9"
   y1="-257.3"
   x2="299.9"
   y2="-129.3"
   id="line63432" />
				<line
   class="st1"
   x1="193.3"
   y1="-257.3"
   x2="321.3"
   y2="-129.3"
   id="line63434" />
				<line
   class="st1"
   x1="214.6"
   y1="-257.3"
   x2="342.6"
   y2="-129.3"
   id="line63436" />
				<line
   class="st1"
   x1="235.9"
   y1="-257.3"
   x2="363.9"
   y2="-129.3"
   id="line63438" />
				<line
   class="st1"
   x1="246.6"
   y1="-257.3"
   x2="374.6"
   y2="-129.3"
   id="line63440" />
				<line
   class="st1"
   x1="118.6"
   y1="-257.3"
   x2="246.6"
   y2="-129.3"
   id="line63442" />
				<line
   class="st1"
   x1="11.9"
   y1="-257.3"
   x2="139.9"
   y2="-129.3"
   id="line63444" />
				<line
   class="st1"
   x1="33.3"
   y1="-257.3"
   x2="161.3"
   y2="-129.3"
   id="line63446" />
				<line
   class="st1"
   x1="54.6"
   y1="-257.3"
   x2="182.6"
   y2="-129.3"
   id="line63448" />
				<line
   class="st1"
   x1="75.9"
   y1="-257.3"
   x2="203.9"
   y2="-129.3"
   id="line63450" />
				<line
   class="st1"
   x1="97.3"
   y1="-257.3"
   x2="225.3"
   y2="-129.3"
   id="line63452" />
				<line
   class="st1"
   x1="139.9"
   y1="-257.3"
   x2="267.9"
   y2="-129.3"
   id="line63454" />
				<line
   class="st1"
   x1="161.3"
   y1="-257.3"
   x2="289.3"
   y2="-129.3"
   id="line63456" />
				<line
   class="st1"
   x1="182.6"
   y1="-257.3"
   x2="310.6"
   y2="-129.3"
   id="line63458" />
				<line
   class="st1"
   x1="203.9"
   y1="-257.3"
   x2="331.9"
   y2="-129.3"
   id="line63460" />
				<line
   class="st1"
   x1="225.3"
   y1="-257.3"
   x2="353.3"
   y2="-129.3"
   id="line63462" />
			</g>
			<g
   id="g63490">
				<line
   class="st1"
   x1="1.3"
   y1="-257.3"
   x2="129.3"
   y2="-129.3"
   id="line63466" />
				<line
   class="st1"
   x1="22.6"
   y1="-257.3"
   x2="150.6"
   y2="-129.3"
   id="line63468" />
				<line
   class="st1"
   x1="43.9"
   y1="-257.3"
   x2="171.9"
   y2="-129.3"
   id="line63470" />
				<line
   class="st1"
   x1="65.3"
   y1="-257.3"
   x2="193.3"
   y2="-129.3"
   id="line63472" />
				<line
   class="st1"
   x1="86.6"
   y1="-257.3"
   x2="214.6"
   y2="-129.3"
   id="line63474" />
				<line
   class="st1"
   x1="107.9"
   y1="-257.3"
   x2="235.9"
   y2="-129.3"
   id="line63476" />
				<line
   class="st1"
   x1="118.6"
   y1="-257.3"
   x2="246.6"
   y2="-129.3"
   id="line63478" />
				<line
   class="st1"
   x1="11.9"
   y1="-257.3"
   x2="139.9"
   y2="-129.3"
   id="line63480" />
				<line
   class="st1"
   x1="33.3"
   y1="-257.3"
   x2="161.3"
   y2="-129.3"
   id="line63482" />
				<line
   class="st1"
   x1="54.6"
   y1="-257.3"
   x2="182.6"
   y2="-129.3"
   id="line63484" />
				<line
   class="st1"
   x1="75.9"
   y1="-257.3"
   x2="203.9"
   y2="-129.3"
   id="line63486" />
				<line
   class="st1"
   x1="97.3"
   y1="-257.3"
   x2="225.3"
   y2="-129.3"
   id="line63488" />
			</g>
			<g
   id="g63516">
				<line
   class="st1"
   x1="257.3"
   y1="-129.3"
   x2="385.3"
   y2="-1.3"
   id="line63492" />
				<line
   class="st1"
   x1="150.6"
   y1="-129.3"
   x2="278.6"
   y2="-1.3"
   id="line63494" />
				<line
   class="st1"
   x1="171.9"
   y1="-129.3"
   x2="299.9"
   y2="-1.3"
   id="line63496" />
				<line
   class="st1"
   x1="193.3"
   y1="-129.3"
   x2="321.3"
   y2="-1.3"
   id="line63498" />
				<line
   class="st1"
   x1="214.6"
   y1="-129.3"
   x2="342.6"
   y2="-1.3"
   id="line63500" />
				<line
   class="st1"
   x1="235.9"
   y1="-129.3"
   x2="363.9"
   y2="-1.3"
   id="line63502" />
				<line
   class="st1"
   x1="246.6"
   y1="-129.3"
   x2="374.6"
   y2="-1.3"
   id="line63504" />
				<line
   class="st1"
   x1="139.9"
   y1="-129.3"
   x2="267.9"
   y2="-1.3"
   id="line63506" />
				<line
   class="st1"
   x1="161.3"
   y1="-129.3"
   x2="289.3"
   y2="-1.3"
   id="line63508" />
				<line
   class="st1"
   x1="182.6"
   y1="-129.3"
   x2="310.6"
   y2="-1.3"
   id="line63510" />
				<line
   class="st1"
   x1="203.9"
   y1="-129.3"
   x2="331.9"
   y2="-1.3"
   id="line63512" />
				<line
   class="st1"
   x1="225.3"
   y1="-129.3"
   x2="353.3"
   y2="-1.3"
   id="line63514" />
			</g>
			<g
   id="g63564">
				<line
   class="st1"
   x1="129.3"
   y1="-129.3"
   x2="257.3"
   y2="-1.3"
   id="line63518" />
				<line
   class="st1"
   x1="22.6"
   y1="-129.3"
   x2="150.6"
   y2="-1.3"
   id="line63520" />
				<line
   class="st1"
   x1="43.9"
   y1="-129.3"
   x2="171.9"
   y2="-1.3"
   id="line63522" />
				<line
   class="st1"
   x1="65.3"
   y1="-129.3"
   x2="193.3"
   y2="-1.3"
   id="line63524" />
				<line
   class="st1"
   x1="86.6"
   y1="-129.3"
   x2="214.6"
   y2="-1.3"
   id="line63526" />
				<line
   class="st1"
   x1="107.9"
   y1="-129.3"
   x2="235.9"
   y2="-1.3"
   id="line63528" />
				<line
   class="st1"
   x1="150.6"
   y1="-129.3"
   x2="278.6"
   y2="-1.3"
   id="line63530" />
				<line
   class="st1"
   x1="171.9"
   y1="-129.3"
   x2="299.9"
   y2="-1.3"
   id="line63532" />
				<line
   class="st1"
   x1="193.3"
   y1="-129.3"
   x2="321.3"
   y2="-1.3"
   id="line63534" />
				<line
   class="st1"
   x1="214.6"
   y1="-129.3"
   x2="342.6"
   y2="-1.3"
   id="line63536" />
				<line
   class="st1"
   x1="235.9"
   y1="-129.3"
   x2="363.9"
   y2="-1.3"
   id="line63538" />
				<line
   class="st1"
   x1="246.6"
   y1="-129.3"
   x2="374.6"
   y2="-1.3"
   id="line63540" />
				<line
   class="st1"
   x1="118.6"
   y1="-129.3"
   x2="246.6"
   y2="-1.3"
   id="line63542" />
				<line
   class="st1"
   x1="11.9"
   y1="-129.3"
   x2="139.9"
   y2="-1.3"
   id="line63544" />
				<line
   class="st1"
   x1="33.3"
   y1="-129.3"
   x2="161.3"
   y2="-1.3"
   id="line63546" />
				<line
   class="st1"
   x1="54.6"
   y1="-129.3"
   x2="182.6"
   y2="-1.3"
   id="line63548" />
				<line
   class="st1"
   x1="75.9"
   y1="-129.3"
   x2="203.9"
   y2="-1.3"
   id="line63550" />
				<line
   class="st1"
   x1="97.3"
   y1="-129.3"
   x2="225.3"
   y2="-1.3"
   id="line63552" />
				<line
   class="st1"
   x1="139.9"
   y1="-129.3"
   x2="267.9"
   y2="-1.3"
   id="line63554" />
				<line
   class="st1"
   x1="161.3"
   y1="-129.3"
   x2="289.3"
   y2="-1.3"
   id="line63556" />
				<line
   class="st1"
   x1="182.6"
   y1="-129.3"
   x2="310.6"
   y2="-1.3"
   id="line63558" />
				<line
   class="st1"
   x1="203.9"
   y1="-129.3"
   x2="331.9"
   y2="-1.3"
   id="line63560" />
				<line
   class="st1"
   x1="225.3"
   y1="-129.3"
   x2="353.3"
   y2="-1.3"
   id="line63562" />
			</g>
			<g
   id="g63590">
				<line
   class="st1"
   x1="1.3"
   y1="-129.3"
   x2="129.3"
   y2="-1.3"
   id="line63566" />
				<line
   class="st1"
   x1="22.6"
   y1="-129.3"
   x2="150.6"
   y2="-1.3"
   id="line63568" />
				<line
   class="st1"
   x1="43.9"
   y1="-129.3"
   x2="171.9"
   y2="-1.3"
   id="line63570" />
				<line
   class="st1"
   x1="65.3"
   y1="-129.3"
   x2="193.3"
   y2="-1.3"
   id="line63572" />
				<line
   class="st1"
   x1="86.6"
   y1="-129.3"
   x2="214.6"
   y2="-1.3"
   id="line63574" />
				<line
   class="st1"
   x1="107.9"
   y1="-129.3"
   x2="235.9"
   y2="-1.3"
   id="line63576" />
				<line
   class="st1"
   x1="118.6"
   y1="-129.3"
   x2="246.6"
   y2="-1.3"
   id="line63578" />
				<line
   class="st1"
   x1="11.9"
   y1="-129.3"
   x2="139.9"
   y2="-1.3"
   id="line63580" />
				<line
   class="st1"
   x1="33.3"
   y1="-129.3"
   x2="161.3"
   y2="-1.3"
   id="line63582" />
				<line
   class="st1"
   x1="54.6"
   y1="-129.3"
   x2="182.6"
   y2="-1.3"
   id="line63584" />
				<line
   class="st1"
   x1="75.9"
   y1="-129.3"
   x2="203.9"
   y2="-1.3"
   id="line63586" />
				<line
   class="st1"
   x1="97.3"
   y1="-129.3"
   x2="225.3"
   y2="-1.3"
   id="line63588" />
			</g>
		</g>
	</g>
</pattern>
<pattern
   y="897"
   width="128"
   height="128"
   patternUnits="userSpaceOnUse"
   id="SVGID_2_"
   viewBox="129.3 -257.3 128 128"
   style="overflow:visible;">
	<g
   id="g63903">
		<rect
   x="129.3"
   y="-257.3"
   class="st0"
   width="128"
   height="128"
   id="rect63597" />
		<g
   id="g63901">
			<rect
   x="129.3"
   y="-257.3"
   class="st0"
   width="128"
   height="128"
   id="rect63599" />
			<g
   id="g63625">
				<line
   class="st1"
   x1="257.3"
   y1="-385.3"
   x2="385.3"
   y2="-257.3"
   id="line63601" />
				<line
   class="st1"
   x1="150.6"
   y1="-385.3"
   x2="278.6"
   y2="-257.3"
   id="line63603" />
				<line
   class="st1"
   x1="171.9"
   y1="-385.3"
   x2="299.9"
   y2="-257.3"
   id="line63605" />
				<line
   class="st1"
   x1="193.3"
   y1="-385.3"
   x2="321.3"
   y2="-257.3"
   id="line63607" />
				<line
   class="st1"
   x1="214.6"
   y1="-385.3"
   x2="342.6"
   y2="-257.3"
   id="line63609" />
				<line
   class="st1"
   x1="235.9"
   y1="-385.3"
   x2="363.9"
   y2="-257.3"
   id="line63611" />
				<line
   class="st1"
   x1="246.6"
   y1="-385.3"
   x2="374.6"
   y2="-257.3"
   id="line63613" />
				<line
   class="st1"
   x1="139.9"
   y1="-385.3"
   x2="267.9"
   y2="-257.3"
   id="line63615" />
				<line
   class="st1"
   x1="161.3"
   y1="-385.3"
   x2="289.3"
   y2="-257.3"
   id="line63617" />
				<line
   class="st1"
   x1="182.6"
   y1="-385.3"
   x2="310.6"
   y2="-257.3"
   id="line63619" />
				<line
   class="st1"
   x1="203.9"
   y1="-385.3"
   x2="331.9"
   y2="-257.3"
   id="line63621" />
				<line
   class="st1"
   x1="225.3"
   y1="-385.3"
   x2="353.3"
   y2="-257.3"
   id="line63623" />
			</g>
			<g
   id="g63673">
				<line
   class="st1"
   x1="129.3"
   y1="-385.3"
   x2="257.3"
   y2="-257.3"
   id="line63627" />
				<line
   class="st1"
   x1="22.6"
   y1="-385.3"
   x2="150.6"
   y2="-257.3"
   id="line63629" />
				<line
   class="st1"
   x1="43.9"
   y1="-385.3"
   x2="171.9"
   y2="-257.3"
   id="line63631" />
				<line
   class="st1"
   x1="65.3"
   y1="-385.3"
   x2="193.3"
   y2="-257.3"
   id="line63633" />
				<line
   class="st1"
   x1="86.6"
   y1="-385.3"
   x2="214.6"
   y2="-257.3"
   id="line63635" />
				<line
   class="st1"
   x1="107.9"
   y1="-385.3"
   x2="235.9"
   y2="-257.3"
   id="line63637" />
				<line
   class="st1"
   x1="150.6"
   y1="-385.3"
   x2="278.6"
   y2="-257.3"
   id="line63639" />
				<line
   class="st1"
   x1="171.9"
   y1="-385.3"
   x2="299.9"
   y2="-257.3"
   id="line63641" />
				<line
   class="st1"
   x1="193.3"
   y1="-385.3"
   x2="321.3"
   y2="-257.3"
   id="line63643" />
				<line
   class="st1"
   x1="214.6"
   y1="-385.3"
   x2="342.6"
   y2="-257.3"
   id="line63645" />
				<line
   class="st1"
   x1="235.9"
   y1="-385.3"
   x2="363.9"
   y2="-257.3"
   id="line63647" />
				<line
   class="st1"
   x1="246.6"
   y1="-385.3"
   x2="374.6"
   y2="-257.3"
   id="line63649" />
				<line
   class="st1"
   x1="118.6"
   y1="-385.3"
   x2="246.6"
   y2="-257.3"
   id="line63651" />
				<line
   class="st1"
   x1="11.9"
   y1="-385.3"
   x2="139.9"
   y2="-257.3"
   id="line63653" />
				<line
   class="st1"
   x1="33.3"
   y1="-385.3"
   x2="161.3"
   y2="-257.3"
   id="line63655" />
				<line
   class="st1"
   x1="54.6"
   y1="-385.3"
   x2="182.6"
   y2="-257.3"
   id="line63657" />
				<line
   class="st1"
   x1="75.9"
   y1="-385.3"
   x2="203.9"
   y2="-257.3"
   id="line63659" />
				<line
   class="st1"
   x1="97.3"
   y1="-385.3"
   x2="225.3"
   y2="-257.3"
   id="line63661" />
				<line
   class="st1"
   x1="139.9"
   y1="-385.3"
   x2="267.9"
   y2="-257.3"
   id="line63663" />
				<line
   class="st1"
   x1="161.3"
   y1="-385.3"
   x2="289.3"
   y2="-257.3"
   id="line63665" />
				<line
   class="st1"
   x1="182.6"
   y1="-385.3"
   x2="310.6"
   y2="-257.3"
   id="line63667" />
				<line
   class="st1"
   x1="203.9"
   y1="-385.3"
   x2="331.9"
   y2="-257.3"
   id="line63669" />
				<line
   class="st1"
   x1="225.3"
   y1="-385.3"
   x2="353.3"
   y2="-257.3"
   id="line63671" />
			</g>
			<g
   id="g63699">
				<line
   class="st1"
   x1="1.3"
   y1="-385.3"
   x2="129.3"
   y2="-257.3"
   id="line63675" />
				<line
   class="st1"
   x1="22.6"
   y1="-385.3"
   x2="150.6"
   y2="-257.3"
   id="line63677" />
				<line
   class="st1"
   x1="43.9"
   y1="-385.3"
   x2="171.9"
   y2="-257.3"
   id="line63679" />
				<line
   class="st1"
   x1="65.3"
   y1="-385.3"
   x2="193.3"
   y2="-257.3"
   id="line63681" />
				<line
   class="st1"
   x1="86.6"
   y1="-385.3"
   x2="214.6"
   y2="-257.3"
   id="line63683" />
				<line
   class="st1"
   x1="107.9"
   y1="-385.3"
   x2="235.9"
   y2="-257.3"
   id="line63685" />
				<line
   class="st1"
   x1="118.6"
   y1="-385.3"
   x2="246.6"
   y2="-257.3"
   id="line63687" />
				<line
   class="st1"
   x1="11.9"
   y1="-385.3"
   x2="139.9"
   y2="-257.3"
   id="line63689" />
				<line
   class="st1"
   x1="33.3"
   y1="-385.3"
   x2="161.3"
   y2="-257.3"
   id="line63691" />
				<line
   class="st1"
   x1="54.6"
   y1="-385.3"
   x2="182.6"
   y2="-257.3"
   id="line63693" />
				<line
   class="st1"
   x1="75.9"
   y1="-385.3"
   x2="203.9"
   y2="-257.3"
   id="line63695" />
				<line
   class="st1"
   x1="97.3"
   y1="-385.3"
   x2="225.3"
   y2="-257.3"
   id="line63697" />
			</g>
			<g
   id="g63725">
				<line
   class="st1"
   x1="257.3"
   y1="-257.3"
   x2="385.3"
   y2="-129.3"
   id="line63701" />
				<line
   class="st1"
   x1="150.6"
   y1="-257.3"
   x2="278.6"
   y2="-129.3"
   id="line63703" />
				<line
   class="st1"
   x1="171.9"
   y1="-257.3"
   x2="299.9"
   y2="-129.3"
   id="line63705" />
				<line
   class="st1"
   x1="193.3"
   y1="-257.3"
   x2="321.3"
   y2="-129.3"
   id="line63707" />
				<line
   class="st1"
   x1="214.6"
   y1="-257.3"
   x2="342.6"
   y2="-129.3"
   id="line63709" />
				<line
   class="st1"
   x1="235.9"
   y1="-257.3"
   x2="363.9"
   y2="-129.3"
   id="line63711" />
				<line
   class="st1"
   x1="246.6"
   y1="-257.3"
   x2="374.6"
   y2="-129.3"
   id="line63713" />
				<line
   class="st1"
   x1="139.9"
   y1="-257.3"
   x2="267.9"
   y2="-129.3"
   id="line63715" />
				<line
   class="st1"
   x1="161.3"
   y1="-257.3"
   x2="289.3"
   y2="-129.3"
   id="line63717" />
				<line
   class="st1"
   x1="182.6"
   y1="-257.3"
   x2="310.6"
   y2="-129.3"
   id="line63719" />
				<line
   class="st1"
   x1="203.9"
   y1="-257.3"
   x2="331.9"
   y2="-129.3"
   id="line63721" />
				<line
   class="st1"
   x1="225.3"
   y1="-257.3"
   x2="353.3"
   y2="-129.3"
   id="line63723" />
			</g>
			<g
   id="g63773">
				<line
   class="st1"
   x1="129.3"
   y1="-257.3"
   x2="257.3"
   y2="-129.3"
   id="line63727" />
				<line
   class="st1"
   x1="22.6"
   y1="-257.3"
   x2="150.6"
   y2="-129.3"
   id="line63729" />
				<line
   class="st1"
   x1="43.9"
   y1="-257.3"
   x2="171.9"
   y2="-129.3"
   id="line63731" />
				<line
   class="st1"
   x1="65.3"
   y1="-257.3"
   x2="193.3"
   y2="-129.3"
   id="line63733" />
				<line
   class="st1"
   x1="86.6"
   y1="-257.3"
   x2="214.6"
   y2="-129.3"
   id="line63735" />
				<line
   class="st1"
   x1="107.9"
   y1="-257.3"
   x2="235.9"
   y2="-129.3"
   id="line63737" />
				<line
   class="st1"
   x1="150.6"
   y1="-257.3"
   x2="278.6"
   y2="-129.3"
   id="line63739" />
				<line
   class="st1"
   x1="171.9"
   y1="-257.3"
   x2="299.9"
   y2="-129.3"
   id="line63741" />
				<line
   class="st1"
   x1="193.3"
   y1="-257.3"
   x2="321.3"
   y2="-129.3"
   id="line63743" />
				<line
   class="st1"
   x1="214.6"
   y1="-257.3"
   x2="342.6"
   y2="-129.3"
   id="line63745" />
				<line
   class="st1"
   x1="235.9"
   y1="-257.3"
   x2="363.9"
   y2="-129.3"
   id="line63747" />
				<line
   class="st1"
   x1="246.6"
   y1="-257.3"
   x2="374.6"
   y2="-129.3"
   id="line63749" />
				<line
   class="st1"
   x1="118.6"
   y1="-257.3"
   x2="246.6"
   y2="-129.3"
   id="line63751" />
				<line
   class="st1"
   x1="11.9"
   y1="-257.3"
   x2="139.9"
   y2="-129.3"
   id="line63753" />
				<line
   class="st1"
   x1="33.3"
   y1="-257.3"
   x2="161.3"
   y2="-129.3"
   id="line63755" />
				<line
   class="st1"
   x1="54.6"
   y1="-257.3"
   x2="182.6"
   y2="-129.3"
   id="line63757" />
				<line
   class="st1"
   x1="75.9"
   y1="-257.3"
   x2="203.9"
   y2="-129.3"
   id="line63759" />
				<line
   class="st1"
   x1="97.3"
   y1="-257.3"
   x2="225.3"
   y2="-129.3"
   id="line63761" />
				<line
   class="st1"
   x1="139.9"
   y1="-257.3"
   x2="267.9"
   y2="-129.3"
   id="line63763" />
				<line
   class="st1"
   x1="161.3"
   y1="-257.3"
   x2="289.3"
   y2="-129.3"
   id="line63765" />
				<line
   class="st1"
   x1="182.6"
   y1="-257.3"
   x2="310.6"
   y2="-129.3"
   id="line63767" />
				<line
   class="st1"
   x1="203.9"
   y1="-257.3"
   x2="331.9"
   y2="-129.3"
   id="line63769" />
				<line
   class="st1"
   x1="225.3"
   y1="-257.3"
   x2="353.3"
   y2="-129.3"
   id="line63771" />
			</g>
			<g
   id="g63799">
				<line
   class="st1"
   x1="1.3"
   y1="-257.3"
   x2="129.3"
   y2="-129.3"
   id="line63775" />
				<line
   class="st1"
   x1="22.6"
   y1="-257.3"
   x2="150.6"
   y2="-129.3"
   id="line63777" />
				<line
   class="st1"
   x1="43.9"
   y1="-257.3"
   x2="171.9"
   y2="-129.3"
   id="line63779" />
				<line
   class="st1"
   x1="65.3"
   y1="-257.3"
   x2="193.3"
   y2="-129.3"
   id="line63781" />
				<line
   class="st1"
   x1="86.6"
   y1="-257.3"
   x2="214.6"
   y2="-129.3"
   id="line63783" />
				<line
   class="st1"
   x1="107.9"
   y1="-257.3"
   x2="235.9"
   y2="-129.3"
   id="line63785" />
				<line
   class="st1"
   x1="118.6"
   y1="-257.3"
   x2="246.6"
   y2="-129.3"
   id="line63787" />
				<line
   class="st1"
   x1="11.9"
   y1="-257.3"
   x2="139.9"
   y2="-129.3"
   id="line63789" />
				<line
   class="st1"
   x1="33.3"
   y1="-257.3"
   x2="161.3"
   y2="-129.3"
   id="line63791" />
				<line
   class="st1"
   x1="54.6"
   y1="-257.3"
   x2="182.6"
   y2="-129.3"
   id="line63793" />
				<line
   class="st1"
   x1="75.9"
   y1="-257.3"
   x2="203.9"
   y2="-129.3"
   id="line63795" />
				<line
   class="st1"
   x1="97.3"
   y1="-257.3"
   x2="225.3"
   y2="-129.3"
   id="line63797" />
			</g>
			<g
   id="g63825">
				<line
   class="st1"
   x1="257.3"
   y1="-129.3"
   x2="385.3"
   y2="-1.3"
   id="line63801" />
				<line
   class="st1"
   x1="150.6"
   y1="-129.3"
   x2="278.6"
   y2="-1.3"
   id="line63803" />
				<line
   class="st1"
   x1="171.9"
   y1="-129.3"
   x2="299.9"
   y2="-1.3"
   id="line63805" />
				<line
   class="st1"
   x1="193.3"
   y1="-129.3"
   x2="321.3"
   y2="-1.3"
   id="line63807" />
				<line
   class="st1"
   x1="214.6"
   y1="-129.3"
   x2="342.6"
   y2="-1.3"
   id="line63809" />
				<line
   class="st1"
   x1="235.9"
   y1="-129.3"
   x2="363.9"
   y2="-1.3"
   id="line63811" />
				<line
   class="st1"
   x1="246.6"
   y1="-129.3"
   x2="374.6"
   y2="-1.3"
   id="line63813" />
				<line
   class="st1"
   x1="139.9"
   y1="-129.3"
   x2="267.9"
   y2="-1.3"
   id="line63815" />
				<line
   class="st1"
   x1="161.3"
   y1="-129.3"
   x2="289.3"
   y2="-1.3"
   id="line63817" />
				<line
   class="st1"
   x1="182.6"
   y1="-129.3"
   x2="310.6"
   y2="-1.3"
   id="line63819" />
				<line
   class="st1"
   x1="203.9"
   y1="-129.3"
   x2="331.9"
   y2="-1.3"
   id="line63821" />
				<line
   class="st1"
   x1="225.3"
   y1="-129.3"
   x2="353.3"
   y2="-1.3"
   id="line63823" />
			</g>
			<g
   id="g63873">
				<line
   class="st1"
   x1="129.3"
   y1="-129.3"
   x2="257.3"
   y2="-1.3"
   id="line63827" />
				<line
   class="st1"
   x1="22.6"
   y1="-129.3"
   x2="150.6"
   y2="-1.3"
   id="line63829" />
				<line
   class="st1"
   x1="43.9"
   y1="-129.3"
   x2="171.9"
   y2="-1.3"
   id="line63831" />
				<line
   class="st1"
   x1="65.3"
   y1="-129.3"
   x2="193.3"
   y2="-1.3"
   id="line63833" />
				<line
   class="st1"
   x1="86.6"
   y1="-129.3"
   x2="214.6"
   y2="-1.3"
   id="line63835" />
				<line
   class="st1"
   x1="107.9"
   y1="-129.3"
   x2="235.9"
   y2="-1.3"
   id="line63837" />
				<line
   class="st1"
   x1="150.6"
   y1="-129.3"
   x2="278.6"
   y2="-1.3"
   id="line63839" />
				<line
   class="st1"
   x1="171.9"
   y1="-129.3"
   x2="299.9"
   y2="-1.3"
   id="line63841" />
				<line
   class="st1"
   x1="193.3"
   y1="-129.3"
   x2="321.3"
   y2="-1.3"
   id="line63843" />
				<line
   class="st1"
   x1="214.6"
   y1="-129.3"
   x2="342.6"
   y2="-1.3"
   id="line63845" />
				<line
   class="st1"
   x1="235.9"
   y1="-129.3"
   x2="363.9"
   y2="-1.3"
   id="line63847" />
				<line
   class="st1"
   x1="246.6"
   y1="-129.3"
   x2="374.6"
   y2="-1.3"
   id="line63849" />
				<line
   class="st1"
   x1="118.6"
   y1="-129.3"
   x2="246.6"
   y2="-1.3"
   id="line63851" />
				<line
   class="st1"
   x1="11.9"
   y1="-129.3"
   x2="139.9"
   y2="-1.3"
   id="line63853" />
				<line
   class="st1"
   x1="33.3"
   y1="-129.3"
   x2="161.3"
   y2="-1.3"
   id="line63855" />
				<line
   class="st1"
   x1="54.6"
   y1="-129.3"
   x2="182.6"
   y2="-1.3"
   id="line63857" />
				<line
   class="st1"
   x1="75.9"
   y1="-129.3"
   x2="203.9"
   y2="-1.3"
   id="line63859" />
				<line
   class="st1"
   x1="97.3"
   y1="-129.3"
   x2="225.3"
   y2="-1.3"
   id="line63861" />
				<line
   class="st1"
   x1="139.9"
   y1="-129.3"
   x2="267.9"
   y2="-1.3"
   id="line63863" />
				<line
   class="st1"
   x1="161.3"
   y1="-129.3"
   x2="289.3"
   y2="-1.3"
   id="line63865" />
				<line
   class="st1"
   x1="182.6"
   y1="-129.3"
   x2="310.6"
   y2="-1.3"
   id="line63867" />
				<line
   class="st1"
   x1="203.9"
   y1="-129.3"
   x2="331.9"
   y2="-1.3"
   id="line63869" />
				<line
   class="st1"
   x1="225.3"
   y1="-129.3"
   x2="353.3"
   y2="-1.3"
   id="line63871" />
			</g>
			<g
   id="g63899">
				<line
   class="st1"
   x1="1.3"
   y1="-129.3"
   x2="129.3"
   y2="-1.3"
   id="line63875" />
				<line
   class="st1"
   x1="22.6"
   y1="-129.3"
   x2="150.6"
   y2="-1.3"
   id="line63877" />
				<line
   class="st1"
   x1="43.9"
   y1="-129.3"
   x2="171.9"
   y2="-1.3"
   id="line63879" />
				<line
   class="st1"
   x1="65.3"
   y1="-129.3"
   x2="193.3"
   y2="-1.3"
   id="line63881" />
				<line
   class="st1"
   x1="86.6"
   y1="-129.3"
   x2="214.6"
   y2="-1.3"
   id="line63883" />
				<line
   class="st1"
   x1="107.9"
   y1="-129.3"
   x2="235.9"
   y2="-1.3"
   id="line63885" />
				<line
   class="st1"
   x1="118.6"
   y1="-129.3"
   x2="246.6"
   y2="-1.3"
   id="line63887" />
				<line
   class="st1"
   x1="11.9"
   y1="-129.3"
   x2="139.9"
   y2="-1.3"
   id="line63889" />
				<line
   class="st1"
   x1="33.3"
   y1="-129.3"
   x2="161.3"
   y2="-1.3"
   id="line63891" />
				<line
   class="st1"
   x1="54.6"
   y1="-129.3"
   x2="182.6"
   y2="-1.3"
   id="line63893" />
				<line
   class="st1"
   x1="75.9"
   y1="-129.3"
   x2="203.9"
   y2="-1.3"
   id="line63895" />
				<line
   class="st1"
   x1="97.3"
   y1="-129.3"
   x2="225.3"
   y2="-1.3"
   id="line63897" />
			</g>
		</g>
	</g>
</pattern>
<g
   id="INFO_7_">
	
		<rect
   x="119"
   y="627.3"
   transform="matrix(0.7071 -0.7071 0.7071 0.7071 -445.1919 355.8889)"
   class="st2"
   width="176"
   height="176"
   id="rect63906" />
	<g
   id="g63918">
		<path
   class="st3"
   d="M181.3,673.4v1.8h-2.5v-16.1h2.5v6.8c0.6-1,2-2,3.6-2c2.8,0,4.9,2,4.9,5.6v0.2c0,3.5-2,5.7-4.9,5.7    C183.1,675.4,181.9,674.5,181.3,673.4z M187.1,669.8v-0.2c0-2.4-1.3-3.6-2.9-3.6c-1.8,0-3,1.2-3,3.6v0.2c0,2.5,1.2,3.6,3,3.6    C186.1,673.4,187.1,672.1,187.1,669.8z"
   id="path63908" />
		<path
   class="st3"
   d="M191.3,669.8v-0.2c0-3.4,2.3-5.7,5.5-5.7c2.7,0,5.2,1.6,5.2,5.5v0.7h-8c0.1,2.1,1.1,3.3,3,3.3    c1.5,0,2.3-0.6,2.5-1.7h2.5c-0.4,2.3-2.2,3.6-5,3.6C193.6,675.4,191.3,673.3,191.3,669.8z M199.4,668.5c-0.1-1.9-1.1-2.7-2.7-2.7    c-1.5,0-2.6,1-2.8,2.7H199.4z"
   id="path63910" />
		<path
   class="st3"
   d="M203.5,669.8v-0.2c0-3.5,2.5-5.7,5.5-5.7c2.4,0,4.7,1.1,5,4.1h-2.5c-0.2-1.5-1.2-2.1-2.5-2.1    c-1.7,0-3,1.3-3,3.6v0.2c0,2.4,1.2,3.7,3,3.7c1.3,0,2.5-0.8,2.6-2.4h2.3c-0.2,2.5-2.1,4.3-5.1,4.3    C205.9,675.4,203.5,673.3,203.5,669.8z"
   id="path63912" />
		<path
   class="st3"
   d="M215.5,672.1c0-2.6,2.5-3.5,5.6-3.5h1.4v-0.6c0-1.5-0.5-2.2-2-2.2c-1.3,0-2,0.6-2.1,1.7h-2.5    c0.2-2.6,2.2-3.6,4.7-3.6c2.5,0,4.4,1,4.4,4v7.2h-2.5v-1.3c-0.7,0.9-1.7,1.6-3.4,1.6C217.1,675.4,215.5,674.4,215.5,672.1z     M222.5,671.3v-1.1h-1.3c-1.9,0-3.2,0.4-3.2,1.8c0,0.9,0.5,1.5,1.8,1.5C221.3,673.6,222.5,672.7,222.5,671.3z"
   id="path63914" />
		<path
   class="st3"
   d="M227.1,671.8h2.4c0.1,1.1,0.7,1.8,2.2,1.8c1.4,0,2-0.5,2-1.4c0-0.9-0.7-1.2-2.4-1.5c-2.9-0.5-4-1.3-4-3.3    c0-2.2,2.1-3.3,4.1-3.3c2.2,0,4,0.8,4.3,3.3h-2.4c-0.2-1-0.8-1.5-2-1.5c-1.1,0-1.7,0.5-1.7,1.3c0,0.8,0.5,1.1,2.3,1.4    c2.6,0.4,4.1,1,4.1,3.4c0,2.2-1.6,3.5-4.4,3.5C228.8,675.4,227.2,674.1,227.1,671.8z"
   id="path63916" />
	</g>
	<g
   id="g64062">
		<path
   class="st3"
   d="M143.1,700h1.9c2.5,0,3.6,1.5,3.6,3.5v0.1c0,2-1.1,3.5-3.6,3.5h-1.9V700z M144.9,706.4c1.8,0,2.8-1.1,2.8-2.8    v-0.1c0-1.6-0.8-2.8-2.8-2.8h-1v5.7H144.9z"
   id="path63920" />
		<path
   class="st3"
   d="M149.6,704.5L149.6,704.5c0-1.7,1-2.8,2.4-2.8c1.2,0,2.3,0.7,2.3,2.6v0.3h-3.9c0,1.2,0.6,1.8,1.7,1.8    c0.8,0,1.3-0.3,1.4-0.9h0.8c-0.2,1-1,1.6-2.2,1.6C150.7,707.2,149.6,706.2,149.6,704.5z M153.6,704c-0.1-1.1-0.6-1.5-1.5-1.5    c-0.8,0-1.4,0.6-1.6,1.5H153.6z"
   id="path63922" />
		<path
   class="st3"
   d="M155.2,705.5h0.8c0.1,0.6,0.4,1,1.2,1c0.8,0,1.1-0.3,1.1-0.8c0-0.5-0.4-0.7-1.2-0.9c-1.4-0.2-1.8-0.6-1.8-1.5    c0-1,0.9-1.5,1.8-1.5c0.9,0,1.7,0.4,1.9,1.5h-0.8c-0.1-0.6-0.4-0.8-1.1-0.8c-0.6,0-1,0.3-1,0.7c0,0.5,0.3,0.7,1.2,0.8    c1.1,0.2,1.8,0.4,1.8,1.5c0,0.9-0.6,1.6-1.9,1.6C156,707.2,155.3,706.6,155.2,705.5z"
   id="path63924" />
		<path
   class="st3"
   d="M160.1,704.5L160.1,704.5c0-1.7,1.1-2.8,2.5-2.8c1.1,0,2.1,0.5,2.3,1.8h-0.8c-0.1-0.8-0.7-1.1-1.4-1.1    c-0.9,0-1.7,0.8-1.7,2v0.1c0,1.3,0.7,2,1.7,2c0.7,0,1.4-0.4,1.5-1.3h0.8c-0.1,1.1-1,2-2.3,2C161.2,707.2,160.1,706.2,160.1,704.5z    "
   id="path63926" />
		<path
   class="st3"
   d="M166.1,705.2v-3.3h0.8v3.3c0,0.9,0.4,1.3,1.2,1.3c0.7,0,1.4-0.5,1.4-1.4v-3.2h0.8v5.2h-0.8v-0.8    c-0.2,0.5-0.8,0.9-1.7,0.9C166.9,707.2,166.1,706.6,166.1,705.2z"
   id="path63928" />
		<path
   class="st3"
   d="M172.9,706.2v0.9h-0.8v-7.7h0.8v3.4c0.3-0.5,1-1,1.8-1c1.4,0,2.4,1,2.4,2.6v0.1c0,1.6-0.9,2.7-2.4,2.7    C173.9,707.2,173.2,706.8,172.9,706.2z M176.2,704.5L176.2,704.5c0-1.4-0.7-2.1-1.6-2.1c-1,0-1.7,0.6-1.7,2v0.1c0,1.3,0.7,2,1.7,2    C175.7,706.5,176.2,705.8,176.2,704.5z"
   id="path63930" />
		<path
   class="st3"
   d="M178.4,701.9h0.8v0.9c0.3-0.6,0.8-1,1.7-1v0.8c-1,0-1.7,0.4-1.7,1.7v2.9h-0.8V701.9z"
   id="path63932" />
		<path
   class="st3"
   d="M181.8,704.5L181.8,704.5c0-1.7,1-2.8,2.4-2.8c1.2,0,2.3,0.7,2.3,2.6v0.3h-3.9c0,1.2,0.6,1.8,1.7,1.8    c0.8,0,1.3-0.3,1.4-0.9h0.8c-0.2,1-1,1.6-2.2,1.6C182.8,707.2,181.8,706.2,181.8,704.5z M185.7,704c-0.1-1.1-0.6-1.5-1.5-1.5    c-0.8,0-1.4,0.6-1.6,1.5H185.7z"
   id="path63934" />
		<path
   class="st3"
   d="M190.5,699.4h0.8v7.7h-0.8V699.4z"
   id="path63936" />
		<path
   class="st3"
   d="M192.6,705.7c0-1.2,1.3-1.6,2.6-1.6h0.7v-0.4c0-0.8-0.3-1.2-1.1-1.2c-0.7,0-1.1,0.3-1.2,0.9h-0.8    c0.1-1.2,1.1-1.6,2.1-1.6c1,0,1.9,0.4,1.9,1.9v3.4H196v-0.7c-0.4,0.5-0.9,0.7-1.6,0.7C193.4,707.2,192.6,706.7,192.6,705.7z     M196,705.3v-0.6h-0.7c-1,0-1.8,0.3-1.8,1c0,0.5,0.3,0.9,1,0.9C195.3,706.5,196,706.1,196,705.3z"
   id="path63938" />
		<path
   class="st3"
   d="M198,705.5h0.8c0.1,0.6,0.4,1,1.2,1c0.8,0,1.1-0.3,1.1-0.8c0-0.5-0.4-0.7-1.2-0.9c-1.4-0.2-1.8-0.6-1.8-1.5    c0-1,0.9-1.5,1.8-1.5c0.9,0,1.7,0.4,1.9,1.5H201c-0.1-0.6-0.4-0.8-1.1-0.8c-0.6,0-1,0.3-1,0.7c0,0.5,0.3,0.7,1.2,0.8    c1.1,0.2,1.8,0.4,1.8,1.5c0,0.9-0.6,1.6-1.9,1.6C198.8,707.2,198.1,706.6,198,705.5z"
   id="path63940" />
		<path
   class="st3"
   d="M207,700.8l-1.6,1.1v-0.8l1.7-1.2h0.8v7.1H207V700.8z"
   id="path63942" />
		<path
   class="st3"
   d="M209.2,706.9l2.8-3c0.6-0.7,1-1.3,1-2.1c0-0.8-0.5-1.3-1.3-1.3c-0.8,0-1.4,0.5-1.5,1.6h-0.8    c0.1-1.4,1-2.3,2.3-2.3c1.3,0,2.2,0.8,2.2,2c0,0.9-0.6,1.7-1.4,2.6l-2,1.9h3.4v0.7h-4.8V706.9z"
   id="path63944" />
		<path
   class="st3"
   d="M218.1,701.9h0.8v0.9c0.3-0.5,1-1,1.8-1c1.4,0,2.4,1,2.4,2.6v0.1c0,1.6-0.9,2.7-2.4,2.7    c-0.9,0-1.5-0.4-1.8-0.9v2.7h-0.8V701.9z M222.2,704.5L222.2,704.5c0-1.4-0.7-2.1-1.6-2.1c-1,0-1.7,0.6-1.7,2v0.1    c0,1.3,0.7,2,1.7,2C221.6,706.5,222.2,705.8,222.2,704.5z"
   id="path63946" />
		<path
   class="st3"
   d="M224.3,701.9h0.8v0.9c0.3-0.6,0.8-1,1.7-1v0.8c-1,0-1.7,0.4-1.7,1.7v2.9h-0.8V701.9z"
   id="path63948" />
		<path
   class="st3"
   d="M227.7,704.5L227.7,704.5c0-1.6,1.1-2.7,2.6-2.7c1.5,0,2.6,1.1,2.6,2.7v0.1c0,1.6-1.1,2.7-2.6,2.7    S227.7,706.1,227.7,704.5z M232,704.5L232,704.5c0-1.3-0.7-2.1-1.7-2.1c-1,0-1.7,0.8-1.7,2v0.1c0,1.2,0.7,2,1.7,2    C231.3,706.5,232,705.7,232,704.5z"
   id="path63950" />
		<path
   class="st3"
   d="M234.1,701.9h0.8v0.9c0.3-0.5,1-1,1.8-1c1.4,0,2.4,1,2.4,2.6v0.1c0,1.6-0.9,2.7-2.4,2.7    c-0.9,0-1.5-0.4-1.8-0.9v2.7h-0.8V701.9z M238.2,704.5L238.2,704.5c0-1.4-0.7-2.1-1.6-2.1c-1,0-1.7,0.6-1.7,2v0.1    c0,1.3,0.7,2,1.7,2C237.7,706.5,238.2,705.8,238.2,704.5z"
   id="path63952" />
		<path
   class="st3"
   d="M240.4,705.2v-3.3h0.8v3.3c0,0.9,0.4,1.3,1.2,1.3c0.7,0,1.4-0.5,1.4-1.4v-3.2h0.8v5.2h-0.8v-0.8    c-0.2,0.5-0.8,0.9-1.7,0.9C241.1,707.2,240.4,706.6,240.4,705.2z"
   id="path63954" />
		<path
   class="st3"
   d="M246,704.5L246,704.5c0-1.7,1-2.8,2.4-2.8c1.2,0,2.3,0.7,2.3,2.6v0.3h-3.9c0,1.2,0.6,1.8,1.7,1.8    c0.8,0,1.3-0.3,1.4-0.9h0.8c-0.2,1-1,1.6-2.2,1.6C247,707.2,246,706.2,246,704.5z M249.9,704c-0.1-1.1-0.6-1.5-1.5-1.5    c-0.8,0-1.4,0.6-1.6,1.5H249.9z"
   id="path63956" />
		<path
   class="st3"
   d="M251.6,705.5h0.8c0.1,0.6,0.4,1,1.2,1c0.8,0,1.1-0.3,1.1-0.8c0-0.5-0.4-0.7-1.2-0.9c-1.4-0.2-1.8-0.6-1.8-1.5    c0-1,0.9-1.5,1.8-1.5c0.9,0,1.7,0.4,1.9,1.5h-0.8c-0.1-0.6-0.4-0.8-1.1-0.8c-0.6,0-1,0.3-1,0.7c0,0.5,0.3,0.7,1.2,0.8    c1.1,0.2,1.8,0.4,1.8,1.5c0,0.9-0.6,1.6-1.9,1.6C252.4,707.2,251.6,706.6,251.6,705.5z"
   id="path63958" />
		<path
   class="st3"
   d="M257,705.8v-3.2h-0.7v-0.7h0.7v-1.2h0.8v1.2h1.2v0.7h-1.2v3.1c0,0.5,0.2,0.8,0.6,0.8c0.3,0,0.5,0,0.6-0.1v0.7    c-0.2,0.1-0.4,0.1-0.7,0.1C257.5,707.2,257,706.6,257,705.8z"
   id="path63960" />
		<path
   class="st3"
   d="M259.9,705.7c0-1.2,1.3-1.6,2.6-1.6h0.8v-0.4c0-0.8-0.3-1.2-1.1-1.2c-0.7,0-1.1,0.3-1.2,0.9h-0.8    c0.1-1.2,1.1-1.6,2.1-1.6c1,0,1.9,0.4,1.9,1.9v3.4h-0.8v-0.7c-0.4,0.5-0.9,0.7-1.6,0.7C260.7,707.2,259.9,706.7,259.9,705.7z     M263.3,705.3v-0.6h-0.7c-1,0-1.8,0.3-1.8,1c0,0.5,0.3,0.9,1,0.9C262.6,706.5,263.3,706.1,263.3,705.3z"
   id="path63962" />
		<path
   class="st3"
   d="M265.3,705.5h0.8c0.1,0.6,0.4,1,1.2,1c0.8,0,1.1-0.3,1.1-0.8c0-0.5-0.4-0.7-1.2-0.9c-1.4-0.2-1.8-0.6-1.8-1.5    c0-1,0.9-1.5,1.8-1.5c0.9,0,1.7,0.4,1.9,1.5h-0.8c-0.1-0.6-0.4-0.8-1.1-0.8c-0.6,0-1,0.3-1,0.7c0,0.5,0.3,0.7,1.2,0.8    c1.1,0.2,1.8,0.4,1.8,1.5c0,0.9-0.6,1.6-1.9,1.6C266.1,707.2,265.4,706.6,265.3,705.5z"
   id="path63964" />
		<path
   class="st3"
   d="M133.3,717.5h0.8c0.1,0.6,0.4,1,1.2,1c0.8,0,1.1-0.3,1.1-0.8c0-0.5-0.4-0.7-1.2-0.9c-1.4-0.2-1.8-0.6-1.8-1.5    c0-1,0.9-1.5,1.8-1.5c0.9,0,1.7,0.4,1.9,1.5h-0.8c-0.1-0.6-0.4-0.8-1.1-0.8c-0.6,0-1,0.3-1,0.7c0,0.5,0.3,0.7,1.2,0.8    c1.1,0.2,1.8,0.4,1.8,1.5c0,0.9-0.6,1.6-1.9,1.6C134.1,719.2,133.3,718.6,133.3,717.5z"
   id="path63966" />
		<path
   class="st3"
   d="M138.1,716.5L138.1,716.5c0-1.7,1-2.8,2.4-2.8c1.2,0,2.3,0.7,2.3,2.6v0.3H139c0,1.2,0.6,1.8,1.7,1.8    c0.8,0,1.3-0.3,1.4-0.9h0.8c-0.2,1-1,1.6-2.2,1.6C139.2,719.2,138.1,718.2,138.1,716.5z M142.1,716c-0.1-1.1-0.6-1.5-1.5-1.5    c-0.8,0-1.4,0.6-1.6,1.5H142.1z"
   id="path63968" />
		<path
   class="st3"
   d="M144.2,711.4h0.8v7.7h-0.8V711.4z"
   id="path63970" />
		<path
   class="st3"
   d="M146.4,716.5L146.4,716.5c0-1.7,1-2.8,2.4-2.8c1.2,0,2.3,0.7,2.3,2.6v0.3h-3.9c0,1.2,0.6,1.8,1.7,1.8    c0.8,0,1.3-0.3,1.4-0.9h0.8c-0.2,1-1,1.6-2.2,1.6C147.4,719.2,146.4,718.2,146.4,716.5z M150.3,716c-0.1-1.1-0.6-1.5-1.5-1.5    c-0.8,0-1.4,0.6-1.6,1.5H150.3z"
   id="path63972" />
		<path
   class="st3"
   d="M152,716.5L152,716.5c0-1.7,1.1-2.8,2.5-2.8c1.1,0,2.1,0.5,2.3,1.8H156c-0.1-0.8-0.7-1.1-1.4-1.1    c-0.9,0-1.7,0.8-1.7,2v0.1c0,1.3,0.7,2,1.7,2c0.7,0,1.4-0.4,1.5-1.3h0.8c-0.1,1.1-1,2-2.3,2C153.1,719.2,152,718.2,152,716.5z"
   id="path63974" />
		<path
   class="st3"
   d="M157.7,716.5L157.7,716.5c0-1.7,1.1-2.8,2.5-2.8c1.1,0,2.1,0.5,2.3,1.8h-0.8c-0.1-0.8-0.7-1.1-1.4-1.1    c-0.9,0-1.7,0.8-1.7,2v0.1c0,1.3,0.7,2,1.7,2c0.7,0,1.4-0.4,1.5-1.3h0.8c-0.1,1.1-1,2-2.3,2C158.8,719.2,157.7,718.2,157.7,716.5z    "
   id="path63976" />
		<path
   class="st3"
   d="M163.7,712.2c0-0.3,0.2-0.5,0.5-0.5s0.5,0.2,0.5,0.5s-0.2,0.5-0.5,0.5S163.7,712.5,163.7,712.2z M163.8,713.9    h0.8v5.2h-0.8V713.9z"
   id="path63978" />
		<path
   class="st3"
   d="M166,716.5L166,716.5c0-1.6,1.1-2.7,2.6-2.7c1.5,0,2.6,1.1,2.6,2.7v0.1c0,1.6-1.1,2.7-2.6,2.7    S166,718.1,166,716.5z M170.3,716.5L170.3,716.5c0-1.3-0.7-2.1-1.7-2.1c-1,0-1.7,0.8-1.7,2v0.1c0,1.2,0.6,2,1.7,2    C169.6,718.5,170.3,717.7,170.3,716.5z"
   id="path63980" />
		<path
   class="st3"
   d="M172.4,713.9h0.8v0.8c0.2-0.5,0.8-0.9,1.7-0.9c1.1,0,1.8,0.6,1.8,2.1v3.2h-0.8v-3.3c0-0.9-0.4-1.3-1.2-1.3    c-0.8,0-1.5,0.5-1.5,1.4v3.2h-0.8V713.9z"
   id="path63982" />
		<path
   class="st3"
   d="M178,717.7c0-1.2,1.3-1.6,2.6-1.6h0.7v-0.4c0-0.8-0.3-1.2-1.1-1.2c-0.7,0-1.1,0.3-1.2,0.9h-0.8    c0.1-1.2,1.1-1.6,2.1-1.6c1,0,1.9,0.4,1.9,1.9v3.4h-0.8v-0.7c-0.4,0.5-0.9,0.7-1.6,0.7C178.7,719.2,178,718.7,178,717.7z     M181.3,717.3v-0.6h-0.7c-1,0-1.8,0.3-1.8,1c0,0.5,0.3,0.9,1,0.9C180.7,718.5,181.3,718.1,181.3,717.3z"
   id="path63984" />
		<path
   class="st3"
   d="M183.4,716.6L183.4,716.6c0-1.7,1-2.8,2.4-2.8c0.9,0,1.4,0.4,1.7,0.9v-3.3h0.8v7.7h-0.8v-0.9    c-0.3,0.5-1,1-1.8,1C184.4,719.2,183.4,718.2,183.4,716.6z M187.6,716.5L187.6,716.5c0-1.4-0.6-2-1.7-2c-1,0-1.7,0.7-1.7,2v0.1    c0,1.3,0.7,1.9,1.6,1.9C186.8,718.5,187.6,717.9,187.6,716.5z"
   id="path63986" />
		<path
   class="st3"
   d="M189.6,717.7c0-1.2,1.3-1.6,2.6-1.6h0.7v-0.4c0-0.8-0.3-1.2-1.1-1.2c-0.7,0-1.1,0.3-1.2,0.9h-0.8    c0.1-1.2,1.1-1.6,2.1-1.6c1,0,1.9,0.4,1.9,1.9v3.4H193v-0.7c-0.4,0.5-0.9,0.7-1.6,0.7C190.4,719.2,189.6,718.7,189.6,717.7z     M193,717.3v-0.6h-0.7c-1,0-1.8,0.3-1.8,1c0,0.5,0.3,0.9,1,0.9C192.3,718.5,193,718.1,193,717.3z"
   id="path63988" />
		<path
   class="st3"
   d="M195,717.5h0.8c0.1,0.6,0.4,1,1.2,1c0.8,0,1.1-0.3,1.1-0.8c0-0.5-0.4-0.7-1.2-0.9c-1.4-0.2-1.8-0.6-1.8-1.5    c0-1,0.9-1.5,1.8-1.5c0.9,0,1.7,0.4,1.9,1.5H198c-0.1-0.6-0.4-0.8-1.1-0.8c-0.6,0-1,0.3-1,0.7c0,0.5,0.3,0.7,1.2,0.8    c1.1,0.2,1.8,0.4,1.8,1.5c0,0.9-0.6,1.6-1.9,1.6C195.8,719.2,195.1,718.6,195,717.5z"
   id="path63990" />
		<path
   class="st3"
   d="M202.9,713.9h0.8v0.9c0.3-0.5,1-1,1.8-1c1.4,0,2.4,1,2.4,2.6v0.1c0,1.6-0.9,2.7-2.4,2.7    c-0.9,0-1.5-0.4-1.8-0.9v2.7h-0.8V713.9z M207,716.5L207,716.5c0-1.4-0.7-2.1-1.6-2.1c-1,0-1.7,0.6-1.7,2v0.1c0,1.3,0.7,2,1.7,2    C206.5,718.5,207,717.8,207,716.5z"
   id="path63992" />
		<path
   class="st3"
   d="M208.8,716.5L208.8,716.5c0-1.6,1.1-2.7,2.6-2.7s2.6,1.1,2.6,2.7v0.1c0,1.6-1.1,2.7-2.6,2.7    S208.8,718.1,208.8,716.5z M213.1,716.5L213.1,716.5c0-1.3-0.7-2.1-1.7-2.1c-1,0-1.7,0.8-1.7,2v0.1c0,1.2,0.6,2,1.7,2    C212.4,718.5,213.1,717.7,213.1,716.5z"
   id="path63994" />
		<path
   class="st3"
   d="M215.2,713.9h0.8v0.9c0.3-0.6,0.8-1,1.7-1v0.8c-1,0-1.7,0.4-1.7,1.7v2.9h-0.8V713.9z"
   id="path63996" />
		<path
   class="st3"
   d="M221.2,716.5L221.2,716.5c0-1.7,1.1-2.8,2.5-2.8c1.1,0,2.1,0.5,2.3,1.8h-0.8c-0.1-0.8-0.7-1.1-1.4-1.1    c-0.9,0-1.7,0.8-1.7,2v0.1c0,1.3,0.7,2,1.7,2c0.7,0,1.4-0.4,1.5-1.3h0.8c-0.1,1.1-1,2-2.3,2C222.3,719.2,221.2,718.2,221.2,716.5z    "
   id="path63998" />
		<path
   class="st3"
   d="M226.9,716.5L226.9,716.5c0-1.6,1.1-2.7,2.6-2.7s2.6,1.1,2.6,2.7v0.1c0,1.6-1.1,2.7-2.6,2.7    S226.9,718.1,226.9,716.5z M231.2,716.5L231.2,716.5c0-1.3-0.7-2.1-1.7-2.1c-1,0-1.7,0.8-1.7,2v0.1c0,1.2,0.6,2,1.7,2    C230.6,718.5,231.2,717.7,231.2,716.5z"
   id="path64000" />
		<path
   class="st3"
   d="M233.4,713.9h0.8v0.8c0.2-0.5,0.8-0.9,1.7-0.9c1.1,0,1.8,0.6,1.8,2.1v3.2h-0.8v-3.3c0-0.9-0.4-1.3-1.2-1.3    c-0.8,0-1.5,0.5-1.5,1.4v3.2h-0.8V713.9z"
   id="path64002" />
		<path
   class="st3"
   d="M239,716.5L239,716.5c0-1.7,1.1-2.8,2.5-2.8c1.1,0,2.1,0.5,2.3,1.8H243c-0.1-0.8-0.7-1.1-1.4-1.1    c-0.9,0-1.7,0.8-1.7,2v0.1c0,1.3,0.7,2,1.7,2c0.7,0,1.4-0.4,1.5-1.3h0.8c-0.1,1.1-1,2-2.3,2C240.1,719.2,239,718.2,239,716.5z"
   id="path64004" />
		<path
   class="st3"
   d="M245,717.2v-3.3h0.8v3.3c0,0.9,0.4,1.3,1.2,1.3c0.7,0,1.4-0.5,1.4-1.4v-3.2h0.8v5.2h-0.8v-0.8    c-0.2,0.5-0.8,0.9-1.7,0.9C245.8,719.2,245,718.6,245,717.2z"
   id="path64006" />
		<path
   class="st3"
   d="M251,713.9h0.8v0.9c0.3-0.6,0.8-1,1.7-1v0.8c-1,0-1.7,0.4-1.7,1.7v2.9H251V713.9z"
   id="path64008" />
		<path
   class="st3"
   d="M254.3,717.5h0.8c0.1,0.6,0.4,1,1.2,1c0.8,0,1.1-0.3,1.1-0.8c0-0.5-0.4-0.7-1.2-0.9c-1.4-0.2-1.8-0.6-1.8-1.5    c0-1,0.9-1.5,1.8-1.5c0.9,0,1.7,0.4,1.9,1.5h-0.8c-0.1-0.6-0.4-0.8-1.1-0.8c-0.6,0-1,0.3-1,0.7c0,0.5,0.3,0.7,1.2,0.8    c1.1,0.2,1.8,0.4,1.8,1.5c0,0.9-0.6,1.6-1.9,1.6C255.1,719.2,254.4,718.6,254.3,717.5z"
   id="path64010" />
		<path
   class="st3"
   d="M259.2,716.5L259.2,716.5c0-1.6,1.1-2.7,2.6-2.7c1.5,0,2.6,1.1,2.6,2.7v0.1c0,1.6-1.1,2.7-2.6,2.7    S259.2,718.1,259.2,716.5z M263.4,716.5L263.4,716.5c0-1.3-0.7-2.1-1.7-2.1c-1,0-1.7,0.8-1.7,2v0.1c0,1.2,0.7,2,1.7,2    C262.8,718.5,263.4,717.7,263.4,716.5z"
   id="path64012" />
		<path
   class="st3"
   d="M267.9,716.5L267.9,716.5c0-1.7,1-2.8,2.4-2.8c1.2,0,2.3,0.7,2.3,2.6v0.3h-3.9c0,1.2,0.6,1.8,1.7,1.8    c0.8,0,1.3-0.3,1.4-0.9h0.8c-0.2,1-1,1.6-2.2,1.6C268.9,719.2,267.9,718.2,267.9,716.5z M271.8,716c-0.1-1.1-0.6-1.5-1.5-1.5    c-0.8,0-1.4,0.6-1.6,1.5H271.8z"
   id="path64014" />
		<path
   class="st3"
   d="M273.9,713.9h0.8v0.8c0.2-0.5,0.8-0.9,1.7-0.9c1.1,0,1.8,0.6,1.8,2.1v3.2h-0.8v-3.3c0-0.9-0.4-1.3-1.2-1.3    c-0.8,0-1.5,0.5-1.5,1.4v3.2h-0.8V713.9z"
   id="path64016" />
		<path
   class="st3"
   d="M143.4,728.5L143.4,728.5c0-1.7,1-2.8,2.4-2.8c1.2,0,2.3,0.7,2.3,2.6v0.3h-3.9c0,1.2,0.6,1.8,1.7,1.8    c0.8,0,1.3-0.3,1.4-0.9h0.8c-0.2,1-1,1.6-2.2,1.6C144.4,731.2,143.4,730.2,143.4,728.5z M147.3,728c-0.1-1.1-0.6-1.5-1.5-1.5    c-0.8,0-1.4,0.6-1.6,1.5H147.3z"
   id="path64018" />
		<path
   class="st3"
   d="M149.5,723.4h0.8v7.7h-0.8V723.4z"
   id="path64020" />
		<path
   class="st3"
   d="M154.7,725.9h0.8v0.9c0.3-0.5,1-1,1.8-1c1.4,0,2.4,1,2.4,2.6v0.1c0,1.6-0.9,2.7-2.4,2.7    c-0.9,0-1.5-0.4-1.8-0.9v2.7h-0.8V725.9z M158.8,728.5L158.8,728.5c0-1.4-0.7-2.1-1.6-2.1c-1,0-1.7,0.6-1.7,2v0.1    c0,1.3,0.7,2,1.7,2C158.2,730.5,158.8,729.8,158.8,728.5z"
   id="path64022" />
		<path
   class="st3"
   d="M160.9,725.9h0.8v0.9c0.3-0.6,0.8-1,1.7-1v0.8c-1,0-1.7,0.4-1.7,1.7v2.9h-0.8V725.9z"
   id="path64024" />
		<path
   class="st3"
   d="M164.3,728.5L164.3,728.5c0-1.6,1.1-2.7,2.6-2.7c1.5,0,2.6,1.1,2.6,2.7v0.1c0,1.6-1.1,2.7-2.6,2.7    S164.3,730.1,164.3,728.5z M168.6,728.5L168.6,728.5c0-1.3-0.7-2.1-1.7-2.1c-1,0-1.7,0.8-1.7,2v0.1c0,1.2,0.6,2,1.7,2    C167.9,730.5,168.6,729.7,168.6,728.5z"
   id="path64026" />
		<path
   class="st3"
   d="M170.5,731.4h0.8c0.1,0.6,0.6,0.9,1.5,0.9c1,0,1.7-0.5,1.7-1.6v-0.8c-0.3,0.5-1,1-1.8,1c-1.4,0-2.4-1-2.4-2.5    v-0.1c0-1.4,1-2.6,2.4-2.6c0.9,0,1.4,0.4,1.7,0.9v-0.8h0.8v4.9c0,1.5-1,2.3-2.5,2.3C171.3,733,170.6,732.3,170.5,731.4z     M174.5,728.4L174.5,728.4c0-1.2-0.6-1.9-1.7-1.9c-1,0-1.7,0.8-1.7,1.9v0.1c0,1.1,0.7,1.8,1.6,1.8    C173.8,730.2,174.5,729.6,174.5,728.4z"
   id="path64028" />
		<path
   class="st3"
   d="M177,725.9h0.8v0.9c0.3-0.6,0.8-1,1.7-1v0.8c-1,0-1.7,0.4-1.7,1.7v2.9H177V725.9z"
   id="path64030" />
		<path
   class="st3"
   d="M180.3,729.7c0-1.2,1.3-1.6,2.6-1.6h0.7v-0.4c0-0.8-0.3-1.2-1.1-1.2c-0.7,0-1.1,0.3-1.2,0.9h-0.8    c0.1-1.2,1.1-1.6,2.1-1.6c1,0,1.9,0.4,1.9,1.9v3.4h-0.8v-0.7c-0.4,0.5-0.9,0.7-1.6,0.7C181.1,731.2,180.3,730.7,180.3,729.7z     M183.7,729.3v-0.6H183c-1,0-1.8,0.3-1.8,1c0,0.5,0.3,0.9,1,0.9C183,730.5,183.7,730.1,183.7,729.3z"
   id="path64032" />
		<path
   class="st3"
   d="M186.2,725.9h0.8v0.8c0.2-0.5,0.8-0.9,1.6-0.9c0.7,0,1.3,0.3,1.5,1c0.4-0.7,1.1-1,1.8-1    c0.9,0,1.8,0.6,1.8,2.1v3.2h-0.8v-3.3c0-0.9-0.4-1.3-1.1-1.3c-0.7,0-1.4,0.5-1.4,1.4v3.2h-0.8v-3.3c0-0.9-0.4-1.3-1.1-1.3    c-0.7,0-1.4,0.5-1.4,1.4v3.2h-0.8V725.9z"
   id="path64034" />
		<path
   class="st3"
   d="M194.8,729.7c0-1.2,1.3-1.6,2.6-1.6h0.7v-0.4c0-0.8-0.3-1.2-1.1-1.2c-0.7,0-1.1,0.3-1.2,0.9h-0.8    c0.1-1.2,1.1-1.6,2.1-1.6c1,0,1.9,0.4,1.9,1.9v3.4h-0.8v-0.7c-0.4,0.5-0.9,0.7-1.6,0.7C195.6,731.2,194.8,730.7,194.8,729.7z     M198.2,729.3v-0.6h-0.7c-1,0-1.8,0.3-1.8,1c0,0.5,0.3,0.9,1,0.9C197.5,730.5,198.2,730.1,198.2,729.3z"
   id="path64036" />
		<path
   class="st3"
   d="M202.9,729.7c0-1.2,1.3-1.6,2.6-1.6h0.7v-0.4c0-0.8-0.3-1.2-1.1-1.2c-0.7,0-1.1,0.3-1.2,0.9h-0.8    c0.1-1.2,1.1-1.6,2.1-1.6c1,0,1.9,0.4,1.9,1.9v3.4h-0.8v-0.7c-0.4,0.5-0.9,0.7-1.6,0.7C203.7,731.2,202.9,730.7,202.9,729.7z     M206.3,729.3v-0.6h-0.7c-1,0-1.8,0.3-1.8,1c0,0.5,0.3,0.9,1,0.9C205.6,730.5,206.3,730.1,206.3,729.3z"
   id="path64038" />
		<path
   class="st3"
   d="M208.7,725.9h0.8v0.9c0.3-0.6,0.8-1,1.7-1v0.8c-1,0-1.7,0.4-1.7,1.7v2.9h-0.8V725.9z"
   id="path64040" />
		<path
   class="st3"
   d="M216.2,730.2c-0.3,0.5-1,1-1.8,1c-1.4,0-2.4-1-2.4-2.6v-0.1c0-1.6,1-2.7,2.4-2.7c0.9,0,1.4,0.4,1.7,0.9v-0.8    h0.8v7h-0.8V730.2z M216.3,728.5L216.3,728.5c0-1.4-0.6-2-1.7-2c-1,0-1.7,0.7-1.7,2v0.1c0,1.3,0.7,1.9,1.6,1.9    C215.5,730.5,216.3,729.9,216.3,728.5z"
   id="path64042" />
		<path
   class="st3"
   d="M218.7,729.2v-3.3h0.8v3.3c0,0.9,0.4,1.3,1.2,1.3c0.7,0,1.4-0.5,1.4-1.4v-3.2h0.8v5.2h-0.8v-0.8    c-0.2,0.5-0.8,0.9-1.7,0.9C219.5,731.2,218.7,730.6,218.7,729.2z"
   id="path64044" />
		<path
   class="st3"
   d="M224.6,724.2c0-0.3,0.2-0.5,0.5-0.5s0.5,0.2,0.5,0.5s-0.2,0.5-0.5,0.5S224.6,724.5,224.6,724.2z M224.7,725.9    h0.8v5.2h-0.8V725.9z"
   id="path64046" />
		<path
   class="st3"
   d="M226.8,729.7c0-1.2,1.3-1.6,2.6-1.6h0.7v-0.4c0-0.8-0.3-1.2-1.1-1.2c-0.7,0-1.1,0.3-1.2,0.9H227    c0.1-1.2,1.1-1.6,2.1-1.6c1,0,1.9,0.4,1.9,1.9v3.4h-0.8v-0.7c-0.4,0.5-0.9,0.7-1.6,0.7C227.6,731.2,226.8,730.7,226.8,729.7z     M230.2,729.3v-0.6h-0.7c-1,0-1.8,0.3-1.8,1c0,0.5,0.3,0.9,1,0.9C229.5,730.5,230.2,730.1,230.2,729.3z"
   id="path64048" />
		<path
   class="st3"
   d="M237.4,723.3h0.8l-2.9,9.2h-0.8L237.4,723.3z"
   id="path64050" />
		<path
   class="st3"
   d="M242.8,730.2v0.9H242v-7.7h0.8v3.4c0.3-0.5,1-1,1.8-1c1.4,0,2.4,1,2.4,2.6v0.1c0,1.6-0.9,2.7-2.4,2.7    C243.7,731.2,243.1,730.8,242.8,730.2z M246.1,728.5L246.1,728.5c0-1.4-0.7-2.1-1.6-2.1c-1,0-1.7,0.6-1.7,2v0.1c0,1.3,0.7,2,1.7,2    C245.5,730.5,246.1,729.8,246.1,728.5z"
   id="path64052" />
		<path
   class="st3"
   d="M247.9,728.5L247.9,728.5c0-1.7,1-2.8,2.4-2.8c1.2,0,2.3,0.7,2.3,2.6v0.3h-3.9c0,1.2,0.6,1.8,1.7,1.8    c0.8,0,1.3-0.3,1.4-0.9h0.8c-0.2,1-1,1.6-2.2,1.6C248.9,731.2,247.9,730.2,247.9,728.5z M251.8,728c-0.1-1.1-0.6-1.5-1.5-1.5    c-0.8,0-1.4,0.6-1.6,1.5H251.8z"
   id="path64054" />
		<path
   class="st3"
   d="M253.5,728.5L253.5,728.5c0-1.7,1.1-2.8,2.5-2.8c1.1,0,2.1,0.5,2.3,1.8h-0.8c-0.1-0.8-0.7-1.1-1.4-1.1    c-0.9,0-1.7,0.8-1.7,2v0.1c0,1.3,0.7,2,1.7,2c0.7,0,1.4-0.4,1.5-1.3h0.8c-0.1,1.1-1,2-2.3,2C254.6,731.2,253.5,730.2,253.5,728.5z    "
   id="path64056" />
		<path
   class="st3"
   d="M259.2,729.7c0-1.2,1.3-1.6,2.6-1.6h0.7v-0.4c0-0.8-0.3-1.2-1.1-1.2c-0.7,0-1.1,0.3-1.2,0.9h-0.8    c0.1-1.2,1.1-1.6,2.1-1.6c1,0,1.9,0.4,1.9,1.9v3.4h-0.8v-0.7c-0.4,0.5-0.9,0.7-1.6,0.7C260,731.2,259.2,730.7,259.2,729.7z     M262.6,729.3v-0.6h-0.7c-1,0-1.8,0.3-1.8,1c0,0.5,0.3,0.9,1,0.9C261.9,730.5,262.6,730.1,262.6,729.3z"
   id="path64058" />
		<path
   class="st3"
   d="M264.6,729.5h0.8c0.1,0.6,0.4,1,1.2,1c0.8,0,1.1-0.3,1.1-0.8c0-0.5-0.4-0.7-1.2-0.9c-1.4-0.2-1.8-0.6-1.8-1.5    c0-1,0.9-1.5,1.8-1.5c0.9,0,1.7,0.4,1.9,1.5h-0.8c-0.1-0.6-0.4-0.8-1.1-0.8c-0.6,0-1,0.3-1,0.7c0,0.5,0.3,0.7,1.2,0.8    c1.1,0.2,1.8,0.4,1.8,1.5c0,0.9-0.6,1.6-1.9,1.6C265.4,731.2,264.6,730.6,264.6,729.5z"
   id="path64060" />
	</g>
	<g
   id="g64078">
		<polygon
   class="st3"
   points="207,827.5 138.6,759.1 275.4,759.1   "
   id="polygon64064" />
		<path
   class="st2"
   d="M185.1,776.8h5.4v1.3h-3.8v2.4h3v1.2h-3v2.5h4v1.3h-5.6V776.8z"
   id="path64066" />
		<path
   class="st2"
   d="M191.8,776.8h1.9l3.6,6.2v-6.2h1.5v8.6h-1.7l-3.9-6.6v6.6h-1.5V776.8z"
   id="path64068" />
		<path
   class="st2"
   d="M202.2,778h-2.4v-1.3h6.4v1.3h-2.4v7.3h-1.6V778z"
   id="path64070" />
		<path
   class="st2"
   d="M207.3,776.8h2.9c1.9,0,3.2,0.8,3.2,2.5v0c0,1.3-0.8,2-1.9,2.3l2.4,3.7h-1.7l-2.2-3.5h-1v3.5h-1.6V776.8z     M210.1,780.7c1.1,0,1.6-0.5,1.6-1.4v0c0-1-0.6-1.3-1.6-1.3h-1.3v2.7H210.1z"
   id="path64072" />
		<path
   class="st2"
   d="M217.1,776.8h2.1l2.8,8.6h-1.7l-0.7-2.1h-3.3l-0.7,2.1h-1.5L217.1,776.8z M216.7,782h2.5l-1.3-4L216.7,782z"
   id="path64074" />
		<path
   class="st2"
   d="M223,776.8h2.9c1.9,0,3.2,0.8,3.2,2.5v0c0,1.3-0.8,2-1.9,2.3l2.4,3.7h-1.7l-2.2-3.5h-1v3.5H223V776.8z     M225.9,780.7c1.1,0,1.6-0.5,1.6-1.4v0c0-1-0.6-1.3-1.6-1.3h-1.3v2.7H225.9z"
   id="path64076" />
	</g>
</g>
<g
   id="g64147">
	<g
   id="g64097">
		<g
   id="g64095">
			<path
   class="st3"
   d="M54.7,519.2h0.5v2c0.4-1.1,1.5-2.1,3-2.1c1.8,0,3.2,1.4,3.2,3.7v0.1c0,2.3-1.4,3.7-3.2,3.7     c-1.6,0-2.6-1.1-3-2.1v4.5h-0.5V519.2z M60.9,522.9v-0.1c0-2.1-1.3-3.3-2.8-3.3c-1.5,0-2.9,1.2-2.9,3.3v0.1c0,2.1,1.4,3.3,3,3.3     C59.7,526.2,60.9,525,60.9,522.9z"
   id="path64081" />
			<path
   class="st3"
   d="M63.1,519.2h0.5v1.7c0.4-0.9,1.2-1.7,2.5-1.8v0.4c-1.4,0.1-2.5,0.8-2.5,2.9v4.1h-0.5V519.2z"
   id="path64083" />
			<path
   class="st3"
   d="M67.2,522.9v-0.1c0-2.2,1.6-3.7,3.5-3.7c1.9,0,3.5,1.5,3.5,3.7v0.1c0,2.2-1.6,3.7-3.5,3.7     S67.2,525.1,67.2,522.9z M73.7,522.9v-0.1c0-2.1-1.4-3.3-3-3.3c-1.6,0-3,1.3-3,3.3v0.1c0,2,1.4,3.3,3,3.3     C72.3,526.2,73.7,524.9,73.7,522.9z M71.4,516.1h0.6l-1.2,2.1h-0.4L71.4,516.1z"
   id="path64085" />
			<path
   class="st3"
   d="M78,522.7l-2.6-3.5h0.6l2.3,3.2l2.3-3.2h0.5l-2.5,3.5l2.8,3.8h-0.6l-2.5-3.5l-2.5,3.5h-0.5L78,522.7z"
   id="path64087" />
			<path
   class="st3"
   d="M82.8,517.2c0-0.2,0.2-0.4,0.4-0.4c0.2,0,0.4,0.2,0.4,0.4c0,0.2-0.2,0.4-0.4,0.4     C83,517.6,82.8,517.4,82.8,517.2z M82.9,519.2h0.5v7.3h-0.5V519.2z"
   id="path64089" />
			<path
   class="st3"
   d="M85.7,519.2h0.5v1.6c0.3-0.9,1.3-1.7,2.5-1.7c1.2,0,2,0.5,2.3,1.8c0.4-1.1,1.4-1.8,2.7-1.8     c1.5,0,2.4,0.8,2.4,2.8v4.6h-0.5v-4.6c0-1.7-0.7-2.4-2-2.4c-1.2,0-2.5,0.9-2.5,2.6v4.5h-0.5v-4.6c0-1.7-0.7-2.4-2-2.4     c-1.2,0-2.5,0.9-2.5,2.6v4.5h-0.5V519.2z"
   id="path64091" />
			<path
   class="st3"
   d="M97.8,524.6c0-1.7,1.5-2.2,3.3-2.2h1.8v-0.7c0-1.5-0.6-2.2-2-2.2c-1.2,0-2.1,0.5-2.3,1.7h-0.5     c0.2-1.4,1.4-2.1,2.8-2.1c1.6,0,2.5,0.8,2.5,2.6v4.9h-0.5v-1.2c-0.4,0.7-1.3,1.4-2.6,1.4C98.8,526.6,97.8,525.9,97.8,524.6z      M102.9,524.3v-1.5h-1.8c-1.6,0-2.8,0.3-2.8,1.8c0,1.1,0.7,1.7,2.1,1.7C101.7,526.2,102.9,525.4,102.9,524.3z"
   id="path64093" />
		</g>
	</g>
	<g
   id="g64109">
		<path
   class="st3"
   d="M126.2,588.7c0-1.7,1.5-2.2,3.3-2.2h1.8v-0.7c0-1.5-0.6-2.2-2-2.2c-1.2,0-2.1,0.5-2.3,1.7h-0.5    c0.2-1.4,1.4-2.1,2.8-2.1c1.6,0,2.5,0.8,2.5,2.6v4.9h-0.5v-1.2c-0.4,0.7-1.3,1.4-2.6,1.4C127.2,590.7,126.2,590,126.2,588.7z     M131.3,588.4v-1.5h-1.8c-1.6,0-2.8,0.3-2.8,1.8c0,1.1,0.7,1.7,2.1,1.7C130.1,590.3,131.3,589.4,131.3,588.4z"
   id="path64099" />
		<path
   class="st3"
   d="M134,583.3h0.5v1.7c0.4-0.9,1.2-1.7,2.5-1.8v0.4c-1.4,0.1-2.5,0.8-2.5,2.9v4.1H134V583.3z"
   id="path64101" />
		<path
   class="st3"
   d="M138.1,587v-0.1c0-2.2,1.4-3.7,3.3-3.7c1.8,0,3.1,1.2,3.1,3.5v0.2h-6c0,2.1,1.1,3.4,2.9,3.4    c1.3,0,2.2-0.6,2.5-1.7h0.5c-0.3,1.4-1.5,2.1-3,2.1C139.4,590.7,138.1,589.2,138.1,587z M144.1,586.5c-0.1-1.9-1.1-2.9-2.7-2.9    c-1.6,0-2.7,1.1-2.8,2.9H144.1z"
   id="path64103" />
		<path
   class="st3"
   d="M146.3,583.3h0.5v1.6c0.3-0.9,1.4-1.7,2.7-1.7c1.6,0,2.6,0.9,2.6,2.9v4.5h-0.5v-4.5c0-1.7-0.8-2.5-2.2-2.5    c-1.3,0-2.7,0.9-2.7,2.6v4.4h-0.5V583.3z"
   id="path64105" />
		<path
   class="st3"
   d="M153.8,588.7c0-1.7,1.5-2.2,3.3-2.2h1.8v-0.7c0-1.5-0.6-2.2-2-2.2c-1.2,0-2.1,0.5-2.3,1.7h-0.5    c0.2-1.4,1.4-2.1,2.8-2.1c1.6,0,2.5,0.8,2.5,2.6v4.9h-0.5v-1.2c-0.4,0.7-1.3,1.4-2.6,1.4C154.8,590.7,153.8,590,153.8,588.7z     M158.9,588.4v-1.5h-1.8c-1.6,0-2.8,0.3-2.8,1.8c0,1.1,0.7,1.7,2.1,1.7C157.7,590.3,158.9,589.4,158.9,588.4z"
   id="path64107" />
	</g>
	<g
   id="g64123">
		<g
   id="g64121">
			<path
   class="st3"
   d="M317.8,525.2v1.2h-1.7v-10.7h1.7v4.6c0.4-0.7,1.3-1.3,2.4-1.3c1.8,0,3.2,1.4,3.2,3.7v0.1     c0,2.4-1.4,3.8-3.2,3.8C319.1,526.5,318.2,526,317.8,525.2z M321.8,522.8v-0.1c0-1.6-0.8-2.4-1.9-2.4c-1.2,0-2,0.8-2,2.4v0.1     c0,1.6,0.8,2.4,2,2.4C321.1,525.2,321.8,524.4,321.8,522.8z"
   id="path64111" />
			<path
   class="st3"
   d="M324.5,522.8v-0.1c0-2.3,1.6-3.8,3.6-3.8c1.8,0,3.5,1.1,3.5,3.7v0.5h-5.4c0.1,1.4,0.8,2.2,2,2.2     c1,0,1.6-0.4,1.7-1.1h1.6c-0.2,1.5-1.5,2.4-3.4,2.4C326.1,526.5,324.5,525.1,324.5,522.8z M329.9,522c-0.1-1.3-0.7-1.8-1.8-1.8     c-1,0-1.7,0.7-1.9,1.8H329.9z"
   id="path64113" />
			<path
   class="st3"
   d="M332.6,522.8v-0.1c0-2.3,1.7-3.8,3.7-3.8c1.6,0,3.2,0.7,3.3,2.7H338c-0.1-1-0.8-1.4-1.7-1.4     c-1.2,0-2,0.9-2,2.4v0.1c0,1.6,0.8,2.4,2,2.4c0.9,0,1.7-0.5,1.8-1.6h1.6c-0.1,1.7-1.4,2.9-3.4,2.9     C334.2,526.5,332.6,525.2,332.6,522.8z"
   id="path64115" />
			<path
   class="st3"
   d="M340.6,524.4c0-1.7,1.7-2.3,3.8-2.3h0.9v-0.4c0-1-0.3-1.5-1.3-1.5c-0.9,0-1.3,0.4-1.4,1.1h-1.6     c0.1-1.7,1.5-2.4,3.1-2.4c1.6,0,2.9,0.7,2.9,2.7v4.8h-1.7v-0.9c-0.5,0.6-1.1,1-2.2,1C341.8,526.5,340.6,525.9,340.6,524.4z      M345.3,523.8v-0.7h-0.9c-1.3,0-2.1,0.3-2.1,1.2c0,0.6,0.3,1,1.2,1C344.5,525.3,345.3,524.8,345.3,523.8z"
   id="path64117" />
			<path
   class="st3"
   d="M348.4,524.1h1.6c0.1,0.7,0.5,1.2,1.5,1.2c0.9,0,1.3-0.3,1.3-0.9c0-0.6-0.5-0.8-1.6-1     c-1.9-0.3-2.6-0.9-2.6-2.2c0-1.5,1.4-2.2,2.7-2.2c1.5,0,2.7,0.6,2.9,2.2h-1.6c-0.1-0.7-0.5-1-1.3-1c-0.7,0-1.2,0.4-1.2,0.9     c0,0.5,0.3,0.7,1.5,0.9c1.7,0.3,2.7,0.7,2.7,2.2c0,1.5-1,2.3-2.9,2.3C349.6,526.5,348.5,525.7,348.4,524.1z"
   id="path64119" />
		</g>
	</g>
	<g
   id="g64145">
		<path
   class="st3"
   d="M234,587v-0.1c0-2.3,1.5-3.7,3.4-3.7c1.6,0,2.4,1,2.8,2v-5.4h0.5v10.8h-0.5v-2c-0.4,1-1.4,2.1-2.9,2.1    C235.5,590.7,234,589.4,234,587z M240.3,587v-0.1c0-2.1-1.2-3.3-2.8-3.3c-1.6,0-2.9,1.2-2.9,3.3v0.1c0,2.1,1.2,3.3,2.8,3.3    C238.9,590.3,240.3,589.1,240.3,587z"
   id="path64125" />
		<path
   class="st3"
   d="M242.4,587v-0.1c0-2.2,1.6-3.7,3.5-3.7s3.5,1.5,3.5,3.7v0.1c0,2.2-1.6,3.7-3.5,3.7S242.4,589.2,242.4,587z     M248.9,587v-0.1c0-2.1-1.4-3.3-3-3.3c-1.6,0-3,1.3-3,3.3v0.1c0,2,1.4,3.3,3,3.3C247.6,590.3,248.9,589,248.9,587z"
   id="path64127" />
		<path
   class="st3"
   d="M250.6,587v-0.1c0-2.2,1.6-3.7,3.5-3.7c1.5,0,2.8,0.9,3,2.4h-0.5c-0.2-1.3-1.3-1.9-2.5-1.9    c-1.6,0-3,1.3-3,3.3v0.1c0,2,1.3,3.3,3,3.3c1.3,0,2.4-0.8,2.6-2.2h0.4c-0.2,1.6-1.5,2.6-3.1,2.6    C252.1,590.7,250.6,589.2,250.6,587z"
   id="path64129" />
		<path
   class="st3"
   d="M258.7,587.9v-4.6h0.5v4.6c0,1.7,0.8,2.4,2.2,2.4c1.3,0,2.6-0.9,2.6-2.5v-4.5h0.5v7.3H264V589    c-0.3,0.9-1.3,1.7-2.7,1.7C259.8,590.7,258.7,589.9,258.7,587.9z"
   id="path64131" />
		<path
   class="st3"
   d="M266.8,583.3h0.5v1.6c0.3-0.9,1.3-1.7,2.5-1.7c1.2,0,2,0.5,2.3,1.8c0.4-1.1,1.4-1.8,2.7-1.8    c1.5,0,2.4,0.8,2.4,2.8v4.6h-0.5V586c0-1.7-0.7-2.4-2-2.4c-1.2,0-2.5,0.9-2.5,2.6v4.5h-0.5V586c0-1.7-0.7-2.4-2-2.4    c-1.2,0-2.5,0.9-2.5,2.6v4.5h-0.5V583.3z"
   id="path64133" />
		<path
   class="st3"
   d="M278.8,587v-0.1c0-2.2,1.4-3.7,3.3-3.7c1.8,0,3.1,1.2,3.1,3.5v0.2h-6c0,2.1,1.1,3.4,2.9,3.4    c1.3,0,2.2-0.6,2.5-1.7h0.5c-0.3,1.4-1.5,2.1-3,2.1C280.1,590.7,278.8,589.2,278.8,587z M284.8,586.5c-0.1-1.9-1.1-2.9-2.7-2.9    s-2.7,1.1-2.8,2.9H284.8z"
   id="path64135" />
		<path
   class="st3"
   d="M287,583.3h0.5v1.6c0.3-0.9,1.4-1.7,2.7-1.7c1.6,0,2.6,0.9,2.6,2.9v4.5h-0.5v-4.5c0-1.7-0.8-2.5-2.2-2.5    c-1.3,0-2.7,0.9-2.7,2.6v4.4H287V583.3z"
   id="path64137" />
		<path
   class="st3"
   d="M295.3,588.9v-5.2h-1.1v-0.4h1.1v-1.7h0.5v1.7h2v0.4h-2v5.2c0,1,0.5,1.4,1.2,1.4c0.4,0,0.7-0.1,0.9-0.2v0.4    c-0.2,0.1-0.5,0.2-1,0.2C295.9,590.7,295.3,590.1,295.3,588.9z"
   id="path64139" />
		<path
   class="st3"
   d="M299.1,588.7c0-1.7,1.5-2.2,3.3-2.2h1.8v-0.7c0-1.5-0.6-2.2-2-2.2c-1.2,0-2.1,0.5-2.3,1.7h-0.5    c0.2-1.4,1.4-2.1,2.8-2.1c1.6,0,2.5,0.8,2.5,2.6v4.9h-0.5v-1.2c-0.4,0.7-1.3,1.4-2.6,1.4C300.1,590.7,299.1,590,299.1,588.7z     M304.2,588.4v-1.5h-1.8c-1.6,0-2.8,0.3-2.8,1.8c0,1.1,0.7,1.7,2.1,1.7C303.1,590.3,304.2,589.4,304.2,588.4z"
   id="path64141" />
		<path
   class="st3"
   d="M306.9,579.8h0.5v10.8h-0.5V579.8z"
   id="path64143" />
	</g>
</g>
<g
   id="g64191">
	<g
   id="BUTTONS_14_">
		<g
   id="g64167">
			<g
   id="g64165">
				<path
   class="st3"
   d="M63.6,510.2h0.3c0.1,0.6,0.7,1.1,1.8,1.1c1,0,1.8-0.5,1.8-1.7v-1.1c-0.2,0.6-0.9,1.3-1.9,1.3      c-1.2,0-2.1-0.8-2.1-2.3v-0.1c0-1.4,1-2.3,2.2-2.3c1,0,1.6,0.6,1.8,1.2v-1.2h0.3v4.4c0,1.4-0.9,2-2.1,2      C64.3,511.6,63.7,510.9,63.6,510.2z M67.5,507.5L67.5,507.5c0-1.3-0.8-2.1-1.8-2.1c-1,0-1.9,0.7-1.9,2v0.1c0,1.3,0.8,2,1.8,2      C66.6,509.5,67.5,508.8,67.5,507.5z"
   id="path64149" />
				<path
   class="st3"
   d="M68.9,508.7c0-1.1,1-1.4,2.1-1.4h1.2v-0.5c0-1-0.4-1.4-1.3-1.4c-0.7,0-1.3,0.3-1.5,1.1h-0.3      c0.1-0.9,0.9-1.4,1.8-1.4c1,0,1.6,0.5,1.6,1.7v3.1h-0.3v-0.8c-0.3,0.5-0.8,0.9-1.7,0.9C69.5,510,68.9,509.5,68.9,508.7z       M72.2,508.5v-1H71c-1,0-1.8,0.2-1.8,1.2c0,0.7,0.5,1.1,1.3,1.1C71.4,509.7,72.2,509.2,72.2,508.5z"
   id="path64151" />
				<path
   class="st3"
   d="M73.9,503h0.3v7h-0.3V503z"
   id="path64153" />
				<path
   class="st3"
   d="M75.4,507.6L75.4,507.6c0-1.5,0.9-2.5,2.1-2.5c1.2,0,2,0.8,2,2.3v0.1h-3.8c0,1.4,0.7,2.2,1.9,2.2      c0.8,0,1.4-0.4,1.6-1.1h0.3c-0.2,0.9-0.9,1.4-1.9,1.4C76.2,510,75.4,509,75.4,507.6z M79.2,507.3c0-1.2-0.7-1.9-1.7-1.9      c-1,0-1.7,0.7-1.8,1.9H79.2z"
   id="path64155" />
				<path
   class="st3"
   d="M80.6,505.2h0.3v1.1c0.2-0.6,0.8-1.1,1.6-1.1v0.3c-0.9,0-1.6,0.5-1.6,1.8v2.6h-0.3V505.2z"
   id="path64157" />
				<path
   class="st3"
   d="M84.3,503.2h0.4l-0.8,1.3h-0.3L84.3,503.2z M83.6,505.2h0.3v4.7h-0.3V505.2z"
   id="path64159" />
				<path
   class="st3"
   d="M85.1,508.7c0-1.1,1-1.4,2.1-1.4h1.2v-0.5c0-1-0.4-1.4-1.3-1.4c-0.7,0-1.3,0.3-1.5,1.1h-0.3      c0.1-0.9,0.9-1.4,1.8-1.4c1,0,1.6,0.5,1.6,1.7v3.1h-0.3v-0.8c-0.3,0.5-0.8,0.9-1.7,0.9C85.7,510,85.1,509.5,85.1,508.7z       M88.4,508.5v-1h-1.2c-1,0-1.8,0.2-1.8,1.2c0,0.7,0.5,1.1,1.3,1.1C87.6,509.7,88.4,509.2,88.4,508.5z"
   id="path64161" />
				<path
   class="st3"
   d="M94.3,502.9h0.3l-2.6,8.3h-0.3L94.3,502.9z"
   id="path64163" />
			</g>
		</g>
	</g>
	<g
   id="BUTTONS_2_">
		<g
   id="g64188">
			<g
   id="g64186">
				<path
   class="st3"
   d="M319.6,510.2h0.3c0.1,0.6,0.7,1.1,1.8,1.1c1,0,1.8-0.5,1.8-1.7v-1.1c-0.2,0.6-0.9,1.3-1.9,1.3      c-1.2,0-2.1-0.8-2.1-2.3v-0.1c0-1.4,1-2.3,2.2-2.3c1,0,1.6,0.6,1.8,1.2v-1.2h0.3v4.4c0,1.4-0.9,2-2.1,2      C320.3,511.6,319.7,510.9,319.6,510.2z M323.5,507.5L323.5,507.5c0-1.3-0.8-2.1-1.8-2.1c-1,0-1.9,0.7-1.9,2v0.1      c0,1.3,0.8,2,1.8,2C322.6,509.5,323.5,508.8,323.5,507.5z"
   id="path64170" />
				<path
   class="st3"
   d="M324.9,508.7c0-1.1,1-1.4,2.1-1.4h1.2v-0.5c0-1-0.4-1.4-1.3-1.4c-0.7,0-1.3,0.3-1.5,1.1h-0.3      c0.1-0.9,0.9-1.4,1.8-1.4c1,0,1.6,0.5,1.6,1.7v3.1h-0.3v-0.8c-0.3,0.5-0.8,0.9-1.7,0.9C325.5,510,324.9,509.5,324.9,508.7z       M328.2,508.5v-1H327c-1,0-1.8,0.2-1.8,1.2c0,0.7,0.5,1.1,1.3,1.1C327.4,509.7,328.2,509.2,328.2,508.5z"
   id="path64172" />
				<path
   class="st3"
   d="M329.9,503h0.3v7h-0.3V503z"
   id="path64174" />
				<path
   class="st3"
   d="M331.4,507.6L331.4,507.6c0-1.5,0.9-2.5,2.1-2.5c1.2,0,2,0.8,2,2.3v0.1h-3.8c0,1.4,0.7,2.2,1.9,2.2      c0.8,0,1.4-0.4,1.6-1.1h0.3c-0.2,0.9-0.9,1.4-1.9,1.4C332.2,510,331.4,509,331.4,507.6z M335.2,507.3c0-1.2-0.7-1.9-1.7-1.9      s-1.7,0.7-1.8,1.9H335.2z"
   id="path64176" />
				<path
   class="st3"
   d="M336.6,505.2h0.3v1.1c0.2-0.6,0.8-1.1,1.6-1.1v0.3c-0.9,0-1.6,0.5-1.6,1.8v2.6h-0.3V505.2z"
   id="path64178" />
				<path
   class="st3"
   d="M340.3,503.2h0.4l-0.8,1.3h-0.3L340.3,503.2z M339.6,505.2h0.3v4.7h-0.3V505.2z"
   id="path64180" />
				<path
   class="st3"
   d="M341.1,508.7c0-1.1,1-1.4,2.1-1.4h1.2v-0.5c0-1-0.4-1.4-1.3-1.4c-0.7,0-1.3,0.3-1.5,1.1h-0.3      c0.1-0.9,0.9-1.4,1.8-1.4c1,0,1.6,0.5,1.6,1.7v3.1h-0.3v-0.8c-0.3,0.5-0.8,0.9-1.7,0.9C341.7,510,341.1,509.5,341.1,508.7z       M344.4,508.5v-1h-1.2c-1,0-1.8,0.2-1.8,1.2c0,0.7,0.5,1.1,1.3,1.1C343.6,509.7,344.4,509.2,344.4,508.5z"
   id="path64182" />
				<path
   class="st3"
   d="M350.3,502.9h0.3l-2.6,8.3h-0.3L350.3,502.9z"
   id="path64184" />
			</g>
		</g>
	</g>
</g>
<g
   id="g64201">
	<g
   id="g64199">
		<pattern
   id="SVGID_3_"
   xlink:href="#SVGID_1_"
   patternTransform="matrix(1 0 0 -1 -218.59 -17858.8672)">
		</pattern>
		<polygon
   class="st4"
   points="120.3,397.3 83,434.6 69.6,434.6 32.3,397.3 32.3,383.9 69.6,346.6 83,346.6 120.3,383.9   "
   id="polygon64194" />
		<pattern
   id="SVGID_4_"
   xlink:href="#SVGID_2_"
   patternTransform="matrix(1 0 0 -1 -218.59 -17858.8672)">
		</pattern>
		<polygon
   class="st5"
   points="381.7,397.3 344.4,434.6 331,434.6 293.7,397.3 293.7,383.9 331,346.6 344.4,346.6 381.7,383.9   "
   id="polygon64197" />
	</g>
</g>
<g
   id="HIGHLIGHT_1_">
	<polygon
   class="st6"
   points="251.2,397.6 213.7,435.1 200.3,435.1 162.8,397.6 162.8,384.1 200.3,346.6 213.7,346.6 251.2,384.1     "
   id="polygon64203" />
	<g
   id="g64209">
		<polygon
   class="st6"
   points="120.6,397.6 83.1,435.1 69.6,435.1 32.1,397.6 32.1,384.1 69.6,346.6 83.1,346.6 120.6,384.1   "
   id="polygon64205" />
		<polygon
   class="st6"
   points="381.9,397.6 344.4,435.1 330.9,435.1 293.4,397.6 293.4,384.1 330.9,346.6 344.4,346.6 381.9,384.1       "
   id="polygon64207" />
	</g>
	<g
   id="g64215">
		<polygon
   class="st6"
   points="213.7,477.3 251.2,514.8 251.2,528.2 213.7,565.7 200.3,565.7 162.8,528.2 162.8,514.8 200.3,477.3       "
   id="polygon64211" />
		<polygon
   class="st6"
   points="213.7,216 251.2,253.5 251.2,267 213.7,304.5 200.3,304.5 162.8,267 162.8,253.5 200.3,216   "
   id="polygon64213" />
	</g>
	<g
   id="g64225">
		<polygon
   class="st6"
   points="185.9,332.3 148.4,369.8 134.9,369.8 97.4,332.3 97.4,318.8 134.9,281.3 148.4,281.3 185.9,318.8       "
   id="polygon64217" />
		<polygon
   class="st6"
   points="185.9,462.9 148.4,500.4 134.9,500.4 97.4,462.9 97.4,449.5 134.9,412 148.4,412 185.9,449.5   "
   id="polygon64219" />
		<polygon
   class="st6"
   points="316.5,332.3 279.1,369.8 265.6,369.8 228.1,332.3 228.1,318.8 265.6,281.3 279.1,281.3 316.5,318.8       "
   id="polygon64221" />
		<polygon
   class="st6"
   points="316.5,462.9 279.1,500.4 265.6,500.4 228.1,462.9 228.1,449.5 265.6,412 279.1,412 316.5,449.5   "
   id="polygon64223" />
	</g>
</g>


<g
   id="g64304">
	<path
   class="st7"
   d="M196.7,144.1v6.1c7,0,12.8-5.7,12.8-12.8c0-3.9-1.7-7.4-4.5-9.7c2.8-2.3,4.5-5.8,4.5-9.7c0-0.5,0-1-0.1-1.5   h-6.2c0.1,0.5,0.2,1,0.2,1.5c0,3.7-3,6.6-6.6,6.6v6.2c3.7,0,6.6,3,6.6,6.6C203.3,141.1,200.3,144.1,196.7,144.1L196.7,144.1z"
   id="path64298" />
	<path
   class="st8"
   d="M217.2,128.5c0,2.4,1.2,4.5,3.1,5.7l3.6-3.6l3.6,3.6c1.9-1.2,3.1-3.3,3.1-5.6c0-3.7-3-6.7-6.7-6.7   C220.2,121.8,217.2,124.8,217.2,128.5z M231.2,146.5l-5.3-5.3c-0.6,0.1-1.3,0.2-2,0.2c-7.1,0-12.9-5.8-12.9-12.9   c0-7.1,5.8-12.9,12.9-12.9c7.1,0,12.9,5.8,12.9,12.9c0,4.1-1.9,7.7-4.8,10.1l3.6,3.6L231.2,146.5z"
   id="path64300" />
	<polygon
   class="st9"
   points="177.2,116.5 177.2,140.5 183.2,140.5 183.2,130.9 193.4,130.9 193.4,126.2 183.2,126.2 183.2,121.2    193.4,121.2 193.4,116.5  "
   id="polygon64302" />
</g>
<g
   id="g64406">
	
		<ellipse
   transform="matrix(3.327795e-02 -0.9994 0.9994 3.327795e-02 -706.1036 830.3943)"
   class="st7"
   cx="76.2"
   cy="780.2"
   rx="18.7"
   ry="18.7"
   id="ellipse64306" />
	<g
   id="g64364">
		<path
   class="st3"
   d="M37.9,771.5h1.9c1.2,0,2.3,0.5,2.3,1.8l0,0c0,1.1-0.7,1.6-1.6,1.8l2,2.9h-0.9l-1.9-2.8h-1v2.8h-0.8V771.5z     M39.9,774.6c0.9,0,1.4-0.4,1.4-1.2l0,0c0-0.9-0.5-1.2-1.4-1.2h-1.2v2.4H39.9z"
   id="path64308" />
		<path
   class="st3"
   d="M43,775.7L43,775.7c0-1.5,0.9-2.5,2.2-2.5c1.1,0,2.1,0.7,2.1,2.3v0.2h-3.5c0,1.1,0.5,1.7,1.5,1.7    c0.7,0,1.2-0.3,1.3-0.8h0.7c-0.2,0.9-0.9,1.4-2,1.4C44,778.1,43,777.1,43,775.7z M46.6,775.2c-0.1-1-0.6-1.4-1.4-1.4    c-0.8,0-1.3,0.5-1.4,1.4H46.6z"
   id="path64310" />
		<path
   class="st3"
   d="M48.1,775.7L48.1,775.7c0-1.5,1-2.5,2.3-2.5c1,0,1.9,0.5,2,1.6h-0.7c-0.1-0.7-0.7-1-1.3-1    c-0.9,0-1.5,0.7-1.5,1.8v0.1c0,1.2,0.6,1.8,1.5,1.8c0.7,0,1.3-0.4,1.4-1.2h0.7c-0.1,1-0.9,1.8-2.1,1.8    C49.1,778.1,48.1,777.1,48.1,775.7z"
   id="path64312" />
		<path
   class="st3"
   d="M53.3,775.7L53.3,775.7c0-1.5,1-2.5,2.3-2.5s2.3,1,2.3,2.4v0.1c0,1.4-1,2.4-2.3,2.4S53.3,777,53.3,775.7z     M57.1,775.7L57.1,775.7c0-1.2-0.6-1.9-1.5-1.9s-1.5,0.7-1.5,1.8v0.1c0,1.1,0.6,1.8,1.5,1.8C56.5,777.4,57.1,776.7,57.1,775.7z"
   id="path64314" />
		<path
   class="st3"
   d="M59.1,773.3h0.7v0.7c0.2-0.4,0.7-0.8,1.4-0.8c0.6,0,1.1,0.3,1.4,0.9c0.3-0.6,1-0.9,1.6-0.9    c0.8,0,1.6,0.5,1.6,1.9v2.9H65v-3c0-0.8-0.4-1.2-1-1.2s-1.2,0.4-1.2,1.3v2.9h-0.7v-3c0-0.8-0.4-1.2-1-1.2s-1.2,0.4-1.2,1.3v2.9    h-0.7L59.1,773.3L59.1,773.3z"
   id="path64316" />
		<path
   class="st3"
   d="M66.9,775.7L66.9,775.7c0-1.5,0.9-2.5,2.2-2.5c1.1,0,2.1,0.7,2.1,2.3v0.2h-3.5c0,1.1,0.5,1.7,1.5,1.7    c0.7,0,1.2-0.3,1.3-0.8h0.7c-0.2,0.9-0.9,1.4-2,1.4C67.9,778.1,66.9,777.1,66.9,775.7z M70.5,775.2c-0.1-1-0.6-1.4-1.4-1.4    s-1.3,0.5-1.4,1.4H70.5z"
   id="path64318" />
		<path
   class="st3"
   d="M72.4,773.3h0.7v0.7c0.2-0.4,0.7-0.8,1.5-0.8c1,0,1.7,0.5,1.7,1.9v2.9h-0.7v-3c0-0.8-0.4-1.2-1.1-1.2    s-1.3,0.4-1.3,1.3v2.9h-0.7L72.4,773.3L72.4,773.3z"
   id="path64320" />
		<path
   class="st3"
   d="M77.4,775.7L77.4,775.7c0-1.5,0.9-2.5,2.2-2.5c0.8,0,1.3,0.4,1.5,0.8v-3h0.7v7h-0.7v-0.8    c-0.3,0.5-0.9,0.9-1.6,0.9C78.3,778.1,77.4,777.2,77.4,775.7z M81.2,775.7L81.2,775.7c0-1.3-0.6-1.8-1.5-1.8s-1.5,0.7-1.5,1.8v0.1    c0,1.2,0.6,1.8,1.4,1.8C80.5,777.4,81.2,776.9,81.2,775.7z"
   id="path64322" />
		<path
   class="st3"
   d="M83,776.7c0-1.1,1.2-1.5,2.4-1.5H86v-0.3c0-0.7-0.3-1.1-1-1.1c-0.6,0-1,0.3-1.1,0.8h-0.7    c0.1-1.1,1-1.5,1.9-1.5s1.7,0.4,1.7,1.7v3.1H86v-0.6c-0.4,0.4-0.8,0.7-1.5,0.7C83.7,778.1,83,777.6,83,776.7z M86,776.3v-0.6h-0.6    c-0.9,0-1.6,0.2-1.6,0.9c0,0.5,0.2,0.8,0.9,0.8C85.4,777.5,86,777.1,86,776.3z"
   id="path64324" />
		<path
   class="st3"
   d="M87.9,775.7L87.9,775.7c0-1.5,1-2.5,2.3-2.5c1,0,1.9,0.5,2,1.6h-0.7c-0.1-0.7-0.7-1-1.3-1    c-0.9,0-1.5,0.7-1.5,1.8v0.1c0,1.2,0.6,1.8,1.5,1.8c0.7,0,1.3-0.4,1.4-1.2h0.7c-0.1,1-0.9,1.8-2.1,1.8    C88.9,778.1,87.9,777.1,87.9,775.7z"
   id="path64326" />
		<path
   class="st3"
   d="M93.3,771.8c0-0.3,0.2-0.5,0.5-0.5s0.5,0.2,0.5,0.5s-0.2,0.5-0.5,0.5S93.3,772.1,93.3,771.8z M93.4,773.3h0.7    v4.7h-0.7V773.3z"
   id="path64328" />
		<path
   class="st3"
   d="M95.3,775.7L95.3,775.7c0-1.5,1-2.5,2.3-2.5s2.3,1,2.3,2.4v0.1c0,1.4-1,2.4-2.3,2.4    C96.3,778.1,95.3,777,95.3,775.7z M99.2,775.7L99.2,775.7c0-1.2-0.6-1.9-1.5-1.9s-1.5,0.7-1.5,1.8v0.1c0,1.1,0.6,1.8,1.5,1.8    C98.6,777.4,99.2,776.7,99.2,775.7z"
   id="path64330" />
		<path
   class="st3"
   d="M101.1,773.3h0.7v0.7c0.2-0.4,0.7-0.8,1.5-0.8c1,0,1.7,0.5,1.7,1.9v2.9h-0.7v-3c0-0.8-0.4-1.2-1.1-1.2    s-1.3,0.4-1.3,1.3v2.9h-0.7L101.1,773.3L101.1,773.3z"
   id="path64332" />
		<path
   class="st3"
   d="M106.1,775.7L106.1,775.7c0-1.5,0.9-2.5,2.2-2.5c1.1,0,2.1,0.7,2.1,2.3v0.2h-3.5c0,1.1,0.5,1.7,1.5,1.7    c0.7,0,1.2-0.3,1.3-0.8h0.7c-0.2,0.9-0.9,1.4-2,1.4C107.1,778.1,106.1,777.1,106.1,775.7z M109.7,775.2c-0.1-1-0.6-1.4-1.4-1.4    s-1.3,0.5-1.4,1.4H109.7z"
   id="path64334" />
		<path
   class="st3"
   d="M111.3,776.5h0.7c0.1,0.6,0.4,0.9,1.1,0.9s1-0.2,1-0.7s-0.4-0.7-1.1-0.8c-1.2-0.2-1.6-0.6-1.6-1.4    c0-0.9,0.9-1.3,1.6-1.3c0.8,0,1.6,0.3,1.7,1.4H114c-0.1-0.5-0.4-0.7-1-0.7c-0.5,0-0.9,0.3-0.9,0.7s0.2,0.6,1.1,0.7    c1,0.2,1.7,0.4,1.7,1.4c0,0.9-0.6,1.4-1.7,1.4C112,778.1,111.3,777.5,111.3,776.5z"
   id="path64336" />
		<path
   class="st3"
   d="M41.9,786.5L41.9,786.5c0-1.5,0.9-2.5,2.2-2.5c0.8,0,1.3,0.4,1.5,0.8v-3h0.7v7h-0.7V788    c-0.3,0.5-0.9,0.9-1.6,0.9C42.8,788.9,41.9,788,41.9,786.5z M45.6,786.5L45.6,786.5c0-1.3-0.6-1.8-1.5-1.8s-1.5,0.7-1.5,1.8v0.1    c0,1.2,0.6,1.8,1.4,1.8C45,788.2,45.6,787.7,45.6,786.5z"
   id="path64338" />
		<path
   class="st3"
   d="M47.5,786.5L47.5,786.5c0-1.5,0.9-2.5,2.2-2.5c1.1,0,2.1,0.7,2.1,2.3v0.2h-3.5c0,1.1,0.5,1.7,1.5,1.7    c0.7,0,1.2-0.3,1.3-0.8h0.7c-0.2,0.9-0.9,1.4-2,1.4C48.5,788.9,47.5,787.9,47.5,786.5z M51.1,786c-0.1-1-0.6-1.4-1.4-1.4    c-0.8,0-1.3,0.5-1.4,1.4H51.1z"
   id="path64340" />
		<path
   class="st3"
   d="M55.3,787.1v-3H56v2.9c0,0.8,0.4,1.2,1.1,1.2c0.7,0,1.3-0.4,1.3-1.3V784h0.7v4.7h-0.7V788    c-0.2,0.4-0.7,0.8-1.5,0.8C56,788.9,55.3,788.4,55.3,787.1z"
   id="path64342" />
		<path
   class="st3"
   d="M60.3,787.3H61c0.1,0.6,0.4,0.9,1.1,0.9c0.7,0,1-0.2,1-0.7s-0.4-0.7-1.1-0.8c-1.2-0.2-1.6-0.6-1.6-1.4    c0-0.9,0.9-1.3,1.6-1.3c0.8,0,1.6,0.3,1.7,1.4H63c-0.1-0.5-0.4-0.7-1-0.7c-0.5,0-0.9,0.3-0.9,0.7s0.2,0.6,1.1,0.7    c1,0.2,1.7,0.4,1.7,1.4c0,0.9-0.6,1.4-1.7,1.4C61,788.9,60.4,788.3,60.3,787.3z"
   id="path64344" />
		<path
   class="st3"
   d="M64.7,786.5L64.7,786.5c0-1.5,1-2.5,2.3-2.5s2.3,1,2.3,2.4v0.1c0,1.4-1,2.4-2.3,2.4S64.7,787.8,64.7,786.5z     M68.5,786.5L68.5,786.5c0-1.2-0.6-1.9-1.5-1.9s-1.5,0.7-1.5,1.8v0.1c0,1.1,0.6,1.8,1.5,1.8C67.9,788.2,68.5,787.5,68.5,786.5z"
   id="path64346" />
		<path
   class="st3"
   d="M72.5,786.5L72.5,786.5c0-1.5,0.9-2.5,2.2-2.5c1.1,0,2.1,0.7,2.1,2.3v0.2h-3.5c0,1.1,0.5,1.7,1.5,1.7    c0.7,0,1.2-0.3,1.3-0.8h0.7c-0.2,0.9-0.9,1.4-2,1.4C73.4,788.9,72.5,787.9,72.5,786.5z M76.1,786c-0.1-1-0.6-1.4-1.4-1.4    s-1.3,0.5-1.4,1.4H76.1z"
   id="path64348" />
		<path
   class="st3"
   d="M78,784.1h0.7v0.7c0.2-0.4,0.7-0.8,1.5-0.8c1,0,1.7,0.5,1.7,1.9v2.9h-0.7v-2.9c0-0.8-0.4-1.2-1.1-1.2    s-1.3,0.4-1.3,1.3v2.9H78V784.1z"
   id="path64350" />
		<path
   class="st3"
   d="M85.7,781.8h0.8v7h-0.8V781.8z"
   id="path64352" />
		<path
   class="st3"
   d="M87.6,787.5c0-1.1,1.2-1.5,2.4-1.5h0.7v-0.3c0-0.7-0.3-1.1-1-1.1c-0.6,0-1,0.3-1.1,0.8h-0.7    c0.1-1.1,1-1.5,1.9-1.5s1.7,0.4,1.7,1.7v3.1h-0.7v-0.6c-0.4,0.4-0.8,0.7-1.5,0.7C88.3,788.9,87.6,788.4,87.6,787.5z M90.7,787.1    v-0.6H90c-0.9,0-1.6,0.2-1.6,0.9c0,0.5,0.2,0.8,0.9,0.8C90.1,788.3,90.7,787.9,90.7,787.1z"
   id="path64354" />
		<path
   class="st3"
   d="M94.9,787.3h0.7c0.1,0.6,0.4,0.9,1.1,0.9s1-0.2,1-0.7s-0.4-0.7-1.1-0.8c-1.2-0.2-1.6-0.6-1.6-1.4    c0-0.9,0.9-1.3,1.6-1.3c0.8,0,1.6,0.3,1.7,1.4h-0.7c-0.1-0.5-0.4-0.7-1-0.7c-0.5,0-0.9,0.3-0.9,0.7s0.2,0.6,1.1,0.7    c1,0.2,1.7,0.4,1.7,1.4c0,0.9-0.6,1.4-1.7,1.4C95.6,788.9,94.9,788.3,94.9,787.3z"
   id="path64356" />
		<path
   class="st3"
   d="M99.2,787.5c0-1.1,1.2-1.5,2.4-1.5h0.7v-0.3c0-0.7-0.3-1.1-1-1.1c-0.6,0-1,0.3-1.1,0.8h-0.7    c0.1-1.1,1-1.5,1.9-1.5s1.7,0.4,1.7,1.7v3.1h-0.7v-0.6c-0.4,0.4-0.8,0.7-1.5,0.7C99.9,788.9,99.2,788.4,99.2,787.5z M102.2,787.1    v-0.6h-0.6c-0.9,0-1.6,0.2-1.6,0.9c0,0.5,0.2,0.8,0.9,0.8C101.6,788.3,102.2,787.9,102.2,787.1z"
   id="path64358" />
		<path
   class="st3"
   d="M104.5,781.8h0.8v7h-0.8V781.8z"
   id="path64360" />
		<path
   class="st3"
   d="M106.4,787.5c0-1.1,1.2-1.5,2.4-1.5h0.7v-0.3c0-0.7-0.3-1.1-1-1.1c-0.6,0-1,0.3-1.1,0.8h-0.7    c0.1-1.1,1-1.5,1.9-1.5s1.7,0.4,1.7,1.7v3.1h-0.7v-0.6c-0.4,0.4-0.8,0.7-1.5,0.7C107.1,788.9,106.4,788.4,106.4,787.5z     M109.4,787.1v-0.6h-0.6c-0.9,0-1.6,0.2-1.6,0.9c0,0.5,0.2,0.8,0.9,0.8C108.8,788.3,109.4,787.9,109.4,787.1z"
   id="path64362" />
	</g>
	<circle
   class="st7"
   cx="337.8"
   cy="780.2"
   r="18.7"
   id="circle64366" />
	<g
   id="g64404">
		<path
   class="st3"
   d="M319.1,771.6h1.8c1.2,0,2.3,0.5,2.3,1.9l0,0c0,1.4-1,1.9-2.3,1.9h-1v2.6h-0.8V771.6z M321,774.8    c0.9,0,1.4-0.5,1.4-1.3l0,0c0-0.9-0.5-1.3-1.4-1.3h-1.1v2.6H321z"
   id="path64368" />
		<path
   class="st3"
   d="M323.8,775.7L323.8,775.7c0-1.5,0.9-2.5,2.2-2.5c1.1,0,2.1,0.7,2.1,2.3v0.2h-3.5c0,1.1,0.5,1.7,1.5,1.7    c0.7,0,1.2-0.3,1.3-0.8h0.7c-0.2,0.9-0.9,1.4-2,1.4C324.8,778.1,323.8,777.2,323.8,775.7z M327.4,775.2c-0.1-1-0.6-1.4-1.4-1.4    s-1.3,0.5-1.4,1.4H327.4z"
   id="path64370" />
		<path
   class="st3"
   d="M329,778.3h0.8c0.1,0.5,0.6,0.8,1.4,0.8c0.9,0,1.5-0.4,1.5-1.4V777c-0.3,0.5-0.9,0.9-1.6,0.9    c-1.2,0-2.1-0.9-2.1-2.2v-0.1c0-1.3,0.9-2.3,2.2-2.3c0.8,0,1.3,0.4,1.5,0.8v-0.8h0.7v4.4c0,1.4-0.9,2-2.3,2    C329.8,779.8,329.2,779.1,329,778.3z M332.7,775.6L332.7,775.6c0-1.1-0.6-1.7-1.5-1.7s-1.5,0.7-1.5,1.7v0.1c0,1,0.7,1.6,1.4,1.6    C332,777.3,332.7,776.7,332.7,775.6z"
   id="path64372" />
		<path
   class="st3"
   d="M334.9,776.3v-3h0.7v2.9c0,0.8,0.4,1.2,1.1,1.2s1.3-0.4,1.3-1.3v-2.9h0.7v4.7H338v-0.7    c-0.2,0.4-0.7,0.8-1.5,0.8C335.6,778.1,334.9,777.6,334.9,776.3z"
   id="path64374" />
		<path
   class="st3"
   d="M340.3,773.3h0.7v0.7c0.2-0.4,0.7-0.8,1.5-0.8c1,0,1.7,0.5,1.7,1.9v2.9h-0.7v-2.9c0-0.8-0.4-1.2-1.1-1.2    s-1.3,0.4-1.3,1.3v2.9h-0.7v-4.8H340.3z"
   id="path64376" />
		<path
   class="st3"
   d="M345.8,776.9V774h-0.7v-0.6h0.7v-1.1h0.7v1.1h1.1v0.6h-1.1v2.8c0,0.5,0.2,0.7,0.6,0.7c0.2,0,0.4,0,0.6-0.1    v0.6c-0.2,0.1-0.3,0.1-0.6,0.1C346.2,778.1,345.8,777.6,345.8,776.9z"
   id="path64378" />
		<path
   class="st3"
   d="M348.5,776.7c0-1.1,1.2-1.5,2.4-1.5h0.7v-0.3c0-0.7-0.3-1.1-1-1.1c-0.6,0-1,0.3-1.1,0.8h-0.7    c0.1-1.1,1-1.5,1.9-1.5s1.7,0.4,1.7,1.7v3.1h-0.7v-0.6c-0.4,0.4-0.8,0.7-1.5,0.7C349.2,778.1,348.5,777.7,348.5,776.7z     M351.6,776.4v-0.6H351c-0.9,0-1.6,0.2-1.6,0.9c0,0.5,0.2,0.8,0.9,0.8C351,777.5,351.6,777.1,351.6,776.4z"
   id="path64380" />
		<path
   class="st3"
   d="M353.4,776.6h0.7c0.1,0.6,0.4,0.9,1.1,0.9s1-0.2,1-0.7s-0.4-0.7-1.1-0.8c-1.2-0.2-1.6-0.6-1.6-1.4    c0-0.9,0.9-1.3,1.6-1.3c0.8,0,1.6,0.3,1.7,1.4h-0.7c-0.1-0.5-0.4-0.7-1-0.7c-0.5,0-0.9,0.3-0.9,0.7s0.2,0.6,1.1,0.7    c1,0.2,1.7,0.4,1.7,1.4c0,0.9-0.6,1.4-1.7,1.4C354.1,778.1,353.4,777.6,353.4,776.6z"
   id="path64382" />
		<path
   class="st3"
   d="M316.2,784.8h-0.7v-0.6h0.7v-0.8c0-1,0.5-1.5,1.4-1.5c0.2,0,0.4,0,0.6,0.1v0.6c-0.1-0.1-0.3-0.1-0.5-0.1    c-0.5,0-0.7,0.3-0.7,0.8v0.8h1.2v0.6H317v4.1h-0.7L316.2,784.8L316.2,784.8z"
   id="path64384" />
		<path
   class="st3"
   d="M319.1,784.1h0.7v0.8c0.3-0.5,0.7-0.9,1.5-0.9v0.7c-0.9,0-1.5,0.3-1.5,1.5v2.6h-0.7V784.1z"
   id="path64386" />
		<path
   class="st3"
   d="M322,786.5L322,786.5c0-1.5,0.9-2.5,2.2-2.5c1.1,0,2.1,0.7,2.1,2.3v0.2h-3.5c0,1.1,0.5,1.7,1.5,1.7    c0.7,0,1.2-0.3,1.3-0.8h0.7c-0.2,0.9-0.9,1.4-2,1.4C323,788.9,322,788,322,786.5z M325.6,786c-0.1-1-0.6-1.4-1.3-1.4    c-0.8,0-1.3,0.5-1.4,1.4H325.6z"
   id="path64388" />
		<path
   class="st3"
   d="M327.2,786.5L327.2,786.5c0-1.5,1-2.5,2.3-2.5c1,0,1.9,0.5,2,1.6h-0.7c-0.1-0.7-0.7-1-1.3-1    c-0.9,0-1.5,0.7-1.5,1.8v0.1c0,1.2,0.6,1.8,1.5,1.8c0.7,0,1.3-0.4,1.4-1.2h0.7c-0.1,1-0.9,1.8-2.1,1.8    C328.1,788.9,327.2,788,327.2,786.5z"
   id="path64390" />
		<path
   class="st3"
   d="M332.6,787.1v-3h0.7v2.9c0,0.8,0.4,1.2,1.1,1.2s1.3-0.4,1.3-1.3V784h0.7v4.7h-0.7V788    c-0.2,0.4-0.7,0.8-1.5,0.8C333.3,788.9,332.6,788.4,332.6,787.1z"
   id="path64392" />
		<path
   class="st3"
   d="M337.6,786.5L337.6,786.5c0-1.5,0.9-2.5,2.2-2.5c1.1,0,2.1,0.7,2.1,2.3v0.2h-3.5c0,1.1,0.5,1.7,1.5,1.7    c0.7,0,1.2-0.3,1.3-0.8h0.7c-0.2,0.9-0.9,1.4-2,1.4C338.6,788.9,337.6,788,337.6,786.5z M341.2,786c-0.1-1-0.6-1.4-1.3-1.4    c-0.8,0-1.3,0.5-1.4,1.4H341.2z"
   id="path64394" />
		<path
   class="st3"
   d="M343.1,784.1h0.7v0.7c0.2-0.4,0.7-0.8,1.5-0.8c1,0,1.7,0.5,1.7,1.9v2.9h-0.7v-2.9c0-0.8-0.4-1.2-1.1-1.2    s-1.3,0.4-1.3,1.3v2.9h-0.7v-4.8H343.1z"
   id="path64396" />
		<path
   class="st3"
   d="M348.6,787.7v-2.9H348v-0.6h0.7v-1.1h0.7v1.1h1.1v0.6h-1.1v2.8c0,0.5,0.2,0.7,0.6,0.7c0.2,0,0.4,0,0.6-0.1    v0.6c-0.2,0.1-0.3,0.1-0.6,0.1C349.1,788.9,348.6,788.4,348.6,787.7z"
   id="path64398" />
		<path
   class="st3"
   d="M351.3,786.5L351.3,786.5c0-1.5,0.9-2.5,2.2-2.5c1.1,0,2.1,0.7,2.1,2.3v0.2h-3.5c0,1.1,0.5,1.7,1.5,1.7    c0.7,0,1.2-0.3,1.3-0.8h0.7c-0.2,0.9-0.9,1.4-2,1.4C352.3,788.9,351.3,788,351.3,786.5z M354.9,786c-0.1-1-0.6-1.4-1.3-1.4    c-0.8,0-1.3,0.5-1.4,1.4H354.9z"
   id="path64400" />
		<path
   class="st3"
   d="M356.4,787.4h0.7c0.1,0.6,0.4,0.9,1.1,0.9s1-0.2,1-0.7s-0.4-0.7-1.1-0.8c-1.2-0.2-1.6-0.6-1.6-1.4    c0-0.9,0.9-1.3,1.6-1.3c0.8,0,1.6,0.3,1.7,1.4h-0.7c-0.1-0.5-0.4-0.7-1-0.7c-0.5,0-0.9,0.3-0.9,0.7s0.2,0.6,1.1,0.7    c1,0.2,1.7,0.4,1.7,1.4c0,0.9-0.6,1.4-1.7,1.4C357.2,788.9,356.5,788.4,356.4,787.4z"
   id="path64402" />
	</g>
</g>
</svg>