<?xml version="1.0" encoding="utf-8"?>
<!-- Generator: Adobe Illustrator 24.2.0, SVG Export Plug-In . SVG Version: 6.00 Build 0)  -->
<svg version="1.1" xmlns="http://www.w3.org/2000/svg" xmlns:xlink="http://www.w3.org/1999/xlink" x="0px" y="0px"
	 viewBox="0 0 415 897" style="enable-background:new 0 0 415 897;" xml:space="preserve">
<style type="text/css">
	.st0{fill:none;}
	.st1{fill:none;stroke:#FAB906;stroke-width:3.5433;stroke-miterlimit:10;}
	.st2{fill:#FFFFFF;}
	.st3{fill:#1D1D1B;}
	.st4{fill:url(#SVGID_3_);}
	.st5{fill:url(#SVGID_4_);}
	.st6{fill:none;stroke:#1D1E1B;stroke-width:0.9921;stroke-miterlimit:10;}
	.st7{fill:#FAB900;}
	.st8{fill-rule:evenodd;clip-rule:evenodd;fill:#FAB900;}
	.st9{fill-rule:evenodd;clip-rule:evenodd;fill:#1D1D1B;}
</style>
<pattern  y="897" width="128" height="128" patternUnits="userSpaceOnUse" id="SVGID_1_" viewBox="129.3 -257.3 128 128" style="overflow:visible;">
	<g>
		<rect x="129.3" y="-257.3" class="st0" width="128" height="128"/>
		<g>
			<rect x="129.3" y="-257.3" class="st0" width="128" height="128"/>
			<g>
				<line class="st1" x1="257.3" y1="-385.3" x2="385.3" y2="-257.3"/>
				<line class="st1" x1="150.6" y1="-385.3" x2="278.6" y2="-257.3"/>
				<line class="st1" x1="171.9" y1="-385.3" x2="299.9" y2="-257.3"/>
				<line class="st1" x1="193.3" y1="-385.3" x2="321.3" y2="-257.3"/>
				<line class="st1" x1="214.6" y1="-385.3" x2="342.6" y2="-257.3"/>
				<line class="st1" x1="235.9" y1="-385.3" x2="363.9" y2="-257.3"/>
				<line class="st1" x1="246.6" y1="-385.3" x2="374.6" y2="-257.3"/>
				<line class="st1" x1="139.9" y1="-385.3" x2="267.9" y2="-257.3"/>
				<line class="st1" x1="161.3" y1="-385.3" x2="289.3" y2="-257.3"/>
				<line class="st1" x1="182.6" y1="-385.3" x2="310.6" y2="-257.3"/>
				<line class="st1" x1="203.9" y1="-385.3" x2="331.9" y2="-257.3"/>
				<line class="st1" x1="225.3" y1="-385.3" x2="353.3" y2="-257.3"/>
			</g>
			<g>
				<line class="st1" x1="129.3" y1="-385.3" x2="257.3" y2="-257.3"/>
				<line class="st1" x1="22.6" y1="-385.3" x2="150.6" y2="-257.3"/>
				<line class="st1" x1="43.9" y1="-385.3" x2="171.9" y2="-257.3"/>
				<line class="st1" x1="65.3" y1="-385.3" x2="193.3" y2="-257.3"/>
				<line class="st1" x1="86.6" y1="-385.3" x2="214.6" y2="-257.3"/>
				<line class="st1" x1="107.9" y1="-385.3" x2="235.9" y2="-257.3"/>
				<line class="st1" x1="150.6" y1="-385.3" x2="278.6" y2="-257.3"/>
				<line class="st1" x1="171.9" y1="-385.3" x2="299.9" y2="-257.3"/>
				<line class="st1" x1="193.3" y1="-385.3" x2="321.3" y2="-257.3"/>
				<line class="st1" x1="214.6" y1="-385.3" x2="342.6" y2="-257.3"/>
				<line class="st1" x1="235.9" y1="-385.3" x2="363.9" y2="-257.3"/>
				<line class="st1" x1="246.6" y1="-385.3" x2="374.6" y2="-257.3"/>
				<line class="st1" x1="118.6" y1="-385.3" x2="246.6" y2="-257.3"/>
				<line class="st1" x1="11.9" y1="-385.3" x2="139.9" y2="-257.3"/>
				<line class="st1" x1="33.3" y1="-385.3" x2="161.3" y2="-257.3"/>
				<line class="st1" x1="54.6" y1="-385.3" x2="182.6" y2="-257.3"/>
				<line class="st1" x1="75.9" y1="-385.3" x2="203.9" y2="-257.3"/>
				<line class="st1" x1="97.3" y1="-385.3" x2="225.3" y2="-257.3"/>
				<line class="st1" x1="139.9" y1="-385.3" x2="267.9" y2="-257.3"/>
				<line class="st1" x1="161.3" y1="-385.3" x2="289.3" y2="-257.3"/>
				<line class="st1" x1="182.6" y1="-385.3" x2="310.6" y2="-257.3"/>
				<line class="st1" x1="203.9" y1="-385.3" x2="331.9" y2="-257.3"/>
				<line class="st1" x1="225.3" y1="-385.3" x2="353.3" y2="-257.3"/>
			</g>
			<g>
				<line class="st1" x1="1.3" y1="-385.3" x2="129.3" y2="-257.3"/>
				<line class="st1" x1="22.6" y1="-385.3" x2="150.6" y2="-257.3"/>
				<line class="st1" x1="43.9" y1="-385.3" x2="171.9" y2="-257.3"/>
				<line class="st1" x1="65.3" y1="-385.3" x2="193.3" y2="-257.3"/>
				<line class="st1" x1="86.6" y1="-385.3" x2="214.6" y2="-257.3"/>
				<line class="st1" x1="107.9" y1="-385.3" x2="235.9" y2="-257.3"/>
				<line class="st1" x1="118.6" y1="-385.3" x2="246.6" y2="-257.3"/>
				<line class="st1" x1="11.9" y1="-385.3" x2="139.9" y2="-257.3"/>
				<line class="st1" x1="33.3" y1="-385.3" x2="161.3" y2="-257.3"/>
				<line class="st1" x1="54.6" y1="-385.3" x2="182.6" y2="-257.3"/>
				<line class="st1" x1="75.9" y1="-385.3" x2="203.9" y2="-257.3"/>
				<line class="st1" x1="97.3" y1="-385.3" x2="225.3" y2="-257.3"/>
			</g>
			<g>
				<line class="st1" x1="257.3" y1="-257.3" x2="385.3" y2="-129.3"/>
				<line class="st1" x1="150.6" y1="-257.3" x2="278.6" y2="-129.3"/>
				<line class="st1" x1="171.9" y1="-257.3" x2="299.9" y2="-129.3"/>
				<line class="st1" x1="193.3" y1="-257.3" x2="321.3" y2="-129.3"/>
				<line class="st1" x1="214.6" y1="-257.3" x2="342.6" y2="-129.3"/>
				<line class="st1" x1="235.9" y1="-257.3" x2="363.9" y2="-129.3"/>
				<line class="st1" x1="246.6" y1="-257.3" x2="374.6" y2="-129.3"/>
				<line class="st1" x1="139.9" y1="-257.3" x2="267.9" y2="-129.3"/>
				<line class="st1" x1="161.3" y1="-257.3" x2="289.3" y2="-129.3"/>
				<line class="st1" x1="182.6" y1="-257.3" x2="310.6" y2="-129.3"/>
				<line class="st1" x1="203.9" y1="-257.3" x2="331.9" y2="-129.3"/>
				<line class="st1" x1="225.3" y1="-257.3" x2="353.3" y2="-129.3"/>
			</g>
			<g>
				<line class="st1" x1="129.3" y1="-257.3" x2="257.3" y2="-129.3"/>
				<line class="st1" x1="22.6" y1="-257.3" x2="150.6" y2="-129.3"/>
				<line class="st1" x1="43.9" y1="-257.3" x2="171.9" y2="-129.3"/>
				<line class="st1" x1="65.3" y1="-257.3" x2="193.3" y2="-129.3"/>
				<line class="st1" x1="86.6" y1="-257.3" x2="214.6" y2="-129.3"/>
				<line class="st1" x1="107.9" y1="-257.3" x2="235.9" y2="-129.3"/>
				<line class="st1" x1="150.6" y1="-257.3" x2="278.6" y2="-129.3"/>
				<line class="st1" x1="171.9" y1="-257.3" x2="299.9" y2="-129.3"/>
				<line class="st1" x1="193.3" y1="-257.3" x2="321.3" y2="-129.3"/>
				<line class="st1" x1="214.6" y1="-257.3" x2="342.6" y2="-129.3"/>
				<line class="st1" x1="235.9" y1="-257.3" x2="363.9" y2="-129.3"/>
				<line class="st1" x1="246.6" y1="-257.3" x2="374.6" y2="-129.3"/>
				<line class="st1" x1="118.6" y1="-257.3" x2="246.6" y2="-129.3"/>
				<line class="st1" x1="11.9" y1="-257.3" x2="139.9" y2="-129.3"/>
				<line class="st1" x1="33.3" y1="-257.3" x2="161.3" y2="-129.3"/>
				<line class="st1" x1="54.6" y1="-257.3" x2="182.6" y2="-129.3"/>
				<line class="st1" x1="75.9" y1="-257.3" x2="203.9" y2="-129.3"/>
				<line class="st1" x1="97.3" y1="-257.3" x2="225.3" y2="-129.3"/>
				<line class="st1" x1="139.9" y1="-257.3" x2="267.9" y2="-129.3"/>
				<line class="st1" x1="161.3" y1="-257.3" x2="289.3" y2="-129.3"/>
				<line class="st1" x1="182.6" y1="-257.3" x2="310.6" y2="-129.3"/>
				<line class="st1" x1="203.9" y1="-257.3" x2="331.9" y2="-129.3"/>
				<line class="st1" x1="225.3" y1="-257.3" x2="353.3" y2="-129.3"/>
			</g>
			<g>
				<line class="st1" x1="1.3" y1="-257.3" x2="129.3" y2="-129.3"/>
				<line class="st1" x1="22.6" y1="-257.3" x2="150.6" y2="-129.3"/>
				<line class="st1" x1="43.9" y1="-257.3" x2="171.9" y2="-129.3"/>
				<line class="st1" x1="65.3" y1="-257.3" x2="193.3" y2="-129.3"/>
				<line class="st1" x1="86.6" y1="-257.3" x2="214.6" y2="-129.3"/>
				<line class="st1" x1="107.9" y1="-257.3" x2="235.9" y2="-129.3"/>
				<line class="st1" x1="118.6" y1="-257.3" x2="246.6" y2="-129.3"/>
				<line class="st1" x1="11.9" y1="-257.3" x2="139.9" y2="-129.3"/>
				<line class="st1" x1="33.3" y1="-257.3" x2="161.3" y2="-129.3"/>
				<line class="st1" x1="54.6" y1="-257.3" x2="182.6" y2="-129.3"/>
				<line class="st1" x1="75.9" y1="-257.3" x2="203.9" y2="-129.3"/>
				<line class="st1" x1="97.3" y1="-257.3" x2="225.3" y2="-129.3"/>
			</g>
			<g>
				<line class="st1" x1="257.3" y1="-129.3" x2="385.3" y2="-1.3"/>
				<line class="st1" x1="150.6" y1="-129.3" x2="278.6" y2="-1.3"/>
				<line class="st1" x1="171.9" y1="-129.3" x2="299.9" y2="-1.3"/>
				<line class="st1" x1="193.3" y1="-129.3" x2="321.3" y2="-1.3"/>
				<line class="st1" x1="214.6" y1="-129.3" x2="342.6" y2="-1.3"/>
				<line class="st1" x1="235.9" y1="-129.3" x2="363.9" y2="-1.3"/>
				<line class="st1" x1="246.6" y1="-129.3" x2="374.6" y2="-1.3"/>
				<line class="st1" x1="139.9" y1="-129.3" x2="267.9" y2="-1.3"/>
				<line class="st1" x1="161.3" y1="-129.3" x2="289.3" y2="-1.3"/>
				<line class="st1" x1="182.6" y1="-129.3" x2="310.6" y2="-1.3"/>
				<line class="st1" x1="203.9" y1="-129.3" x2="331.9" y2="-1.3"/>
				<line class="st1" x1="225.3" y1="-129.3" x2="353.3" y2="-1.3"/>
			</g>
			<g>
				<line class="st1" x1="129.3" y1="-129.3" x2="257.3" y2="-1.3"/>
				<line class="st1" x1="22.6" y1="-129.3" x2="150.6" y2="-1.3"/>
				<line class="st1" x1="43.9" y1="-129.3" x2="171.9" y2="-1.3"/>
				<line class="st1" x1="65.3" y1="-129.3" x2="193.3" y2="-1.3"/>
				<line class="st1" x1="86.6" y1="-129.3" x2="214.6" y2="-1.3"/>
				<line class="st1" x1="107.9" y1="-129.3" x2="235.9" y2="-1.3"/>
				<line class="st1" x1="150.6" y1="-129.3" x2="278.6" y2="-1.3"/>
				<line class="st1" x1="171.9" y1="-129.3" x2="299.9" y2="-1.3"/>
				<line class="st1" x1="193.3" y1="-129.3" x2="321.3" y2="-1.3"/>
				<line class="st1" x1="214.6" y1="-129.3" x2="342.6" y2="-1.3"/>
				<line class="st1" x1="235.9" y1="-129.3" x2="363.9" y2="-1.3"/>
				<line class="st1" x1="246.6" y1="-129.3" x2="374.6" y2="-1.3"/>
				<line class="st1" x1="118.6" y1="-129.3" x2="246.6" y2="-1.3"/>
				<line class="st1" x1="11.9" y1="-129.3" x2="139.9" y2="-1.3"/>
				<line class="st1" x1="33.3" y1="-129.3" x2="161.3" y2="-1.3"/>
				<line class="st1" x1="54.6" y1="-129.3" x2="182.6" y2="-1.3"/>
				<line class="st1" x1="75.9" y1="-129.3" x2="203.9" y2="-1.3"/>
				<line class="st1" x1="97.3" y1="-129.3" x2="225.3" y2="-1.3"/>
				<line class="st1" x1="139.9" y1="-129.3" x2="267.9" y2="-1.3"/>
				<line class="st1" x1="161.3" y1="-129.3" x2="289.3" y2="-1.3"/>
				<line class="st1" x1="182.6" y1="-129.3" x2="310.6" y2="-1.3"/>
				<line class="st1" x1="203.9" y1="-129.3" x2="331.9" y2="-1.3"/>
				<line class="st1" x1="225.3" y1="-129.3" x2="353.3" y2="-1.3"/>
			</g>
			<g>
				<line class="st1" x1="1.3" y1="-129.3" x2="129.3" y2="-1.3"/>
				<line class="st1" x1="22.6" y1="-129.3" x2="150.6" y2="-1.3"/>
				<line class="st1" x1="43.9" y1="-129.3" x2="171.9" y2="-1.3"/>
				<line class="st1" x1="65.3" y1="-129.3" x2="193.3" y2="-1.3"/>
				<line class="st1" x1="86.6" y1="-129.3" x2="214.6" y2="-1.3"/>
				<line class="st1" x1="107.9" y1="-129.3" x2="235.9" y2="-1.3"/>
				<line class="st1" x1="118.6" y1="-129.3" x2="246.6" y2="-1.3"/>
				<line class="st1" x1="11.9" y1="-129.3" x2="139.9" y2="-1.3"/>
				<line class="st1" x1="33.3" y1="-129.3" x2="161.3" y2="-1.3"/>
				<line class="st1" x1="54.6" y1="-129.3" x2="182.6" y2="-1.3"/>
				<line class="st1" x1="75.9" y1="-129.3" x2="203.9" y2="-1.3"/>
				<line class="st1" x1="97.3" y1="-129.3" x2="225.3" y2="-1.3"/>
			</g>
		</g>
	</g>
</pattern>
<pattern  y="897" width="128" height="128" patternUnits="userSpaceOnUse" id="SVGID_2_" viewBox="129.3 -257.3 128 128" style="overflow:visible;">
	<g>
		<rect x="129.3" y="-257.3" class="st0" width="128" height="128"/>
		<g>
			<rect x="129.3" y="-257.3" class="st0" width="128" height="128"/>
			<g>
				<line class="st1" x1="257.3" y1="-385.3" x2="385.3" y2="-257.3"/>
				<line class="st1" x1="150.6" y1="-385.3" x2="278.6" y2="-257.3"/>
				<line class="st1" x1="171.9" y1="-385.3" x2="299.9" y2="-257.3"/>
				<line class="st1" x1="193.3" y1="-385.3" x2="321.3" y2="-257.3"/>
				<line class="st1" x1="214.6" y1="-385.3" x2="342.6" y2="-257.3"/>
				<line class="st1" x1="235.9" y1="-385.3" x2="363.9" y2="-257.3"/>
				<line class="st1" x1="246.6" y1="-385.3" x2="374.6" y2="-257.3"/>
				<line class="st1" x1="139.9" y1="-385.3" x2="267.9" y2="-257.3"/>
				<line class="st1" x1="161.3" y1="-385.3" x2="289.3" y2="-257.3"/>
				<line class="st1" x1="182.6" y1="-385.3" x2="310.6" y2="-257.3"/>
				<line class="st1" x1="203.9" y1="-385.3" x2="331.9" y2="-257.3"/>
				<line class="st1" x1="225.3" y1="-385.3" x2="353.3" y2="-257.3"/>
			</g>
			<g>
				<line class="st1" x1="129.3" y1="-385.3" x2="257.3" y2="-257.3"/>
				<line class="st1" x1="22.6" y1="-385.3" x2="150.6" y2="-257.3"/>
				<line class="st1" x1="43.9" y1="-385.3" x2="171.9" y2="-257.3"/>
				<line class="st1" x1="65.3" y1="-385.3" x2="193.3" y2="-257.3"/>
				<line class="st1" x1="86.6" y1="-385.3" x2="214.6" y2="-257.3"/>
				<line class="st1" x1="107.9" y1="-385.3" x2="235.9" y2="-257.3"/>
				<line class="st1" x1="150.6" y1="-385.3" x2="278.6" y2="-257.3"/>
				<line class="st1" x1="171.9" y1="-385.3" x2="299.9" y2="-257.3"/>
				<line class="st1" x1="193.3" y1="-385.3" x2="321.3" y2="-257.3"/>
				<line class="st1" x1="214.6" y1="-385.3" x2="342.6" y2="-257.3"/>
				<line class="st1" x1="235.9" y1="-385.3" x2="363.9" y2="-257.3"/>
				<line class="st1" x1="246.6" y1="-385.3" x2="374.6" y2="-257.3"/>
				<line class="st1" x1="118.6" y1="-385.3" x2="246.6" y2="-257.3"/>
				<line class="st1" x1="11.9" y1="-385.3" x2="139.9" y2="-257.3"/>
				<line class="st1" x1="33.3" y1="-385.3" x2="161.3" y2="-257.3"/>
				<line class="st1" x1="54.6" y1="-385.3" x2="182.6" y2="-257.3"/>
				<line class="st1" x1="75.9" y1="-385.3" x2="203.9" y2="-257.3"/>
				<line class="st1" x1="97.3" y1="-385.3" x2="225.3" y2="-257.3"/>
				<line class="st1" x1="139.9" y1="-385.3" x2="267.9" y2="-257.3"/>
				<line class="st1" x1="161.3" y1="-385.3" x2="289.3" y2="-257.3"/>
				<line class="st1" x1="182.6" y1="-385.3" x2="310.6" y2="-257.3"/>
				<line class="st1" x1="203.9" y1="-385.3" x2="331.9" y2="-257.3"/>
				<line class="st1" x1="225.3" y1="-385.3" x2="353.3" y2="-257.3"/>
			</g>
			<g>
				<line class="st1" x1="1.3" y1="-385.3" x2="129.3" y2="-257.3"/>
				<line class="st1" x1="22.6" y1="-385.3" x2="150.6" y2="-257.3"/>
				<line class="st1" x1="43.9" y1="-385.3" x2="171.9" y2="-257.3"/>
				<line class="st1" x1="65.3" y1="-385.3" x2="193.3" y2="-257.3"/>
				<line class="st1" x1="86.6" y1="-385.3" x2="214.6" y2="-257.3"/>
				<line class="st1" x1="107.9" y1="-385.3" x2="235.9" y2="-257.3"/>
				<line class="st1" x1="118.6" y1="-385.3" x2="246.6" y2="-257.3"/>
				<line class="st1" x1="11.9" y1="-385.3" x2="139.9" y2="-257.3"/>
				<line class="st1" x1="33.3" y1="-385.3" x2="161.3" y2="-257.3"/>
				<line class="st1" x1="54.6" y1="-385.3" x2="182.6" y2="-257.3"/>
				<line class="st1" x1="75.9" y1="-385.3" x2="203.9" y2="-257.3"/>
				<line class="st1" x1="97.3" y1="-385.3" x2="225.3" y2="-257.3"/>
			</g>
			<g>
				<line class="st1" x1="257.3" y1="-257.3" x2="385.3" y2="-129.3"/>
				<line class="st1" x1="150.6" y1="-257.3" x2="278.6" y2="-129.3"/>
				<line class="st1" x1="171.9" y1="-257.3" x2="299.9" y2="-129.3"/>
				<line class="st1" x1="193.3" y1="-257.3" x2="321.3" y2="-129.3"/>
				<line class="st1" x1="214.6" y1="-257.3" x2="342.6" y2="-129.3"/>
				<line class="st1" x1="235.9" y1="-257.3" x2="363.9" y2="-129.3"/>
				<line class="st1" x1="246.6" y1="-257.3" x2="374.6" y2="-129.3"/>
				<line class="st1" x1="139.9" y1="-257.3" x2="267.9" y2="-129.3"/>
				<line class="st1" x1="161.3" y1="-257.3" x2="289.3" y2="-129.3"/>
				<line class="st1" x1="182.6" y1="-257.3" x2="310.6" y2="-129.3"/>
				<line class="st1" x1="203.9" y1="-257.3" x2="331.9" y2="-129.3"/>
				<line class="st1" x1="225.3" y1="-257.3" x2="353.3" y2="-129.3"/>
			</g>
			<g>
				<line class="st1" x1="129.3" y1="-257.3" x2="257.3" y2="-129.3"/>
				<line class="st1" x1="22.6" y1="-257.3" x2="150.6" y2="-129.3"/>
				<line class="st1" x1="43.9" y1="-257.3" x2="171.9" y2="-129.3"/>
				<line class="st1" x1="65.3" y1="-257.3" x2="193.3" y2="-129.3"/>
				<line class="st1" x1="86.6" y1="-257.3" x2="214.6" y2="-129.3"/>
				<line class="st1" x1="107.9" y1="-257.3" x2="235.9" y2="-129.3"/>
				<line class="st1" x1="150.6" y1="-257.3" x2="278.6" y2="-129.3"/>
				<line class="st1" x1="171.9" y1="-257.3" x2="299.9" y2="-129.3"/>
				<line class="st1" x1="193.3" y1="-257.3" x2="321.3" y2="-129.3"/>
				<line class="st1" x1="214.6" y1="-257.3" x2="342.6" y2="-129.3"/>
				<line class="st1" x1="235.9" y1="-257.3" x2="363.9" y2="-129.3"/>
				<line class="st1" x1="246.6" y1="-257.3" x2="374.6" y2="-129.3"/>
				<line class="st1" x1="118.6" y1="-257.3" x2="246.6" y2="-129.3"/>
				<line class="st1" x1="11.9" y1="-257.3" x2="139.9" y2="-129.3"/>
				<line class="st1" x1="33.3" y1="-257.3" x2="161.3" y2="-129.3"/>
				<line class="st1" x1="54.6" y1="-257.3" x2="182.6" y2="-129.3"/>
				<line class="st1" x1="75.9" y1="-257.3" x2="203.9" y2="-129.3"/>
				<line class="st1" x1="97.3" y1="-257.3" x2="225.3" y2="-129.3"/>
				<line class="st1" x1="139.9" y1="-257.3" x2="267.9" y2="-129.3"/>
				<line class="st1" x1="161.3" y1="-257.3" x2="289.3" y2="-129.3"/>
				<line class="st1" x1="182.6" y1="-257.3" x2="310.6" y2="-129.3"/>
				<line class="st1" x1="203.9" y1="-257.3" x2="331.9" y2="-129.3"/>
				<line class="st1" x1="225.3" y1="-257.3" x2="353.3" y2="-129.3"/>
			</g>
			<g>
				<line class="st1" x1="1.3" y1="-257.3" x2="129.3" y2="-129.3"/>
				<line class="st1" x1="22.6" y1="-257.3" x2="150.6" y2="-129.3"/>
				<line class="st1" x1="43.9" y1="-257.3" x2="171.9" y2="-129.3"/>
				<line class="st1" x1="65.3" y1="-257.3" x2="193.3" y2="-129.3"/>
				<line class="st1" x1="86.6" y1="-257.3" x2="214.6" y2="-129.3"/>
				<line class="st1" x1="107.9" y1="-257.3" x2="235.9" y2="-129.3"/>
				<line class="st1" x1="118.6" y1="-257.3" x2="246.6" y2="-129.3"/>
				<line class="st1" x1="11.9" y1="-257.3" x2="139.9" y2="-129.3"/>
				<line class="st1" x1="33.3" y1="-257.3" x2="161.3" y2="-129.3"/>
				<line class="st1" x1="54.6" y1="-257.3" x2="182.6" y2="-129.3"/>
				<line class="st1" x1="75.9" y1="-257.3" x2="203.9" y2="-129.3"/>
				<line class="st1" x1="97.3" y1="-257.3" x2="225.3" y2="-129.3"/>
			</g>
			<g>
				<line class="st1" x1="257.3" y1="-129.3" x2="385.3" y2="-1.3"/>
				<line class="st1" x1="150.6" y1="-129.3" x2="278.6" y2="-1.3"/>
				<line class="st1" x1="171.9" y1="-129.3" x2="299.9" y2="-1.3"/>
				<line class="st1" x1="193.3" y1="-129.3" x2="321.3" y2="-1.3"/>
				<line class="st1" x1="214.6" y1="-129.3" x2="342.6" y2="-1.3"/>
				<line class="st1" x1="235.9" y1="-129.3" x2="363.9" y2="-1.3"/>
				<line class="st1" x1="246.6" y1="-129.3" x2="374.6" y2="-1.3"/>
				<line class="st1" x1="139.9" y1="-129.3" x2="267.9" y2="-1.3"/>
				<line class="st1" x1="161.3" y1="-129.3" x2="289.3" y2="-1.3"/>
				<line class="st1" x1="182.6" y1="-129.3" x2="310.6" y2="-1.3"/>
				<line class="st1" x1="203.9" y1="-129.3" x2="331.9" y2="-1.3"/>
				<line class="st1" x1="225.3" y1="-129.3" x2="353.3" y2="-1.3"/>
			</g>
			<g>
				<line class="st1" x1="129.3" y1="-129.3" x2="257.3" y2="-1.3"/>
				<line class="st1" x1="22.6" y1="-129.3" x2="150.6" y2="-1.3"/>
				<line class="st1" x1="43.9" y1="-129.3" x2="171.9" y2="-1.3"/>
				<line class="st1" x1="65.3" y1="-129.3" x2="193.3" y2="-1.3"/>
				<line class="st1" x1="86.6" y1="-129.3" x2="214.6" y2="-1.3"/>
				<line class="st1" x1="107.9" y1="-129.3" x2="235.9" y2="-1.3"/>
				<line class="st1" x1="150.6" y1="-129.3" x2="278.6" y2="-1.3"/>
				<line class="st1" x1="171.9" y1="-129.3" x2="299.9" y2="-1.3"/>
				<line class="st1" x1="193.3" y1="-129.3" x2="321.3" y2="-1.3"/>
				<line class="st1" x1="214.6" y1="-129.3" x2="342.6" y2="-1.3"/>
				<line class="st1" x1="235.9" y1="-129.3" x2="363.9" y2="-1.3"/>
				<line class="st1" x1="246.6" y1="-129.3" x2="374.6" y2="-1.3"/>
				<line class="st1" x1="118.6" y1="-129.3" x2="246.6" y2="-1.3"/>
				<line class="st1" x1="11.9" y1="-129.3" x2="139.9" y2="-1.3"/>
				<line class="st1" x1="33.3" y1="-129.3" x2="161.3" y2="-1.3"/>
				<line class="st1" x1="54.6" y1="-129.3" x2="182.6" y2="-1.3"/>
				<line class="st1" x1="75.9" y1="-129.3" x2="203.9" y2="-1.3"/>
				<line class="st1" x1="97.3" y1="-129.3" x2="225.3" y2="-1.3"/>
				<line class="st1" x1="139.9" y1="-129.3" x2="267.9" y2="-1.3"/>
				<line class="st1" x1="161.3" y1="-129.3" x2="289.3" y2="-1.3"/>
				<line class="st1" x1="182.6" y1="-129.3" x2="310.6" y2="-1.3"/>
				<line class="st1" x1="203.9" y1="-129.3" x2="331.9" y2="-1.3"/>
				<line class="st1" x1="225.3" y1="-129.3" x2="353.3" y2="-1.3"/>
			</g>
			<g>
				<line class="st1" x1="1.3" y1="-129.3" x2="129.3" y2="-1.3"/>
				<line class="st1" x1="22.6" y1="-129.3" x2="150.6" y2="-1.3"/>
				<line class="st1" x1="43.9" y1="-129.3" x2="171.9" y2="-1.3"/>
				<line class="st1" x1="65.3" y1="-129.3" x2="193.3" y2="-1.3"/>
				<line class="st1" x1="86.6" y1="-129.3" x2="214.6" y2="-1.3"/>
				<line class="st1" x1="107.9" y1="-129.3" x2="235.9" y2="-1.3"/>
				<line class="st1" x1="118.6" y1="-129.3" x2="246.6" y2="-1.3"/>
				<line class="st1" x1="11.9" y1="-129.3" x2="139.9" y2="-1.3"/>
				<line class="st1" x1="33.3" y1="-129.3" x2="161.3" y2="-1.3"/>
				<line class="st1" x1="54.6" y1="-129.3" x2="182.6" y2="-1.3"/>
				<line class="st1" x1="75.9" y1="-129.3" x2="203.9" y2="-1.3"/>
				<line class="st1" x1="97.3" y1="-129.3" x2="225.3" y2="-1.3"/>
			</g>
		</g>
	</g>
</pattern>
<g id="Layer_5">
	<g id="INFO_7_">
		
			<rect x="119" y="627.3" transform="matrix(0.7071 -0.7071 0.7071 0.7071 -445.1919 355.8889)" class="st2" width="176" height="176"/>
		<g>
			<path class="st3" d="M181.3,673.4v1.8h-2.5v-16.1h2.5v6.8c0.6-1,2-2,3.6-2c2.8,0,4.9,2,4.9,5.6v0.2c0,3.5-2,5.7-4.9,5.7
				C183.1,675.4,181.9,674.5,181.3,673.4z M187.1,669.8v-0.2c0-2.4-1.3-3.6-2.9-3.6c-1.8,0-3,1.2-3,3.6v0.2c0,2.5,1.2,3.6,3,3.6
				C186.1,673.4,187.1,672.1,187.1,669.8z"/>
			<path class="st3" d="M191.3,669.8v-0.2c0-3.4,2.3-5.7,5.5-5.7c2.7,0,5.2,1.6,5.2,5.5v0.7h-8c0.1,2.1,1.1,3.3,3,3.3
				c1.5,0,2.3-0.6,2.5-1.7h2.5c-0.4,2.3-2.2,3.6-5,3.6C193.6,675.4,191.3,673.3,191.3,669.8z M199.4,668.5c-0.1-1.9-1.1-2.7-2.7-2.7
				c-1.5,0-2.6,1-2.8,2.7H199.4z"/>
			<path class="st3" d="M203.5,669.8v-0.2c0-3.5,2.5-5.7,5.5-5.7c2.4,0,4.7,1.1,5,4.1h-2.5c-0.2-1.5-1.2-2.1-2.5-2.1
				c-1.7,0-3,1.3-3,3.6v0.2c0,2.4,1.2,3.7,3,3.7c1.3,0,2.5-0.8,2.6-2.4h2.3c-0.2,2.5-2.1,4.3-5.1,4.3
				C205.9,675.4,203.5,673.3,203.5,669.8z"/>
			<path class="st3" d="M215.5,672.1c0-2.6,2.5-3.5,5.6-3.5h1.4v-0.6c0-1.5-0.5-2.2-2-2.2c-1.3,0-2,0.6-2.1,1.7h-2.5
				c0.2-2.6,2.2-3.6,4.7-3.6c2.5,0,4.4,1,4.4,4v7.2h-2.5v-1.3c-0.7,0.9-1.7,1.6-3.4,1.6C217.1,675.4,215.5,674.4,215.5,672.1z
				 M222.5,671.3v-1.1h-1.3c-1.9,0-3.2,0.4-3.2,1.8c0,0.9,0.5,1.5,1.8,1.5C221.3,673.6,222.5,672.7,222.5,671.3z"/>
			<path class="st3" d="M227.1,671.8h2.4c0.1,1.1,0.7,1.8,2.2,1.8c1.4,0,2-0.5,2-1.4c0-0.9-0.7-1.2-2.4-1.5c-2.9-0.5-4-1.3-4-3.3
				c0-2.2,2.1-3.3,4.1-3.3c2.2,0,4,0.8,4.3,3.3h-2.4c-0.2-1-0.8-1.5-2-1.5c-1.1,0-1.7,0.5-1.7,1.3c0,0.8,0.5,1.1,2.3,1.4
				c2.6,0.4,4.1,1,4.1,3.4c0,2.2-1.6,3.5-4.4,3.5C228.8,675.4,227.2,674.1,227.1,671.8z"/>
		</g>
		<g>
			<path class="st3" d="M143.1,700h1.9c2.5,0,3.6,1.5,3.6,3.5v0.1c0,2-1.1,3.5-3.6,3.5h-1.9V700z M144.9,706.4
				c1.8,0,2.8-1.1,2.8-2.8v-0.1c0-1.6-0.8-2.8-2.8-2.8h-1v5.7H144.9z"/>
			<path class="st3" d="M149.6,704.5L149.6,704.5c0-1.7,1-2.8,2.4-2.8c1.2,0,2.3,0.7,2.3,2.6v0.3h-3.9c0,1.2,0.6,1.8,1.7,1.8
				c0.8,0,1.3-0.3,1.4-0.9h0.8c-0.2,1-1,1.6-2.2,1.6C150.7,707.2,149.6,706.2,149.6,704.5z M153.6,704c-0.1-1.1-0.6-1.5-1.5-1.5
				c-0.8,0-1.4,0.6-1.6,1.5H153.6z"/>
			<path class="st3" d="M155.2,705.5h0.8c0.1,0.6,0.4,1,1.2,1c0.8,0,1.1-0.3,1.1-0.8c0-0.5-0.4-0.7-1.2-0.9
				c-1.4-0.2-1.8-0.6-1.8-1.5c0-1,0.9-1.5,1.8-1.5c0.9,0,1.7,0.4,1.9,1.5h-0.8c-0.1-0.6-0.4-0.8-1.1-0.8c-0.6,0-1,0.3-1,0.7
				c0,0.5,0.3,0.7,1.2,0.8c1.1,0.2,1.8,0.4,1.8,1.5c0,0.9-0.6,1.6-1.9,1.6C156,707.2,155.3,706.6,155.2,705.5z"/>
			<path class="st3" d="M160.1,704.5L160.1,704.5c0-1.7,1.1-2.8,2.5-2.8c1.1,0,2.1,0.5,2.3,1.8h-0.8c-0.1-0.8-0.7-1.1-1.4-1.1
				c-0.9,0-1.7,0.8-1.7,2v0.1c0,1.3,0.7,2,1.7,2c0.7,0,1.4-0.4,1.5-1.3h0.8c-0.1,1.1-1,2-2.3,2C161.2,707.2,160.1,706.2,160.1,704.5
				z"/>
			<path class="st3" d="M166.1,705.2v-3.3h0.8v3.3c0,0.9,0.4,1.3,1.2,1.3c0.7,0,1.4-0.5,1.4-1.4v-3.2h0.8v5.2h-0.8v-0.8
				c-0.2,0.5-0.8,0.9-1.7,0.9C166.9,707.2,166.1,706.6,166.1,705.2z"/>
			<path class="st3" d="M172.9,706.2v0.9h-0.8v-7.7h0.8v3.4c0.3-0.5,1-1,1.8-1c1.4,0,2.4,1,2.4,2.6v0.1c0,1.6-0.9,2.7-2.4,2.7
				C173.9,707.2,173.2,706.8,172.9,706.2z M176.2,704.5L176.2,704.5c0-1.4-0.7-2.1-1.6-2.1c-1,0-1.7,0.6-1.7,2v0.1
				c0,1.3,0.7,2,1.7,2C175.7,706.5,176.2,705.8,176.2,704.5z"/>
			<path class="st3" d="M178.4,701.9h0.8v0.9c0.3-0.6,0.8-1,1.7-1v0.8c-1,0-1.7,0.4-1.7,1.7v2.9h-0.8V701.9z"/>
			<path class="st3" d="M181.8,704.5L181.8,704.5c0-1.7,1-2.8,2.4-2.8c1.2,0,2.3,0.7,2.3,2.6v0.3h-3.9c0,1.2,0.6,1.8,1.7,1.8
				c0.8,0,1.3-0.3,1.4-0.9h0.8c-0.2,1-1,1.6-2.2,1.6C182.8,707.2,181.8,706.2,181.8,704.5z M185.7,704c-0.1-1.1-0.6-1.5-1.5-1.5
				c-0.8,0-1.4,0.6-1.6,1.5H185.7z"/>
			<path class="st3" d="M190.5,699.4h0.8v7.7h-0.8V699.4z"/>
			<path class="st3" d="M192.6,705.7c0-1.2,1.3-1.6,2.6-1.6h0.7v-0.4c0-0.8-0.3-1.2-1.1-1.2c-0.7,0-1.1,0.3-1.2,0.9h-0.8
				c0.1-1.2,1.1-1.6,2.1-1.6c1,0,1.9,0.4,1.9,1.9v3.4H196v-0.7c-0.4,0.5-0.9,0.7-1.6,0.7C193.4,707.2,192.6,706.7,192.6,705.7z
				 M196,705.3v-0.6h-0.7c-1,0-1.8,0.3-1.8,1c0,0.5,0.3,0.9,1,0.9C195.3,706.5,196,706.1,196,705.3z"/>
			<path class="st3" d="M198,705.5h0.8c0.1,0.6,0.4,1,1.2,1c0.8,0,1.1-0.3,1.1-0.8c0-0.5-0.4-0.7-1.2-0.9c-1.4-0.2-1.8-0.6-1.8-1.5
				c0-1,0.9-1.5,1.8-1.5c0.9,0,1.7,0.4,1.9,1.5H201c-0.1-0.6-0.4-0.8-1.1-0.8c-0.6,0-1,0.3-1,0.7c0,0.5,0.3,0.7,1.2,0.8
				c1.1,0.2,1.8,0.4,1.8,1.5c0,0.9-0.6,1.6-1.9,1.6C198.8,707.2,198.1,706.6,198,705.5z"/>
			<path class="st3" d="M207,700.8l-1.6,1.1v-0.8l1.7-1.2h0.8v7.1H207V700.8z"/>
			<path class="st3" d="M209.2,706.9l2.8-3c0.6-0.7,1-1.3,1-2.1c0-0.8-0.5-1.3-1.3-1.3c-0.8,0-1.4,0.5-1.5,1.6h-0.8
				c0.1-1.4,1-2.3,2.3-2.3c1.3,0,2.2,0.8,2.2,2c0,0.9-0.6,1.7-1.4,2.6l-2,1.9h3.4v0.7h-4.8V706.9z"/>
			<path class="st3" d="M218.1,701.9h0.8v0.9c0.3-0.5,1-1,1.8-1c1.4,0,2.4,1,2.4,2.6v0.1c0,1.6-0.9,2.7-2.4,2.7
				c-0.9,0-1.5-0.4-1.8-0.9v2.7h-0.8V701.9z M222.2,704.5L222.2,704.5c0-1.4-0.7-2.1-1.6-2.1c-1,0-1.7,0.6-1.7,2v0.1
				c0,1.3,0.7,2,1.7,2C221.6,706.5,222.2,705.8,222.2,704.5z"/>
			<path class="st3" d="M224.3,701.9h0.8v0.9c0.3-0.6,0.8-1,1.7-1v0.8c-1,0-1.7,0.4-1.7,1.7v2.9h-0.8V701.9z"/>
			<path class="st3" d="M227.7,704.5L227.7,704.5c0-1.6,1.1-2.7,2.6-2.7c1.5,0,2.6,1.1,2.6,2.7v0.1c0,1.6-1.1,2.7-2.6,2.7
				S227.7,706.1,227.7,704.5z M232,704.5L232,704.5c0-1.3-0.7-2.1-1.7-2.1c-1,0-1.7,0.8-1.7,2v0.1c0,1.2,0.7,2,1.7,2
				C231.3,706.5,232,705.7,232,704.5z"/>
			<path class="st3" d="M234.1,701.9h0.8v0.9c0.3-0.5,1-1,1.8-1c1.4,0,2.4,1,2.4,2.6v0.1c0,1.6-0.9,2.7-2.4,2.7
				c-0.9,0-1.5-0.4-1.8-0.9v2.7h-0.8V701.9z M238.2,704.5L238.2,704.5c0-1.4-0.7-2.1-1.6-2.1c-1,0-1.7,0.6-1.7,2v0.1
				c0,1.3,0.7,2,1.7,2C237.7,706.5,238.2,705.8,238.2,704.5z"/>
			<path class="st3" d="M240.4,705.2v-3.3h0.8v3.3c0,0.9,0.4,1.3,1.2,1.3c0.7,0,1.4-0.5,1.4-1.4v-3.2h0.8v5.2h-0.8v-0.8
				c-0.2,0.5-0.8,0.9-1.7,0.9C241.1,707.2,240.4,706.6,240.4,705.2z"/>
			<path class="st3" d="M246,704.5L246,704.5c0-1.7,1-2.8,2.4-2.8c1.2,0,2.3,0.7,2.3,2.6v0.3h-3.9c0,1.2,0.6,1.8,1.7,1.8
				c0.8,0,1.3-0.3,1.4-0.9h0.8c-0.2,1-1,1.6-2.2,1.6C247,707.2,246,706.2,246,704.5z M249.9,704c-0.1-1.1-0.6-1.5-1.5-1.5
				c-0.8,0-1.4,0.6-1.6,1.5H249.9z"/>
			<path class="st3" d="M251.6,705.5h0.8c0.1,0.6,0.4,1,1.2,1c0.8,0,1.1-0.3,1.1-0.8c0-0.5-0.4-0.7-1.2-0.9
				c-1.4-0.2-1.8-0.6-1.8-1.5c0-1,0.9-1.5,1.8-1.5c0.9,0,1.7,0.4,1.9,1.5h-0.8c-0.1-0.6-0.4-0.8-1.1-0.8c-0.6,0-1,0.3-1,0.7
				c0,0.5,0.3,0.7,1.2,0.8c1.1,0.2,1.8,0.4,1.8,1.5c0,0.9-0.6,1.6-1.9,1.6C252.4,707.2,251.6,706.6,251.6,705.5z"/>
			<path class="st3" d="M257,705.8v-3.2h-0.7v-0.7h0.7v-1.2h0.8v1.2h1.2v0.7h-1.2v3.1c0,0.5,0.2,0.8,0.6,0.8c0.3,0,0.5,0,0.6-0.1
				v0.7c-0.2,0.1-0.4,0.1-0.7,0.1C257.5,707.2,257,706.6,257,705.8z"/>
			<path class="st3" d="M259.9,705.7c0-1.2,1.3-1.6,2.6-1.6h0.8v-0.4c0-0.8-0.3-1.2-1.1-1.2c-0.7,0-1.1,0.3-1.2,0.9h-0.8
				c0.1-1.2,1.1-1.6,2.1-1.6c1,0,1.9,0.4,1.9,1.9v3.4h-0.8v-0.7c-0.4,0.5-0.9,0.7-1.6,0.7C260.7,707.2,259.9,706.7,259.9,705.7z
				 M263.3,705.3v-0.6h-0.7c-1,0-1.8,0.3-1.8,1c0,0.5,0.3,0.9,1,0.9C262.6,706.5,263.3,706.1,263.3,705.3z"/>
			<path class="st3" d="M265.3,705.5h0.8c0.1,0.6,0.4,1,1.2,1c0.8,0,1.1-0.3,1.1-0.8c0-0.5-0.4-0.7-1.2-0.9
				c-1.4-0.2-1.8-0.6-1.8-1.5c0-1,0.9-1.5,1.8-1.5c0.9,0,1.7,0.4,1.9,1.5h-0.8c-0.1-0.6-0.4-0.8-1.1-0.8c-0.6,0-1,0.3-1,0.7
				c0,0.5,0.3,0.7,1.2,0.8c1.1,0.2,1.8,0.4,1.8,1.5c0,0.9-0.6,1.6-1.9,1.6C266.1,707.2,265.4,706.6,265.3,705.5z"/>
			<path class="st3" d="M133.3,717.5h0.8c0.1,0.6,0.4,1,1.2,1c0.8,0,1.1-0.3,1.1-0.8c0-0.5-0.4-0.7-1.2-0.9
				c-1.4-0.2-1.8-0.6-1.8-1.5c0-1,0.9-1.5,1.8-1.5c0.9,0,1.7,0.4,1.9,1.5h-0.8c-0.1-0.6-0.4-0.8-1.1-0.8c-0.6,0-1,0.3-1,0.7
				c0,0.5,0.3,0.7,1.2,0.8c1.1,0.2,1.8,0.4,1.8,1.5c0,0.9-0.6,1.6-1.9,1.6C134.1,719.2,133.3,718.6,133.3,717.5z"/>
			<path class="st3" d="M138.1,716.5L138.1,716.5c0-1.7,1-2.8,2.4-2.8c1.2,0,2.3,0.7,2.3,2.6v0.3H139c0,1.2,0.6,1.8,1.7,1.8
				c0.8,0,1.3-0.3,1.4-0.9h0.8c-0.2,1-1,1.6-2.2,1.6C139.2,719.2,138.1,718.2,138.1,716.5z M142.1,716c-0.1-1.1-0.6-1.5-1.5-1.5
				c-0.8,0-1.4,0.6-1.6,1.5H142.1z"/>
			<path class="st3" d="M144.2,711.4h0.8v7.7h-0.8V711.4z"/>
			<path class="st3" d="M146.4,716.5L146.4,716.5c0-1.7,1-2.8,2.4-2.8c1.2,0,2.3,0.7,2.3,2.6v0.3h-3.9c0,1.2,0.6,1.8,1.7,1.8
				c0.8,0,1.3-0.3,1.4-0.9h0.8c-0.2,1-1,1.6-2.2,1.6C147.4,719.2,146.4,718.2,146.4,716.5z M150.3,716c-0.1-1.1-0.6-1.5-1.5-1.5
				c-0.8,0-1.4,0.6-1.6,1.5H150.3z"/>
			<path class="st3" d="M152,716.5L152,716.5c0-1.7,1.1-2.8,2.5-2.8c1.1,0,2.1,0.5,2.3,1.8H156c-0.1-0.8-0.7-1.1-1.4-1.1
				c-0.9,0-1.7,0.8-1.7,2v0.1c0,1.3,0.7,2,1.7,2c0.7,0,1.4-0.4,1.5-1.3h0.8c-0.1,1.1-1,2-2.3,2C153.1,719.2,152,718.2,152,716.5z"/>
			<path class="st3" d="M157.7,716.5L157.7,716.5c0-1.7,1.1-2.8,2.5-2.8c1.1,0,2.1,0.5,2.3,1.8h-0.8c-0.1-0.8-0.7-1.1-1.4-1.1
				c-0.9,0-1.7,0.8-1.7,2v0.1c0,1.3,0.7,2,1.7,2c0.7,0,1.4-0.4,1.5-1.3h0.8c-0.1,1.1-1,2-2.3,2C158.8,719.2,157.7,718.2,157.7,716.5
				z"/>
			<path class="st3" d="M163.7,712.2c0-0.3,0.2-0.5,0.5-0.5s0.5,0.2,0.5,0.5s-0.2,0.5-0.5,0.5S163.7,712.5,163.7,712.2z
				 M163.8,713.9h0.8v5.2h-0.8V713.9z"/>
			<path class="st3" d="M166,716.5L166,716.5c0-1.6,1.1-2.7,2.6-2.7c1.5,0,2.6,1.1,2.6,2.7v0.1c0,1.6-1.1,2.7-2.6,2.7
				S166,718.1,166,716.5z M170.3,716.5L170.3,716.5c0-1.3-0.7-2.1-1.7-2.1c-1,0-1.7,0.8-1.7,2v0.1c0,1.2,0.6,2,1.7,2
				C169.6,718.5,170.3,717.7,170.3,716.5z"/>
			<path class="st3" d="M172.4,713.9h0.8v0.8c0.2-0.5,0.8-0.9,1.7-0.9c1.1,0,1.8,0.6,1.8,2.1v3.2h-0.8v-3.3c0-0.9-0.4-1.3-1.2-1.3
				c-0.8,0-1.5,0.5-1.5,1.4v3.2h-0.8V713.9z"/>
			<path class="st3" d="M178,717.7c0-1.2,1.3-1.6,2.6-1.6h0.7v-0.4c0-0.8-0.3-1.2-1.1-1.2c-0.7,0-1.1,0.3-1.2,0.9h-0.8
				c0.1-1.2,1.1-1.6,2.1-1.6c1,0,1.9,0.4,1.9,1.9v3.4h-0.8v-0.7c-0.4,0.5-0.9,0.7-1.6,0.7C178.7,719.2,178,718.7,178,717.7z
				 M181.3,717.3v-0.6h-0.7c-1,0-1.8,0.3-1.8,1c0,0.5,0.3,0.9,1,0.9C180.7,718.5,181.3,718.1,181.3,717.3z"/>
			<path class="st3" d="M183.4,716.6L183.4,716.6c0-1.7,1-2.8,2.4-2.8c0.9,0,1.4,0.4,1.7,0.9v-3.3h0.8v7.7h-0.8v-0.9
				c-0.3,0.5-1,1-1.8,1C184.4,719.2,183.4,718.2,183.4,716.6z M187.6,716.5L187.6,716.5c0-1.4-0.6-2-1.7-2c-1,0-1.7,0.7-1.7,2v0.1
				c0,1.3,0.7,1.9,1.6,1.9C186.8,718.5,187.6,717.9,187.6,716.5z"/>
			<path class="st3" d="M189.6,717.7c0-1.2,1.3-1.6,2.6-1.6h0.7v-0.4c0-0.8-0.3-1.2-1.1-1.2c-0.7,0-1.1,0.3-1.2,0.9h-0.8
				c0.1-1.2,1.1-1.6,2.1-1.6c1,0,1.9,0.4,1.9,1.9v3.4H193v-0.7c-0.4,0.5-0.9,0.7-1.6,0.7C190.4,719.2,189.6,718.7,189.6,717.7z
				 M193,717.3v-0.6h-0.7c-1,0-1.8,0.3-1.8,1c0,0.5,0.3,0.9,1,0.9C192.3,718.5,193,718.1,193,717.3z"/>
			<path class="st3" d="M195,717.5h0.8c0.1,0.6,0.4,1,1.2,1c0.8,0,1.1-0.3,1.1-0.8c0-0.5-0.4-0.7-1.2-0.9c-1.4-0.2-1.8-0.6-1.8-1.5
				c0-1,0.9-1.5,1.8-1.5c0.9,0,1.7,0.4,1.9,1.5H198c-0.1-0.6-0.4-0.8-1.1-0.8c-0.6,0-1,0.3-1,0.7c0,0.5,0.3,0.7,1.2,0.8
				c1.1,0.2,1.8,0.4,1.8,1.5c0,0.9-0.6,1.6-1.9,1.6C195.8,719.2,195.1,718.6,195,717.5z"/>
			<path class="st3" d="M202.9,713.9h0.8v0.9c0.3-0.5,1-1,1.8-1c1.4,0,2.4,1,2.4,2.6v0.1c0,1.6-0.9,2.7-2.4,2.7
				c-0.9,0-1.5-0.4-1.8-0.9v2.7h-0.8V713.9z M207,716.5L207,716.5c0-1.4-0.7-2.1-1.6-2.1c-1,0-1.7,0.6-1.7,2v0.1c0,1.3,0.7,2,1.7,2
				C206.5,718.5,207,717.8,207,716.5z"/>
			<path class="st3" d="M208.8,716.5L208.8,716.5c0-1.6,1.1-2.7,2.6-2.7s2.6,1.1,2.6,2.7v0.1c0,1.6-1.1,2.7-2.6,2.7
				S208.8,718.1,208.8,716.5z M213.1,716.5L213.1,716.5c0-1.3-0.7-2.1-1.7-2.1c-1,0-1.7,0.8-1.7,2v0.1c0,1.2,0.6,2,1.7,2
				C212.4,718.5,213.1,717.7,213.1,716.5z"/>
			<path class="st3" d="M215.2,713.9h0.8v0.9c0.3-0.6,0.8-1,1.7-1v0.8c-1,0-1.7,0.4-1.7,1.7v2.9h-0.8V713.9z"/>
			<path class="st3" d="M221.2,716.5L221.2,716.5c0-1.7,1.1-2.8,2.5-2.8c1.1,0,2.1,0.5,2.3,1.8h-0.8c-0.1-0.8-0.7-1.1-1.4-1.1
				c-0.9,0-1.7,0.8-1.7,2v0.1c0,1.3,0.7,2,1.7,2c0.7,0,1.4-0.4,1.5-1.3h0.8c-0.1,1.1-1,2-2.3,2C222.3,719.2,221.2,718.2,221.2,716.5
				z"/>
			<path class="st3" d="M226.9,716.5L226.9,716.5c0-1.6,1.1-2.7,2.6-2.7s2.6,1.1,2.6,2.7v0.1c0,1.6-1.1,2.7-2.6,2.7
				S226.9,718.1,226.9,716.5z M231.2,716.5L231.2,716.5c0-1.3-0.7-2.1-1.7-2.1c-1,0-1.7,0.8-1.7,2v0.1c0,1.2,0.6,2,1.7,2
				C230.6,718.5,231.2,717.7,231.2,716.5z"/>
			<path class="st3" d="M233.4,713.9h0.8v0.8c0.2-0.5,0.8-0.9,1.7-0.9c1.1,0,1.8,0.6,1.8,2.1v3.2h-0.8v-3.3c0-0.9-0.4-1.3-1.2-1.3
				c-0.8,0-1.5,0.5-1.5,1.4v3.2h-0.8V713.9z"/>
			<path class="st3" d="M239,716.5L239,716.5c0-1.7,1.1-2.8,2.5-2.8c1.1,0,2.1,0.5,2.3,1.8H243c-0.1-0.8-0.7-1.1-1.4-1.1
				c-0.9,0-1.7,0.8-1.7,2v0.1c0,1.3,0.7,2,1.7,2c0.7,0,1.4-0.4,1.5-1.3h0.8c-0.1,1.1-1,2-2.3,2C240.1,719.2,239,718.2,239,716.5z"/>
			<path class="st3" d="M245,717.2v-3.3h0.8v3.3c0,0.9,0.4,1.3,1.2,1.3c0.7,0,1.4-0.5,1.4-1.4v-3.2h0.8v5.2h-0.8v-0.8
				c-0.2,0.5-0.8,0.9-1.7,0.9C245.8,719.2,245,718.6,245,717.2z"/>
			<path class="st3" d="M251,713.9h0.8v0.9c0.3-0.6,0.8-1,1.7-1v0.8c-1,0-1.7,0.4-1.7,1.7v2.9H251V713.9z"/>
			<path class="st3" d="M254.3,717.5h0.8c0.1,0.6,0.4,1,1.2,1c0.8,0,1.1-0.3,1.1-0.8c0-0.5-0.4-0.7-1.2-0.9
				c-1.4-0.2-1.8-0.6-1.8-1.5c0-1,0.9-1.5,1.8-1.5c0.9,0,1.7,0.4,1.9,1.5h-0.8c-0.1-0.6-0.4-0.8-1.1-0.8c-0.6,0-1,0.3-1,0.7
				c0,0.5,0.3,0.7,1.2,0.8c1.1,0.2,1.8,0.4,1.8,1.5c0,0.9-0.6,1.6-1.9,1.6C255.1,719.2,254.4,718.6,254.3,717.5z"/>
			<path class="st3" d="M259.2,716.5L259.2,716.5c0-1.6,1.1-2.7,2.6-2.7c1.5,0,2.6,1.1,2.6,2.7v0.1c0,1.6-1.1,2.7-2.6,2.7
				S259.2,718.1,259.2,716.5z M263.4,716.5L263.4,716.5c0-1.3-0.7-2.1-1.7-2.1c-1,0-1.7,0.8-1.7,2v0.1c0,1.2,0.7,2,1.7,2
				C262.8,718.5,263.4,717.7,263.4,716.5z"/>
			<path class="st3" d="M267.9,716.5L267.9,716.5c0-1.7,1-2.8,2.4-2.8c1.2,0,2.3,0.7,2.3,2.6v0.3h-3.9c0,1.2,0.6,1.8,1.7,1.8
				c0.8,0,1.3-0.3,1.4-0.9h0.8c-0.2,1-1,1.6-2.2,1.6C268.9,719.2,267.9,718.2,267.9,716.5z M271.8,716c-0.1-1.1-0.6-1.5-1.5-1.5
				c-0.8,0-1.4,0.6-1.6,1.5H271.8z"/>
			<path class="st3" d="M273.9,713.9h0.8v0.8c0.2-0.5,0.8-0.9,1.7-0.9c1.1,0,1.8,0.6,1.8,2.1v3.2h-0.8v-3.3c0-0.9-0.4-1.3-1.2-1.3
				c-0.8,0-1.5,0.5-1.5,1.4v3.2h-0.8V713.9z"/>
			<path class="st3" d="M143.4,728.5L143.4,728.5c0-1.7,1-2.8,2.4-2.8c1.2,0,2.3,0.7,2.3,2.6v0.3h-3.9c0,1.2,0.6,1.8,1.7,1.8
				c0.8,0,1.3-0.3,1.4-0.9h0.8c-0.2,1-1,1.6-2.2,1.6C144.4,731.2,143.4,730.2,143.4,728.5z M147.3,728c-0.1-1.1-0.6-1.5-1.5-1.5
				c-0.8,0-1.4,0.6-1.6,1.5H147.3z"/>
			<path class="st3" d="M149.5,723.4h0.8v7.7h-0.8V723.4z"/>
			<path class="st3" d="M154.7,725.9h0.8v0.9c0.3-0.5,1-1,1.8-1c1.4,0,2.4,1,2.4,2.6v0.1c0,1.6-0.9,2.7-2.4,2.7
				c-0.9,0-1.5-0.4-1.8-0.9v2.7h-0.8V725.9z M158.8,728.5L158.8,728.5c0-1.4-0.7-2.1-1.6-2.1c-1,0-1.7,0.6-1.7,2v0.1
				c0,1.3,0.7,2,1.7,2C158.2,730.5,158.8,729.8,158.8,728.5z"/>
			<path class="st3" d="M160.9,725.9h0.8v0.9c0.3-0.6,0.8-1,1.7-1v0.8c-1,0-1.7,0.4-1.7,1.7v2.9h-0.8V725.9z"/>
			<path class="st3" d="M164.3,728.5L164.3,728.5c0-1.6,1.1-2.7,2.6-2.7c1.5,0,2.6,1.1,2.6,2.7v0.1c0,1.6-1.1,2.7-2.6,2.7
				S164.3,730.1,164.3,728.5z M168.6,728.5L168.6,728.5c0-1.3-0.7-2.1-1.7-2.1c-1,0-1.7,0.8-1.7,2v0.1c0,1.2,0.6,2,1.7,2
				C167.9,730.5,168.6,729.7,168.6,728.5z"/>
			<path class="st3" d="M170.5,731.4h0.8c0.1,0.6,0.6,0.9,1.5,0.9c1,0,1.7-0.5,1.7-1.6v-0.8c-0.3,0.5-1,1-1.8,1
				c-1.4,0-2.4-1-2.4-2.5v-0.1c0-1.4,1-2.6,2.4-2.6c0.9,0,1.4,0.4,1.7,0.9v-0.8h0.8v4.9c0,1.5-1,2.3-2.5,2.3
				C171.3,733,170.6,732.3,170.5,731.4z M174.5,728.4L174.5,728.4c0-1.2-0.6-1.9-1.7-1.9c-1,0-1.7,0.8-1.7,1.9v0.1
				c0,1.1,0.7,1.8,1.6,1.8C173.8,730.2,174.5,729.6,174.5,728.4z"/>
			<path class="st3" d="M177,725.9h0.8v0.9c0.3-0.6,0.8-1,1.7-1v0.8c-1,0-1.7,0.4-1.7,1.7v2.9H177V725.9z"/>
			<path class="st3" d="M180.3,729.7c0-1.2,1.3-1.6,2.6-1.6h0.7v-0.4c0-0.8-0.3-1.2-1.1-1.2c-0.7,0-1.1,0.3-1.2,0.9h-0.8
				c0.1-1.2,1.1-1.6,2.1-1.6c1,0,1.9,0.4,1.9,1.9v3.4h-0.8v-0.7c-0.4,0.5-0.9,0.7-1.6,0.7C181.1,731.2,180.3,730.7,180.3,729.7z
				 M183.7,729.3v-0.6H183c-1,0-1.8,0.3-1.8,1c0,0.5,0.3,0.9,1,0.9C183,730.5,183.7,730.1,183.7,729.3z"/>
			<path class="st3" d="M186.2,725.9h0.8v0.8c0.2-0.5,0.8-0.9,1.6-0.9c0.7,0,1.3,0.3,1.5,1c0.4-0.7,1.1-1,1.8-1
				c0.9,0,1.8,0.6,1.8,2.1v3.2h-0.8v-3.3c0-0.9-0.4-1.3-1.1-1.3c-0.7,0-1.4,0.5-1.4,1.4v3.2h-0.8v-3.3c0-0.9-0.4-1.3-1.1-1.3
				c-0.7,0-1.4,0.5-1.4,1.4v3.2h-0.8V725.9z"/>
			<path class="st3" d="M194.8,729.7c0-1.2,1.3-1.6,2.6-1.6h0.7v-0.4c0-0.8-0.3-1.2-1.1-1.2c-0.7,0-1.1,0.3-1.2,0.9h-0.8
				c0.1-1.2,1.1-1.6,2.1-1.6c1,0,1.9,0.4,1.9,1.9v3.4h-0.8v-0.7c-0.4,0.5-0.9,0.7-1.6,0.7C195.6,731.2,194.8,730.7,194.8,729.7z
				 M198.2,729.3v-0.6h-0.7c-1,0-1.8,0.3-1.8,1c0,0.5,0.3,0.9,1,0.9C197.5,730.5,198.2,730.1,198.2,729.3z"/>
			<path class="st3" d="M202.9,729.7c0-1.2,1.3-1.6,2.6-1.6h0.7v-0.4c0-0.8-0.3-1.2-1.1-1.2c-0.7,0-1.1,0.3-1.2,0.9h-0.8
				c0.1-1.2,1.1-1.6,2.1-1.6c1,0,1.9,0.4,1.9,1.9v3.4h-0.8v-0.7c-0.4,0.5-0.9,0.7-1.6,0.7C203.7,731.2,202.9,730.7,202.9,729.7z
				 M206.3,729.3v-0.6h-0.7c-1,0-1.8,0.3-1.8,1c0,0.5,0.3,0.9,1,0.9C205.6,730.5,206.3,730.1,206.3,729.3z"/>
			<path class="st3" d="M208.7,725.9h0.8v0.9c0.3-0.6,0.8-1,1.7-1v0.8c-1,0-1.7,0.4-1.7,1.7v2.9h-0.8V725.9z"/>
			<path class="st3" d="M216.2,730.2c-0.3,0.5-1,1-1.8,1c-1.4,0-2.4-1-2.4-2.6v-0.1c0-1.6,1-2.7,2.4-2.7c0.9,0,1.4,0.4,1.7,0.9v-0.8
				h0.8v7h-0.8V730.2z M216.3,728.5L216.3,728.5c0-1.4-0.6-2-1.7-2c-1,0-1.7,0.7-1.7,2v0.1c0,1.3,0.7,1.9,1.6,1.9
				C215.5,730.5,216.3,729.9,216.3,728.5z"/>
			<path class="st3" d="M218.7,729.2v-3.3h0.8v3.3c0,0.9,0.4,1.3,1.2,1.3c0.7,0,1.4-0.5,1.4-1.4v-3.2h0.8v5.2h-0.8v-0.8
				c-0.2,0.5-0.8,0.9-1.7,0.9C219.5,731.2,218.7,730.6,218.7,729.2z"/>
			<path class="st3" d="M224.6,724.2c0-0.3,0.2-0.5,0.5-0.5s0.5,0.2,0.5,0.5s-0.2,0.5-0.5,0.5S224.6,724.5,224.6,724.2z
				 M224.7,725.9h0.8v5.2h-0.8V725.9z"/>
			<path class="st3" d="M226.8,729.7c0-1.2,1.3-1.6,2.6-1.6h0.7v-0.4c0-0.8-0.3-1.2-1.1-1.2c-0.7,0-1.1,0.3-1.2,0.9H227
				c0.1-1.2,1.1-1.6,2.1-1.6c1,0,1.9,0.4,1.9,1.9v3.4h-0.8v-0.7c-0.4,0.5-0.9,0.7-1.6,0.7C227.6,731.2,226.8,730.7,226.8,729.7z
				 M230.2,729.3v-0.6h-0.7c-1,0-1.8,0.3-1.8,1c0,0.5,0.3,0.9,1,0.9C229.5,730.5,230.2,730.1,230.2,729.3z"/>
			<path class="st3" d="M237.4,723.3h0.8l-2.9,9.2h-0.8L237.4,723.3z"/>
			<path class="st3" d="M242.8,730.2v0.9H242v-7.7h0.8v3.4c0.3-0.5,1-1,1.8-1c1.4,0,2.4,1,2.4,2.6v0.1c0,1.6-0.9,2.7-2.4,2.7
				C243.7,731.2,243.1,730.8,242.8,730.2z M246.1,728.5L246.1,728.5c0-1.4-0.7-2.1-1.6-2.1c-1,0-1.7,0.6-1.7,2v0.1
				c0,1.3,0.7,2,1.7,2C245.5,730.5,246.1,729.8,246.1,728.5z"/>
			<path class="st3" d="M247.9,728.5L247.9,728.5c0-1.7,1-2.8,2.4-2.8c1.2,0,2.3,0.7,2.3,2.6v0.3h-3.9c0,1.2,0.6,1.8,1.7,1.8
				c0.8,0,1.3-0.3,1.4-0.9h0.8c-0.2,1-1,1.6-2.2,1.6C248.9,731.2,247.9,730.2,247.9,728.5z M251.8,728c-0.1-1.1-0.6-1.5-1.5-1.5
				c-0.8,0-1.4,0.6-1.6,1.5H251.8z"/>
			<path class="st3" d="M253.5,728.5L253.5,728.5c0-1.7,1.1-2.8,2.5-2.8c1.1,0,2.1,0.5,2.3,1.8h-0.8c-0.1-0.8-0.7-1.1-1.4-1.1
				c-0.9,0-1.7,0.8-1.7,2v0.1c0,1.3,0.7,2,1.7,2c0.7,0,1.4-0.4,1.5-1.3h0.8c-0.1,1.1-1,2-2.3,2C254.6,731.2,253.5,730.2,253.5,728.5
				z"/>
			<path class="st3" d="M259.2,729.7c0-1.2,1.3-1.6,2.6-1.6h0.7v-0.4c0-0.8-0.3-1.2-1.1-1.2c-0.7,0-1.1,0.3-1.2,0.9h-0.8
				c0.1-1.2,1.1-1.6,2.1-1.6c1,0,1.9,0.4,1.9,1.9v3.4h-0.8v-0.7c-0.4,0.5-0.9,0.7-1.6,0.7C260,731.2,259.2,730.7,259.2,729.7z
				 M262.6,729.3v-0.6h-0.7c-1,0-1.8,0.3-1.8,1c0,0.5,0.3,0.9,1,0.9C261.9,730.5,262.6,730.1,262.6,729.3z"/>
			<path class="st3" d="M264.6,729.5h0.8c0.1,0.6,0.4,1,1.2,1c0.8,0,1.1-0.3,1.1-0.8c0-0.5-0.4-0.7-1.2-0.9
				c-1.4-0.2-1.8-0.6-1.8-1.5c0-1,0.9-1.5,1.8-1.5c0.9,0,1.7,0.4,1.9,1.5h-0.8c-0.1-0.6-0.4-0.8-1.1-0.8c-0.6,0-1,0.3-1,0.7
				c0,0.5,0.3,0.7,1.2,0.8c1.1,0.2,1.8,0.4,1.8,1.5c0,0.9-0.6,1.6-1.9,1.6C265.4,731.2,264.6,730.6,264.6,729.5z"/>
		</g>
		<g>
			<polygon class="st3" points="207,827.5 138.6,759.1 275.4,759.1 			"/>
			<path class="st2" d="M185.1,776.8h5.4v1.3h-3.8v2.4h3v1.2h-3v2.5h4v1.3h-5.6V776.8z"/>
			<path class="st2" d="M191.8,776.8h1.9l3.6,6.2v-6.2h1.5v8.6h-1.7l-3.9-6.6v6.6h-1.5V776.8z"/>
			<path class="st2" d="M202.2,778h-2.4v-1.3h6.4v1.3h-2.4v7.3h-1.6V778z"/>
			<path class="st2" d="M207.3,776.8h2.9c1.9,0,3.2,0.8,3.2,2.5v0c0,1.3-0.8,2-1.9,2.3l2.4,3.7h-1.7l-2.2-3.5h-1v3.5h-1.6V776.8z
				 M210.1,780.7c1.1,0,1.6-0.5,1.6-1.4v0c0-1-0.6-1.3-1.6-1.3h-1.3v2.7H210.1z"/>
			<path class="st2" d="M217.1,776.8h2.1l2.8,8.6h-1.7l-0.7-2.1h-3.3l-0.7,2.1h-1.5L217.1,776.8z M216.7,782h2.5l-1.3-4L216.7,782z"
				/>
			<path class="st2" d="M223,776.8h2.9c1.9,0,3.2,0.8,3.2,2.5v0c0,1.3-0.8,2-1.9,2.3l2.4,3.7h-1.7l-2.2-3.5h-1v3.5H223V776.8z
				 M225.9,780.7c1.1,0,1.6-0.5,1.6-1.4v0c0-1-0.6-1.3-1.6-1.3h-1.3v2.7H225.9z"/>
		</g>
	</g>
	<g>
		<g>
			<pattern  id="SVGID_3_" xlink:href="#SVGID_1_" patternTransform="matrix(1 0 0 -1 -218.59 -17858.8672)">
			</pattern>
			<polygon class="st4" points="251,267.2 213.7,304.5 200.3,304.5 163,267.2 163,253.8 200.3,216.5 213.7,216.5 251,253.8 			"/>
			<pattern  id="SVGID_4_" xlink:href="#SVGID_2_" patternTransform="matrix(1 0 0 -1 -218.59 -17858.8672)">
			</pattern>
			<polygon class="st5" points="251.2,528.2 213.9,565.5 200.5,565.5 163.2,528.2 163.2,514.8 200.5,477.5 213.9,477.5 251.2,514.8 
							"/>
		</g>
	</g>
	<g id="HIGHLIGHT_1_">
		<polygon class="st6" points="251.2,397.6 213.7,435.1 200.3,435.1 162.8,397.6 162.8,384.1 200.3,346.6 213.7,346.6 251.2,384.1 
					"/>
		<g>
			<polygon class="st6" points="120.6,397.6 83.1,435.1 69.6,435.1 32.1,397.6 32.1,384.1 69.6,346.6 83.1,346.6 120.6,384.1 			"/>
			<polygon class="st6" points="381.9,397.6 344.4,435.1 330.9,435.1 293.4,397.6 293.4,384.1 330.9,346.6 344.4,346.6 381.9,384.1 
							"/>
		</g>
		<g>
			<polygon class="st6" points="213.7,477.3 251.2,514.8 251.2,528.2 213.7,565.7 200.3,565.7 162.8,528.2 162.8,514.8 200.3,477.3 
							"/>
			<polygon class="st6" points="213.7,216 251.2,253.5 251.2,267 213.7,304.5 200.3,304.5 162.8,267 162.8,253.5 200.3,216 			"/>
		</g>
		<g>
			<polygon class="st6" points="185.9,332.3 148.4,369.8 134.9,369.8 97.4,332.3 97.4,318.8 134.9,281.3 148.4,281.3 185.9,318.8 
							"/>
			<polygon class="st6" points="185.9,462.9 148.4,500.4 134.9,500.4 97.4,462.9 97.4,449.5 134.9,412 148.4,412 185.9,449.5 			"/>
			<polygon class="st6" points="316.5,332.3 279.1,369.8 265.6,369.8 228.1,332.3 228.1,318.8 265.6,281.3 279.1,281.3 316.5,318.8 
							"/>
			<polygon class="st6" points="316.5,462.9 279.1,500.4 265.6,500.4 228.1,462.9 228.1,449.5 265.6,412 279.1,412 316.5,449.5 			
				"/>
		</g>
	</g>
	<g>
		<path class="st3" d="M52.6,120h1.7l2.4,7.1h-1.4l-0.6-1.8H52l-0.6,1.8h-1.2L52.6,120z M52.3,124.4h2.1l-1-3.3L52.3,124.4z"/>
		<path class="st3" d="M57.1,124.6L57.1,124.6c0-1.7,1.2-2.8,2.6-2.8c1.2,0,2.2,0.5,2.4,2H61c-0.1-0.7-0.6-1-1.2-1
			c-0.8,0-1.4,0.6-1.4,1.7v0.1c0,1.1,0.6,1.7,1.4,1.7c0.6,0,1.2-0.4,1.3-1.1h1.1c-0.1,1.2-1,2-2.4,2
			C58.3,127.3,57.1,126.3,57.1,124.6z"/>
		<path class="st3" d="M62.9,124.6L62.9,124.6c0-1.7,1.1-2.8,2.6-2.8c1.3,0,2.5,0.8,2.5,2.6v0.4h-3.8c0,1,0.5,1.5,1.4,1.5
			c0.7,0,1.1-0.3,1.2-0.8H68c-0.2,1.1-1.1,1.7-2.4,1.7C64,127.3,62.9,126.3,62.9,124.6z M66.8,124c-0.1-0.9-0.5-1.3-1.3-1.3
			c-0.7,0-1.2,0.5-1.3,1.3H66.8z"/>
		<path class="st3" d="M69,122h1.2v1c0.3-0.7,0.8-1,1.7-1.1v1.1c-1.1,0-1.7,0.3-1.7,1.5v2.7H69V122z"/>
		<path class="st3" d="M72.6,124.6L72.6,124.6c0-1.7,1.2-2.8,2.6-2.8c1.2,0,2.2,0.5,2.4,2h-1.2c-0.1-0.7-0.6-1-1.2-1
			c-0.8,0-1.4,0.6-1.4,1.7v0.1c0,1.1,0.6,1.7,1.4,1.7c0.6,0,1.2-0.4,1.3-1.1h1.1c-0.1,1.2-1,2-2.4,2
			C73.7,127.3,72.6,126.3,72.6,124.6z"/>
		<path class="st3" d="M78.3,125.7c0-1.2,1.2-1.7,2.7-1.7h0.6v-0.3c0-0.7-0.2-1-0.9-1c-0.6,0-0.9,0.3-1,0.8h-1.2
			c0.1-1.2,1.1-1.7,2.2-1.7s2.1,0.5,2.1,1.9v3.4h-1.2v-0.6c-0.3,0.4-0.8,0.7-1.6,0.7C79.1,127.3,78.3,126.8,78.3,125.7z M81.6,125.4
			v-0.5H81c-0.9,0-1.5,0.2-1.5,0.8c0,0.4,0.2,0.7,0.8,0.7C81.1,126.4,81.6,126,81.6,125.4z"/>
		<path class="st3" d="M86.3,124.7L86.3,124.7c0-1.7,1-2.8,2.3-2.8c0.8,0,1.4,0.4,1.7,0.9v-3.2h1.2v7.6h-1.2v-0.9
			c-0.3,0.5-0.9,1-1.7,1C87.2,127.3,86.3,126.4,86.3,124.7z M90.3,124.6L90.3,124.6c0-1.2-0.5-1.8-1.4-1.8s-1.4,0.6-1.4,1.7v0.1
			c0,1.1,0.6,1.7,1.4,1.7C89.7,126.3,90.3,125.8,90.3,124.6z"/>
		<path class="st3" d="M92.6,124.6L92.6,124.6c0-1.7,1.1-2.8,2.6-2.8c1.3,0,2.5,0.8,2.5,2.6v0.4h-3.8c0,1,0.5,1.5,1.4,1.5
			c0.7,0,1.1-0.3,1.2-0.8h1.2c-0.2,1.1-1.1,1.7-2.4,1.7C93.7,127.3,92.6,126.3,92.6,124.6z M96.4,124c-0.1-0.9-0.5-1.3-1.3-1.3
			c-0.7,0-1.2,0.5-1.3,1.3H96.4z"/>
		<path class="st3" d="M98.8,119.5h1.2v7.6h-1.2V119.5z"/>
		<path class="st3" d="M58,132h4.4v1.1h-3.1v2.1h2.4v1h-2.4v2.9H58V132z"/>
		<path class="st3" d="M62.9,136.6L62.9,136.6c0-1.7,1.1-2.8,2.6-2.8c1.3,0,2.5,0.8,2.5,2.6v0.4h-3.8c0,1,0.5,1.5,1.4,1.5
			c0.7,0,1.1-0.3,1.2-0.8H68c-0.2,1.1-1.1,1.7-2.4,1.7C64,139.3,62.9,138.3,62.9,136.6z M66.8,136c-0.1-0.9-0.5-1.3-1.3-1.3
			c-0.7,0-1.2,0.5-1.3,1.3H66.8z"/>
		<path class="st3" d="M68.7,137.6h1.1c0.1,0.5,0.3,0.8,1,0.8c0.6,0,0.9-0.2,0.9-0.7c0-0.4-0.3-0.6-1.1-0.7
			c-1.4-0.2-1.9-0.6-1.9-1.6s1-1.6,2-1.6c1.1,0,1.9,0.4,2,1.6h-1.1c-0.1-0.5-0.4-0.7-0.9-0.7s-0.8,0.2-0.8,0.6
			c0,0.4,0.2,0.5,1.1,0.7c1.2,0.2,2,0.5,2,1.6s-0.8,1.7-2.1,1.7C69.5,139.3,68.7,138.7,68.7,137.6z"/>
		<path class="st3" d="M74.2,137.7v-2.9h-0.7V134h0.7v-1.1h1.2v1.1h1.1v0.9h-1.1v2.7c0,0.5,0.2,0.7,0.6,0.7c0.2,0,0.4,0,0.6-0.1v1
			c-0.2,0.1-0.4,0.1-0.8,0.1C74.8,139.3,74.2,138.7,74.2,137.7z"/>
		<path class="st3" d="M77.6,132.4c0-0.4,0.3-0.7,0.7-0.7s0.7,0.3,0.7,0.7s-0.3,0.7-0.7,0.7S77.6,132.8,77.6,132.4z M77.7,134H79
			v5.2h-1.2V134H77.7z"/>
		<path class="st3" d="M79.9,134h1.3l1.4,4l1.3-4h1.2l-1.9,5.2h-1.4L79.9,134z"/>
		<path class="st3" d="M85.5,137.7c0-1.2,1.2-1.7,2.7-1.7h0.6v-0.3c0-0.7-0.2-1-0.9-1c-0.6,0-0.9,0.3-1,0.8h-1.2
			c0.1-1.2,1.1-1.7,2.2-1.7s2.1,0.5,2.1,1.9v3.4h-1.2v-0.6c-0.3,0.4-0.8,0.7-1.6,0.7C86.3,139.3,85.5,138.8,85.5,137.7z M88.8,137.4
			v-0.5h-0.6c-0.9,0-1.5,0.2-1.5,0.8c0,0.4,0.2,0.7,0.8,0.7C88.3,138.4,88.8,138,88.8,137.4z"/>
		<path class="st3" d="M91.5,131.5h1.2v7.6h-1.2V131.5z"/>
	</g>
	<g>
		<path class="st3" d="M315.5,120.3h4.5v1h-3.1v2h2.5v1h-2.5v2.1h3.3v1h-4.6L315.5,120.3L315.5,120.3z"/>
		<path class="st3" d="M320.9,125L320.9,125c0-1.7,1-2.8,2.3-2.8c0.8,0,1.4,0.4,1.7,0.9v-3.2h1.2v7.6h-1.2v-0.9
			c-0.3,0.5-0.9,1-1.7,1C321.9,127.6,320.9,126.7,320.9,125z M325,124.9L325,124.9c0-1.2-0.5-1.8-1.4-1.8s-1.4,0.6-1.4,1.7v0.1
			c0,1.1,0.6,1.7,1.4,1.7C324.3,126.6,325,126.1,325,124.9z"/>
		<path class="st3" d="M327.5,120.7c0-0.4,0.3-0.7,0.7-0.7s0.7,0.3,0.7,0.7c0,0.4-0.3,0.7-0.7,0.7S327.5,121.1,327.5,120.7z
			 M327.6,122.3h1.2v5.2h-1.2V122.3z"/>
		<path class="st3" d="M329.9,124.9L329.9,124.9c0-1.7,1.2-2.8,2.6-2.8c1.2,0,2.2,0.5,2.4,2h-1.2c-0.1-0.7-0.6-1-1.2-1
			c-0.8,0-1.4,0.6-1.4,1.7v0.1c0,1.1,0.6,1.7,1.4,1.7c0.6,0,1.2-0.4,1.3-1.1h1.1c-0.1,1.2-1,2-2.4,2
			C331.1,127.6,329.9,126.6,329.9,124.9z"/>
		<path class="st3" d="M335.9,120.7c0-0.4,0.3-0.7,0.7-0.7s0.7,0.3,0.7,0.7c0,0.4-0.3,0.7-0.7,0.7S335.9,121.1,335.9,120.7z
			 M336.1,122.3h1.2v5.2h-1.2V122.3z"/>
		<path class="st3" d="M338.4,124.9L338.4,124.9c0-1.7,1.1-2.8,2.7-2.8c1.5,0,2.7,1.1,2.7,2.7v0.1c0,1.6-1.1,2.7-2.7,2.7
			S338.4,126.5,338.4,124.9z M342.5,124.9L342.5,124.9c0-1.1-0.5-1.8-1.4-1.8s-1.4,0.6-1.4,1.7v0.1c0,1.1,0.5,1.7,1.4,1.7
			C342,126.7,342.5,126,342.5,124.9z"/>
		<path class="st3" d="M344.8,122.3h1.2v0.8c0.2-0.5,0.8-0.9,1.7-0.9c1,0,1.8,0.6,1.8,2v3.3h-1.2v-3.2c0-0.8-0.3-1.1-1-1.1
			s-1.2,0.4-1.2,1.2v3.1h-1.2L344.8,122.3L344.8,122.3z"/>
		<path class="st3" d="M350.6,124.9L350.6,124.9c0-1.7,1.1-2.8,2.6-2.8c1.3,0,2.5,0.8,2.5,2.6v0.4h-3.8c0,1,0.5,1.5,1.4,1.5
			c0.7,0,1.1-0.3,1.2-0.8h1.2c-0.2,1.1-1.1,1.7-2.4,1.7C351.7,127.6,350.6,126.6,350.6,124.9z M354.4,124.3
			c-0.1-0.9-0.5-1.3-1.3-1.3c-0.7,0-1.2,0.5-1.3,1.3H354.4z"/>
		<path class="st3" d="M356.4,125.9h1.1c0.1,0.5,0.3,0.8,1,0.8c0.6,0,0.9-0.2,0.9-0.7c0-0.4-0.3-0.6-1.1-0.7
			c-1.4-0.2-1.9-0.6-1.9-1.6s1-1.6,2-1.6c1.1,0,1.9,0.4,2,1.6h-1.1c-0.1-0.5-0.4-0.7-0.9-0.7s-0.8,0.2-0.8,0.6s0.2,0.5,1.1,0.7
			c1.2,0.2,2,0.5,2,1.6s-0.8,1.7-2.1,1.7C357.2,127.6,356.4,127,356.4,125.9z"/>
		<path class="st3" d="M321.2,134.3h1.2v0.8c0.3-0.5,0.9-0.9,1.7-0.9c1.3,0,2.3,1,2.3,2.7v0.1c0,1.7-1,2.7-2.3,2.7
			c-0.8,0-1.4-0.4-1.7-0.9v2.6h-1.2V134.3z M325.2,136.9L325.2,136.9c0-1.2-0.6-1.8-1.4-1.8s-1.4,0.6-1.4,1.7v0.1
			c0,1.2,0.6,1.7,1.4,1.7C324.7,138.6,325.2,138,325.2,136.9z"/>
		<path class="st3" d="M327.5,134.3h1.2v1c0.3-0.7,0.8-1,1.7-1.1v1.1c-1.1,0-1.7,0.3-1.7,1.5v2.7h-1.2V134.3z"/>
		<path class="st3" d="M331.1,136.9L331.1,136.9c0-1.7,1.1-2.8,2.6-2.8c1.3,0,2.5,0.8,2.5,2.6v0.4h-3.8c0,1,0.5,1.5,1.4,1.5
			c0.7,0,1.1-0.3,1.2-0.8h1.2c-0.2,1.1-1.1,1.7-2.4,1.7C332.2,139.6,331.1,138.6,331.1,136.9z M334.9,136.3
			c-0.1-0.9-0.5-1.3-1.3-1.3c-0.7,0-1.2,0.5-1.3,1.3H334.9z"/>
		<path class="st3" d="M336.6,134.3h1.3l1.4,4l1.3-4h1.2l-1.9,5.2h-1.4L336.6,134.3z"/>
		<path class="st3" d="M342.6,132.7c0-0.4,0.3-0.7,0.7-0.7c0.4,0,0.7,0.3,0.7,0.7s-0.3,0.7-0.7,0.7S342.6,133.1,342.6,132.7z
			 M342.7,134.3h1.2v5.2h-1.2V134.3z"/>
		<path class="st3" d="M345,138c0-1.2,1.2-1.7,2.7-1.7h0.6V136c0-0.7-0.2-1-0.9-1c-0.6,0-0.9,0.3-1,0.8h-1.2
			c0.1-1.2,1.1-1.7,2.2-1.7c1.2,0,2.1,0.5,2.1,1.9v3.4h-1.2v-0.6c-0.3,0.4-0.8,0.7-1.6,0.7C345.8,139.6,345,139.1,345,138z
			 M348.3,137.7v-0.5h-0.6c-0.9,0-1.5,0.2-1.5,0.8c0,0.4,0.2,0.7,0.8,0.7C347.8,138.7,348.3,138.3,348.3,137.7z"/>
		<path class="st3" d="M350.5,137.9h1.1c0.1,0.5,0.3,0.8,1,0.8s0.9-0.2,0.9-0.7c0-0.4-0.3-0.6-1.1-0.7c-1.4-0.2-1.9-0.6-1.9-1.6
			s1-1.6,2-1.6c1.1,0,1.9,0.4,2,1.6h-1.1c-0.1-0.5-0.4-0.7-0.9-0.7s-0.8,0.2-0.8,0.6c0,0.4,0.2,0.5,1.1,0.7c1.2,0.2,2,0.5,2,1.6
			s-0.8,1.7-2.1,1.7S350.6,139,350.5,137.9z"/>
	</g>
	<g>
		<path class="st7" d="M196.7,144.1v6.1c7,0,12.8-5.7,12.8-12.8c0-3.9-1.7-7.4-4.5-9.7c2.8-2.3,4.5-5.8,4.5-9.7c0-0.5,0-1-0.1-1.5
			h-6.2c0.1,0.5,0.2,1,0.2,1.5c0,3.7-3,6.6-6.6,6.6v6.2c3.7,0,6.6,3,6.6,6.6C203.3,141.1,200.3,144.1,196.7,144.1L196.7,144.1z"/>
		<path class="st8" d="M217.2,128.5c0,2.4,1.2,4.5,3.1,5.7l3.6-3.6l3.6,3.6c1.9-1.2,3.1-3.3,3.1-5.6c0-3.7-3-6.7-6.7-6.7
			C220.2,121.8,217.2,124.8,217.2,128.5z M231.2,146.5l-5.3-5.3c-0.6,0.1-1.3,0.2-2,0.2c-7.1,0-12.9-5.8-12.9-12.9
			c0-7.1,5.8-12.9,12.9-12.9c7.1,0,12.9,5.8,12.9,12.9c0,4.1-1.9,7.7-4.8,10.1l3.6,3.6L231.2,146.5z"/>
		<polygon class="st9" points="177.2,116.5 177.2,140.5 183.2,140.5 183.2,130.9 193.4,130.9 193.4,126.2 183.2,126.2 183.2,121.2 
			193.4,121.2 193.4,116.5 		"/>
	</g>
	<g>
		
			<ellipse transform="matrix(3.327795e-02 -0.9994 0.9994 3.327795e-02 -706.1036 830.3943)" class="st7" cx="76.2" cy="780.2" rx="18.7" ry="18.7"/>
		<g>
			<path class="st3" d="M37.9,771.5h1.9c1.2,0,2.3,0.5,2.3,1.8l0,0c0,1.1-0.7,1.6-1.6,1.8l2,2.9h-0.9l-1.9-2.8h-1v2.8h-0.8V771.5z
				 M39.9,774.6c0.9,0,1.4-0.4,1.4-1.2l0,0c0-0.9-0.5-1.2-1.4-1.2h-1.2v2.4H39.9z"/>
			<path class="st3" d="M43,775.7L43,775.7c0-1.5,0.9-2.5,2.2-2.5c1.1,0,2.1,0.7,2.1,2.3v0.2h-3.5c0,1.1,0.5,1.7,1.5,1.7
				c0.7,0,1.2-0.3,1.3-0.8h0.7c-0.2,0.9-0.9,1.4-2,1.4C44,778.1,43,777.1,43,775.7z M46.6,775.2c-0.1-1-0.6-1.4-1.4-1.4
				c-0.8,0-1.3,0.5-1.4,1.4H46.6z"/>
			<path class="st3" d="M48.1,775.7L48.1,775.7c0-1.5,1-2.5,2.3-2.5c1,0,1.9,0.5,2,1.6h-0.7c-0.1-0.7-0.7-1-1.3-1
				c-0.9,0-1.5,0.7-1.5,1.8v0.1c0,1.2,0.6,1.8,1.5,1.8c0.7,0,1.3-0.4,1.4-1.2h0.7c-0.1,1-0.9,1.8-2.1,1.8
				C49.1,778.1,48.1,777.1,48.1,775.7z"/>
			<path class="st3" d="M53.3,775.7L53.3,775.7c0-1.5,1-2.5,2.3-2.5s2.3,1,2.3,2.4v0.1c0,1.4-1,2.4-2.3,2.4S53.3,777,53.3,775.7z
				 M57.1,775.7L57.1,775.7c0-1.2-0.6-1.9-1.5-1.9s-1.5,0.7-1.5,1.8v0.1c0,1.1,0.6,1.8,1.5,1.8C56.5,777.4,57.1,776.7,57.1,775.7z"
				/>
			<path class="st3" d="M59.1,773.3h0.7v0.7c0.2-0.4,0.7-0.8,1.4-0.8c0.6,0,1.1,0.3,1.4,0.9c0.3-0.6,1-0.9,1.6-0.9
				c0.8,0,1.6,0.5,1.6,1.9v2.9H65v-3c0-0.8-0.4-1.2-1-1.2s-1.2,0.4-1.2,1.3v2.9h-0.7v-3c0-0.8-0.4-1.2-1-1.2s-1.2,0.4-1.2,1.3v2.9
				h-0.7L59.1,773.3L59.1,773.3z"/>
			<path class="st3" d="M66.9,775.7L66.9,775.7c0-1.5,0.9-2.5,2.2-2.5c1.1,0,2.1,0.7,2.1,2.3v0.2h-3.5c0,1.1,0.5,1.7,1.5,1.7
				c0.7,0,1.2-0.3,1.3-0.8h0.7c-0.2,0.9-0.9,1.4-2,1.4C67.9,778.1,66.9,777.1,66.9,775.7z M70.5,775.2c-0.1-1-0.6-1.4-1.4-1.4
				s-1.3,0.5-1.4,1.4H70.5z"/>
			<path class="st3" d="M72.4,773.3h0.7v0.7c0.2-0.4,0.7-0.8,1.5-0.8c1,0,1.7,0.5,1.7,1.9v2.9h-0.7v-3c0-0.8-0.4-1.2-1.1-1.2
				s-1.3,0.4-1.3,1.3v2.9h-0.7L72.4,773.3L72.4,773.3z"/>
			<path class="st3" d="M77.4,775.7L77.4,775.7c0-1.5,0.9-2.5,2.2-2.5c0.8,0,1.3,0.4,1.5,0.8v-3h0.7v7h-0.7v-0.8
				c-0.3,0.5-0.9,0.9-1.6,0.9C78.3,778.1,77.4,777.2,77.4,775.7z M81.2,775.7L81.2,775.7c0-1.3-0.6-1.8-1.5-1.8s-1.5,0.7-1.5,1.8
				v0.1c0,1.2,0.6,1.8,1.4,1.8C80.5,777.4,81.2,776.9,81.2,775.7z"/>
			<path class="st3" d="M83,776.7c0-1.1,1.2-1.5,2.4-1.5H86v-0.3c0-0.7-0.3-1.1-1-1.1c-0.6,0-1,0.3-1.1,0.8h-0.7
				c0.1-1.1,1-1.5,1.9-1.5s1.7,0.4,1.7,1.7v3.1H86v-0.6c-0.4,0.4-0.8,0.7-1.5,0.7C83.7,778.1,83,777.6,83,776.7z M86,776.3v-0.6
				h-0.6c-0.9,0-1.6,0.2-1.6,0.9c0,0.5,0.2,0.8,0.9,0.8C85.4,777.5,86,777.1,86,776.3z"/>
			<path class="st3" d="M87.9,775.7L87.9,775.7c0-1.5,1-2.5,2.3-2.5c1,0,1.9,0.5,2,1.6h-0.7c-0.1-0.7-0.7-1-1.3-1
				c-0.9,0-1.5,0.7-1.5,1.8v0.1c0,1.2,0.6,1.8,1.5,1.8c0.7,0,1.3-0.4,1.4-1.2h0.7c-0.1,1-0.9,1.8-2.1,1.8
				C88.9,778.1,87.9,777.1,87.9,775.7z"/>
			<path class="st3" d="M93.3,771.8c0-0.3,0.2-0.5,0.5-0.5s0.5,0.2,0.5,0.5s-0.2,0.5-0.5,0.5S93.3,772.1,93.3,771.8z M93.4,773.3
				h0.7v4.7h-0.7V773.3z"/>
			<path class="st3" d="M95.3,775.7L95.3,775.7c0-1.5,1-2.5,2.3-2.5s2.3,1,2.3,2.4v0.1c0,1.4-1,2.4-2.3,2.4
				C96.3,778.1,95.3,777,95.3,775.7z M99.2,775.7L99.2,775.7c0-1.2-0.6-1.9-1.5-1.9s-1.5,0.7-1.5,1.8v0.1c0,1.1,0.6,1.8,1.5,1.8
				C98.6,777.4,99.2,776.7,99.2,775.7z"/>
			<path class="st3" d="M101.1,773.3h0.7v0.7c0.2-0.4,0.7-0.8,1.5-0.8c1,0,1.7,0.5,1.7,1.9v2.9h-0.7v-3c0-0.8-0.4-1.2-1.1-1.2
				s-1.3,0.4-1.3,1.3v2.9h-0.7L101.1,773.3L101.1,773.3z"/>
			<path class="st3" d="M106.1,775.7L106.1,775.7c0-1.5,0.9-2.5,2.2-2.5c1.1,0,2.1,0.7,2.1,2.3v0.2h-3.5c0,1.1,0.5,1.7,1.5,1.7
				c0.7,0,1.2-0.3,1.3-0.8h0.7c-0.2,0.9-0.9,1.4-2,1.4C107.1,778.1,106.1,777.1,106.1,775.7z M109.7,775.2c-0.1-1-0.6-1.4-1.4-1.4
				s-1.3,0.5-1.4,1.4H109.7z"/>
			<path class="st3" d="M111.3,776.5h0.7c0.1,0.6,0.4,0.9,1.1,0.9s1-0.2,1-0.7s-0.4-0.7-1.1-0.8c-1.2-0.2-1.6-0.6-1.6-1.4
				c0-0.9,0.9-1.3,1.6-1.3c0.8,0,1.6,0.3,1.7,1.4H114c-0.1-0.5-0.4-0.7-1-0.7c-0.5,0-0.9,0.3-0.9,0.7s0.2,0.6,1.1,0.7
				c1,0.2,1.7,0.4,1.7,1.4c0,0.9-0.6,1.4-1.7,1.4C112,778.1,111.3,777.5,111.3,776.5z"/>
			<path class="st3" d="M41.9,786.5L41.9,786.5c0-1.5,0.9-2.5,2.2-2.5c0.8,0,1.3,0.4,1.5,0.8v-3h0.7v7h-0.7V788
				c-0.3,0.5-0.9,0.9-1.6,0.9C42.8,788.9,41.9,788,41.9,786.5z M45.6,786.5L45.6,786.5c0-1.3-0.6-1.8-1.5-1.8s-1.5,0.7-1.5,1.8v0.1
				c0,1.2,0.6,1.8,1.4,1.8C45,788.2,45.6,787.7,45.6,786.5z"/>
			<path class="st3" d="M47.5,786.5L47.5,786.5c0-1.5,0.9-2.5,2.2-2.5c1.1,0,2.1,0.7,2.1,2.3v0.2h-3.5c0,1.1,0.5,1.7,1.5,1.7
				c0.7,0,1.2-0.3,1.3-0.8h0.7c-0.2,0.9-0.9,1.4-2,1.4C48.5,788.9,47.5,787.9,47.5,786.5z M51.1,786c-0.1-1-0.6-1.4-1.4-1.4
				c-0.8,0-1.3,0.5-1.4,1.4H51.1z"/>
			<path class="st3" d="M55.3,787.1v-3H56v2.9c0,0.8,0.4,1.2,1.1,1.2c0.7,0,1.3-0.4,1.3-1.3V784h0.7v4.7h-0.7V788
				c-0.2,0.4-0.7,0.8-1.5,0.8C56,788.9,55.3,788.4,55.3,787.1z"/>
			<path class="st3" d="M60.3,787.3H61c0.1,0.6,0.4,0.9,1.1,0.9c0.7,0,1-0.2,1-0.7s-0.4-0.7-1.1-0.8c-1.2-0.2-1.6-0.6-1.6-1.4
				c0-0.9,0.9-1.3,1.6-1.3c0.8,0,1.6,0.3,1.7,1.4H63c-0.1-0.5-0.4-0.7-1-0.7c-0.5,0-0.9,0.3-0.9,0.7s0.2,0.6,1.1,0.7
				c1,0.2,1.7,0.4,1.7,1.4c0,0.9-0.6,1.4-1.7,1.4C61,788.9,60.4,788.3,60.3,787.3z"/>
			<path class="st3" d="M64.7,786.5L64.7,786.5c0-1.5,1-2.5,2.3-2.5s2.3,1,2.3,2.4v0.1c0,1.4-1,2.4-2.3,2.4S64.7,787.8,64.7,786.5z
				 M68.5,786.5L68.5,786.5c0-1.2-0.6-1.9-1.5-1.9s-1.5,0.7-1.5,1.8v0.1c0,1.1,0.6,1.8,1.5,1.8C67.9,788.2,68.5,787.5,68.5,786.5z"
				/>
			<path class="st3" d="M72.5,786.5L72.5,786.5c0-1.5,0.9-2.5,2.2-2.5c1.1,0,2.1,0.7,2.1,2.3v0.2h-3.5c0,1.1,0.5,1.7,1.5,1.7
				c0.7,0,1.2-0.3,1.3-0.8h0.7c-0.2,0.9-0.9,1.4-2,1.4C73.4,788.9,72.5,787.9,72.5,786.5z M76.1,786c-0.1-1-0.6-1.4-1.4-1.4
				s-1.3,0.5-1.4,1.4H76.1z"/>
			<path class="st3" d="M78,784.1h0.7v0.7c0.2-0.4,0.7-0.8,1.5-0.8c1,0,1.7,0.5,1.7,1.9v2.9h-0.7v-2.9c0-0.8-0.4-1.2-1.1-1.2
				s-1.3,0.4-1.3,1.3v2.9H78V784.1z"/>
			<path class="st3" d="M85.7,781.8h0.8v7h-0.8V781.8z"/>
			<path class="st3" d="M87.6,787.5c0-1.1,1.2-1.5,2.4-1.5h0.7v-0.3c0-0.7-0.3-1.1-1-1.1c-0.6,0-1,0.3-1.1,0.8h-0.7
				c0.1-1.1,1-1.5,1.9-1.5s1.7,0.4,1.7,1.7v3.1h-0.7v-0.6c-0.4,0.4-0.8,0.7-1.5,0.7C88.3,788.9,87.6,788.4,87.6,787.5z M90.7,787.1
				v-0.6H90c-0.9,0-1.6,0.2-1.6,0.9c0,0.5,0.2,0.8,0.9,0.8C90.1,788.3,90.7,787.9,90.7,787.1z"/>
			<path class="st3" d="M94.9,787.3h0.7c0.1,0.6,0.4,0.9,1.1,0.9s1-0.2,1-0.7s-0.4-0.7-1.1-0.8c-1.2-0.2-1.6-0.6-1.6-1.4
				c0-0.9,0.9-1.3,1.6-1.3c0.8,0,1.6,0.3,1.7,1.4h-0.7c-0.1-0.5-0.4-0.7-1-0.7c-0.5,0-0.9,0.3-0.9,0.7s0.2,0.6,1.1,0.7
				c1,0.2,1.7,0.4,1.7,1.4c0,0.9-0.6,1.4-1.7,1.4C95.6,788.9,94.9,788.3,94.9,787.3z"/>
			<path class="st3" d="M99.2,787.5c0-1.1,1.2-1.5,2.4-1.5h0.7v-0.3c0-0.7-0.3-1.1-1-1.1c-0.6,0-1,0.3-1.1,0.8h-0.7
				c0.1-1.1,1-1.5,1.9-1.5s1.7,0.4,1.7,1.7v3.1h-0.7v-0.6c-0.4,0.4-0.8,0.7-1.5,0.7C99.9,788.9,99.2,788.4,99.2,787.5z M102.2,787.1
				v-0.6h-0.6c-0.9,0-1.6,0.2-1.6,0.9c0,0.5,0.2,0.8,0.9,0.8C101.6,788.3,102.2,787.9,102.2,787.1z"/>
			<path class="st3" d="M104.5,781.8h0.8v7h-0.8V781.8z"/>
			<path class="st3" d="M106.4,787.5c0-1.1,1.2-1.5,2.4-1.5h0.7v-0.3c0-0.7-0.3-1.1-1-1.1c-0.6,0-1,0.3-1.1,0.8h-0.7
				c0.1-1.1,1-1.5,1.9-1.5s1.7,0.4,1.7,1.7v3.1h-0.7v-0.6c-0.4,0.4-0.8,0.7-1.5,0.7C107.1,788.9,106.4,788.4,106.4,787.5z
				 M109.4,787.1v-0.6h-0.6c-0.9,0-1.6,0.2-1.6,0.9c0,0.5,0.2,0.8,0.9,0.8C108.8,788.3,109.4,787.9,109.4,787.1z"/>
		</g>
		<circle class="st7" cx="337.8" cy="780.2" r="18.7"/>
		<g>
			<path class="st3" d="M319.1,771.6h1.8c1.2,0,2.3,0.5,2.3,1.9l0,0c0,1.4-1,1.9-2.3,1.9h-1v2.6h-0.8V771.6z M321,774.8
				c0.9,0,1.4-0.5,1.4-1.3l0,0c0-0.9-0.5-1.3-1.4-1.3h-1.1v2.6H321z"/>
			<path class="st3" d="M323.8,775.7L323.8,775.7c0-1.5,0.9-2.5,2.2-2.5c1.1,0,2.1,0.7,2.1,2.3v0.2h-3.5c0,1.1,0.5,1.7,1.5,1.7
				c0.7,0,1.2-0.3,1.3-0.8h0.7c-0.2,0.9-0.9,1.4-2,1.4C324.8,778.1,323.8,777.2,323.8,775.7z M327.4,775.2c-0.1-1-0.6-1.4-1.4-1.4
				s-1.3,0.5-1.4,1.4H327.4z"/>
			<path class="st3" d="M329,778.3h0.8c0.1,0.5,0.6,0.8,1.4,0.8c0.9,0,1.5-0.4,1.5-1.4V777c-0.3,0.5-0.9,0.9-1.6,0.9
				c-1.2,0-2.1-0.9-2.1-2.2v-0.1c0-1.3,0.9-2.3,2.2-2.3c0.8,0,1.3,0.4,1.5,0.8v-0.8h0.7v4.4c0,1.4-0.9,2-2.3,2
				C329.8,779.8,329.2,779.1,329,778.3z M332.7,775.6L332.7,775.6c0-1.1-0.6-1.7-1.5-1.7s-1.5,0.7-1.5,1.7v0.1c0,1,0.7,1.6,1.4,1.6
				C332,777.3,332.7,776.7,332.7,775.6z"/>
			<path class="st3" d="M334.9,776.3v-3h0.7v2.9c0,0.8,0.4,1.2,1.1,1.2s1.3-0.4,1.3-1.3v-2.9h0.7v4.7H338v-0.7
				c-0.2,0.4-0.7,0.8-1.5,0.8C335.6,778.1,334.9,777.6,334.9,776.3z"/>
			<path class="st3" d="M340.3,773.3h0.7v0.7c0.2-0.4,0.7-0.8,1.5-0.8c1,0,1.7,0.5,1.7,1.9v2.9h-0.7v-2.9c0-0.8-0.4-1.2-1.1-1.2
				s-1.3,0.4-1.3,1.3v2.9h-0.7v-4.8H340.3z"/>
			<path class="st3" d="M345.8,776.9V774h-0.7v-0.6h0.7v-1.1h0.7v1.1h1.1v0.6h-1.1v2.8c0,0.5,0.2,0.7,0.6,0.7c0.2,0,0.4,0,0.6-0.1
				v0.6c-0.2,0.1-0.3,0.1-0.6,0.1C346.2,778.1,345.8,777.6,345.8,776.9z"/>
			<path class="st3" d="M348.5,776.7c0-1.1,1.2-1.5,2.4-1.5h0.7v-0.3c0-0.7-0.3-1.1-1-1.1c-0.6,0-1,0.3-1.1,0.8h-0.7
				c0.1-1.1,1-1.5,1.9-1.5s1.7,0.4,1.7,1.7v3.1h-0.7v-0.6c-0.4,0.4-0.8,0.7-1.5,0.7C349.2,778.1,348.5,777.7,348.5,776.7z
				 M351.6,776.4v-0.6H351c-0.9,0-1.6,0.2-1.6,0.9c0,0.5,0.2,0.8,0.9,0.8C351,777.5,351.6,777.1,351.6,776.4z"/>
			<path class="st3" d="M353.4,776.6h0.7c0.1,0.6,0.4,0.9,1.1,0.9s1-0.2,1-0.7s-0.4-0.7-1.1-0.8c-1.2-0.2-1.6-0.6-1.6-1.4
				c0-0.9,0.9-1.3,1.6-1.3c0.8,0,1.6,0.3,1.7,1.4h-0.7c-0.1-0.5-0.4-0.7-1-0.7c-0.5,0-0.9,0.3-0.9,0.7s0.2,0.6,1.1,0.7
				c1,0.2,1.7,0.4,1.7,1.4c0,0.9-0.6,1.4-1.7,1.4C354.1,778.1,353.4,777.6,353.4,776.6z"/>
			<path class="st3" d="M316.2,784.8h-0.7v-0.6h0.7v-0.8c0-1,0.5-1.5,1.4-1.5c0.2,0,0.4,0,0.6,0.1v0.6c-0.1-0.1-0.3-0.1-0.5-0.1
				c-0.5,0-0.7,0.3-0.7,0.8v0.8h1.2v0.6H317v4.1h-0.7L316.2,784.8L316.2,784.8z"/>
			<path class="st3" d="M319.1,784.1h0.7v0.8c0.3-0.5,0.7-0.9,1.5-0.9v0.7c-0.9,0-1.5,0.3-1.5,1.5v2.6h-0.7V784.1z"/>
			<path class="st3" d="M322,786.5L322,786.5c0-1.5,0.9-2.5,2.2-2.5c1.1,0,2.1,0.7,2.1,2.3v0.2h-3.5c0,1.1,0.5,1.7,1.5,1.7
				c0.7,0,1.2-0.3,1.3-0.8h0.7c-0.2,0.9-0.9,1.4-2,1.4C323,788.9,322,788,322,786.5z M325.6,786c-0.1-1-0.6-1.4-1.3-1.4
				c-0.8,0-1.3,0.5-1.4,1.4H325.6z"/>
			<path class="st3" d="M327.2,786.5L327.2,786.5c0-1.5,1-2.5,2.3-2.5c1,0,1.9,0.5,2,1.6h-0.7c-0.1-0.7-0.7-1-1.3-1
				c-0.9,0-1.5,0.7-1.5,1.8v0.1c0,1.2,0.6,1.8,1.5,1.8c0.7,0,1.3-0.4,1.4-1.2h0.7c-0.1,1-0.9,1.8-2.1,1.8
				C328.1,788.9,327.2,788,327.2,786.5z"/>
			<path class="st3" d="M332.6,787.1v-3h0.7v2.9c0,0.8,0.4,1.2,1.1,1.2s1.3-0.4,1.3-1.3V784h0.7v4.7h-0.7V788
				c-0.2,0.4-0.7,0.8-1.5,0.8C333.3,788.9,332.6,788.4,332.6,787.1z"/>
			<path class="st3" d="M337.6,786.5L337.6,786.5c0-1.5,0.9-2.5,2.2-2.5c1.1,0,2.1,0.7,2.1,2.3v0.2h-3.5c0,1.1,0.5,1.7,1.5,1.7
				c0.7,0,1.2-0.3,1.3-0.8h0.7c-0.2,0.9-0.9,1.4-2,1.4C338.6,788.9,337.6,788,337.6,786.5z M341.2,786c-0.1-1-0.6-1.4-1.3-1.4
				c-0.8,0-1.3,0.5-1.4,1.4H341.2z"/>
			<path class="st3" d="M343.1,784.1h0.7v0.7c0.2-0.4,0.7-0.8,1.5-0.8c1,0,1.7,0.5,1.7,1.9v2.9h-0.7v-2.9c0-0.8-0.4-1.2-1.1-1.2
				s-1.3,0.4-1.3,1.3v2.9h-0.7v-4.8H343.1z"/>
			<path class="st3" d="M348.6,787.7v-2.9H348v-0.6h0.7v-1.1h0.7v1.1h1.1v0.6h-1.1v2.8c0,0.5,0.2,0.7,0.6,0.7c0.2,0,0.4,0,0.6-0.1
				v0.6c-0.2,0.1-0.3,0.1-0.6,0.1C349.1,788.9,348.6,788.4,348.6,787.7z"/>
			<path class="st3" d="M351.3,786.5L351.3,786.5c0-1.5,0.9-2.5,2.2-2.5c1.1,0,2.1,0.7,2.1,2.3v0.2h-3.5c0,1.1,0.5,1.7,1.5,1.7
				c0.7,0,1.2-0.3,1.3-0.8h0.7c-0.2,0.9-0.9,1.4-2,1.4C352.3,788.9,351.3,788,351.3,786.5z M354.9,786c-0.1-1-0.6-1.4-1.3-1.4
				c-0.8,0-1.3,0.5-1.4,1.4H354.9z"/>
			<path class="st3" d="M356.4,787.4h0.7c0.1,0.6,0.4,0.9,1.1,0.9s1-0.2,1-0.7s-0.4-0.7-1.1-0.8c-1.2-0.2-1.6-0.6-1.6-1.4
				c0-0.9,0.9-1.3,1.6-1.3c0.8,0,1.6,0.3,1.7,1.4h-0.7c-0.1-0.5-0.4-0.7-1-0.7c-0.5,0-0.9,0.3-0.9,0.7s0.2,0.6,1.1,0.7
				c1,0.2,1.7,0.4,1.7,1.4c0,0.9-0.6,1.4-1.7,1.4C357.2,788.9,356.5,788.4,356.4,787.4z"/>
		</g>
	</g>
</g>
<g id="Layer_2">
	<g id="INFO_6_">
		
			<rect x="119" y="627.3" transform="matrix(0.7071 -0.7071 0.7071 0.7071 -445.1919 355.8889)" class="st2" width="176" height="176"/>
		<g>
			<path class="st3" d="M147.7,669.9v-0.2c0-3.5,2.1-5.7,4.9-5.7c1.8,0,2.9,0.8,3.5,1.9v-6.8h2.5v16.1h-2.5v-1.8
				c-0.6,1.1-2,2.1-3.6,2.1C149.8,675.4,147.7,673.4,147.7,669.9z M156.2,669.7v-0.2c0-2.4-1.1-3.6-3-3.6c-1.9,0-3,1.3-3,3.7v0.2
				c0,2.4,1.2,3.6,2.9,3.6C154.9,673.4,156.2,672.2,156.2,669.7z"/>
			<path class="st3" d="M161,669.8v-0.2c0-3.4,2.4-5.7,5.6-5.7c3.2,0,5.6,2.2,5.6,5.6v0.2c0,3.4-2.4,5.6-5.6,5.6
				S161,673.1,161,669.8z M169.6,669.8v-0.1c0-2.3-1.1-3.7-3-3.7s-3,1.4-3,3.6v0.2c0,2.2,1.1,3.7,3,3.7
				C168.5,673.4,169.6,672,169.6,669.8z"/>
			<path class="st3" d="M173.8,669.8v-0.2c0-3.5,2.5-5.7,5.5-5.7c2.4,0,4.7,1.1,5,4.1h-2.5c-0.2-1.5-1.2-2.1-2.5-2.1
				c-1.7,0-3,1.3-3,3.6v0.2c0,2.4,1.2,3.7,3,3.7c1.3,0,2.5-0.8,2.6-2.4h2.3c-0.2,2.5-2.1,4.3-5.1,4.3
				C176.2,675.4,173.8,673.3,173.8,669.8z"/>
			<path class="st3" d="M186.5,671.2v-7h2.5v6.7c0,1.7,0.7,2.4,2.2,2.4c1.4,0,2.6-0.9,2.6-2.6v-6.5h2.5v11h-2.5v-1.7
				c-0.5,1.1-1.7,1.9-3.5,1.9C188.1,675.4,186.5,674.1,186.5,671.2z"/>
			<path class="st3" d="M199.3,664.2h2.5v1.7c0.5-1,1.7-1.9,3.3-1.9c1.4,0,2.6,0.6,3.1,2c0.8-1.4,2.4-2,3.7-2c2,0,3.7,1.2,3.7,4.3
				v6.9h-2.5v-6.8c0-1.6-0.7-2.3-2-2.3s-2.4,0.8-2.4,2.5v6.6h-2.5v-6.8c0-1.6-0.7-2.3-2-2.3c-1.3,0-2.4,0.8-2.4,2.5v6.6h-2.5V664.2z
				"/>
			<path class="st3" d="M217.8,669.8v-0.2c0-3.4,2.3-5.7,5.5-5.7c2.7,0,5.2,1.6,5.2,5.5v0.7h-8c0.1,2.1,1.1,3.3,3,3.3
				c1.5,0,2.3-0.6,2.5-1.7h2.5c-0.4,2.3-2.2,3.6-5,3.6C220.2,675.4,217.8,673.3,217.8,669.8z M226,668.5c-0.1-1.9-1.1-2.7-2.7-2.7
				c-1.5,0-2.6,1-2.8,2.7H226z"/>
			<path class="st3" d="M230.8,664.2h2.5v1.7c0.5-1.1,1.7-2,3.5-2c2.2,0,3.8,1.3,3.8,4.3v6.9h-2.5v-6.7c0-1.7-0.7-2.4-2.2-2.4
				c-1.4,0-2.6,0.9-2.6,2.6v6.5h-2.5V664.2z"/>
			<path class="st3" d="M243.9,672.1v-6h-1.5v-1.9h1.5v-2.4h2.5v2.4h2.4v1.9h-2.4v5.8c0,1,0.5,1.4,1.3,1.4c0.5,0,0.9-0.1,1.2-0.2v2
				c-0.4,0.1-0.9,0.3-1.7,0.3C245.1,675.4,243.9,674.2,243.9,672.1z"/>
			<path class="st3" d="M250.5,672.1c0-2.6,2.5-3.5,5.6-3.5h1.4v-0.6c0-1.5-0.5-2.2-2-2.2c-1.3,0-2,0.6-2.1,1.7h-2.5
				c0.2-2.6,2.2-3.6,4.7-3.6c2.5,0,4.4,1,4.4,4v7.2h-2.5v-1.3c-0.7,0.9-1.7,1.6-3.4,1.6C252.1,675.4,250.5,674.4,250.5,672.1z
				 M257.5,671.3v-1.1h-1.3c-1.9,0-3.2,0.4-3.2,1.8c0,0.9,0.5,1.5,1.8,1.5C256.3,673.6,257.5,672.7,257.5,671.3z"/>
			<path class="st3" d="M263,659.1h2.5v16.1H263V659.1z"/>
		</g>
		<g>
			<path class="st3" d="M132.9,697.4h5v0.9h-4v2.9h3.2v0.9h-3.2v3.1h4.2v0.9h-5.2V697.4z"/>
			<path class="st3" d="M141.2,702.8l-2.1-3h1.2l1.5,2.3l1.5-2.3h1.1l-2.1,3l2.3,3.3h-1.2l-1.7-2.5L140,706h-1.1L141.2,702.8z"/>
			<path class="st3" d="M145.9,699.7h1v1.1c0.4-0.6,1.2-1.2,2.1-1.2c1.6,0,2.9,1.2,2.9,3.2v0.1c0,1.9-1.1,3.2-2.9,3.2
				c-1,0-1.8-0.5-2.1-1.1v3.2h-1V699.7z M150.9,702.9L150.9,702.9c0-1.7-0.9-2.5-1.9-2.5c-1.2,0-2.1,0.8-2.1,2.4v0.1
				c0,1.6,0.8,2.4,2.1,2.4C150.2,705.3,150.9,704.4,150.9,702.9z"/>
			<path class="st3" d="M153.5,696.7h1v9.3h-1V696.7z"/>
			<path class="st3" d="M156.1,702.9L156.1,702.9c0-2,1.3-3.3,3.1-3.3s3.1,1.3,3.1,3.2v0.1c0,1.9-1.3,3.2-3.1,3.2
				C157.4,706.1,156.1,704.8,156.1,702.9z M161.2,702.9L161.2,702.9c0-1.5-0.8-2.5-2.1-2.5c-1.3,0-2.1,0.9-2.1,2.4v0.1
				c0,1.4,0.8,2.4,2.1,2.4C160.4,705.3,161.2,704.3,161.2,702.9z"/>
			<path class="st3" d="M163.8,699.7h1v1.1c0.4-0.7,0.9-1.2,2.1-1.2v0.9c-1.3,0.1-2.1,0.5-2.1,2v3.4h-1V699.7z"/>
			<path class="st3" d="M167.8,704.3c0-1.5,1.5-1.9,3.1-1.9h0.9v-0.5c0-1-0.4-1.4-1.3-1.4c-0.9,0-1.3,0.4-1.4,1.1h-1
				c0.1-1.4,1.3-2,2.5-2c1.2,0,2.3,0.5,2.3,2.2v4.1h-1v-0.8c-0.5,0.6-1,0.9-2,0.9C168.7,706.1,167.8,705.6,167.8,704.3z
				 M171.8,703.8V703H171c-1.3,0-2.2,0.3-2.2,1.2c0,0.6,0.3,1.1,1.2,1.1C171,705.3,171.8,704.8,171.8,703.8z"/>
			<path class="st3" d="M178,697.4h2.6c1.6,0,2.8,0.5,2.8,2.2v0c0,0.8-0.3,1.5-1.3,1.8c1.2,0.3,1.7,0.9,1.7,2.1v0
				c0,1.6-1.1,2.4-2.8,2.4H178V697.4z M180.6,701.2c1.3,0,1.7-0.5,1.7-1.5v0c0-1-0.6-1.4-1.8-1.4h-1.5v2.9H180.6z M180.9,705.2
				c1.2,0,1.8-0.6,1.8-1.6v0c0-1.1-0.6-1.6-2-1.6h-1.8v3.2H180.9z"/>
			<path class="st3" d="M184.9,704.3c0-1.5,1.5-1.9,3.1-1.9h0.9v-0.5c0-1-0.4-1.4-1.3-1.4c-0.9,0-1.3,0.4-1.4,1.1h-1
				c0.1-1.4,1.3-2,2.5-2c1.2,0,2.3,0.5,2.3,2.2v4.1h-1v-0.8c-0.5,0.6-1,0.9-2,0.9C185.8,706.1,184.9,705.6,184.9,704.3z M189,703.8
				V703h-0.9c-1.3,0-2.2,0.3-2.2,1.2c0,0.6,0.3,1.1,1.2,1.1C188.1,705.3,189,704.8,189,703.8z"/>
			<path class="st3" d="M191.9,699.7h1v1.1c0.4-0.7,0.9-1.2,2.1-1.2v0.9c-1.3,0.1-2.1,0.5-2.1,2v3.4h-1V699.7z"/>
			<path class="st3" d="M195.9,702.9L195.9,702.9c0-2,1.4-3.3,3-3.3c1.3,0,2.5,0.6,2.7,2.2h-1c-0.2-1-0.9-1.4-1.7-1.4
				c-1.1,0-2,0.9-2,2.4v0.1c0,1.5,0.8,2.4,2.1,2.4c0.9,0,1.7-0.5,1.8-1.5h0.9c-0.1,1.4-1.2,2.4-2.7,2.4
				C197.3,706.1,195.9,704.9,195.9,702.9z"/>
			<path class="st3" d="M202.8,702.9L202.8,702.9c0-2,1.2-3.3,2.9-3.3c1.5,0,2.8,0.9,2.8,3.1v0.3h-4.7c0,1.4,0.7,2.2,2,2.2
				c1,0,1.5-0.4,1.7-1.1h1c-0.2,1.3-1.3,1.9-2.7,1.9C204,706.1,202.8,704.9,202.8,702.9z M207.5,702.3c-0.1-1.3-0.8-1.8-1.8-1.8
				c-1,0-1.7,0.7-1.9,1.8H207.5z"/>
			<path class="st3" d="M210.1,696.7h1v9.3h-1V696.7z"/>
			<path class="st3" d="M212.7,702.9L212.7,702.9c0-2,1.3-3.3,3.1-3.3c1.8,0,3.1,1.3,3.1,3.2v0.1c0,1.9-1.3,3.2-3.1,3.2
				S212.7,704.8,212.7,702.9z M217.8,702.9L217.8,702.9c0-1.5-0.8-2.5-2.1-2.5c-1.3,0-2.1,0.9-2.1,2.4v0.1c0,1.4,0.8,2.4,2.1,2.4
				C217,705.3,217.8,704.3,217.8,702.9z"/>
			<path class="st3" d="M220.4,699.7h1v1c0.3-0.6,1-1.1,2-1.1c1.3,0,2.2,0.7,2.2,2.5v3.8h-1v-3.9c0-1.1-0.5-1.6-1.5-1.6
				c-0.9,0-1.8,0.6-1.8,1.7v3.8h-1V699.7z"/>
			<path class="st3" d="M227.1,704.3c0-1.5,1.5-1.9,3.1-1.9h0.9v-0.5c0-1-0.4-1.4-1.3-1.4c-0.9,0-1.3,0.4-1.4,1.1h-1
				c0.1-1.4,1.3-2,2.5-2c1.2,0,2.3,0.5,2.3,2.2v4.1h-1v-0.8c-0.5,0.6-1,0.9-2,0.9C228,706.1,227.1,705.6,227.1,704.3z M231.1,703.8
				V703h-0.9c-1.3,0-2.2,0.3-2.2,1.2c0,0.6,0.3,1.1,1.2,1.1C230.3,705.3,231.1,704.8,231.1,703.8z"/>
			<path class="st3" d="M236.7,704.3c0-1.5,1.5-1.9,3.1-1.9h0.9v-0.5c0-1-0.4-1.4-1.3-1.4c-0.9,0-1.3,0.4-1.4,1.1h-1
				c0.1-1.4,1.3-2,2.5-2c1.2,0,2.3,0.5,2.3,2.2v4.1h-1v-0.8c-0.5,0.6-1,0.9-2,0.9C237.6,706.1,236.7,705.6,236.7,704.3z
				 M240.8,703.8V703h-0.9c-1.3,0-2.2,0.3-2.2,1.2c0,0.6,0.3,1.1,1.2,1.1C240,705.3,240.8,704.8,240.8,703.8z"/>
			<path class="st3" d="M247.1,704.4v-3.9h-0.9v-0.8h0.9v-1.4h1v1.4h1.5v0.8h-1.5v3.8c0,0.6,0.3,0.9,0.8,0.9c0.3,0,0.6,0,0.8-0.1
				v0.8c-0.2,0.1-0.4,0.1-0.9,0.1C247.7,706.1,247.1,705.4,247.1,704.4z"/>
			<path class="st3" d="M251.1,699.7h1v1.1c0.4-0.7,0.9-1.2,2.1-1.2v0.9c-1.3,0.1-2.1,0.5-2.1,2v3.4h-1V699.7z"/>
			<path class="st3" d="M255.1,704.3c0-1.5,1.5-1.9,3.1-1.9h0.9v-0.5c0-1-0.4-1.4-1.3-1.4c-0.9,0-1.3,0.4-1.4,1.1h-1
				c0.1-1.4,1.3-2,2.5-2c1.2,0,2.3,0.5,2.3,2.2v4.1h-1v-0.8c-0.5,0.6-1,0.9-2,0.9C256.1,706.1,255.1,705.6,255.1,704.3z
				 M259.2,703.8V703h-0.9c-1.3,0-2.2,0.3-2.2,1.2c0,0.6,0.3,1.1,1.2,1.1C258.4,705.3,259.2,704.8,259.2,703.8z"/>
			<path class="st3" d="M261.4,699.7h1.1l1.9,5.3l1.8-5.3h1L265,706h-1.3L261.4,699.7z"/>
			<path class="st3" d="M268.1,702.9L268.1,702.9c0-2,1.2-3.3,2.9-3.3c1.5,0,2.8,0.9,2.8,3.1v0.3h-4.7c0,1.4,0.7,2.2,2,2.2
				c1,0,1.5-0.4,1.7-1.1h1c-0.2,1.3-1.3,1.9-2.7,1.9C269.3,706.1,268.1,704.9,268.1,702.9z M272.8,702.3c-0.1-1.3-0.8-1.8-1.8-1.8
				c-1,0-1.7,0.7-1.9,1.8H272.8z M271.3,696.9h1.2l-1.2,1.8h-0.7L271.3,696.9z"/>
			<path class="st3" d="M274.8,704.1h1c0.1,0.7,0.5,1.2,1.5,1.2c0.9,0,1.4-0.3,1.4-1c0-0.7-0.5-0.9-1.5-1.1
				c-1.6-0.3-2.2-0.8-2.2-1.8c0-1.2,1.1-1.8,2.1-1.8c1.1,0,2.1,0.5,2.3,1.8h-1c-0.1-0.7-0.5-1-1.3-1c-0.7,0-1.2,0.4-1.2,0.9
				c0,0.6,0.3,0.8,1.5,1c1.3,0.2,2.2,0.5,2.2,1.9c0,1.1-0.8,1.9-2.3,1.9C275.8,706.1,274.9,705.4,274.8,704.1z"/>
			<path class="st3" d="M143.8,717.4L143.8,717.4c0-2,1.2-3.4,2.9-3.4c1,0,1.7,0.5,2.1,1.1v-4h1v9.3h-1v-1.1
				c-0.4,0.6-1.2,1.2-2.1,1.2C145,720.5,143.8,719.4,143.8,717.4z M148.9,717.3L148.9,717.3c0-1.7-0.8-2.5-2-2.5c-1.2,0-2,0.9-2,2.4
				v0.1c0,1.6,0.9,2.3,1.9,2.3C147.9,719.7,148.9,718.9,148.9,717.3z"/>
			<path class="st3" d="M151.4,717.3L151.4,717.3c0-2,1.2-3.3,2.9-3.3c1.5,0,2.8,0.9,2.8,3.1v0.3h-4.7c0,1.4,0.7,2.2,2,2.2
				c1,0,1.5-0.4,1.7-1.1h1c-0.2,1.3-1.3,1.9-2.7,1.9C152.6,720.5,151.4,719.3,151.4,717.3z M156.1,716.7c-0.1-1.3-0.8-1.8-1.8-1.8
				c-1,0-1.7,0.7-1.9,1.8H156.1z"/>
			<path class="st3" d="M161.9,711.1h1v9.3h-1V711.1z"/>
			<path class="st3" d="M164.4,717.3L164.4,717.3c0-2,1.3-3.3,3.1-3.3s3.1,1.3,3.1,3.2v0.1c0,1.9-1.3,3.2-3.1,3.2
				C165.7,720.5,164.4,719.2,164.4,717.3z M169.6,717.3L169.6,717.3c0-1.5-0.8-2.5-2.1-2.5c-1.3,0-2.1,0.9-2.1,2.4v0.1
				c0,1.4,0.8,2.4,2.1,2.4C168.8,719.7,169.6,718.7,169.6,717.3z"/>
			<path class="st3" d="M171.6,718.5h1c0.1,0.7,0.5,1.2,1.5,1.2c0.9,0,1.4-0.3,1.4-1c0-0.7-0.5-0.9-1.5-1.1
				c-1.6-0.3-2.2-0.8-2.2-1.8c0-1.2,1.1-1.8,2.1-1.8c1.1,0,2.1,0.5,2.3,1.8h-1c-0.1-0.7-0.5-1-1.3-1c-0.7,0-1.2,0.4-1.2,0.9
				c0,0.6,0.3,0.8,1.5,1c1.3,0.2,2.2,0.5,2.2,1.9c0,1.1-0.8,1.9-2.3,1.9C172.6,720.5,171.7,719.8,171.6,718.5z"/>
			<path class="st3" d="M180.6,718.7c0-1.5,1.5-1.9,3.1-1.9h0.9v-0.5c0-1-0.4-1.4-1.3-1.4c-0.9,0-1.3,0.4-1.4,1.1h-1
				c0.1-1.4,1.3-2,2.5-2c1.2,0,2.3,0.5,2.3,2.2v4.1h-1v-0.8c-0.5,0.6-1,0.9-2,0.9C181.5,720.5,180.6,720,180.6,718.7z M184.6,718.2
				v-0.8h-0.9c-1.3,0-2.2,0.3-2.2,1.2c0,0.6,0.3,1.1,1.2,1.1C183.8,719.7,184.6,719.2,184.6,718.2z"/>
			<path class="st3" d="M187.6,714.1h1v1.1c0.4-0.7,0.9-1.2,2.1-1.2v0.9c-1.3,0.1-2.1,0.5-2.1,2v3.4h-1V714.1z"/>
			<path class="st3" d="M196.6,719.3c-0.4,0.6-1.2,1.2-2.1,1.2c-1.6,0-2.8-1.2-2.8-3.1v-0.1c0-1.9,1.2-3.3,2.9-3.3
				c1,0,1.7,0.5,2.1,1.1v-1h1v8.5h-1V719.3z M196.6,717.3L196.6,717.3c0-1.7-0.8-2.5-2-2.5c-1.2,0-2,0.9-2,2.4v0.1
				c0,1.6,0.9,2.3,1.9,2.3C195.7,719.7,196.6,718.9,196.6,717.3z"/>
			<path class="st3" d="M199.5,718.1v-4h1v3.9c0,1.1,0.5,1.6,1.5,1.6c0.9,0,1.7-0.6,1.7-1.7v-3.8h1v6.3h-1v-1c-0.3,0.6-1,1.1-2,1.1
				C200.5,720.5,199.5,719.8,199.5,718.1z"/>
			<path class="st3" d="M206.6,712.2c0-0.4,0.3-0.7,0.7-0.7s0.7,0.3,0.7,0.7c0,0.4-0.3,0.7-0.7,0.7S206.6,712.5,206.6,712.2z
				 M206.8,714.1h1v6.3h-1V714.1z"/>
			<path class="st3" d="M210,718.8V715h-0.9v-0.8h0.9v-1.4h1v1.4h1.5v0.8H211v3.8c0,0.6,0.3,0.9,0.8,0.9c0.3,0,0.6,0,0.8-0.1v0.8
				c-0.2,0.1-0.4,0.1-0.9,0.1C210.6,720.5,210,719.8,210,718.8z"/>
			<path class="st3" d="M213.6,717.3L213.6,717.3c0-2,1.2-3.3,2.9-3.3c1.5,0,2.8,0.9,2.8,3.1v0.3h-4.7c0,1.4,0.7,2.2,2,2.2
				c1,0,1.5-0.4,1.7-1.1h1c-0.2,1.3-1.3,1.9-2.7,1.9C214.8,720.5,213.6,719.3,213.6,717.3z M218.3,716.7c-0.1-1.3-0.8-1.8-1.8-1.8
				c-1,0-1.7,0.7-1.9,1.8H218.3z"/>
			<path class="st3" d="M220.4,717.3L220.4,717.3c0-2,1.4-3.3,3-3.3c1.3,0,2.5,0.6,2.7,2.2h-1c-0.2-1-0.9-1.4-1.7-1.4
				c-1.1,0-2,0.9-2,2.4v0.1c0,1.5,0.8,2.4,2.1,2.4c0.9,0,1.7-0.5,1.8-1.5h0.9c-0.1,1.4-1.2,2.4-2.7,2.4
				C221.7,720.5,220.4,719.3,220.4,717.3z"/>
			<path class="st3" d="M227.9,718.8V715H227v-0.8h0.9v-1.4h1v1.4h1.5v0.8h-1.5v3.8c0,0.6,0.3,0.9,0.8,0.9c0.3,0,0.6,0,0.8-0.1v0.8
				c-0.2,0.1-0.4,0.1-0.9,0.1C228.5,720.5,227.9,719.8,227.9,718.8z"/>
			<path class="st3" d="M231.5,717.3L231.5,717.3c0-2,1.3-3.3,3.1-3.3c1.8,0,3.1,1.3,3.1,3.2v0.1c0,1.9-1.3,3.2-3.1,3.2
				S231.5,719.2,231.5,717.3z M236.6,717.3L236.6,717.3c0-1.5-0.8-2.5-2.1-2.5c-1.3,0-2.1,0.9-2.1,2.4v0.1c0,1.4,0.8,2.4,2.1,2.4
				C235.8,719.7,236.6,718.7,236.6,717.3z"/>
			<path class="st3" d="M238.7,718.5h1c0.1,0.7,0.5,1.2,1.5,1.2c0.9,0,1.4-0.3,1.4-1c0-0.7-0.5-0.9-1.5-1.1
				c-1.6-0.3-2.2-0.8-2.2-1.8c0-1.2,1.1-1.8,2.1-1.8c1.1,0,2.1,0.5,2.3,1.8h-1c-0.1-0.7-0.5-1-1.3-1c-0.7,0-1.2,0.4-1.2,0.9
				c0,0.6,0.3,0.8,1.5,1c1.3,0.2,2.2,0.5,2.2,1.9c0,1.1-0.8,1.9-2.3,1.9C239.7,720.5,238.8,719.8,238.7,718.5z"/>
			<path class="st3" d="M252.7,719.3c-0.4,0.6-1.2,1.2-2.1,1.2c-1.6,0-2.8-1.2-2.8-3.1v-0.1c0-1.9,1.2-3.3,2.9-3.3
				c1,0,1.7,0.5,2.1,1.1v-1h1v8.5h-1V719.3z M252.7,717.3L252.7,717.3c0-1.7-0.8-2.5-2-2.5c-1.2,0-2,0.9-2,2.4v0.1
				c0,1.6,0.9,2.3,1.9,2.3C251.8,719.7,252.7,718.9,252.7,717.3z"/>
			<path class="st3" d="M255.6,718.1v-4h1v3.9c0,1.1,0.5,1.6,1.5,1.6c0.9,0,1.7-0.6,1.7-1.7v-3.8h1v6.3h-1v-1c-0.3,0.6-1,1.1-2,1.1
				C256.6,720.5,255.6,719.8,255.6,718.1z"/>
			<path class="st3" d="M262.3,717.3L262.3,717.3c0-2,1.2-3.3,2.9-3.3c1.5,0,2.8,0.9,2.8,3.1v0.3h-4.7c0,1.4,0.7,2.2,2,2.2
				c1,0,1.5-0.4,1.7-1.1h1c-0.2,1.3-1.3,1.9-2.7,1.9C263.6,720.5,262.3,719.3,262.3,717.3z M267.1,716.7c-0.1-1.3-0.8-1.8-1.8-1.8
				c-1,0-1.7,0.7-1.9,1.8H267.1z"/>
			<path class="st3" d="M147.9,731.7L147.9,731.7c0-2,1.2-3.3,2.9-3.3c1.5,0,2.8,0.9,2.8,3.1v0.3H149c0,1.4,0.7,2.2,2,2.2
				c1,0,1.5-0.4,1.7-1.1h1c-0.2,1.3-1.3,1.9-2.7,1.9C149.2,734.9,147.9,733.7,147.9,731.7z M152.7,731.1c-0.1-1.3-0.8-1.8-1.8-1.8
				c-1,0-1.7,0.7-1.9,1.8H152.7z"/>
			<path class="st3" d="M154.7,732.9h1c0.1,0.7,0.5,1.2,1.5,1.2c0.9,0,1.4-0.3,1.4-1c0-0.7-0.5-0.9-1.5-1.1
				c-1.6-0.3-2.2-0.8-2.2-1.8c0-1.2,1.1-1.8,2.1-1.8c1.1,0,2.1,0.5,2.3,1.8h-1c-0.1-0.7-0.5-1-1.3-1c-0.7,0-1.2,0.4-1.2,0.9
				c0,0.6,0.3,0.8,1.5,1c1.3,0.2,2.2,0.5,2.2,1.9c0,1.1-0.8,1.9-2.3,1.9C155.7,734.9,154.8,734.2,154.7,732.9z"/>
			<path class="st3" d="M161.2,733.2v-3.9h-0.9v-0.8h0.9v-1.4h1v1.4h1.5v0.8h-1.5v3.8c0,0.6,0.3,0.9,0.8,0.9c0.3,0,0.6,0,0.8-0.1
				v0.8c-0.2,0.1-0.4,0.1-0.9,0.1C161.8,734.9,161.2,734.2,161.2,733.2z"/>
			<path class="st3" d="M164.7,733.1c0-1.5,1.5-1.9,3.1-1.9h0.9v-0.5c0-1-0.4-1.4-1.3-1.4c-0.9,0-1.3,0.4-1.4,1.1h-1
				c0.1-1.4,1.3-2,2.5-2c1.2,0,2.3,0.5,2.3,2.2v4.1h-1V734c-0.5,0.6-1,0.9-2,0.9C165.7,734.9,164.7,734.4,164.7,733.1z M168.8,732.6
				v-0.8h-0.9c-1.3,0-2.2,0.3-2.2,1.2c0,0.6,0.3,1.1,1.2,1.1C168,734.1,168.8,733.6,168.8,732.6z M167.8,725.7h1.2l-1.2,1.8H167
				L167.8,725.7z"/>
			<path class="st3" d="M171.7,728.5h1v1c0.3-0.6,1-1.1,2-1.1c1.3,0,2.2,0.7,2.2,2.5v3.9h-1v-3.9c0-1.1-0.5-1.6-1.5-1.6
				c-0.9,0-1.8,0.6-1.8,1.7v3.8h-1V728.5z"/>
			<path class="st3" d="M182.3,733.2v-3.9h-0.9v-0.8h0.9v-1.4h1v1.4h1.5v0.8h-1.5v3.8c0,0.6,0.3,0.9,0.8,0.9c0.3,0,0.6,0,0.8-0.1
				v0.8c-0.2,0.1-0.4,0.1-0.9,0.1C182.9,734.9,182.3,734.2,182.3,733.2z"/>
			<path class="st3" d="M186.3,728.5h1v1.1c0.4-0.7,0.9-1.2,2.1-1.2v0.9c-1.3,0.1-2.1,0.5-2.1,2v3.4h-1V728.5z"/>
			<path class="st3" d="M190.3,733.1c0-1.5,1.5-1.9,3.1-1.9h0.9v-0.5c0-1-0.4-1.4-1.3-1.4c-0.9,0-1.3,0.4-1.4,1.1h-1
				c0.1-1.4,1.3-2,2.5-2c1.2,0,2.3,0.5,2.3,2.2v4.1h-1V734c-0.5,0.6-1,0.9-2,0.9C191.3,734.9,190.3,734.4,190.3,733.1z M194.4,732.6
				v-0.8h-0.9c-1.3,0-2.2,0.3-2.2,1.2c0,0.6,0.3,1.1,1.2,1.1C193.6,734.1,194.4,733.6,194.4,732.6z"/>
			<path class="st3" d="M197.3,728.5h1v1c0.3-0.6,1-1.1,2-1.1c1.3,0,2.2,0.7,2.2,2.5v3.9h-1v-3.9c0-1.1-0.5-1.6-1.5-1.6
				c-0.9,0-1.8,0.6-1.8,1.7v3.8h-1V728.5z"/>
			<path class="st3" d="M204,732.9h1c0.1,0.7,0.5,1.2,1.5,1.2c0.9,0,1.4-0.3,1.4-1c0-0.7-0.5-0.9-1.5-1.1c-1.6-0.3-2.2-0.8-2.2-1.8
				c0-1.2,1.1-1.8,2.1-1.8c1.1,0,2.1,0.5,2.3,1.8h-1c-0.1-0.7-0.5-1-1.3-1c-0.7,0-1.2,0.4-1.2,0.9c0,0.6,0.3,0.8,1.5,1
				c1.3,0.2,2.2,0.5,2.2,1.9c0,1.1-0.8,1.9-2.3,1.9C205,734.9,204.1,734.2,204,732.9z"/>
			<path class="st3" d="M210.5,729.4h-0.9v-0.8h0.9v-1c0-1.3,0.6-2,1.9-2c0.3,0,0.5,0,0.7,0.1v0.8c-0.2-0.1-0.4-0.1-0.7-0.1
				c-0.6,0-0.9,0.4-0.9,1.1v1.1h1.5v0.8h-1.5v5.4h-1V729.4z"/>
			<path class="st3" d="M214,731.7L214,731.7c0-2,1.3-3.3,3.1-3.3c1.8,0,3.1,1.3,3.1,3.2v0.1c0,1.9-1.3,3.2-3.1,3.2
				S214,733.6,214,731.7z M219.1,731.7L219.1,731.7c0-1.5-0.8-2.5-2.1-2.5c-1.3,0-2.1,0.9-2.1,2.4v0.1c0,1.4,0.8,2.4,2.1,2.4
				C218.3,734.1,219.1,733.1,219.1,731.7z"/>
			<path class="st3" d="M221.7,728.5h1v1.1c0.4-0.7,0.9-1.2,2.1-1.2v0.9c-1.3,0.1-2.1,0.5-2.1,2v3.4h-1V728.5z"/>
			<path class="st3" d="M226.2,728.5h1v1c0.3-0.6,1-1.1,1.9-1.1c0.8,0,1.5,0.3,1.8,1.2c0.4-0.8,1.4-1.2,2.1-1.2
				c1.1,0,2.1,0.7,2.1,2.5v3.9h-1v-4c0-1.1-0.5-1.6-1.3-1.6c-0.8,0-1.7,0.6-1.7,1.7v3.8h-1v-4c0-1.1-0.5-1.6-1.3-1.6
				c-0.8,0-1.7,0.6-1.7,1.7v3.8h-1V728.5z"/>
			<path class="st3" d="M236.6,733.1c0-1.5,1.5-1.9,3.1-1.9h0.9v-0.5c0-1-0.4-1.4-1.3-1.4c-0.9,0-1.3,0.4-1.4,1.1h-1
				c0.1-1.4,1.3-2,2.5-2c1.2,0,2.3,0.5,2.3,2.2v4.1h-1V734c-0.5,0.6-1,0.9-2,0.9C237.5,734.9,236.6,734.4,236.6,733.1z M240.6,732.6
				v-0.8h-0.9c-1.3,0-2.2,0.3-2.2,1.2c0,0.6,0.3,1.1,1.2,1.1C239.8,734.1,240.6,733.6,240.6,732.6z"/>
			<path class="st3" d="M243.6,728.5h1v1c0.3-0.6,1-1.1,2-1.1c1.3,0,2.2,0.7,2.2,2.5v3.9h-1v-3.9c0-1.1-0.5-1.6-1.5-1.6
				c-0.9,0-1.8,0.6-1.8,1.7v3.8h-1V728.5z"/>
			<path class="st3" d="M250.3,731.8L250.3,731.8c0-2,1.2-3.4,2.9-3.4c1,0,1.7,0.5,2.1,1.1v-4h1v9.3h-1v-1.1
				c-0.4,0.6-1.2,1.2-2.1,1.2C251.5,734.9,250.3,733.8,250.3,731.8z M255.3,731.7L255.3,731.7c0-1.7-0.8-2.5-2-2.5
				c-1.2,0-2,0.9-2,2.4v0.1c0,1.6,0.9,2.3,1.9,2.3C254.4,734.1,255.3,733.3,255.3,731.7z"/>
			<path class="st3" d="M257.8,731.7L257.8,731.7c0-2,1.3-3.3,3.1-3.3c1.8,0,3.1,1.3,3.1,3.2v0.1c0,1.9-1.3,3.2-3.1,3.2
				S257.8,733.6,257.8,731.7z M262.9,731.7L262.9,731.7c0-1.5-0.8-2.5-2.1-2.5c-1.3,0-2.1,0.9-2.1,2.4v0.1c0,1.4,0.8,2.4,2.1,2.4
				C262.2,734.1,262.9,733.1,262.9,731.7z"/>
			<path class="st3" d="M181.4,739.9h1v9.3h-1V739.9z"/>
			<path class="st3" d="M183.9,747.5c0-1.5,1.5-1.9,3.1-1.9h0.9v-0.5c0-1-0.4-1.4-1.3-1.4c-0.9,0-1.3,0.4-1.4,1.1h-1
				c0.1-1.4,1.3-2,2.5-2c1.2,0,2.3,0.5,2.3,2.2v4.1h-1v-0.8c-0.5,0.6-1,0.9-2,0.9C184.8,749.3,183.9,748.8,183.9,747.5z M187.9,747
				v-0.8h-0.9c-1.3,0-2.2,0.3-2.2,1.2c0,0.6,0.3,1.1,1.2,1.1C187.1,748.5,187.9,748,187.9,747z"/>
			<path class="st3" d="M193.6,746.1L193.6,746.1c0-2,1.4-3.3,3-3.3c1.3,0,2.5,0.6,2.7,2.2h-1c-0.2-1-0.9-1.4-1.7-1.4
				c-1.1,0-2,0.9-2,2.4v0.1c0,1.5,0.8,2.4,2.1,2.4c0.9,0,1.7-0.5,1.8-1.5h0.9c-0.1,1.4-1.2,2.4-2.7,2.4
				C194.9,749.3,193.6,748.1,193.6,746.1z"/>
			<path class="st3" d="M200.7,741c0-0.4,0.3-0.7,0.7-0.7s0.7,0.3,0.7,0.7s-0.3,0.7-0.7,0.7S200.7,741.3,200.7,741z M200.9,742.9h1
				v6.3h-1V742.9z"/>
			<path class="st3" d="M203.9,746.9v-4h1v3.9c0,1.1,0.5,1.6,1.5,1.6c0.9,0,1.7-0.6,1.7-1.7v-3.8h1v6.3h-1v-1c-0.3,0.6-1,1.1-2,1.1
				C204.8,749.3,203.9,748.6,203.9,746.9z"/>
			<path class="st3" d="M210.6,746.2L210.6,746.2c0-2,1.2-3.4,2.9-3.4c1,0,1.7,0.5,2.1,1.1v-4h1v9.3h-1v-1.1
				c-0.4,0.6-1.2,1.2-2.1,1.2C211.8,749.3,210.6,748.2,210.6,746.2z M215.6,746.1L215.6,746.1c0-1.7-0.8-2.5-2-2.5
				c-1.2,0-2,0.9-2,2.4v0.1c0,1.6,0.9,2.3,1.9,2.3C214.7,748.5,215.6,747.7,215.6,746.1z"/>
			<path class="st3" d="M218.1,747.5c0-1.5,1.5-1.9,3.1-1.9h0.9v-0.5c0-1-0.4-1.4-1.3-1.4c-0.9,0-1.3,0.4-1.4,1.1h-1
				c0.1-1.4,1.3-2,2.5-2c1.2,0,2.3,0.5,2.3,2.2v4.1h-1v-0.8c-0.5,0.6-1,0.9-2,0.9C219,749.3,218.1,748.8,218.1,747.5z M222.1,747
				v-0.8h-0.9c-1.3,0-2.2,0.3-2.2,1.2c0,0.6,0.3,1.1,1.2,1.1C221.3,748.5,222.1,748,222.1,747z"/>
			<path class="st3" d="M224.6,746.2L224.6,746.2c0-2,1.2-3.4,2.9-3.4c1,0,1.7,0.5,2.1,1.1v-4h1v9.3h-1v-1.1
				c-0.4,0.6-1.2,1.2-2.1,1.2C225.8,749.3,224.6,748.2,224.6,746.2z M229.6,746.1L229.6,746.1c0-1.7-0.8-2.5-2-2.5
				c-1.2,0-2,0.9-2,2.4v0.1c0,1.6,0.9,2.3,1.9,2.3C228.7,748.5,229.6,747.7,229.6,746.1z"/>
		</g>
		<g>
			<polygon class="st3" points="207,827.5 138.6,759.1 275.4,759.1 			"/>
			<path class="st2" d="M185.1,776.8h5.4v1.3h-3.8v2.4h3v1.2h-3v2.5h4v1.3h-5.6V776.8z"/>
			<path class="st2" d="M191.8,776.8h1.9l3.6,6.2v-6.2h1.5v8.6h-1.7l-3.9-6.6v6.6h-1.5V776.8z"/>
			<path class="st2" d="M202.2,778h-2.4v-1.3h6.4v1.3h-2.4v7.3h-1.6V778z"/>
			<path class="st2" d="M207.3,776.8h2.9c1.9,0,3.2,0.8,3.2,2.5v0c0,1.3-0.8,2-1.9,2.3l2.4,3.7h-1.7l-2.2-3.5h-1v3.5h-1.6V776.8z
				 M210.1,780.7c1.1,0,1.6-0.5,1.6-1.4v0c0-1-0.6-1.3-1.6-1.3h-1.3v2.7H210.1z"/>
			<path class="st2" d="M217.1,776.8h2.1l2.8,8.6h-1.7l-0.7-2.1h-3.3l-0.7,2.1h-1.5L217.1,776.8z M216.7,782h2.5l-1.3-4L216.7,782z"
				/>
			<path class="st2" d="M223,776.8h2.9c1.9,0,3.2,0.8,3.2,2.5v0c0,1.3-0.8,2-1.9,2.3l2.4,3.7h-1.7l-2.2-3.5h-1v3.5H223V776.8z
				 M225.9,780.7c1.1,0,1.6-0.5,1.6-1.4v0c0-1-0.6-1.3-1.6-1.3h-1.3v2.7H225.9z"/>
		</g>
	</g>
	<g>
		<g>
			<g>
				<path class="st3" d="M54.7,519.2h0.5v2c0.4-1.1,1.5-2.1,3-2.1c1.8,0,3.2,1.4,3.2,3.7v0.1c0,2.3-1.4,3.7-3.2,3.7
					c-1.6,0-2.6-1.1-3-2.1v4.5h-0.5V519.2z M60.9,522.9v-0.1c0-2.1-1.3-3.3-2.8-3.3c-1.5,0-2.9,1.2-2.9,3.3v0.1c0,2.1,1.4,3.3,3,3.3
					C59.7,526.2,60.9,525,60.9,522.9z"/>
				<path class="st3" d="M63.1,519.2h0.5v1.7c0.4-0.9,1.2-1.7,2.5-1.8v0.4c-1.4,0.1-2.5,0.8-2.5,2.9v4.1h-0.5V519.2z"/>
				<path class="st3" d="M67.2,522.9v-0.1c0-2.2,1.6-3.7,3.5-3.7c1.9,0,3.5,1.5,3.5,3.7v0.1c0,2.2-1.6,3.7-3.5,3.7
					S67.2,525.1,67.2,522.9z M73.7,522.9v-0.1c0-2.1-1.4-3.3-3-3.3c-1.6,0-3,1.3-3,3.3v0.1c0,2,1.4,3.3,3,3.3
					C72.3,526.2,73.7,524.9,73.7,522.9z M71.4,516.1h0.6l-1.2,2.1h-0.4L71.4,516.1z"/>
				<path class="st3" d="M78,522.7l-2.6-3.5h0.6l2.3,3.2l2.3-3.2h0.5l-2.5,3.5l2.8,3.8h-0.6l-2.5-3.5l-2.5,3.5h-0.5L78,522.7z"/>
				<path class="st3" d="M82.8,517.2c0-0.2,0.2-0.4,0.4-0.4c0.2,0,0.4,0.2,0.4,0.4c0,0.2-0.2,0.4-0.4,0.4
					C83,517.6,82.8,517.4,82.8,517.2z M82.9,519.2h0.5v7.3h-0.5V519.2z"/>
				<path class="st3" d="M85.7,519.2h0.5v1.6c0.3-0.9,1.3-1.7,2.5-1.7c1.2,0,2,0.5,2.3,1.8c0.4-1.1,1.4-1.8,2.7-1.8
					c1.5,0,2.4,0.8,2.4,2.8v4.6h-0.5v-4.6c0-1.7-0.7-2.4-2-2.4c-1.2,0-2.5,0.9-2.5,2.6v4.5h-0.5v-4.6c0-1.7-0.7-2.4-2-2.4
					c-1.2,0-2.5,0.9-2.5,2.6v4.5h-0.5V519.2z"/>
				<path class="st3" d="M97.8,524.6c0-1.7,1.5-2.2,3.3-2.2h1.8v-0.7c0-1.5-0.6-2.2-2-2.2c-1.2,0-2.1,0.5-2.3,1.7h-0.5
					c0.2-1.4,1.4-2.1,2.8-2.1c1.6,0,2.5,0.8,2.5,2.6v4.9h-0.5v-1.2c-0.4,0.7-1.3,1.4-2.6,1.4C98.8,526.6,97.8,525.9,97.8,524.6z
					 M102.9,524.3v-1.5h-1.8c-1.6,0-2.8,0.3-2.8,1.8c0,1.1,0.7,1.7,2.1,1.7C101.7,526.2,102.9,525.4,102.9,524.3z"/>
			</g>
		</g>
		<g>
			<path class="st3" d="M126.2,588.7c0-1.7,1.5-2.2,3.3-2.2h1.8v-0.7c0-1.5-0.6-2.2-2-2.2c-1.2,0-2.1,0.5-2.3,1.7h-0.5
				c0.2-1.4,1.4-2.1,2.8-2.1c1.6,0,2.5,0.8,2.5,2.6v4.9h-0.5v-1.2c-0.4,0.7-1.3,1.4-2.6,1.4C127.2,590.7,126.2,590,126.2,588.7z
				 M131.3,588.4v-1.5h-1.8c-1.6,0-2.8,0.3-2.8,1.8c0,1.1,0.7,1.7,2.1,1.7C130.1,590.3,131.3,589.4,131.3,588.4z"/>
			<path class="st3" d="M134,583.3h0.5v1.7c0.4-0.9,1.2-1.7,2.5-1.8v0.4c-1.4,0.1-2.5,0.8-2.5,2.9v4.1H134V583.3z"/>
			<path class="st3" d="M138.1,587v-0.1c0-2.2,1.4-3.7,3.3-3.7c1.8,0,3.1,1.2,3.1,3.5v0.2h-6c0,2.1,1.1,3.4,2.9,3.4
				c1.3,0,2.2-0.6,2.5-1.7h0.5c-0.3,1.4-1.5,2.1-3,2.1C139.4,590.7,138.1,589.2,138.1,587z M144.1,586.5c-0.1-1.9-1.1-2.9-2.7-2.9
				c-1.6,0-2.7,1.1-2.8,2.9H144.1z"/>
			<path class="st3" d="M146.3,583.3h0.5v1.6c0.3-0.9,1.4-1.7,2.7-1.7c1.6,0,2.6,0.9,2.6,2.9v4.5h-0.5v-4.5c0-1.7-0.8-2.5-2.2-2.5
				c-1.3,0-2.7,0.9-2.7,2.6v4.4h-0.5V583.3z"/>
			<path class="st3" d="M153.8,588.7c0-1.7,1.5-2.2,3.3-2.2h1.8v-0.7c0-1.5-0.6-2.2-2-2.2c-1.2,0-2.1,0.5-2.3,1.7h-0.5
				c0.2-1.4,1.4-2.1,2.8-2.1c1.6,0,2.5,0.8,2.5,2.6v4.9h-0.5v-1.2c-0.4,0.7-1.3,1.4-2.6,1.4C154.8,590.7,153.8,590,153.8,588.7z
				 M158.9,588.4v-1.5h-1.8c-1.6,0-2.8,0.3-2.8,1.8c0,1.1,0.7,1.7,2.1,1.7C157.7,590.3,158.9,589.4,158.9,588.4z"/>
		</g>
		<g>
			<path class="st3" d="M317.9,524.6v2h-0.5v-10.8h0.5v5.5c0.4-1.1,1.5-2.1,3-2.1c1.8,0,3.2,1.4,3.2,3.7v0.1c0,2.3-1.4,3.7-3.2,3.7
				C319.3,526.6,318.3,525.6,317.9,524.6z M323.7,522.9v-0.1c0-2.1-1.3-3.3-2.8-3.3c-1.5,0-2.9,1.2-2.9,3.3v0.1c0,2.1,1.4,3.3,3,3.3
				C322.5,526.2,323.7,525,323.7,522.9z"/>
			<path class="st3" d="M325.3,522.9v-0.1c0-2.2,1.4-3.7,3.3-3.7c1.8,0,3.1,1.2,3.1,3.5v0.2h-6c0,2.1,1.1,3.4,2.9,3.4
				c1.3,0,2.2-0.6,2.5-1.7h0.5c-0.3,1.4-1.5,2.1-3,2.1C326.6,526.6,325.3,525.1,325.3,522.9z M331.3,522.4c-0.1-1.9-1.1-2.9-2.7-2.9
				s-2.7,1.1-2.8,2.9H331.3z"/>
			<path class="st3" d="M332.9,522.9v-0.1c0-2.2,1.6-3.7,3.5-3.7c1.5,0,2.8,0.9,3,2.4h-0.5c-0.2-1.3-1.3-1.9-2.5-1.9
				c-1.6,0-3,1.3-3,3.3v0.1c0,2,1.3,3.3,3,3.3c1.3,0,2.4-0.8,2.6-2.2h0.4c-0.2,1.6-1.5,2.6-3.1,2.6
				C334.5,526.6,332.9,525.1,332.9,522.9z"/>
			<path class="st3" d="M340.7,524.6c0-1.7,1.5-2.2,3.3-2.2h1.8v-0.7c0-1.5-0.6-2.2-2-2.2c-1.2,0-2.1,0.5-2.3,1.7H341
				c0.2-1.4,1.4-2.1,2.8-2.1c1.6,0,2.5,0.8,2.5,2.6v4.9h-0.5v-1.2c-0.4,0.7-1.3,1.4-2.6,1.4C341.7,526.6,340.7,525.9,340.7,524.6z
				 M345.8,524.3v-1.5H344c-1.6,0-2.8,0.3-2.8,1.8c0,1.1,0.7,1.7,2.1,1.7C344.6,526.2,345.8,525.4,345.8,524.3z"/>
			<path class="st3" d="M347.8,524.4h0.5c0.1,1.1,0.9,1.9,2.3,1.9c1.3,0,2-0.7,2-1.6c0-1.1-0.5-1.4-2-1.7c-1.7-0.3-2.5-0.7-2.5-2
				c0-1.1,1.1-1.9,2.4-1.9s2.3,0.6,2.5,1.9h-0.5c-0.2-1-0.9-1.5-2-1.5c-1.1,0-1.9,0.6-1.9,1.5c0,1,0.6,1.3,2.2,1.6
				c1.6,0.3,2.4,0.7,2.4,2c0,1.1-0.9,2.1-2.5,2.1C348.9,526.6,347.9,525.7,347.8,524.4z"/>
		</g>
		<g>
			<g>
				<path class="st3" d="M231.5,586.9v-0.1c0-2.3,1.4-3.8,3.3-3.8c1.2,0,1.9,0.5,2.3,1.3v-4.5h1.7v10.7h-1.7v-1.2
					c-0.4,0.7-1.3,1.4-2.4,1.4C232.8,590.6,231.5,589.3,231.5,586.9z M237.1,586.9v-0.1c0-1.6-0.7-2.4-2-2.4c-1.2,0-2,0.9-2,2.5v0.1
					c0,1.6,0.8,2.4,1.9,2.4C236.3,589.3,237.1,588.5,237.1,586.9z"/>
				<path class="st3" d="M240.3,586.9v-0.1c0-2.3,1.6-3.8,3.8-3.8c2.1,0,3.8,1.5,3.8,3.7v0.1c0,2.3-1.6,3.8-3.8,3.8
					S240.3,589.1,240.3,586.9z M246.1,586.9L246.1,586.9c0-1.6-0.8-2.5-2-2.5s-2,0.9-2,2.4v0.1c0,1.5,0.7,2.4,2,2.4
					C245.3,589.3,246.1,588.4,246.1,586.9z"/>
				<path class="st3" d="M248.9,586.9v-0.1c0-2.3,1.7-3.8,3.7-3.8c1.6,0,3.2,0.7,3.3,2.7h-1.6c-0.1-1-0.8-1.4-1.7-1.4
					c-1.2,0-2,0.9-2,2.4v0.1c0,1.6,0.8,2.4,2,2.4c0.9,0,1.7-0.5,1.8-1.6h1.6c-0.1,1.7-1.4,2.9-3.4,2.9
					C250.5,590.6,248.9,589.3,248.9,586.9z"/>
				<path class="st3" d="M257.3,587.9v-4.7h1.7v4.5c0,1.1,0.5,1.6,1.4,1.6c0.9,0,1.7-0.6,1.7-1.8v-4.4h1.7v7.3h-1.7v-1.1
					c-0.4,0.7-1.1,1.3-2.3,1.3C258.4,590.6,257.3,589.8,257.3,587.9z"/>
				<path class="st3" d="M265.9,583.2h1.7v1.1c0.4-0.7,1.1-1.3,2.2-1.3c1,0,1.7,0.4,2.1,1.3c0.6-0.9,1.6-1.3,2.5-1.3
					c1.3,0,2.4,0.8,2.4,2.8v4.6h-1.7V586c0-1.1-0.5-1.5-1.3-1.5c-0.8,0-1.6,0.6-1.6,1.7v4.4h-1.7V586c0-1.1-0.5-1.5-1.3-1.5
					c-0.8,0-1.6,0.6-1.6,1.7v4.4h-1.7V583.2z"/>
				<path class="st3" d="M278.2,586.9v-0.1c0-2.3,1.6-3.8,3.6-3.8c1.8,0,3.5,1.1,3.5,3.7v0.5H280c0.1,1.4,0.8,2.2,2,2.2
					c1,0,1.6-0.4,1.7-1.1h1.6c-0.2,1.5-1.5,2.4-3.4,2.4C279.8,590.6,278.2,589.2,278.2,586.9z M283.7,586.1
					c-0.1-1.3-0.7-1.8-1.8-1.8c-1,0-1.7,0.7-1.9,1.8H283.7z"/>
				<path class="st3" d="M286.8,583.2h1.7v1.2c0.4-0.7,1.2-1.3,2.4-1.3c1.5,0,2.5,0.9,2.5,2.9v4.6h-1.7V586c0-1.1-0.4-1.6-1.5-1.6
					c-1,0-1.7,0.6-1.7,1.8v4.3h-1.7V583.2z"/>
				<path class="st3" d="M295.6,588.4v-4h-1v-1.3h1v-1.6h1.7v1.6h1.6v1.3h-1.6v3.9c0,0.6,0.3,0.9,0.8,0.9c0.3,0,0.6,0,0.8-0.1v1.3
					c-0.3,0.1-0.6,0.2-1.1,0.2C296.4,590.6,295.6,589.8,295.6,588.4z"/>
				<path class="st3" d="M300,588.5c0-1.7,1.7-2.3,3.8-2.3h0.9v-0.4c0-1-0.3-1.5-1.3-1.5c-0.9,0-1.3,0.4-1.4,1.1h-1.6
					c0.1-1.7,1.5-2.4,3.1-2.4c1.6,0,2.9,0.7,2.9,2.7v4.8h-1.7v-0.9c-0.5,0.6-1.1,1-2.2,1C301.1,590.6,300,590,300,588.5z
					 M304.7,587.9v-0.7h-0.9c-1.3,0-2.1,0.3-2.1,1.2c0,0.6,0.3,1,1.2,1C303.9,589.4,304.7,588.9,304.7,587.9z"/>
				<path class="st3" d="M308.3,579.8h1.7v10.7h-1.7V579.8z"/>
			</g>
		</g>
	</g>
	<g>
		<g id="BUTTONS_19_">
			<g>
				<g>
					<path class="st3" d="M63.6,510.2h0.3c0.1,0.6,0.7,1.1,1.8,1.1c1,0,1.8-0.5,1.8-1.7v-1.1c-0.2,0.6-0.9,1.3-1.9,1.3
						c-1.2,0-2.1-0.8-2.1-2.3v-0.1c0-1.4,1-2.3,2.2-2.3c1,0,1.6,0.6,1.8,1.3v-1.2h0.3v4.4c0,1.4-0.9,2-2.1,2
						C64.3,511.6,63.7,510.9,63.6,510.2z M67.5,507.5L67.5,507.5c0-1.3-0.8-2.1-1.8-2.1c-1,0-1.9,0.7-1.9,2v0.1c0,1.3,0.8,2,1.8,2
						C66.6,509.5,67.5,508.8,67.5,507.5z"/>
					<path class="st3" d="M68.9,508.7c0-1.1,1-1.4,2.1-1.4h1.2v-0.5c0-1-0.4-1.4-1.3-1.4c-0.7,0-1.3,0.3-1.5,1.1h-0.3
						c0.1-0.9,0.9-1.4,1.8-1.4c1,0,1.6,0.5,1.6,1.7v3.1h-0.3v-0.8c-0.3,0.5-0.8,0.9-1.7,0.9C69.5,510,68.9,509.5,68.9,508.7z
						 M72.2,508.5v-1H71c-1,0-1.8,0.2-1.8,1.2c0,0.7,0.5,1.1,1.3,1.1C71.4,509.7,72.2,509.2,72.2,508.5z"/>
					<path class="st3" d="M73.9,503h0.3v7h-0.3V503z"/>
					<path class="st3" d="M75.4,507.6L75.4,507.6c0-1.5,0.9-2.5,2.1-2.5c1.2,0,2,0.8,2,2.3v0.1h-3.8c0,1.4,0.7,2.2,1.9,2.2
						c0.8,0,1.4-0.4,1.6-1.1h0.3c-0.2,0.9-0.9,1.4-1.9,1.4C76.2,510,75.4,509,75.4,507.6z M79.2,507.3c0-1.2-0.7-1.9-1.7-1.9
						c-1,0-1.7,0.7-1.8,1.9H79.2z"/>
					<path class="st3" d="M80.6,505.2h0.3v1.1c0.2-0.6,0.8-1.1,1.6-1.1v0.3c-0.9,0-1.6,0.5-1.6,1.8v2.6h-0.3V505.2z"/>
					<path class="st3" d="M84.3,503.2h0.4l-0.8,1.3h-0.3L84.3,503.2z M83.6,505.2h0.3v4.7h-0.3V505.2z"/>
					<path class="st3" d="M85.1,508.7c0-1.1,1-1.4,2.1-1.4h1.2v-0.5c0-1-0.4-1.4-1.3-1.4c-0.7,0-1.3,0.3-1.5,1.1h-0.3
						c0.1-0.9,0.9-1.4,1.8-1.4c1,0,1.6,0.5,1.6,1.7v3.1h-0.3v-0.8c-0.3,0.5-0.8,0.9-1.7,0.9C85.7,510,85.1,509.5,85.1,508.7z
						 M88.4,508.5v-1h-1.2c-1,0-1.8,0.2-1.8,1.2c0,0.7,0.5,1.1,1.3,1.1C87.6,509.7,88.4,509.2,88.4,508.5z"/>
					<path class="st3" d="M94.3,502.9h0.3l-2.6,8.3h-0.3L94.3,502.9z"/>
				</g>
			</g>
		</g>
		<g id="BUTTONS_13_">
			<g>
				<g>
					<path class="st3" d="M319.6,510.2h0.3c0.1,0.6,0.7,1.1,1.8,1.1c1,0,1.8-0.5,1.8-1.7v-1.1c-0.2,0.6-0.9,1.3-1.9,1.3
						c-1.2,0-2.1-0.8-2.1-2.3v-0.1c0-1.4,1-2.3,2.2-2.3c1,0,1.6,0.6,1.8,1.3v-1.2h0.3v4.4c0,1.4-0.9,2-2.1,2
						C320.3,511.6,319.7,510.9,319.6,510.2z M323.5,507.5L323.5,507.5c0-1.3-0.8-2.1-1.8-2.1c-1,0-1.9,0.7-1.9,2v0.1
						c0,1.3,0.8,2,1.8,2C322.6,509.5,323.5,508.8,323.5,507.5z"/>
					<path class="st3" d="M324.9,508.7c0-1.1,1-1.4,2.1-1.4h1.2v-0.5c0-1-0.4-1.4-1.3-1.4c-0.7,0-1.3,0.3-1.5,1.1h-0.3
						c0.1-0.9,0.9-1.4,1.8-1.4c1,0,1.6,0.5,1.6,1.7v3.1h-0.3v-0.8c-0.3,0.5-0.8,0.9-1.7,0.9C325.5,510,324.9,509.5,324.9,508.7z
						 M328.2,508.5v-1H327c-1,0-1.8,0.2-1.8,1.2c0,0.7,0.5,1.1,1.3,1.1C327.4,509.7,328.2,509.2,328.2,508.5z"/>
					<path class="st3" d="M329.9,503h0.3v7h-0.3V503z"/>
					<path class="st3" d="M331.4,507.6L331.4,507.6c0-1.5,0.9-2.5,2.1-2.5c1.2,0,2,0.8,2,2.3v0.1h-3.8c0,1.4,0.7,2.2,1.9,2.2
						c0.8,0,1.4-0.4,1.6-1.1h0.3c-0.2,0.9-0.9,1.4-1.9,1.4C332.2,510,331.4,509,331.4,507.6z M335.2,507.3c0-1.2-0.7-1.9-1.7-1.9
						s-1.7,0.7-1.8,1.9H335.2z"/>
					<path class="st3" d="M336.6,505.2h0.3v1.1c0.2-0.6,0.8-1.1,1.6-1.1v0.3c-0.9,0-1.6,0.5-1.6,1.8v2.6h-0.3V505.2z"/>
					<path class="st3" d="M340.3,503.2h0.4l-0.8,1.3h-0.3L340.3,503.2z M339.6,505.2h0.3v4.7h-0.3V505.2z"/>
					<path class="st3" d="M341.1,508.7c0-1.1,1-1.4,2.1-1.4h1.2v-0.5c0-1-0.4-1.4-1.3-1.4c-0.7,0-1.3,0.3-1.5,1.1h-0.3
						c0.1-0.9,0.9-1.4,1.8-1.4c1,0,1.6,0.5,1.6,1.7v3.1h-0.3v-0.8c-0.3,0.5-0.8,0.9-1.7,0.9C341.7,510,341.1,509.5,341.1,508.7z
						 M344.4,508.5v-1h-1.2c-1,0-1.8,0.2-1.8,1.2c0,0.7,0.5,1.1,1.3,1.1C343.6,509.7,344.4,509.2,344.4,508.5z"/>
					<path class="st3" d="M350.3,502.9h0.3l-2.6,8.3h-0.3L350.3,502.9z"/>
				</g>
			</g>
		</g>
	</g>
</g>
</svg>
