<?xml version="1.0" encoding="utf-8"?>
<!-- Generator: Adobe Illustrator 24.2.0, SVG Export Plug-In . SVG Version: 6.00 Build 0)  -->
<svg version="1.1" id="Layer_1" xmlns="http://www.w3.org/2000/svg" xmlns:xlink="http://www.w3.org/1999/xlink" x="0px" y="0px"
	 viewBox="0 0 415 897" style="enable-background:new 0 0 415 897;" xml:space="preserve">
<style type="text/css">
	.st0{fill-rule:evenodd;clip-rule:evenodd;fill:#1F140F;}
	.st1{fill:#1F140F;}
	.st2{fill:#1D1D1B;}
	.st3{fill:#FAB900;}
	.st4{fill-rule:evenodd;clip-rule:evenodd;fill:#FAB900;}
	.st5{fill-rule:evenodd;clip-rule:evenodd;fill:#1D1D1B;}
	.st6{fill:#FFFFFF;}
</style>
<g id="Layer_2_1_">
	<g>
		<g>
			<g>
				<g>
					<path class="st0" d="M189.9,792.5c0.1-0.2,0.2-0.8,1.1-0.8c0.7,0,0.8,0.5,0.8,0.8v0.4c-0.9,0.2-2.2,0.4-2.7,0.6
						c-0.6,0.2-1.5,0.9-1.5,2c0,1,0.7,2.1,2.3,2.1c1,0,1.6-0.4,2.1-0.8v0.6h2c-0.2-0.2-0.2-0.3-0.2-1.1v-4c0-1.8-2.1-2-2.9-2
						c-0.8,0-1.6,0.1-2.3,0.6c-0.6,0.5-0.7,1.1-0.7,1.5L189.9,792.5L189.9,792.5z M191.8,794.2c0,0.7,0,1.3-0.7,1.8
						c-0.2,0.1-0.4,0.2-0.7,0.2c-0.5,0-0.8-0.4-0.8-0.7c0-0.5,0.5-0.7,0.9-0.9L191.8,794.2z"/>
					<path class="st0" d="M197.4,790.6h-2v6.9h2v-3.9c0-0.9,0.3-1,1.3-1.2l0.7-0.1v-1.8c-1.1,0.1-1.6,0.4-2,0.8V790.6L197.4,790.6z"
						/>
					<path class="st0" d="M204.7,799.9h2v-9.3h-1.9v0.6c-0.4-0.4-0.9-0.8-1.8-0.8c-1.6,0-3,1.3-3,3.7c0,2.5,1.5,3.5,2.9,3.5
						c0.9,0,1.5-0.5,1.8-0.6V799.9L204.7,799.9z M203.4,796.1c-0.8,0-1.4-0.9-1.4-2.1c0-1.9,1-2.2,1.4-2.2c0.8,0,1.4,0.7,1.4,2.1
						C204.8,795.5,204.1,796.1,203.4,796.1z"/>
					<path class="st0" d="M212.5,794.9c0,0.4,0,0.7-0.5,1c-0.3,0.2-0.6,0.2-0.7,0.2c-0.4,0-0.7-0.2-0.8-0.3
						c-0.2-0.2-0.2-0.5-0.2-0.8v-4.3h-2.1v4.3c0,1.1,0.1,1.5,0.4,2c0.5,0.7,1.3,0.7,1.8,0.7s0.9-0.1,1.3-0.3
						c0.4-0.2,0.5-0.3,0.7-0.5v0.7h2v-6.9h-2L212.5,794.9L212.5,794.9z"/>
					<path class="st0" d="M216.3,797.5h2v-6.9h-2V797.5z"/>
					<path class="st0" d="M222.1,792.5c0.1-0.2,0.2-0.8,1.1-0.8c0.7,0,0.8,0.5,0.8,0.8v0.4c-0.9,0.2-2.2,0.4-2.7,0.6
						c-0.6,0.2-1.5,0.9-1.5,2c0,1,0.7,2.1,2.3,2.1c1,0,1.6-0.4,2.1-0.8v0.6h2c-0.2-0.2-0.2-0.3-0.2-1.1v-4c0-1.8-2.1-2-2.9-2
						c-0.8,0-1.6,0.1-2.3,0.6c-0.6,0.5-0.7,1.1-0.7,1.5L222.1,792.5L222.1,792.5z M223.9,794.2c0,0.7,0,1.3-0.7,1.8
						c-0.2,0.1-0.4,0.2-0.7,0.2c-0.5,0-0.8-0.4-0.8-0.7c0-0.5,0.5-0.7,0.9-0.9L223.9,794.2z"/>
				</g>
			</g>
		</g>
		<g>
			<path class="st1" d="M183.1,774.6v5.8h-0.8v-5.8h-1.4v-0.7h1.4v-1.2c0-0.7,0-0.9,0.1-1.2c0.1-0.4,0.4-0.8,1.4-0.8
				c0.3,0,0.5,0,0.8,0.1v0.8c-0.1,0-0.4-0.2-0.8-0.2c-0.3,0-0.4,0.1-0.5,0.2c-0.3,0.3-0.2,0.5-0.2,1.1v1.3h1.5v0.7L183.1,774.6
				L183.1,774.6z"/>
			<path class="st1" d="M189.9,780.3v-1.2c-0.1,0.2-0.2,0.4-0.3,0.5c-0.6,0.8-1.5,0.8-1.8,0.8c-0.1,0-0.4,0-0.8-0.1
				c-0.6-0.2-1-0.7-1.2-1.2c-0.1-0.5-0.2-1-0.2-2.1v-3.2h0.8v3.3c0,0.8,0,1.2,0.1,1.6c0.1,0.4,0.4,0.9,1.3,0.9c0.3,0,1,0,1.5-0.7
				s0.4-1.5,0.4-2.3v-2.8h0.8v6.4L189.9,780.3L189.9,780.3z"/>
			<path class="st1" d="M196.9,780.3V777c0-0.9,0-1.4-0.1-1.8c-0.1-0.3-0.4-0.5-0.5-0.5c-0.4-0.2-0.7-0.2-0.9-0.2
				c-0.1,0-0.5,0-0.9,0.2c-0.5,0.2-0.9,0.7-1,1.2c-0.1,0.3-0.1,0.9-0.1,1.6v2.8h-0.8v-6.4h0.8v1.2c0.1-0.2,0.1-0.4,0.5-0.7
				c0.3-0.2,0.7-0.6,1.6-0.6c1.2,0,1.8,0.7,2,1.1c0.2,0.5,0.2,1,0.2,2.1v3.3L196.9,780.3L196.9,780.3z"/>
			<path class="st1" d="M203.8,780.3v-1.2c-0.3,0.8-1.1,1.3-2,1.3c-0.2,0-0.8,0-1.3-0.4c-1.3-0.8-1.3-2.6-1.3-3s0.1-2.1,1.4-3
				c0.2-0.2,0.7-0.4,1.4-0.4c0.5,0,1.1,0.2,1.4,0.5c0.3,0.3,0.4,0.5,0.4,0.7v-4.1h0.8v9.5L203.8,780.3L203.8,780.3z M203,774.8
				c-0.2-0.1-0.5-0.3-1.1-0.3c-0.2,0-0.5,0-0.8,0.2c-0.6,0.3-1.1,1-1.1,2.4c0,0.2,0,2.6,1.9,2.6c0.5,0,0.9-0.1,1.2-0.5
				c0.5-0.5,0.6-1.4,0.6-2.1C203.8,775.9,203.6,775.2,203,774.8z"/>
			<path class="st1" d="M210.7,780c-0.3-0.3-0.3-0.5-0.3-0.8c-0.1,0.2-0.2,0.4-0.3,0.5c-0.3,0.3-0.9,0.8-1.9,0.8
				c-0.8,0-1.3-0.3-1.5-0.5s-0.5-0.6-0.5-1.2c0-0.2,0-0.6,0.4-1c0.5-0.6,1.3-0.8,2-1c0.4-0.1,0.8-0.2,1.2-0.3l0.8-0.2V776
				c0-0.2,0-0.4-0.1-0.6c-0.1-0.4-0.5-0.9-1.5-0.8c-0.8,0-1.2,0.2-1.5,0.5c-0.2,0.3-0.2,0.7-0.2,1l-0.9-0.2c0-0.1,0.1-0.7,0.4-1.1
				c0.3-0.5,0.9-1,2.1-1c0.6,0,1.5,0.2,2,0.7c0.4,0.5,0.4,1.2,0.4,1.8v2.1c0,0.6,0,1,0.2,1.2s0.5,0.2,0.7,0.2v0.6
				C211.4,780.3,210.9,780.3,210.7,780z M210.4,776.9L210,777c-1.2,0.3-2.3,0.6-2.7,0.9c-0.2,0.2-0.4,0.5-0.4,0.8
				c0,0.2,0.1,0.4,0.1,0.5c0.3,0.6,1,0.6,1.2,0.6c0.8,0,1.7-0.5,2.1-1.2c0.1-0.3,0.2-0.5,0.2-1.1v-0.6H210.4z"/>
			<path class="st1" d="M217.5,779.9c-0.3,0.3-0.9,0.6-1.9,0.6c-0.4,0-1.2,0-2-0.7c-1-0.9-1-2.2-1-2.6c0-0.5,0.1-0.9,0.2-1.3
				c0.4-1.3,1.5-2.1,2.9-2.1c1,0,1.6,0.4,1.9,0.7c0.4,0.4,0.5,0.7,0.6,0.9l-0.7,0.2c-0.3-0.7-1-1.1-1.7-1.1c-0.2,0-0.8,0-1.3,0.5
				c-0.8,0.7-0.9,1.9-0.9,2.2c0,0.2,0,1.3,0.6,2c0.1,0.1,0.3,0.3,0.6,0.5c0.2,0.1,0.4,0.2,0.9,0.2c0.8,0,1.4-0.4,1.7-1.1l0.8,0.2
				C218.1,779.3,217.8,779.6,217.5,779.9z"/>
			<path class="st1" d="M219.5,772.4v-1.2h0.8v1.2H219.5z M219.5,780.3v-6.4h0.8v6.4H219.5z"/>
			<path class="st1" d="M227.4,778.4c-0.4,1.3-1.4,2.1-2.8,2.1c-0.4,0-1.5-0.1-2.2-1.1c-0.3-0.4-0.7-1.1-0.7-2.2
				c0-0.3,0-0.9,0.3-1.6c0.6-1.6,2-1.8,2.6-1.8c0.7,0,1.4,0.2,1.9,0.7c0.7,0.7,1,1.7,1,2.6C227.6,777.3,227.6,777.8,227.4,778.4z
				 M224.7,774.4c-0.2,0-0.7,0-1.2,0.4s-0.9,1.1-0.9,2.4c0,0.2,0,1.5,0.9,2.2c0.2,0.2,0.6,0.4,1.2,0.4c0.9,0,2.1-0.6,2.1-2.6
				C226.8,775.1,225.7,774.4,224.7,774.4z M224.8,772.8h-0.7l1.5-1.9h1.5L224.8,772.8z"/>
			<path class="st1" d="M233.3,780.3V777c0-0.9,0-1.4-0.1-1.8c-0.1-0.3-0.4-0.5-0.5-0.5c-0.4-0.2-0.7-0.2-0.9-0.2
				c-0.1,0-0.5,0-0.9,0.2c-0.5,0.2-0.9,0.7-1,1.2c-0.1,0.3-0.1,0.9-0.1,1.6v2.8H229v-6.4h0.8v1.2c0.1-0.2,0.1-0.4,0.5-0.7
				c0.3-0.2,0.7-0.6,1.6-0.6c1.2,0,1.8,0.7,2,1.1c0.2,0.5,0.2,1,0.2,2.1v3.3L233.3,780.3L233.3,780.3z"/>
		</g>
	</g>
	<g>
		<path class="st2" d="M52.6,120h1.7l2.4,7.1h-1.4l-0.6-1.8H52l-0.6,1.8h-1.2L52.6,120z M52.3,124.4h2.1l-1-3.3L52.3,124.4z"/>
		<path class="st2" d="M57.1,124.6L57.1,124.6c0-1.7,1.2-2.8,2.6-2.8c1.2,0,2.2,0.5,2.4,2H61c-0.1-0.7-0.6-1-1.2-1
			c-0.8,0-1.4,0.6-1.4,1.7v0.1c0,1.1,0.6,1.7,1.4,1.7c0.6,0,1.2-0.4,1.3-1.1h1.1c-0.1,1.2-1,2-2.4,2
			C58.3,127.3,57.1,126.3,57.1,124.6z"/>
		<path class="st2" d="M62.9,124.6L62.9,124.6c0-1.7,1.1-2.8,2.6-2.8c1.3,0,2.5,0.8,2.5,2.6v0.4h-3.8c0,1,0.5,1.5,1.4,1.5
			c0.7,0,1.1-0.3,1.2-0.8H68c-0.2,1.1-1.1,1.7-2.4,1.7C64,127.3,62.9,126.3,62.9,124.6z M66.8,124c-0.1-0.9-0.5-1.3-1.3-1.3
			c-0.7,0-1.2,0.5-1.3,1.3H66.8z"/>
		<path class="st2" d="M69,122h1.2v1c0.3-0.7,0.8-1,1.7-1.1v1.1c-1.1,0-1.7,0.3-1.7,1.5v2.7H69V122z"/>
		<path class="st2" d="M72.6,124.6L72.6,124.6c0-1.7,1.2-2.8,2.6-2.8c1.2,0,2.2,0.5,2.4,2h-1.2c-0.1-0.7-0.6-1-1.2-1
			c-0.8,0-1.4,0.6-1.4,1.7v0.1c0,1.1,0.6,1.7,1.4,1.7c0.6,0,1.2-0.4,1.3-1.1h1.1c-0.1,1.2-1,2-2.4,2
			C73.7,127.3,72.6,126.3,72.6,124.6z"/>
		<path class="st2" d="M78.3,125.7c0-1.2,1.2-1.7,2.7-1.7h0.6v-0.3c0-0.7-0.2-1-0.9-1c-0.6,0-0.9,0.3-1,0.8h-1.2
			c0.1-1.2,1.1-1.7,2.2-1.7s2.1,0.5,2.1,1.9v3.4h-1.2v-0.6c-0.3,0.4-0.8,0.7-1.6,0.7C79.1,127.3,78.3,126.8,78.3,125.7z M81.6,125.4
			v-0.5H81c-0.9,0-1.5,0.2-1.5,0.8c0,0.4,0.2,0.7,0.8,0.7C81.1,126.4,81.6,126,81.6,125.4z"/>
		<path class="st2" d="M86.3,124.7L86.3,124.7c0-1.7,1-2.8,2.3-2.8c0.8,0,1.4,0.4,1.7,0.9v-3.2h1.2v7.6h-1.2v-0.9
			c-0.3,0.5-0.9,1-1.7,1C87.2,127.3,86.3,126.4,86.3,124.7z M90.3,124.6L90.3,124.6c0-1.2-0.5-1.8-1.4-1.8s-1.4,0.6-1.4,1.7v0.1
			c0,1.1,0.6,1.7,1.4,1.7C89.7,126.3,90.3,125.8,90.3,124.6z"/>
		<path class="st2" d="M92.6,124.6L92.6,124.6c0-1.7,1.1-2.8,2.6-2.8c1.3,0,2.5,0.8,2.5,2.6v0.4h-3.8c0,1,0.5,1.5,1.4,1.5
			c0.7,0,1.1-0.3,1.2-0.8h1.2c-0.2,1.1-1.1,1.7-2.4,1.7C93.7,127.3,92.6,126.3,92.6,124.6z M96.4,124c-0.1-0.9-0.5-1.3-1.3-1.3
			c-0.7,0-1.2,0.5-1.3,1.3H96.4z"/>
		<path class="st2" d="M98.8,119.5h1.2v7.6h-1.2V119.5z"/>
		<path class="st2" d="M58,132h4.4v1.1h-3.1v2.1h2.4v1h-2.4v2.9H58V132z"/>
		<path class="st2" d="M62.9,136.6L62.9,136.6c0-1.7,1.1-2.8,2.6-2.8c1.3,0,2.5,0.8,2.5,2.6v0.4h-3.8c0,1,0.5,1.5,1.4,1.5
			c0.7,0,1.1-0.3,1.2-0.8H68c-0.2,1.1-1.1,1.7-2.4,1.7C64,139.3,62.9,138.3,62.9,136.6z M66.8,136c-0.1-0.9-0.5-1.3-1.3-1.3
			c-0.7,0-1.2,0.5-1.3,1.3H66.8z"/>
		<path class="st2" d="M68.7,137.6h1.1c0.1,0.5,0.3,0.8,1,0.8c0.6,0,0.9-0.2,0.9-0.7c0-0.4-0.3-0.6-1.1-0.7
			c-1.4-0.2-1.9-0.6-1.9-1.6s1-1.6,2-1.6c1.1,0,1.9,0.4,2,1.6h-1.1c-0.1-0.5-0.4-0.7-0.9-0.7s-0.8,0.2-0.8,0.6
			c0,0.4,0.2,0.5,1.1,0.7c1.2,0.2,2,0.5,2,1.6s-0.8,1.7-2.1,1.7C69.5,139.3,68.7,138.7,68.7,137.6z"/>
		<path class="st2" d="M74.2,137.7v-2.9h-0.7V134h0.7v-1.1h1.2v1.1h1.1v0.9h-1.1v2.7c0,0.5,0.2,0.7,0.6,0.7c0.2,0,0.4,0,0.6-0.1v1
			c-0.2,0.1-0.4,0.1-0.8,0.1C74.8,139.3,74.2,138.7,74.2,137.7z"/>
		<path class="st2" d="M77.6,132.4c0-0.4,0.3-0.7,0.7-0.7s0.7,0.3,0.7,0.7s-0.3,0.7-0.7,0.7S77.6,132.8,77.6,132.4z M77.7,134H79
			v5.2h-1.2V134H77.7z"/>
		<path class="st2" d="M79.9,134h1.3l1.4,4l1.3-4h1.2l-1.9,5.2h-1.4L79.9,134z"/>
		<path class="st2" d="M85.5,137.7c0-1.2,1.2-1.7,2.7-1.7h0.6v-0.3c0-0.7-0.2-1-0.9-1c-0.6,0-0.9,0.3-1,0.8h-1.2
			c0.1-1.2,1.1-1.7,2.2-1.7s2.1,0.5,2.1,1.9v3.4h-1.2v-0.6c-0.3,0.4-0.8,0.7-1.6,0.7C86.3,139.3,85.5,138.8,85.5,137.7z M88.8,137.4
			v-0.5h-0.6c-0.9,0-1.5,0.2-1.5,0.8c0,0.4,0.2,0.7,0.8,0.7C88.3,138.4,88.8,138,88.8,137.4z"/>
		<path class="st2" d="M91.5,131.5h1.2v7.6h-1.2V131.5z"/>
	</g>
	<g>
		<path class="st2" d="M315.5,120.3h4.5v1h-3.1v2h2.5v1h-2.5v2.1h3.3v1h-4.6L315.5,120.3L315.5,120.3z"/>
		<path class="st2" d="M320.9,125L320.9,125c0-1.7,1-2.8,2.3-2.8c0.8,0,1.4,0.4,1.7,0.9v-3.2h1.2v7.6h-1.2v-0.9
			c-0.3,0.5-0.9,1-1.7,1C321.9,127.6,320.9,126.7,320.9,125z M325,124.9L325,124.9c0-1.2-0.5-1.8-1.4-1.8s-1.4,0.6-1.4,1.7v0.1
			c0,1.1,0.6,1.7,1.4,1.7C324.3,126.6,325,126.1,325,124.9z"/>
		<path class="st2" d="M327.5,120.7c0-0.4,0.3-0.7,0.7-0.7s0.7,0.3,0.7,0.7c0,0.4-0.3,0.7-0.7,0.7S327.5,121.1,327.5,120.7z
			 M327.6,122.3h1.2v5.2h-1.2V122.3z"/>
		<path class="st2" d="M329.9,124.9L329.9,124.9c0-1.7,1.2-2.8,2.6-2.8c1.2,0,2.2,0.5,2.4,2h-1.2c-0.1-0.7-0.6-1-1.2-1
			c-0.8,0-1.4,0.6-1.4,1.7v0.1c0,1.1,0.6,1.7,1.4,1.7c0.6,0,1.2-0.4,1.3-1.1h1.1c-0.1,1.2-1,2-2.4,2
			C331.1,127.6,329.9,126.6,329.9,124.9z"/>
		<path class="st2" d="M335.9,120.7c0-0.4,0.3-0.7,0.7-0.7s0.7,0.3,0.7,0.7c0,0.4-0.3,0.7-0.7,0.7S335.9,121.1,335.9,120.7z
			 M336.1,122.3h1.2v5.2h-1.2V122.3z"/>
		<path class="st2" d="M338.4,124.9L338.4,124.9c0-1.7,1.1-2.8,2.7-2.8c1.5,0,2.7,1.1,2.7,2.7v0.1c0,1.6-1.1,2.7-2.7,2.7
			S338.4,126.5,338.4,124.9z M342.5,124.9L342.5,124.9c0-1.1-0.5-1.8-1.4-1.8s-1.4,0.6-1.4,1.7v0.1c0,1.1,0.5,1.7,1.4,1.7
			C342,126.7,342.5,126,342.5,124.9z"/>
		<path class="st2" d="M344.8,122.3h1.2v0.8c0.2-0.5,0.8-0.9,1.7-0.9c1,0,1.8,0.6,1.8,2v3.3h-1.2v-3.2c0-0.8-0.3-1.1-1-1.1
			s-1.2,0.4-1.2,1.2v3.1h-1.2L344.8,122.3L344.8,122.3z"/>
		<path class="st2" d="M350.6,124.9L350.6,124.9c0-1.7,1.1-2.8,2.6-2.8c1.3,0,2.5,0.8,2.5,2.6v0.4h-3.8c0,1,0.5,1.5,1.4,1.5
			c0.7,0,1.1-0.3,1.2-0.8h1.2c-0.2,1.1-1.1,1.7-2.4,1.7C351.7,127.6,350.6,126.6,350.6,124.9z M354.4,124.3
			c-0.1-0.9-0.5-1.3-1.3-1.3c-0.7,0-1.2,0.5-1.3,1.3H354.4z"/>
		<path class="st2" d="M356.4,125.9h1.1c0.1,0.5,0.3,0.8,1,0.8c0.6,0,0.9-0.2,0.9-0.7c0-0.4-0.3-0.6-1.1-0.7
			c-1.4-0.2-1.9-0.6-1.9-1.6s1-1.6,2-1.6c1.1,0,1.9,0.4,2,1.6h-1.1c-0.1-0.5-0.4-0.7-0.9-0.7s-0.8,0.2-0.8,0.6s0.2,0.5,1.1,0.7
			c1.2,0.2,2,0.5,2,1.6s-0.8,1.7-2.1,1.7C357.2,127.6,356.4,127,356.4,125.9z"/>
		<path class="st2" d="M321.2,134.3h1.2v0.8c0.3-0.5,0.9-0.9,1.7-0.9c1.3,0,2.3,1,2.3,2.7v0.1c0,1.7-1,2.7-2.3,2.7
			c-0.8,0-1.4-0.4-1.7-0.9v2.6h-1.2V134.3z M325.2,136.9L325.2,136.9c0-1.2-0.6-1.8-1.4-1.8s-1.4,0.6-1.4,1.7v0.1
			c0,1.2,0.6,1.7,1.4,1.7C324.7,138.6,325.2,138,325.2,136.9z"/>
		<path class="st2" d="M327.5,134.3h1.2v1c0.3-0.7,0.8-1,1.7-1.1v1.1c-1.1,0-1.7,0.3-1.7,1.5v2.7h-1.2V134.3z"/>
		<path class="st2" d="M331.1,136.9L331.1,136.9c0-1.7,1.1-2.8,2.6-2.8c1.3,0,2.5,0.8,2.5,2.6v0.4h-3.8c0,1,0.5,1.5,1.4,1.5
			c0.7,0,1.1-0.3,1.2-0.8h1.2c-0.2,1.1-1.1,1.7-2.4,1.7C332.2,139.6,331.1,138.6,331.1,136.9z M334.9,136.3
			c-0.1-0.9-0.5-1.3-1.3-1.3c-0.7,0-1.2,0.5-1.3,1.3H334.9z"/>
		<path class="st2" d="M336.6,134.3h1.3l1.4,4l1.3-4h1.2l-1.9,5.2h-1.4L336.6,134.3z"/>
		<path class="st2" d="M342.6,132.7c0-0.4,0.3-0.7,0.7-0.7c0.4,0,0.7,0.3,0.7,0.7s-0.3,0.7-0.7,0.7S342.6,133.1,342.6,132.7z
			 M342.7,134.3h1.2v5.2h-1.2V134.3z"/>
		<path class="st2" d="M345,138c0-1.2,1.2-1.7,2.7-1.7h0.6V136c0-0.7-0.2-1-0.9-1c-0.6,0-0.9,0.3-1,0.8h-1.2
			c0.1-1.2,1.1-1.7,2.2-1.7c1.2,0,2.1,0.5,2.1,1.9v3.4h-1.2v-0.6c-0.3,0.4-0.8,0.7-1.6,0.7C345.8,139.6,345,139.1,345,138z
			 M348.3,137.7v-0.5h-0.6c-0.9,0-1.5,0.2-1.5,0.8c0,0.4,0.2,0.7,0.8,0.7C347.8,138.7,348.3,138.3,348.3,137.7z"/>
		<path class="st2" d="M350.5,137.9h1.1c0.1,0.5,0.3,0.8,1,0.8s0.9-0.2,0.9-0.7c0-0.4-0.3-0.6-1.1-0.7c-1.4-0.2-1.9-0.6-1.9-1.6
			s1-1.6,2-1.6c1.1,0,1.9,0.4,2,1.6h-1.1c-0.1-0.5-0.4-0.7-0.9-0.7s-0.8,0.2-0.8,0.6c0,0.4,0.2,0.5,1.1,0.7c1.2,0.2,2,0.5,2,1.6
			s-0.8,1.7-2.1,1.7S350.6,139,350.5,137.9z"/>
	</g>
	<g>
		<path class="st3" d="M196.7,144.1v6.1c7,0,12.8-5.7,12.8-12.8c0-3.9-1.7-7.4-4.5-9.7c2.8-2.3,4.5-5.8,4.5-9.7c0-0.5,0-1-0.1-1.5
			h-6.2c0.1,0.5,0.2,1,0.2,1.5c0,3.7-3,6.6-6.6,6.6v6.2c3.7,0,6.6,3,6.6,6.6C203.3,141.1,200.3,144.1,196.7,144.1L196.7,144.1z"/>
		<path class="st4" d="M217.2,128.5c0,2.4,1.2,4.5,3.1,5.7l3.6-3.6l3.6,3.6c1.9-1.2,3.1-3.3,3.1-5.6c0-3.7-3-6.7-6.7-6.7
			C220.2,121.8,217.2,124.8,217.2,128.5z M231.2,146.5l-5.3-5.3c-0.6,0.1-1.3,0.2-2,0.2c-7.1,0-12.9-5.8-12.9-12.9
			c0-7.1,5.8-12.9,12.9-12.9c7.1,0,12.9,5.8,12.9,12.9c0,4.1-1.9,7.7-4.8,10.1l3.6,3.6L231.2,146.5z"/>
		<polygon class="st5" points="177.2,116.5 177.2,140.5 183.2,140.5 183.2,130.9 193.4,130.9 193.4,126.2 183.2,126.2 183.2,121.2 
			193.4,121.2 193.4,116.5 		"/>
	</g>
</g>
<g id="Layer_3">
	<g>
		<path d="M200.7,245h1.4l1.9,5.8l1.9-5.8h1.2l-2.4,7.1h-1.5L200.7,245z"/>
		<path d="M208.2,245h1.3v7.1h-1.3V245z"/>
		<path d="M211.3,245h1.3v7.1h-1.3V245z"/>
		<path d="M172.7,257h4.4v1.1H174v2.1h2.4v1H174v2.9h-1.3L172.7,257L172.7,257z"/>
		<path d="M177.6,261.6L177.6,261.6c0-1.7,1.1-2.8,2.6-2.8c1.3,0,2.5,0.8,2.5,2.6v0.4h-3.8c0,1,0.5,1.5,1.4,1.5
			c0.7,0,1.1-0.3,1.2-0.8h1.2c-0.2,1.1-1.1,1.7-2.4,1.7C178.7,264.2,177.6,263.2,177.6,261.6z M181.5,261c-0.1-0.9-0.5-1.3-1.3-1.3
			c-0.7,0-1.2,0.5-1.3,1.3H181.5z"/>
		<path d="M183.4,262.5h1.1c0.1,0.5,0.3,0.8,1,0.8c0.6,0,0.9-0.2,0.9-0.7c0-0.4-0.3-0.6-1.1-0.7c-1.4-0.2-1.9-0.6-1.9-1.6
			s1-1.6,2-1.6c1.1,0,1.9,0.4,2,1.6h-1.1c-0.1-0.5-0.4-0.7-0.9-0.7s-0.8,0.2-0.8,0.6s0.2,0.5,1.1,0.7c1.2,0.2,2,0.5,2,1.6
			s-0.8,1.7-2.1,1.7C184.3,264.2,183.5,263.6,183.4,262.5z"/>
		<path d="M189,262.7v-2.9h-0.7v-0.9h0.7v-1.1h1.2v1.1h1.1v0.9h-1.1v2.7c0,0.5,0.2,0.7,0.6,0.7c0.2,0,0.4,0,0.6-0.1v1
			c-0.2,0.1-0.4,0.1-0.8,0.1C189.5,264.2,189,263.7,189,262.7z"/>
		<path d="M192.3,257.4c0-0.4,0.3-0.7,0.7-0.7s0.7,0.3,0.7,0.7c0,0.4-0.3,0.7-0.7,0.7S192.3,257.8,192.3,257.4z M192.5,258.9h1.2
			v5.2h-1.2V258.9z"/>
		<path d="M194.6,258.9h1.3l1.4,4l1.3-4h1.2l-1.9,5.2h-1.4L194.6,258.9z"/>
		<path d="M200.2,262.7c0-1.2,1.2-1.7,2.7-1.7h0.6v-0.3c0-0.7-0.2-1-0.9-1c-0.6,0-0.9,0.3-1,0.8h-1.2c0.1-1.2,1.1-1.7,2.2-1.7
			s2.1,0.5,2.1,1.9v3.4h-1.2v-0.6c-0.3,0.4-0.8,0.7-1.6,0.7C201,264.2,200.2,263.8,200.2,262.7z M203.6,262.3v-0.5H203
			c-0.9,0-1.5,0.2-1.5,0.8c0,0.4,0.2,0.7,0.8,0.7C203,263.4,203.6,263,203.6,262.3z"/>
		<path d="M206.2,256.5h1.2v7.6h-1.2V256.5z"/>
		<path d="M213.2,257h1.7l2.4,7.1h-1.4l-0.6-1.8h-2.7l-0.6,1.8h-1.2L213.2,257z M212.9,261.4h2.1l-1-3.3L212.9,261.4z"/>
		<path d="M218.3,258.9h1.2v1c0.3-0.7,0.8-1,1.7-1.1v1.1c-1.1,0-1.7,0.3-1.7,1.5v2.7h-1.2V258.9z"/>
		<path d="M225.8,263.3c-0.3,0.5-0.9,1-1.7,1c-1.3,0-2.3-0.9-2.3-2.6v-0.1c0-1.7,1-2.7,2.3-2.7c0.8,0,1.4,0.4,1.7,0.9V259h1.2v7
			h-1.2V263.3z M225.9,261.6L225.9,261.6c0-1.2-0.5-1.8-1.4-1.8s-1.4,0.6-1.4,1.7v0.1c0,1.1,0.6,1.7,1.4,1.7
			C225.3,263.3,225.9,262.7,225.9,261.6z"/>
		<path d="M228.4,262.3V259h1.2v3.2c0,0.8,0.3,1.1,1,1.1c0.6,0,1.2-0.4,1.2-1.2V259h1.2v5.2h-1.2v-0.8c-0.3,0.5-0.8,0.9-1.7,0.9
			C229.2,264.2,228.4,263.6,228.4,262.3z"/>
		<path d="M234.4,257.4c0-0.4,0.3-0.7,0.7-0.7s0.7,0.3,0.7,0.7c0,0.4-0.3,0.7-0.7,0.7C234.8,258.1,234.4,257.8,234.4,257.4z
			 M234.6,258.9h1.2v5.2h-1.2V258.9z"/>
		<path d="M236.9,262.7c0-1.2,1.2-1.7,2.7-1.7h0.6v-0.3c0-0.7-0.2-1-1-1c-0.6,0-0.9,0.3-1,0.8H237c0.1-1.2,1.1-1.7,2.2-1.7
			c1.2,0,2.1,0.5,2.1,1.9v3.4h-1.2v-0.6c-0.3,0.4-0.8,0.7-1.6,0.7C237.7,264.2,236.9,263.8,236.9,262.7z M240.2,262.3v-0.5h-0.6
			c-0.9,0-1.5,0.2-1.5,0.8c0,0.4,0.2,0.7,0.8,0.7C239.7,263.4,240.2,263,240.2,262.3z"/>
	</g>
	<g>
		<path d="M185.6,282.5l3.5-3.7c1-1.1,1.7-1.9,1.7-2.8c0-0.7-0.4-1.1-1.1-1.1s-1.2,0.4-1.3,1.6h-2.6c0.1-2.5,1.6-3.8,4-3.8
			c2.5,0,3.8,1.3,3.8,3.2c0,1.4-0.8,2.4-1.9,3.5l-1.4,1.4h3.4v2.1h-8.1L185.6,282.5L185.6,282.5z"/>
		<path d="M196.4,275.7l-1.9,1.2v-2.4l2.3-1.6h2.5v10h-2.9L196.4,275.7L196.4,275.7z"/>
		<path d="M203.8,278h3.9v1.9h-3.9V278z"/>
		<path d="M211.3,282.5l3.5-3.7c1-1.1,1.7-1.9,1.7-2.8c0-0.7-0.4-1.1-1.1-1.1c-0.7,0-1.2,0.4-1.3,1.6h-2.6c0.1-2.5,1.6-3.8,4-3.8
			c2.5,0,3.8,1.3,3.8,3.2c0,1.4-0.8,2.4-1.9,3.5l-1.4,1.4h3.4v2.1h-8.1L211.3,282.5L211.3,282.5z"/>
		<path d="M220,282.5l3.5-3.7c1-1.1,1.7-1.9,1.7-2.8c0-0.7-0.4-1.1-1.1-1.1c-0.7,0-1.2,0.4-1.3,1.6h-2.6c0.1-2.5,1.6-3.8,4-3.8
			c2.5,0,3.8,1.3,3.8,3.2c0,1.4-0.8,2.4-1.9,3.5l-1.4,1.4h3.4v2.1H220V282.5z"/>
		<path d="M196.2,293.3v-0.1c0-2.4,1.8-3.8,4-3.8c2.3,0,4,1.4,4,3.8v0.1c0,2.4-1.8,3.8-4,3.8S196.2,295.7,196.2,293.3z M201.7,293.3
			v-0.1c0-1.2-0.5-1.9-1.4-1.9s-1.5,0.7-1.5,1.9v0.1c0,1.3,0.5,1.9,1.5,1.9C201.2,295.2,201.7,294.5,201.7,293.3z"/>
		<path d="M204.9,293.3v-0.1c0-2.4,1.8-3.8,3.9-3.8c1.8,0,3.4,0.8,3.6,3H210c-0.1-0.7-0.4-1.1-1.2-1.1c-0.9,0-1.4,0.6-1.4,1.9v0.1
			c0,1.3,0.5,1.9,1.4,1.9c0.7,0,1.2-0.4,1.3-1.2h2.3c-0.1,1.8-1.3,3.1-3.7,3.1C206.6,297.1,204.9,295.8,204.9,293.3z"/>
		<path d="M213.8,294.6v-3.3h-0.9v-1.7h0.9v-1.5h2.5v1.5h1.4v1.7h-1.4v3c0,0.5,0.3,0.8,0.7,0.8c0.3,0,0.5,0,0.7-0.1v1.9
			c-0.3,0.1-0.8,0.2-1.4,0.2C214.7,297.1,213.8,296.3,213.8,294.6z"/>
	</g>
</g>
<circle class="st3" cx="271" cy="716.2" r="18.7"/>
<circle class="st2" cx="143" cy="716.2" r="18.7"/>
<g>
	<path class="st6" d="M126.9,718h1.6c0.1,0.7,0.5,1.2,1.5,1.2c0.9,0,1.3-0.3,1.3-0.9c0-0.6-0.5-0.8-1.6-1c-1.9-0.3-2.6-0.9-2.6-2.2
		c0-1.5,1.4-2.2,2.7-2.2c1.5,0,2.7,0.6,2.9,2.2h-1.6c-0.1-0.7-0.5-1-1.3-1c-0.7,0-1.2,0.3-1.2,0.9c0,0.5,0.3,0.7,1.5,0.9
		c1.7,0.3,2.7,0.7,2.7,2.2c0,1.5-1,2.3-2.9,2.3C128,720.4,126.9,719.6,126.9,718z"/>
	<path class="st6" d="M133.8,718.3c0-1.7,1.7-2.3,3.8-2.3h0.9v-0.4c0-1-0.3-1.5-1.3-1.5c-0.9,0-1.3,0.4-1.4,1.1h-1.6
		c0.1-1.7,1.5-2.4,3.1-2.4s2.9,0.7,2.9,2.7v4.8h-1.7v-0.9c-0.5,0.6-1.1,1-2.2,1C134.9,720.4,133.8,719.8,133.8,718.3z M138.5,717.7
		V717h-0.9c-1.3,0-2.1,0.3-2.1,1.2c0,0.6,0.3,1,1.2,1C137.7,719.2,138.5,718.7,138.5,717.7z"/>
	<path class="st6" d="M142.2,709.6h1.7v10.7h-1.7V709.6z"/>
	<path class="st6" d="M145.4,718.3c0-1.7,1.7-2.3,3.8-2.3h0.9v-0.4c0-1-0.3-1.5-1.3-1.5c-0.9,0-1.3,0.4-1.4,1.1h-1.6
		c0.1-1.7,1.5-2.4,3.1-2.4c1.6,0,2.9,0.7,2.9,2.7v4.8h-1.7v-0.9c-0.5,0.6-1.1,1-2.2,1C146.5,720.4,145.4,719.8,145.4,718.3z
		 M150,717.7V717h-0.9c-1.3,0-2.1,0.3-2.1,1.2c0,0.6,0.3,1,1.2,1C149.3,719.2,150,718.7,150,717.7z"/>
	<path class="st6" d="M153.1,718h1.6c0.1,0.7,0.5,1.2,1.5,1.2c0.9,0,1.3-0.3,1.3-0.9c0-0.6-0.5-0.8-1.6-1c-1.9-0.3-2.6-0.9-2.6-2.2
		c0-1.5,1.4-2.2,2.7-2.2c1.5,0,2.7,0.6,2.9,2.2h-1.6c-0.1-0.7-0.5-1-1.3-1c-0.7,0-1.2,0.3-1.2,0.9c0,0.5,0.3,0.7,1.5,0.9
		c1.7,0.3,2.7,0.7,2.7,2.2c0,1.5-1,2.3-2.9,2.3C154.3,720.4,153.2,719.6,153.1,718z"/>
</g>
<g>
	<path d="M239.3,713h1.7v1.2c0.4-0.7,1.3-1.3,2.4-1.3c1.8,0,3.2,1.4,3.2,3.7v0.1c0,2.4-1.4,3.8-3.2,3.8c-1.2,0-2-0.6-2.4-1.3v3.7
		h-1.7V713z M244.9,716.7v-0.1c0-1.6-0.8-2.4-1.9-2.4c-1.2,0-2,0.8-2,2.4v0.1c0,1.6,0.8,2.4,2,2.4
		C244.2,719.1,244.9,718.2,244.9,716.7z"/>
	<path d="M248.1,713h1.7v1.4c0.5-0.9,1.1-1.5,2.4-1.5v1.6c-1.5,0-2.4,0.5-2.4,2v3.8h-1.7V713z"/>
	<path d="M253,716.7v-0.1c0-2.3,1.6-3.8,3.8-3.8c2.1,0,3.8,1.5,3.8,3.7v0.1c0,2.3-1.6,3.8-3.8,3.8S253,718.9,253,716.7z
		 M258.8,716.7L258.8,716.7c0-1.6-0.8-2.5-2-2.5s-2,0.9-2,2.4v0.1c0,1.5,0.7,2.4,2,2.4C258.1,719.1,258.8,718.2,258.8,716.7z"/>
	<path d="M261.7,720.5h1.7c0.1,0.7,0.7,1.1,1.8,1.1c1.3,0,2-0.7,2-2v-1.1c-0.4,0.7-1.3,1.4-2.4,1.4c-1.8,0-3.2-1.4-3.2-3.5v-0.1
		c0-2.1,1.4-3.6,3.3-3.6c1.2,0,1.9,0.5,2.4,1.3V713h1.7v6.8c0,2.2-1.5,3.2-3.7,3.2C262.9,723,261.9,721.9,261.7,720.5z M267.3,716.4
		L267.3,716.4c0-1.5-0.8-2.3-2-2.3c-1.3,0-2,0.9-2,2.2v0.1c0,1.4,0.8,2.2,1.9,2.2C266.4,718.7,267.3,717.8,267.3,716.4z"/>
	<path d="M271,713h1.7v1.4c0.5-0.9,1.1-1.5,2.4-1.5v1.6c-1.5,0-2.4,0.5-2.4,2v3.8H271V713z"/>
	<path d="M275.8,718.3c0-1.7,1.7-2.3,3.8-2.3h0.9v-0.4c0-1-0.3-1.5-1.3-1.5c-0.9,0-1.3,0.4-1.4,1.1h-1.6c0.1-1.7,1.5-2.4,3.1-2.4
		c1.6,0,2.9,0.7,2.9,2.7v4.8h-1.7v-0.9c-0.5,0.6-1.1,1-2.2,1C276.9,720.4,275.8,719.8,275.8,718.3z M280.5,717.7V717h-0.9
		c-1.3,0-2.1,0.3-2.1,1.2c0,0.6,0.3,1,1.2,1C279.7,719.2,280.5,718.7,280.5,717.7z"/>
	<path d="M284.1,713h1.7v1.1c0.3-0.7,1.1-1.3,2.2-1.3c1,0,1.7,0.4,2.1,1.3c0.6-0.9,1.6-1.3,2.5-1.3c1.3,0,2.4,0.8,2.4,2.8v4.6h-1.7
		v-4.5c0-1.1-0.5-1.5-1.3-1.5c-0.8,0-1.6,0.6-1.6,1.7v4.4h-1.7v-4.5c0-1.1-0.5-1.5-1.3-1.5c-0.8,0-1.6,0.6-1.6,1.7v4.4h-1.7V713z"/>
	<path d="M296.5,718.3c0-1.7,1.7-2.3,3.8-2.3h0.9v-0.4c0-1-0.3-1.5-1.3-1.5c-0.9,0-1.3,0.4-1.4,1.1h-1.6c0.1-1.7,1.5-2.4,3.1-2.4
		c1.6,0,2.9,0.7,2.9,2.7v4.8h-1.7v-0.9c-0.5,0.6-1.1,1-2.2,1C297.6,720.4,296.5,719.8,296.5,718.3z M301.1,717.7V717h-0.9
		c-1.3,0-2.1,0.3-2.1,1.2c0,0.6,0.3,1,1.2,1C300.4,719.2,301.1,718.7,301.1,717.7z"/>
</g>
</svg>
