<?xml version="1.0" encoding="utf-8"?>
<!-- Generator: Adobe Illustrator 24.2.0, SVG Export Plug-In . SVG Version: 6.00 Build 0)  -->
<svg version="1.1" xmlns="http://www.w3.org/2000/svg" xmlns:xlink="http://www.w3.org/1999/xlink" x="0px" y="0px"
	 viewBox="0 0 415 897" style="enable-background:new 0 0 415 897;" xml:space="preserve">
<style type="text/css">
	.st0{fill:none;}
	.st1{fill:none;stroke:#FAB906;stroke-width:3.5433;stroke-miterlimit:10;}
	.st2{fill:url(#SVGID_5_);}
	.st3{fill:url(#SVGID_6_);}
	.st4{fill:url(#SVGID_7_);}
	.st5{fill:url(#SVGID_8_);}
	.st6{fill:none;stroke:#1D1E1B;stroke-width:0.9921;stroke-miterlimit:10;}
	.st7{fill:#1D1D1B;}
	.st8{fill:#FAB900;}
	.st9{fill-rule:evenodd;clip-rule:evenodd;fill:#FAB900;}
	.st10{fill-rule:evenodd;clip-rule:evenodd;fill:#1D1D1B;}
	.st11{fill:#FFFFFF;}
</style>
<pattern  y="897" width="128" height="128" patternUnits="userSpaceOnUse" id="SVGID_1_" viewBox="129.3 -257.3 128 128" style="overflow:visible;">
	<g>
		<rect x="129.3" y="-257.3" class="st0" width="128" height="128"/>
		<g>
			<rect x="129.3" y="-257.3" class="st0" width="128" height="128"/>
			<g>
				<line class="st1" x1="257.3" y1="-385.3" x2="385.3" y2="-257.3"/>
				<line class="st1" x1="150.6" y1="-385.3" x2="278.6" y2="-257.3"/>
				<line class="st1" x1="171.9" y1="-385.3" x2="299.9" y2="-257.3"/>
				<line class="st1" x1="193.3" y1="-385.3" x2="321.3" y2="-257.3"/>
				<line class="st1" x1="214.6" y1="-385.3" x2="342.6" y2="-257.3"/>
				<line class="st1" x1="235.9" y1="-385.3" x2="363.9" y2="-257.3"/>
				<line class="st1" x1="246.6" y1="-385.3" x2="374.6" y2="-257.3"/>
				<line class="st1" x1="139.9" y1="-385.3" x2="267.9" y2="-257.3"/>
				<line class="st1" x1="161.3" y1="-385.3" x2="289.3" y2="-257.3"/>
				<line class="st1" x1="182.6" y1="-385.3" x2="310.6" y2="-257.3"/>
				<line class="st1" x1="203.9" y1="-385.3" x2="331.9" y2="-257.3"/>
				<line class="st1" x1="225.3" y1="-385.3" x2="353.3" y2="-257.3"/>
			</g>
			<g>
				<line class="st1" x1="129.3" y1="-385.3" x2="257.3" y2="-257.3"/>
				<line class="st1" x1="22.6" y1="-385.3" x2="150.6" y2="-257.3"/>
				<line class="st1" x1="43.9" y1="-385.3" x2="171.9" y2="-257.3"/>
				<line class="st1" x1="65.3" y1="-385.3" x2="193.3" y2="-257.3"/>
				<line class="st1" x1="86.6" y1="-385.3" x2="214.6" y2="-257.3"/>
				<line class="st1" x1="107.9" y1="-385.3" x2="235.9" y2="-257.3"/>
				<line class="st1" x1="150.6" y1="-385.3" x2="278.6" y2="-257.3"/>
				<line class="st1" x1="171.9" y1="-385.3" x2="299.9" y2="-257.3"/>
				<line class="st1" x1="193.3" y1="-385.3" x2="321.3" y2="-257.3"/>
				<line class="st1" x1="214.6" y1="-385.3" x2="342.6" y2="-257.3"/>
				<line class="st1" x1="235.9" y1="-385.3" x2="363.9" y2="-257.3"/>
				<line class="st1" x1="246.6" y1="-385.3" x2="374.6" y2="-257.3"/>
				<line class="st1" x1="118.6" y1="-385.3" x2="246.6" y2="-257.3"/>
				<line class="st1" x1="11.9" y1="-385.3" x2="139.9" y2="-257.3"/>
				<line class="st1" x1="33.3" y1="-385.3" x2="161.3" y2="-257.3"/>
				<line class="st1" x1="54.6" y1="-385.3" x2="182.6" y2="-257.3"/>
				<line class="st1" x1="75.9" y1="-385.3" x2="203.9" y2="-257.3"/>
				<line class="st1" x1="97.3" y1="-385.3" x2="225.3" y2="-257.3"/>
				<line class="st1" x1="139.9" y1="-385.3" x2="267.9" y2="-257.3"/>
				<line class="st1" x1="161.3" y1="-385.3" x2="289.3" y2="-257.3"/>
				<line class="st1" x1="182.6" y1="-385.3" x2="310.6" y2="-257.3"/>
				<line class="st1" x1="203.9" y1="-385.3" x2="331.9" y2="-257.3"/>
				<line class="st1" x1="225.3" y1="-385.3" x2="353.3" y2="-257.3"/>
			</g>
			<g>
				<line class="st1" x1="1.3" y1="-385.3" x2="129.3" y2="-257.3"/>
				<line class="st1" x1="22.6" y1="-385.3" x2="150.6" y2="-257.3"/>
				<line class="st1" x1="43.9" y1="-385.3" x2="171.9" y2="-257.3"/>
				<line class="st1" x1="65.3" y1="-385.3" x2="193.3" y2="-257.3"/>
				<line class="st1" x1="86.6" y1="-385.3" x2="214.6" y2="-257.3"/>
				<line class="st1" x1="107.9" y1="-385.3" x2="235.9" y2="-257.3"/>
				<line class="st1" x1="118.6" y1="-385.3" x2="246.6" y2="-257.3"/>
				<line class="st1" x1="11.9" y1="-385.3" x2="139.9" y2="-257.3"/>
				<line class="st1" x1="33.3" y1="-385.3" x2="161.3" y2="-257.3"/>
				<line class="st1" x1="54.6" y1="-385.3" x2="182.6" y2="-257.3"/>
				<line class="st1" x1="75.9" y1="-385.3" x2="203.9" y2="-257.3"/>
				<line class="st1" x1="97.3" y1="-385.3" x2="225.3" y2="-257.3"/>
			</g>
			<g>
				<line class="st1" x1="257.3" y1="-257.3" x2="385.3" y2="-129.3"/>
				<line class="st1" x1="150.6" y1="-257.3" x2="278.6" y2="-129.3"/>
				<line class="st1" x1="171.9" y1="-257.3" x2="299.9" y2="-129.3"/>
				<line class="st1" x1="193.3" y1="-257.3" x2="321.3" y2="-129.3"/>
				<line class="st1" x1="214.6" y1="-257.3" x2="342.6" y2="-129.3"/>
				<line class="st1" x1="235.9" y1="-257.3" x2="363.9" y2="-129.3"/>
				<line class="st1" x1="246.6" y1="-257.3" x2="374.6" y2="-129.3"/>
				<line class="st1" x1="139.9" y1="-257.3" x2="267.9" y2="-129.3"/>
				<line class="st1" x1="161.3" y1="-257.3" x2="289.3" y2="-129.3"/>
				<line class="st1" x1="182.6" y1="-257.3" x2="310.6" y2="-129.3"/>
				<line class="st1" x1="203.9" y1="-257.3" x2="331.9" y2="-129.3"/>
				<line class="st1" x1="225.3" y1="-257.3" x2="353.3" y2="-129.3"/>
			</g>
			<g>
				<line class="st1" x1="129.3" y1="-257.3" x2="257.3" y2="-129.3"/>
				<line class="st1" x1="22.6" y1="-257.3" x2="150.6" y2="-129.3"/>
				<line class="st1" x1="43.9" y1="-257.3" x2="171.9" y2="-129.3"/>
				<line class="st1" x1="65.3" y1="-257.3" x2="193.3" y2="-129.3"/>
				<line class="st1" x1="86.6" y1="-257.3" x2="214.6" y2="-129.3"/>
				<line class="st1" x1="107.9" y1="-257.3" x2="235.9" y2="-129.3"/>
				<line class="st1" x1="150.6" y1="-257.3" x2="278.6" y2="-129.3"/>
				<line class="st1" x1="171.9" y1="-257.3" x2="299.9" y2="-129.3"/>
				<line class="st1" x1="193.3" y1="-257.3" x2="321.3" y2="-129.3"/>
				<line class="st1" x1="214.6" y1="-257.3" x2="342.6" y2="-129.3"/>
				<line class="st1" x1="235.9" y1="-257.3" x2="363.9" y2="-129.3"/>
				<line class="st1" x1="246.6" y1="-257.3" x2="374.6" y2="-129.3"/>
				<line class="st1" x1="118.6" y1="-257.3" x2="246.6" y2="-129.3"/>
				<line class="st1" x1="11.9" y1="-257.3" x2="139.9" y2="-129.3"/>
				<line class="st1" x1="33.3" y1="-257.3" x2="161.3" y2="-129.3"/>
				<line class="st1" x1="54.6" y1="-257.3" x2="182.6" y2="-129.3"/>
				<line class="st1" x1="75.9" y1="-257.3" x2="203.9" y2="-129.3"/>
				<line class="st1" x1="97.3" y1="-257.3" x2="225.3" y2="-129.3"/>
				<line class="st1" x1="139.9" y1="-257.3" x2="267.9" y2="-129.3"/>
				<line class="st1" x1="161.3" y1="-257.3" x2="289.3" y2="-129.3"/>
				<line class="st1" x1="182.6" y1="-257.3" x2="310.6" y2="-129.3"/>
				<line class="st1" x1="203.9" y1="-257.3" x2="331.9" y2="-129.3"/>
				<line class="st1" x1="225.3" y1="-257.3" x2="353.3" y2="-129.3"/>
			</g>
			<g>
				<line class="st1" x1="1.3" y1="-257.3" x2="129.3" y2="-129.3"/>
				<line class="st1" x1="22.6" y1="-257.3" x2="150.6" y2="-129.3"/>
				<line class="st1" x1="43.9" y1="-257.3" x2="171.9" y2="-129.3"/>
				<line class="st1" x1="65.3" y1="-257.3" x2="193.3" y2="-129.3"/>
				<line class="st1" x1="86.6" y1="-257.3" x2="214.6" y2="-129.3"/>
				<line class="st1" x1="107.9" y1="-257.3" x2="235.9" y2="-129.3"/>
				<line class="st1" x1="118.6" y1="-257.3" x2="246.6" y2="-129.3"/>
				<line class="st1" x1="11.9" y1="-257.3" x2="139.9" y2="-129.3"/>
				<line class="st1" x1="33.3" y1="-257.3" x2="161.3" y2="-129.3"/>
				<line class="st1" x1="54.6" y1="-257.3" x2="182.6" y2="-129.3"/>
				<line class="st1" x1="75.9" y1="-257.3" x2="203.9" y2="-129.3"/>
				<line class="st1" x1="97.3" y1="-257.3" x2="225.3" y2="-129.3"/>
			</g>
			<g>
				<line class="st1" x1="257.3" y1="-129.3" x2="385.3" y2="-1.3"/>
				<line class="st1" x1="150.6" y1="-129.3" x2="278.6" y2="-1.3"/>
				<line class="st1" x1="171.9" y1="-129.3" x2="299.9" y2="-1.3"/>
				<line class="st1" x1="193.3" y1="-129.3" x2="321.3" y2="-1.3"/>
				<line class="st1" x1="214.6" y1="-129.3" x2="342.6" y2="-1.3"/>
				<line class="st1" x1="235.9" y1="-129.3" x2="363.9" y2="-1.3"/>
				<line class="st1" x1="246.6" y1="-129.3" x2="374.6" y2="-1.3"/>
				<line class="st1" x1="139.9" y1="-129.3" x2="267.9" y2="-1.3"/>
				<line class="st1" x1="161.3" y1="-129.3" x2="289.3" y2="-1.3"/>
				<line class="st1" x1="182.6" y1="-129.3" x2="310.6" y2="-1.3"/>
				<line class="st1" x1="203.9" y1="-129.3" x2="331.9" y2="-1.3"/>
				<line class="st1" x1="225.3" y1="-129.3" x2="353.3" y2="-1.3"/>
			</g>
			<g>
				<line class="st1" x1="129.3" y1="-129.3" x2="257.3" y2="-1.3"/>
				<line class="st1" x1="22.6" y1="-129.3" x2="150.6" y2="-1.3"/>
				<line class="st1" x1="43.9" y1="-129.3" x2="171.9" y2="-1.3"/>
				<line class="st1" x1="65.3" y1="-129.3" x2="193.3" y2="-1.3"/>
				<line class="st1" x1="86.6" y1="-129.3" x2="214.6" y2="-1.3"/>
				<line class="st1" x1="107.9" y1="-129.3" x2="235.9" y2="-1.3"/>
				<line class="st1" x1="150.6" y1="-129.3" x2="278.6" y2="-1.3"/>
				<line class="st1" x1="171.9" y1="-129.3" x2="299.9" y2="-1.3"/>
				<line class="st1" x1="193.3" y1="-129.3" x2="321.3" y2="-1.3"/>
				<line class="st1" x1="214.6" y1="-129.3" x2="342.6" y2="-1.3"/>
				<line class="st1" x1="235.9" y1="-129.3" x2="363.9" y2="-1.3"/>
				<line class="st1" x1="246.6" y1="-129.3" x2="374.6" y2="-1.3"/>
				<line class="st1" x1="118.6" y1="-129.3" x2="246.6" y2="-1.3"/>
				<line class="st1" x1="11.9" y1="-129.3" x2="139.9" y2="-1.3"/>
				<line class="st1" x1="33.3" y1="-129.3" x2="161.3" y2="-1.3"/>
				<line class="st1" x1="54.6" y1="-129.3" x2="182.6" y2="-1.3"/>
				<line class="st1" x1="75.9" y1="-129.3" x2="203.9" y2="-1.3"/>
				<line class="st1" x1="97.3" y1="-129.3" x2="225.3" y2="-1.3"/>
				<line class="st1" x1="139.9" y1="-129.3" x2="267.9" y2="-1.3"/>
				<line class="st1" x1="161.3" y1="-129.3" x2="289.3" y2="-1.3"/>
				<line class="st1" x1="182.6" y1="-129.3" x2="310.6" y2="-1.3"/>
				<line class="st1" x1="203.9" y1="-129.3" x2="331.9" y2="-1.3"/>
				<line class="st1" x1="225.3" y1="-129.3" x2="353.3" y2="-1.3"/>
			</g>
			<g>
				<line class="st1" x1="1.3" y1="-129.3" x2="129.3" y2="-1.3"/>
				<line class="st1" x1="22.6" y1="-129.3" x2="150.6" y2="-1.3"/>
				<line class="st1" x1="43.9" y1="-129.3" x2="171.9" y2="-1.3"/>
				<line class="st1" x1="65.3" y1="-129.3" x2="193.3" y2="-1.3"/>
				<line class="st1" x1="86.6" y1="-129.3" x2="214.6" y2="-1.3"/>
				<line class="st1" x1="107.9" y1="-129.3" x2="235.9" y2="-1.3"/>
				<line class="st1" x1="118.6" y1="-129.3" x2="246.6" y2="-1.3"/>
				<line class="st1" x1="11.9" y1="-129.3" x2="139.9" y2="-1.3"/>
				<line class="st1" x1="33.3" y1="-129.3" x2="161.3" y2="-1.3"/>
				<line class="st1" x1="54.6" y1="-129.3" x2="182.6" y2="-1.3"/>
				<line class="st1" x1="75.9" y1="-129.3" x2="203.9" y2="-1.3"/>
				<line class="st1" x1="97.3" y1="-129.3" x2="225.3" y2="-1.3"/>
			</g>
		</g>
	</g>
</pattern>
<pattern  y="897" width="128" height="128" patternUnits="userSpaceOnUse" id="SVGID_2_" viewBox="129.3 -257.3 128 128" style="overflow:visible;">
	<g>
		<rect x="129.3" y="-257.3" class="st0" width="128" height="128"/>
		<g>
			<rect x="129.3" y="-257.3" class="st0" width="128" height="128"/>
			<g>
				<line class="st1" x1="257.3" y1="-385.3" x2="385.3" y2="-257.3"/>
				<line class="st1" x1="150.6" y1="-385.3" x2="278.6" y2="-257.3"/>
				<line class="st1" x1="171.9" y1="-385.3" x2="299.9" y2="-257.3"/>
				<line class="st1" x1="193.3" y1="-385.3" x2="321.3" y2="-257.3"/>
				<line class="st1" x1="214.6" y1="-385.3" x2="342.6" y2="-257.3"/>
				<line class="st1" x1="235.9" y1="-385.3" x2="363.9" y2="-257.3"/>
				<line class="st1" x1="246.6" y1="-385.3" x2="374.6" y2="-257.3"/>
				<line class="st1" x1="139.9" y1="-385.3" x2="267.9" y2="-257.3"/>
				<line class="st1" x1="161.3" y1="-385.3" x2="289.3" y2="-257.3"/>
				<line class="st1" x1="182.6" y1="-385.3" x2="310.6" y2="-257.3"/>
				<line class="st1" x1="203.9" y1="-385.3" x2="331.9" y2="-257.3"/>
				<line class="st1" x1="225.3" y1="-385.3" x2="353.3" y2="-257.3"/>
			</g>
			<g>
				<line class="st1" x1="129.3" y1="-385.3" x2="257.3" y2="-257.3"/>
				<line class="st1" x1="22.6" y1="-385.3" x2="150.6" y2="-257.3"/>
				<line class="st1" x1="43.9" y1="-385.3" x2="171.9" y2="-257.3"/>
				<line class="st1" x1="65.3" y1="-385.3" x2="193.3" y2="-257.3"/>
				<line class="st1" x1="86.6" y1="-385.3" x2="214.6" y2="-257.3"/>
				<line class="st1" x1="107.9" y1="-385.3" x2="235.9" y2="-257.3"/>
				<line class="st1" x1="150.6" y1="-385.3" x2="278.6" y2="-257.3"/>
				<line class="st1" x1="171.9" y1="-385.3" x2="299.9" y2="-257.3"/>
				<line class="st1" x1="193.3" y1="-385.3" x2="321.3" y2="-257.3"/>
				<line class="st1" x1="214.6" y1="-385.3" x2="342.6" y2="-257.3"/>
				<line class="st1" x1="235.9" y1="-385.3" x2="363.9" y2="-257.3"/>
				<line class="st1" x1="246.6" y1="-385.3" x2="374.6" y2="-257.3"/>
				<line class="st1" x1="118.6" y1="-385.3" x2="246.6" y2="-257.3"/>
				<line class="st1" x1="11.9" y1="-385.3" x2="139.9" y2="-257.3"/>
				<line class="st1" x1="33.3" y1="-385.3" x2="161.3" y2="-257.3"/>
				<line class="st1" x1="54.6" y1="-385.3" x2="182.6" y2="-257.3"/>
				<line class="st1" x1="75.9" y1="-385.3" x2="203.9" y2="-257.3"/>
				<line class="st1" x1="97.3" y1="-385.3" x2="225.3" y2="-257.3"/>
				<line class="st1" x1="139.9" y1="-385.3" x2="267.9" y2="-257.3"/>
				<line class="st1" x1="161.3" y1="-385.3" x2="289.3" y2="-257.3"/>
				<line class="st1" x1="182.6" y1="-385.3" x2="310.6" y2="-257.3"/>
				<line class="st1" x1="203.9" y1="-385.3" x2="331.9" y2="-257.3"/>
				<line class="st1" x1="225.3" y1="-385.3" x2="353.3" y2="-257.3"/>
			</g>
			<g>
				<line class="st1" x1="1.3" y1="-385.3" x2="129.3" y2="-257.3"/>
				<line class="st1" x1="22.6" y1="-385.3" x2="150.6" y2="-257.3"/>
				<line class="st1" x1="43.9" y1="-385.3" x2="171.9" y2="-257.3"/>
				<line class="st1" x1="65.3" y1="-385.3" x2="193.3" y2="-257.3"/>
				<line class="st1" x1="86.6" y1="-385.3" x2="214.6" y2="-257.3"/>
				<line class="st1" x1="107.9" y1="-385.3" x2="235.9" y2="-257.3"/>
				<line class="st1" x1="118.6" y1="-385.3" x2="246.6" y2="-257.3"/>
				<line class="st1" x1="11.9" y1="-385.3" x2="139.9" y2="-257.3"/>
				<line class="st1" x1="33.3" y1="-385.3" x2="161.3" y2="-257.3"/>
				<line class="st1" x1="54.6" y1="-385.3" x2="182.6" y2="-257.3"/>
				<line class="st1" x1="75.9" y1="-385.3" x2="203.9" y2="-257.3"/>
				<line class="st1" x1="97.3" y1="-385.3" x2="225.3" y2="-257.3"/>
			</g>
			<g>
				<line class="st1" x1="257.3" y1="-257.3" x2="385.3" y2="-129.3"/>
				<line class="st1" x1="150.6" y1="-257.3" x2="278.6" y2="-129.3"/>
				<line class="st1" x1="171.9" y1="-257.3" x2="299.9" y2="-129.3"/>
				<line class="st1" x1="193.3" y1="-257.3" x2="321.3" y2="-129.3"/>
				<line class="st1" x1="214.6" y1="-257.3" x2="342.6" y2="-129.3"/>
				<line class="st1" x1="235.9" y1="-257.3" x2="363.9" y2="-129.3"/>
				<line class="st1" x1="246.6" y1="-257.3" x2="374.6" y2="-129.3"/>
				<line class="st1" x1="139.9" y1="-257.3" x2="267.9" y2="-129.3"/>
				<line class="st1" x1="161.3" y1="-257.3" x2="289.3" y2="-129.3"/>
				<line class="st1" x1="182.6" y1="-257.3" x2="310.6" y2="-129.3"/>
				<line class="st1" x1="203.9" y1="-257.3" x2="331.9" y2="-129.3"/>
				<line class="st1" x1="225.3" y1="-257.3" x2="353.3" y2="-129.3"/>
			</g>
			<g>
				<line class="st1" x1="129.3" y1="-257.3" x2="257.3" y2="-129.3"/>
				<line class="st1" x1="22.6" y1="-257.3" x2="150.6" y2="-129.3"/>
				<line class="st1" x1="43.9" y1="-257.3" x2="171.9" y2="-129.3"/>
				<line class="st1" x1="65.3" y1="-257.3" x2="193.3" y2="-129.3"/>
				<line class="st1" x1="86.6" y1="-257.3" x2="214.6" y2="-129.3"/>
				<line class="st1" x1="107.9" y1="-257.3" x2="235.9" y2="-129.3"/>
				<line class="st1" x1="150.6" y1="-257.3" x2="278.6" y2="-129.3"/>
				<line class="st1" x1="171.9" y1="-257.3" x2="299.9" y2="-129.3"/>
				<line class="st1" x1="193.3" y1="-257.3" x2="321.3" y2="-129.3"/>
				<line class="st1" x1="214.6" y1="-257.3" x2="342.6" y2="-129.3"/>
				<line class="st1" x1="235.9" y1="-257.3" x2="363.9" y2="-129.3"/>
				<line class="st1" x1="246.6" y1="-257.3" x2="374.6" y2="-129.3"/>
				<line class="st1" x1="118.6" y1="-257.3" x2="246.6" y2="-129.3"/>
				<line class="st1" x1="11.9" y1="-257.3" x2="139.9" y2="-129.3"/>
				<line class="st1" x1="33.3" y1="-257.3" x2="161.3" y2="-129.3"/>
				<line class="st1" x1="54.6" y1="-257.3" x2="182.6" y2="-129.3"/>
				<line class="st1" x1="75.9" y1="-257.3" x2="203.9" y2="-129.3"/>
				<line class="st1" x1="97.3" y1="-257.3" x2="225.3" y2="-129.3"/>
				<line class="st1" x1="139.9" y1="-257.3" x2="267.9" y2="-129.3"/>
				<line class="st1" x1="161.3" y1="-257.3" x2="289.3" y2="-129.3"/>
				<line class="st1" x1="182.6" y1="-257.3" x2="310.6" y2="-129.3"/>
				<line class="st1" x1="203.9" y1="-257.3" x2="331.9" y2="-129.3"/>
				<line class="st1" x1="225.3" y1="-257.3" x2="353.3" y2="-129.3"/>
			</g>
			<g>
				<line class="st1" x1="1.3" y1="-257.3" x2="129.3" y2="-129.3"/>
				<line class="st1" x1="22.6" y1="-257.3" x2="150.6" y2="-129.3"/>
				<line class="st1" x1="43.9" y1="-257.3" x2="171.9" y2="-129.3"/>
				<line class="st1" x1="65.3" y1="-257.3" x2="193.3" y2="-129.3"/>
				<line class="st1" x1="86.6" y1="-257.3" x2="214.6" y2="-129.3"/>
				<line class="st1" x1="107.9" y1="-257.3" x2="235.9" y2="-129.3"/>
				<line class="st1" x1="118.6" y1="-257.3" x2="246.6" y2="-129.3"/>
				<line class="st1" x1="11.9" y1="-257.3" x2="139.9" y2="-129.3"/>
				<line class="st1" x1="33.3" y1="-257.3" x2="161.3" y2="-129.3"/>
				<line class="st1" x1="54.6" y1="-257.3" x2="182.6" y2="-129.3"/>
				<line class="st1" x1="75.9" y1="-257.3" x2="203.9" y2="-129.3"/>
				<line class="st1" x1="97.3" y1="-257.3" x2="225.3" y2="-129.3"/>
			</g>
			<g>
				<line class="st1" x1="257.3" y1="-129.3" x2="385.3" y2="-1.3"/>
				<line class="st1" x1="150.6" y1="-129.3" x2="278.6" y2="-1.3"/>
				<line class="st1" x1="171.9" y1="-129.3" x2="299.9" y2="-1.3"/>
				<line class="st1" x1="193.3" y1="-129.3" x2="321.3" y2="-1.3"/>
				<line class="st1" x1="214.6" y1="-129.3" x2="342.6" y2="-1.3"/>
				<line class="st1" x1="235.9" y1="-129.3" x2="363.9" y2="-1.3"/>
				<line class="st1" x1="246.6" y1="-129.3" x2="374.6" y2="-1.3"/>
				<line class="st1" x1="139.9" y1="-129.3" x2="267.9" y2="-1.3"/>
				<line class="st1" x1="161.3" y1="-129.3" x2="289.3" y2="-1.3"/>
				<line class="st1" x1="182.6" y1="-129.3" x2="310.6" y2="-1.3"/>
				<line class="st1" x1="203.9" y1="-129.3" x2="331.9" y2="-1.3"/>
				<line class="st1" x1="225.3" y1="-129.3" x2="353.3" y2="-1.3"/>
			</g>
			<g>
				<line class="st1" x1="129.3" y1="-129.3" x2="257.3" y2="-1.3"/>
				<line class="st1" x1="22.6" y1="-129.3" x2="150.6" y2="-1.3"/>
				<line class="st1" x1="43.9" y1="-129.3" x2="171.9" y2="-1.3"/>
				<line class="st1" x1="65.3" y1="-129.3" x2="193.3" y2="-1.3"/>
				<line class="st1" x1="86.6" y1="-129.3" x2="214.6" y2="-1.3"/>
				<line class="st1" x1="107.9" y1="-129.3" x2="235.9" y2="-1.3"/>
				<line class="st1" x1="150.6" y1="-129.3" x2="278.6" y2="-1.3"/>
				<line class="st1" x1="171.9" y1="-129.3" x2="299.9" y2="-1.3"/>
				<line class="st1" x1="193.3" y1="-129.3" x2="321.3" y2="-1.3"/>
				<line class="st1" x1="214.6" y1="-129.3" x2="342.6" y2="-1.3"/>
				<line class="st1" x1="235.9" y1="-129.3" x2="363.9" y2="-1.3"/>
				<line class="st1" x1="246.6" y1="-129.3" x2="374.6" y2="-1.3"/>
				<line class="st1" x1="118.6" y1="-129.3" x2="246.6" y2="-1.3"/>
				<line class="st1" x1="11.9" y1="-129.3" x2="139.9" y2="-1.3"/>
				<line class="st1" x1="33.3" y1="-129.3" x2="161.3" y2="-1.3"/>
				<line class="st1" x1="54.6" y1="-129.3" x2="182.6" y2="-1.3"/>
				<line class="st1" x1="75.9" y1="-129.3" x2="203.9" y2="-1.3"/>
				<line class="st1" x1="97.3" y1="-129.3" x2="225.3" y2="-1.3"/>
				<line class="st1" x1="139.9" y1="-129.3" x2="267.9" y2="-1.3"/>
				<line class="st1" x1="161.3" y1="-129.3" x2="289.3" y2="-1.3"/>
				<line class="st1" x1="182.6" y1="-129.3" x2="310.6" y2="-1.3"/>
				<line class="st1" x1="203.9" y1="-129.3" x2="331.9" y2="-1.3"/>
				<line class="st1" x1="225.3" y1="-129.3" x2="353.3" y2="-1.3"/>
			</g>
			<g>
				<line class="st1" x1="1.3" y1="-129.3" x2="129.3" y2="-1.3"/>
				<line class="st1" x1="22.6" y1="-129.3" x2="150.6" y2="-1.3"/>
				<line class="st1" x1="43.9" y1="-129.3" x2="171.9" y2="-1.3"/>
				<line class="st1" x1="65.3" y1="-129.3" x2="193.3" y2="-1.3"/>
				<line class="st1" x1="86.6" y1="-129.3" x2="214.6" y2="-1.3"/>
				<line class="st1" x1="107.9" y1="-129.3" x2="235.9" y2="-1.3"/>
				<line class="st1" x1="118.6" y1="-129.3" x2="246.6" y2="-1.3"/>
				<line class="st1" x1="11.9" y1="-129.3" x2="139.9" y2="-1.3"/>
				<line class="st1" x1="33.3" y1="-129.3" x2="161.3" y2="-1.3"/>
				<line class="st1" x1="54.6" y1="-129.3" x2="182.6" y2="-1.3"/>
				<line class="st1" x1="75.9" y1="-129.3" x2="203.9" y2="-1.3"/>
				<line class="st1" x1="97.3" y1="-129.3" x2="225.3" y2="-1.3"/>
			</g>
		</g>
	</g>
</pattern>
<pattern  y="897" width="128" height="128" patternUnits="userSpaceOnUse" id="SVGID_3_" viewBox="129.3 -257.3 128 128" style="overflow:visible;">
	<g>
		<rect x="129.3" y="-257.3" class="st0" width="128" height="128"/>
		<g>
			<rect x="129.3" y="-257.3" class="st0" width="128" height="128"/>
			<g>
				<line class="st1" x1="257.3" y1="-385.3" x2="385.3" y2="-257.3"/>
				<line class="st1" x1="150.6" y1="-385.3" x2="278.6" y2="-257.3"/>
				<line class="st1" x1="171.9" y1="-385.3" x2="299.9" y2="-257.3"/>
				<line class="st1" x1="193.3" y1="-385.3" x2="321.3" y2="-257.3"/>
				<line class="st1" x1="214.6" y1="-385.3" x2="342.6" y2="-257.3"/>
				<line class="st1" x1="235.9" y1="-385.3" x2="363.9" y2="-257.3"/>
				<line class="st1" x1="246.6" y1="-385.3" x2="374.6" y2="-257.3"/>
				<line class="st1" x1="139.9" y1="-385.3" x2="267.9" y2="-257.3"/>
				<line class="st1" x1="161.3" y1="-385.3" x2="289.3" y2="-257.3"/>
				<line class="st1" x1="182.6" y1="-385.3" x2="310.6" y2="-257.3"/>
				<line class="st1" x1="203.9" y1="-385.3" x2="331.9" y2="-257.3"/>
				<line class="st1" x1="225.3" y1="-385.3" x2="353.3" y2="-257.3"/>
			</g>
			<g>
				<line class="st1" x1="129.3" y1="-385.3" x2="257.3" y2="-257.3"/>
				<line class="st1" x1="22.6" y1="-385.3" x2="150.6" y2="-257.3"/>
				<line class="st1" x1="43.9" y1="-385.3" x2="171.9" y2="-257.3"/>
				<line class="st1" x1="65.3" y1="-385.3" x2="193.3" y2="-257.3"/>
				<line class="st1" x1="86.6" y1="-385.3" x2="214.6" y2="-257.3"/>
				<line class="st1" x1="107.9" y1="-385.3" x2="235.9" y2="-257.3"/>
				<line class="st1" x1="150.6" y1="-385.3" x2="278.6" y2="-257.3"/>
				<line class="st1" x1="171.9" y1="-385.3" x2="299.9" y2="-257.3"/>
				<line class="st1" x1="193.3" y1="-385.3" x2="321.3" y2="-257.3"/>
				<line class="st1" x1="214.6" y1="-385.3" x2="342.6" y2="-257.3"/>
				<line class="st1" x1="235.9" y1="-385.3" x2="363.9" y2="-257.3"/>
				<line class="st1" x1="246.6" y1="-385.3" x2="374.6" y2="-257.3"/>
				<line class="st1" x1="118.6" y1="-385.3" x2="246.6" y2="-257.3"/>
				<line class="st1" x1="11.9" y1="-385.3" x2="139.9" y2="-257.3"/>
				<line class="st1" x1="33.3" y1="-385.3" x2="161.3" y2="-257.3"/>
				<line class="st1" x1="54.6" y1="-385.3" x2="182.6" y2="-257.3"/>
				<line class="st1" x1="75.9" y1="-385.3" x2="203.9" y2="-257.3"/>
				<line class="st1" x1="97.3" y1="-385.3" x2="225.3" y2="-257.3"/>
				<line class="st1" x1="139.9" y1="-385.3" x2="267.9" y2="-257.3"/>
				<line class="st1" x1="161.3" y1="-385.3" x2="289.3" y2="-257.3"/>
				<line class="st1" x1="182.6" y1="-385.3" x2="310.6" y2="-257.3"/>
				<line class="st1" x1="203.9" y1="-385.3" x2="331.9" y2="-257.3"/>
				<line class="st1" x1="225.3" y1="-385.3" x2="353.3" y2="-257.3"/>
			</g>
			<g>
				<line class="st1" x1="1.3" y1="-385.3" x2="129.3" y2="-257.3"/>
				<line class="st1" x1="22.6" y1="-385.3" x2="150.6" y2="-257.3"/>
				<line class="st1" x1="43.9" y1="-385.3" x2="171.9" y2="-257.3"/>
				<line class="st1" x1="65.3" y1="-385.3" x2="193.3" y2="-257.3"/>
				<line class="st1" x1="86.6" y1="-385.3" x2="214.6" y2="-257.3"/>
				<line class="st1" x1="107.9" y1="-385.3" x2="235.9" y2="-257.3"/>
				<line class="st1" x1="118.6" y1="-385.3" x2="246.6" y2="-257.3"/>
				<line class="st1" x1="11.9" y1="-385.3" x2="139.9" y2="-257.3"/>
				<line class="st1" x1="33.3" y1="-385.3" x2="161.3" y2="-257.3"/>
				<line class="st1" x1="54.6" y1="-385.3" x2="182.6" y2="-257.3"/>
				<line class="st1" x1="75.9" y1="-385.3" x2="203.9" y2="-257.3"/>
				<line class="st1" x1="97.3" y1="-385.3" x2="225.3" y2="-257.3"/>
			</g>
			<g>
				<line class="st1" x1="257.3" y1="-257.3" x2="385.3" y2="-129.3"/>
				<line class="st1" x1="150.6" y1="-257.3" x2="278.6" y2="-129.3"/>
				<line class="st1" x1="171.9" y1="-257.3" x2="299.9" y2="-129.3"/>
				<line class="st1" x1="193.3" y1="-257.3" x2="321.3" y2="-129.3"/>
				<line class="st1" x1="214.6" y1="-257.3" x2="342.6" y2="-129.3"/>
				<line class="st1" x1="235.9" y1="-257.3" x2="363.9" y2="-129.3"/>
				<line class="st1" x1="246.6" y1="-257.3" x2="374.6" y2="-129.3"/>
				<line class="st1" x1="139.9" y1="-257.3" x2="267.9" y2="-129.3"/>
				<line class="st1" x1="161.3" y1="-257.3" x2="289.3" y2="-129.3"/>
				<line class="st1" x1="182.6" y1="-257.3" x2="310.6" y2="-129.3"/>
				<line class="st1" x1="203.9" y1="-257.3" x2="331.9" y2="-129.3"/>
				<line class="st1" x1="225.3" y1="-257.3" x2="353.3" y2="-129.3"/>
			</g>
			<g>
				<line class="st1" x1="129.3" y1="-257.3" x2="257.3" y2="-129.3"/>
				<line class="st1" x1="22.6" y1="-257.3" x2="150.6" y2="-129.3"/>
				<line class="st1" x1="43.9" y1="-257.3" x2="171.9" y2="-129.3"/>
				<line class="st1" x1="65.3" y1="-257.3" x2="193.3" y2="-129.3"/>
				<line class="st1" x1="86.6" y1="-257.3" x2="214.6" y2="-129.3"/>
				<line class="st1" x1="107.9" y1="-257.3" x2="235.9" y2="-129.3"/>
				<line class="st1" x1="150.6" y1="-257.3" x2="278.6" y2="-129.3"/>
				<line class="st1" x1="171.9" y1="-257.3" x2="299.9" y2="-129.3"/>
				<line class="st1" x1="193.3" y1="-257.3" x2="321.3" y2="-129.3"/>
				<line class="st1" x1="214.6" y1="-257.3" x2="342.6" y2="-129.3"/>
				<line class="st1" x1="235.9" y1="-257.3" x2="363.9" y2="-129.3"/>
				<line class="st1" x1="246.6" y1="-257.3" x2="374.6" y2="-129.3"/>
				<line class="st1" x1="118.6" y1="-257.3" x2="246.6" y2="-129.3"/>
				<line class="st1" x1="11.9" y1="-257.3" x2="139.9" y2="-129.3"/>
				<line class="st1" x1="33.3" y1="-257.3" x2="161.3" y2="-129.3"/>
				<line class="st1" x1="54.6" y1="-257.3" x2="182.6" y2="-129.3"/>
				<line class="st1" x1="75.9" y1="-257.3" x2="203.9" y2="-129.3"/>
				<line class="st1" x1="97.3" y1="-257.3" x2="225.3" y2="-129.3"/>
				<line class="st1" x1="139.9" y1="-257.3" x2="267.9" y2="-129.3"/>
				<line class="st1" x1="161.3" y1="-257.3" x2="289.3" y2="-129.3"/>
				<line class="st1" x1="182.6" y1="-257.3" x2="310.6" y2="-129.3"/>
				<line class="st1" x1="203.9" y1="-257.3" x2="331.9" y2="-129.3"/>
				<line class="st1" x1="225.3" y1="-257.3" x2="353.3" y2="-129.3"/>
			</g>
			<g>
				<line class="st1" x1="1.3" y1="-257.3" x2="129.3" y2="-129.3"/>
				<line class="st1" x1="22.6" y1="-257.3" x2="150.6" y2="-129.3"/>
				<line class="st1" x1="43.9" y1="-257.3" x2="171.9" y2="-129.3"/>
				<line class="st1" x1="65.3" y1="-257.3" x2="193.3" y2="-129.3"/>
				<line class="st1" x1="86.6" y1="-257.3" x2="214.6" y2="-129.3"/>
				<line class="st1" x1="107.9" y1="-257.3" x2="235.9" y2="-129.3"/>
				<line class="st1" x1="118.6" y1="-257.3" x2="246.6" y2="-129.3"/>
				<line class="st1" x1="11.9" y1="-257.3" x2="139.9" y2="-129.3"/>
				<line class="st1" x1="33.3" y1="-257.3" x2="161.3" y2="-129.3"/>
				<line class="st1" x1="54.6" y1="-257.3" x2="182.6" y2="-129.3"/>
				<line class="st1" x1="75.9" y1="-257.3" x2="203.9" y2="-129.3"/>
				<line class="st1" x1="97.3" y1="-257.3" x2="225.3" y2="-129.3"/>
			</g>
			<g>
				<line class="st1" x1="257.3" y1="-129.3" x2="385.3" y2="-1.3"/>
				<line class="st1" x1="150.6" y1="-129.3" x2="278.6" y2="-1.3"/>
				<line class="st1" x1="171.9" y1="-129.3" x2="299.9" y2="-1.3"/>
				<line class="st1" x1="193.3" y1="-129.3" x2="321.3" y2="-1.3"/>
				<line class="st1" x1="214.6" y1="-129.3" x2="342.6" y2="-1.3"/>
				<line class="st1" x1="235.9" y1="-129.3" x2="363.9" y2="-1.3"/>
				<line class="st1" x1="246.6" y1="-129.3" x2="374.6" y2="-1.3"/>
				<line class="st1" x1="139.9" y1="-129.3" x2="267.9" y2="-1.3"/>
				<line class="st1" x1="161.3" y1="-129.3" x2="289.3" y2="-1.3"/>
				<line class="st1" x1="182.6" y1="-129.3" x2="310.6" y2="-1.3"/>
				<line class="st1" x1="203.9" y1="-129.3" x2="331.9" y2="-1.3"/>
				<line class="st1" x1="225.3" y1="-129.3" x2="353.3" y2="-1.3"/>
			</g>
			<g>
				<line class="st1" x1="129.3" y1="-129.3" x2="257.3" y2="-1.3"/>
				<line class="st1" x1="22.6" y1="-129.3" x2="150.6" y2="-1.3"/>
				<line class="st1" x1="43.9" y1="-129.3" x2="171.9" y2="-1.3"/>
				<line class="st1" x1="65.3" y1="-129.3" x2="193.3" y2="-1.3"/>
				<line class="st1" x1="86.6" y1="-129.3" x2="214.6" y2="-1.3"/>
				<line class="st1" x1="107.9" y1="-129.3" x2="235.9" y2="-1.3"/>
				<line class="st1" x1="150.6" y1="-129.3" x2="278.6" y2="-1.3"/>
				<line class="st1" x1="171.9" y1="-129.3" x2="299.9" y2="-1.3"/>
				<line class="st1" x1="193.3" y1="-129.3" x2="321.3" y2="-1.3"/>
				<line class="st1" x1="214.6" y1="-129.3" x2="342.6" y2="-1.3"/>
				<line class="st1" x1="235.9" y1="-129.3" x2="363.9" y2="-1.3"/>
				<line class="st1" x1="246.6" y1="-129.3" x2="374.6" y2="-1.3"/>
				<line class="st1" x1="118.6" y1="-129.3" x2="246.6" y2="-1.3"/>
				<line class="st1" x1="11.9" y1="-129.3" x2="139.9" y2="-1.3"/>
				<line class="st1" x1="33.3" y1="-129.3" x2="161.3" y2="-1.3"/>
				<line class="st1" x1="54.6" y1="-129.3" x2="182.6" y2="-1.3"/>
				<line class="st1" x1="75.9" y1="-129.3" x2="203.9" y2="-1.3"/>
				<line class="st1" x1="97.3" y1="-129.3" x2="225.3" y2="-1.3"/>
				<line class="st1" x1="139.9" y1="-129.3" x2="267.9" y2="-1.3"/>
				<line class="st1" x1="161.3" y1="-129.3" x2="289.3" y2="-1.3"/>
				<line class="st1" x1="182.6" y1="-129.3" x2="310.6" y2="-1.3"/>
				<line class="st1" x1="203.9" y1="-129.3" x2="331.9" y2="-1.3"/>
				<line class="st1" x1="225.3" y1="-129.3" x2="353.3" y2="-1.3"/>
			</g>
			<g>
				<line class="st1" x1="1.3" y1="-129.3" x2="129.3" y2="-1.3"/>
				<line class="st1" x1="22.6" y1="-129.3" x2="150.6" y2="-1.3"/>
				<line class="st1" x1="43.9" y1="-129.3" x2="171.9" y2="-1.3"/>
				<line class="st1" x1="65.3" y1="-129.3" x2="193.3" y2="-1.3"/>
				<line class="st1" x1="86.6" y1="-129.3" x2="214.6" y2="-1.3"/>
				<line class="st1" x1="107.9" y1="-129.3" x2="235.9" y2="-1.3"/>
				<line class="st1" x1="118.6" y1="-129.3" x2="246.6" y2="-1.3"/>
				<line class="st1" x1="11.9" y1="-129.3" x2="139.9" y2="-1.3"/>
				<line class="st1" x1="33.3" y1="-129.3" x2="161.3" y2="-1.3"/>
				<line class="st1" x1="54.6" y1="-129.3" x2="182.6" y2="-1.3"/>
				<line class="st1" x1="75.9" y1="-129.3" x2="203.9" y2="-1.3"/>
				<line class="st1" x1="97.3" y1="-129.3" x2="225.3" y2="-1.3"/>
			</g>
		</g>
	</g>
</pattern>
<pattern  y="897" width="128" height="128" patternUnits="userSpaceOnUse" id="SVGID_4_" viewBox="129.3 -257.3 128 128" style="overflow:visible;">
	<g>
		<rect x="129.3" y="-257.3" class="st0" width="128" height="128"/>
		<g>
			<rect x="129.3" y="-257.3" class="st0" width="128" height="128"/>
			<g>
				<line class="st1" x1="257.3" y1="-385.3" x2="385.3" y2="-257.3"/>
				<line class="st1" x1="150.6" y1="-385.3" x2="278.6" y2="-257.3"/>
				<line class="st1" x1="171.9" y1="-385.3" x2="299.9" y2="-257.3"/>
				<line class="st1" x1="193.3" y1="-385.3" x2="321.3" y2="-257.3"/>
				<line class="st1" x1="214.6" y1="-385.3" x2="342.6" y2="-257.3"/>
				<line class="st1" x1="235.9" y1="-385.3" x2="363.9" y2="-257.3"/>
				<line class="st1" x1="246.6" y1="-385.3" x2="374.6" y2="-257.3"/>
				<line class="st1" x1="139.9" y1="-385.3" x2="267.9" y2="-257.3"/>
				<line class="st1" x1="161.3" y1="-385.3" x2="289.3" y2="-257.3"/>
				<line class="st1" x1="182.6" y1="-385.3" x2="310.6" y2="-257.3"/>
				<line class="st1" x1="203.9" y1="-385.3" x2="331.9" y2="-257.3"/>
				<line class="st1" x1="225.3" y1="-385.3" x2="353.3" y2="-257.3"/>
			</g>
			<g>
				<line class="st1" x1="129.3" y1="-385.3" x2="257.3" y2="-257.3"/>
				<line class="st1" x1="22.6" y1="-385.3" x2="150.6" y2="-257.3"/>
				<line class="st1" x1="43.9" y1="-385.3" x2="171.9" y2="-257.3"/>
				<line class="st1" x1="65.3" y1="-385.3" x2="193.3" y2="-257.3"/>
				<line class="st1" x1="86.6" y1="-385.3" x2="214.6" y2="-257.3"/>
				<line class="st1" x1="107.9" y1="-385.3" x2="235.9" y2="-257.3"/>
				<line class="st1" x1="150.6" y1="-385.3" x2="278.6" y2="-257.3"/>
				<line class="st1" x1="171.9" y1="-385.3" x2="299.9" y2="-257.3"/>
				<line class="st1" x1="193.3" y1="-385.3" x2="321.3" y2="-257.3"/>
				<line class="st1" x1="214.6" y1="-385.3" x2="342.6" y2="-257.3"/>
				<line class="st1" x1="235.9" y1="-385.3" x2="363.9" y2="-257.3"/>
				<line class="st1" x1="246.6" y1="-385.3" x2="374.6" y2="-257.3"/>
				<line class="st1" x1="118.6" y1="-385.3" x2="246.6" y2="-257.3"/>
				<line class="st1" x1="11.9" y1="-385.3" x2="139.9" y2="-257.3"/>
				<line class="st1" x1="33.3" y1="-385.3" x2="161.3" y2="-257.3"/>
				<line class="st1" x1="54.6" y1="-385.3" x2="182.6" y2="-257.3"/>
				<line class="st1" x1="75.9" y1="-385.3" x2="203.9" y2="-257.3"/>
				<line class="st1" x1="97.3" y1="-385.3" x2="225.3" y2="-257.3"/>
				<line class="st1" x1="139.9" y1="-385.3" x2="267.9" y2="-257.3"/>
				<line class="st1" x1="161.3" y1="-385.3" x2="289.3" y2="-257.3"/>
				<line class="st1" x1="182.6" y1="-385.3" x2="310.6" y2="-257.3"/>
				<line class="st1" x1="203.9" y1="-385.3" x2="331.9" y2="-257.3"/>
				<line class="st1" x1="225.3" y1="-385.3" x2="353.3" y2="-257.3"/>
			</g>
			<g>
				<line class="st1" x1="1.3" y1="-385.3" x2="129.3" y2="-257.3"/>
				<line class="st1" x1="22.6" y1="-385.3" x2="150.6" y2="-257.3"/>
				<line class="st1" x1="43.9" y1="-385.3" x2="171.9" y2="-257.3"/>
				<line class="st1" x1="65.3" y1="-385.3" x2="193.3" y2="-257.3"/>
				<line class="st1" x1="86.6" y1="-385.3" x2="214.6" y2="-257.3"/>
				<line class="st1" x1="107.9" y1="-385.3" x2="235.9" y2="-257.3"/>
				<line class="st1" x1="118.6" y1="-385.3" x2="246.6" y2="-257.3"/>
				<line class="st1" x1="11.9" y1="-385.3" x2="139.9" y2="-257.3"/>
				<line class="st1" x1="33.3" y1="-385.3" x2="161.3" y2="-257.3"/>
				<line class="st1" x1="54.6" y1="-385.3" x2="182.6" y2="-257.3"/>
				<line class="st1" x1="75.9" y1="-385.3" x2="203.9" y2="-257.3"/>
				<line class="st1" x1="97.3" y1="-385.3" x2="225.3" y2="-257.3"/>
			</g>
			<g>
				<line class="st1" x1="257.3" y1="-257.3" x2="385.3" y2="-129.3"/>
				<line class="st1" x1="150.6" y1="-257.3" x2="278.6" y2="-129.3"/>
				<line class="st1" x1="171.9" y1="-257.3" x2="299.9" y2="-129.3"/>
				<line class="st1" x1="193.3" y1="-257.3" x2="321.3" y2="-129.3"/>
				<line class="st1" x1="214.6" y1="-257.3" x2="342.6" y2="-129.3"/>
				<line class="st1" x1="235.9" y1="-257.3" x2="363.9" y2="-129.3"/>
				<line class="st1" x1="246.6" y1="-257.3" x2="374.6" y2="-129.3"/>
				<line class="st1" x1="139.9" y1="-257.3" x2="267.9" y2="-129.3"/>
				<line class="st1" x1="161.3" y1="-257.3" x2="289.3" y2="-129.3"/>
				<line class="st1" x1="182.6" y1="-257.3" x2="310.6" y2="-129.3"/>
				<line class="st1" x1="203.9" y1="-257.3" x2="331.9" y2="-129.3"/>
				<line class="st1" x1="225.3" y1="-257.3" x2="353.3" y2="-129.3"/>
			</g>
			<g>
				<line class="st1" x1="129.3" y1="-257.3" x2="257.3" y2="-129.3"/>
				<line class="st1" x1="22.6" y1="-257.3" x2="150.6" y2="-129.3"/>
				<line class="st1" x1="43.9" y1="-257.3" x2="171.9" y2="-129.3"/>
				<line class="st1" x1="65.3" y1="-257.3" x2="193.3" y2="-129.3"/>
				<line class="st1" x1="86.6" y1="-257.3" x2="214.6" y2="-129.3"/>
				<line class="st1" x1="107.9" y1="-257.3" x2="235.9" y2="-129.3"/>
				<line class="st1" x1="150.6" y1="-257.3" x2="278.6" y2="-129.3"/>
				<line class="st1" x1="171.9" y1="-257.3" x2="299.9" y2="-129.3"/>
				<line class="st1" x1="193.3" y1="-257.3" x2="321.3" y2="-129.3"/>
				<line class="st1" x1="214.6" y1="-257.3" x2="342.6" y2="-129.3"/>
				<line class="st1" x1="235.9" y1="-257.3" x2="363.9" y2="-129.3"/>
				<line class="st1" x1="246.6" y1="-257.3" x2="374.6" y2="-129.3"/>
				<line class="st1" x1="118.6" y1="-257.3" x2="246.6" y2="-129.3"/>
				<line class="st1" x1="11.9" y1="-257.3" x2="139.9" y2="-129.3"/>
				<line class="st1" x1="33.3" y1="-257.3" x2="161.3" y2="-129.3"/>
				<line class="st1" x1="54.6" y1="-257.3" x2="182.6" y2="-129.3"/>
				<line class="st1" x1="75.9" y1="-257.3" x2="203.9" y2="-129.3"/>
				<line class="st1" x1="97.3" y1="-257.3" x2="225.3" y2="-129.3"/>
				<line class="st1" x1="139.9" y1="-257.3" x2="267.9" y2="-129.3"/>
				<line class="st1" x1="161.3" y1="-257.3" x2="289.3" y2="-129.3"/>
				<line class="st1" x1="182.6" y1="-257.3" x2="310.6" y2="-129.3"/>
				<line class="st1" x1="203.9" y1="-257.3" x2="331.9" y2="-129.3"/>
				<line class="st1" x1="225.3" y1="-257.3" x2="353.3" y2="-129.3"/>
			</g>
			<g>
				<line class="st1" x1="1.3" y1="-257.3" x2="129.3" y2="-129.3"/>
				<line class="st1" x1="22.6" y1="-257.3" x2="150.6" y2="-129.3"/>
				<line class="st1" x1="43.9" y1="-257.3" x2="171.9" y2="-129.3"/>
				<line class="st1" x1="65.3" y1="-257.3" x2="193.3" y2="-129.3"/>
				<line class="st1" x1="86.6" y1="-257.3" x2="214.6" y2="-129.3"/>
				<line class="st1" x1="107.9" y1="-257.3" x2="235.9" y2="-129.3"/>
				<line class="st1" x1="118.6" y1="-257.3" x2="246.6" y2="-129.3"/>
				<line class="st1" x1="11.9" y1="-257.3" x2="139.9" y2="-129.3"/>
				<line class="st1" x1="33.3" y1="-257.3" x2="161.3" y2="-129.3"/>
				<line class="st1" x1="54.6" y1="-257.3" x2="182.6" y2="-129.3"/>
				<line class="st1" x1="75.9" y1="-257.3" x2="203.9" y2="-129.3"/>
				<line class="st1" x1="97.3" y1="-257.3" x2="225.3" y2="-129.3"/>
			</g>
			<g>
				<line class="st1" x1="257.3" y1="-129.3" x2="385.3" y2="-1.3"/>
				<line class="st1" x1="150.6" y1="-129.3" x2="278.6" y2="-1.3"/>
				<line class="st1" x1="171.9" y1="-129.3" x2="299.9" y2="-1.3"/>
				<line class="st1" x1="193.3" y1="-129.3" x2="321.3" y2="-1.3"/>
				<line class="st1" x1="214.6" y1="-129.3" x2="342.6" y2="-1.3"/>
				<line class="st1" x1="235.9" y1="-129.3" x2="363.9" y2="-1.3"/>
				<line class="st1" x1="246.6" y1="-129.3" x2="374.6" y2="-1.3"/>
				<line class="st1" x1="139.9" y1="-129.3" x2="267.9" y2="-1.3"/>
				<line class="st1" x1="161.3" y1="-129.3" x2="289.3" y2="-1.3"/>
				<line class="st1" x1="182.6" y1="-129.3" x2="310.6" y2="-1.3"/>
				<line class="st1" x1="203.9" y1="-129.3" x2="331.9" y2="-1.3"/>
				<line class="st1" x1="225.3" y1="-129.3" x2="353.3" y2="-1.3"/>
			</g>
			<g>
				<line class="st1" x1="129.3" y1="-129.3" x2="257.3" y2="-1.3"/>
				<line class="st1" x1="22.6" y1="-129.3" x2="150.6" y2="-1.3"/>
				<line class="st1" x1="43.9" y1="-129.3" x2="171.9" y2="-1.3"/>
				<line class="st1" x1="65.3" y1="-129.3" x2="193.3" y2="-1.3"/>
				<line class="st1" x1="86.6" y1="-129.3" x2="214.6" y2="-1.3"/>
				<line class="st1" x1="107.9" y1="-129.3" x2="235.9" y2="-1.3"/>
				<line class="st1" x1="150.6" y1="-129.3" x2="278.6" y2="-1.3"/>
				<line class="st1" x1="171.9" y1="-129.3" x2="299.9" y2="-1.3"/>
				<line class="st1" x1="193.3" y1="-129.3" x2="321.3" y2="-1.3"/>
				<line class="st1" x1="214.6" y1="-129.3" x2="342.6" y2="-1.3"/>
				<line class="st1" x1="235.9" y1="-129.3" x2="363.9" y2="-1.3"/>
				<line class="st1" x1="246.6" y1="-129.3" x2="374.6" y2="-1.3"/>
				<line class="st1" x1="118.6" y1="-129.3" x2="246.6" y2="-1.3"/>
				<line class="st1" x1="11.9" y1="-129.3" x2="139.9" y2="-1.3"/>
				<line class="st1" x1="33.3" y1="-129.3" x2="161.3" y2="-1.3"/>
				<line class="st1" x1="54.6" y1="-129.3" x2="182.6" y2="-1.3"/>
				<line class="st1" x1="75.9" y1="-129.3" x2="203.9" y2="-1.3"/>
				<line class="st1" x1="97.3" y1="-129.3" x2="225.3" y2="-1.3"/>
				<line class="st1" x1="139.9" y1="-129.3" x2="267.9" y2="-1.3"/>
				<line class="st1" x1="161.3" y1="-129.3" x2="289.3" y2="-1.3"/>
				<line class="st1" x1="182.6" y1="-129.3" x2="310.6" y2="-1.3"/>
				<line class="st1" x1="203.9" y1="-129.3" x2="331.9" y2="-1.3"/>
				<line class="st1" x1="225.3" y1="-129.3" x2="353.3" y2="-1.3"/>
			</g>
			<g>
				<line class="st1" x1="1.3" y1="-129.3" x2="129.3" y2="-1.3"/>
				<line class="st1" x1="22.6" y1="-129.3" x2="150.6" y2="-1.3"/>
				<line class="st1" x1="43.9" y1="-129.3" x2="171.9" y2="-1.3"/>
				<line class="st1" x1="65.3" y1="-129.3" x2="193.3" y2="-1.3"/>
				<line class="st1" x1="86.6" y1="-129.3" x2="214.6" y2="-1.3"/>
				<line class="st1" x1="107.9" y1="-129.3" x2="235.9" y2="-1.3"/>
				<line class="st1" x1="118.6" y1="-129.3" x2="246.6" y2="-1.3"/>
				<line class="st1" x1="11.9" y1="-129.3" x2="139.9" y2="-1.3"/>
				<line class="st1" x1="33.3" y1="-129.3" x2="161.3" y2="-1.3"/>
				<line class="st1" x1="54.6" y1="-129.3" x2="182.6" y2="-1.3"/>
				<line class="st1" x1="75.9" y1="-129.3" x2="203.9" y2="-1.3"/>
				<line class="st1" x1="97.3" y1="-129.3" x2="225.3" y2="-1.3"/>
			</g>
		</g>
	</g>
</pattern>
<g id="Layer_2_1_">
	<g id="Layer_2_2_">
		<g id="PROX_DASH_2_">
			<g>
				<pattern  id="SVGID_5_" xlink:href="#SVGID_1_" patternTransform="matrix(1 0 0 -1 37.41 -17858.8672)">
				</pattern>
				<polygon class="st2" points="185.5,332.4 148.4,369.5 135,369.5 97.9,332.4 97.9,319 135,281.9 148.4,281.9 185.5,319 				"/>
				<pattern  id="SVGID_6_" xlink:href="#SVGID_2_" patternTransform="matrix(1 0 0 -1 37.41 -17858.8672)">
				</pattern>
				<polygon class="st3" points="185.5,462.7 148.4,499.9 135,499.9 97.9,462.7 97.9,449.3 135,412.2 148.4,412.2 185.5,449.3 				
					"/>
				<pattern  id="SVGID_7_" xlink:href="#SVGID_3_" patternTransform="matrix(1 0 0 -1 37.41 -17858.8672)">
				</pattern>
				<polygon class="st4" points="316.4,332.6 279.3,369.8 265.9,369.8 228.8,332.6 228.8,319.3 265.9,282.1 279.3,282.1 
					316.4,319.3 				"/>
				<pattern  id="SVGID_8_" xlink:href="#SVGID_4_" patternTransform="matrix(1 0 0 -1 37.41 -17858.8672)">
				</pattern>
				<polygon class="st5" points="315.9,462.7 278.7,499.9 265.3,499.9 228.2,462.7 228.2,449.3 265.3,412.2 278.7,412.2 
					315.9,449.3 				"/>
			</g>
		</g>
	</g>
	<g id="HIGHLIGHT_9_">
		<polygon class="st6" points="251.2,397.6 213.7,435.1 200.3,435.1 162.8,397.6 162.8,384.1 200.3,346.6 213.7,346.6 251.2,384.1 
					"/>
		<g>
			<polygon class="st6" points="120.6,397.6 83.1,435.1 69.6,435.1 32.1,397.6 32.1,384.1 69.6,346.6 83.1,346.6 120.6,384.1 			"/>
			<polygon class="st6" points="381.9,397.6 344.4,435.1 330.9,435.1 293.4,397.6 293.4,384.1 330.9,346.6 344.4,346.6 381.9,384.1 
							"/>
		</g>
		<g>
			<polygon class="st6" points="213.7,477.3 251.2,514.8 251.2,528.2 213.7,565.7 200.3,565.7 162.8,528.2 162.8,514.8 200.3,477.3 
							"/>
			<polygon class="st6" points="213.7,216 251.2,253.5 251.2,267 213.7,304.5 200.3,304.5 162.8,267 162.8,253.5 200.3,216 			"/>
		</g>
		<g>
			<polygon class="st6" points="185.9,332.3 148.4,369.8 134.9,369.8 97.4,332.3 97.4,318.8 134.9,281.3 148.4,281.3 185.9,318.8 
							"/>
			<polygon class="st6" points="185.9,462.9 148.4,500.4 134.9,500.4 97.4,462.9 97.4,449.5 134.9,412 148.4,412 185.9,449.5 			"/>
			<polygon class="st6" points="316.5,332.3 279.1,369.8 265.6,369.8 228.1,332.3 228.1,318.8 265.6,281.3 279.1,281.3 316.5,318.8 
							"/>
			<polygon class="st6" points="316.5,462.9 279.1,500.4 265.6,500.4 228.1,462.9 228.1,449.5 265.6,412 279.1,412 316.5,449.5 			
				"/>
		</g>
	</g>
</g>
<g id="Layer_3">
	<g>
		<path class="st7" d="M52.6,120h1.7l2.4,7.1h-1.4l-0.6-1.8H52l-0.6,1.8h-1.2L52.6,120z M52.3,124.4h2.1l-1-3.3L52.3,124.4z"/>
		<path class="st7" d="M57.1,124.6L57.1,124.6c0-1.7,1.2-2.8,2.6-2.8c1.2,0,2.2,0.5,2.4,2H61c-0.1-0.7-0.6-1-1.2-1
			c-0.8,0-1.4,0.6-1.4,1.7v0.1c0,1.1,0.6,1.7,1.4,1.7c0.6,0,1.2-0.4,1.3-1.1h1.1c-0.1,1.2-1,2-2.4,2
			C58.3,127.3,57.1,126.3,57.1,124.6z"/>
		<path class="st7" d="M62.9,124.6L62.9,124.6c0-1.7,1.1-2.8,2.6-2.8c1.3,0,2.5,0.8,2.5,2.6v0.4h-3.8c0,1,0.5,1.5,1.4,1.5
			c0.7,0,1.1-0.3,1.2-0.8h1.2c-0.2,1.1-1.1,1.7-2.4,1.7C64,127.3,62.9,126.3,62.9,124.6z M66.8,124c-0.1-0.9-0.5-1.3-1.3-1.3
			c-0.7,0-1.2,0.5-1.3,1.3H66.8z"/>
		<path class="st7" d="M69,122h1.2v1c0.3-0.7,0.8-1,1.7-1.1v1.1c-1.1,0-1.7,0.3-1.7,1.5v2.7H69V122z"/>
		<path class="st7" d="M72.6,124.6L72.6,124.6c0-1.7,1.2-2.8,2.6-2.8c1.2,0,2.2,0.5,2.4,2h-1.2c-0.1-0.7-0.6-1-1.2-1
			c-0.8,0-1.4,0.6-1.4,1.7v0.1c0,1.1,0.6,1.7,1.4,1.7c0.6,0,1.2-0.4,1.3-1.1h1.1c-0.1,1.2-1,2-2.4,2
			C73.7,127.3,72.6,126.3,72.6,124.6z"/>
		<path class="st7" d="M78.3,125.7c0-1.2,1.2-1.7,2.7-1.7h0.6v-0.3c0-0.7-0.2-1-0.9-1c-0.6,0-0.9,0.3-1,0.8h-1.2
			c0.1-1.2,1.1-1.7,2.2-1.7s2.1,0.5,2.1,1.9v3.4h-1.2v-0.6c-0.3,0.4-0.8,0.7-1.6,0.7C79.1,127.3,78.3,126.8,78.3,125.7z M81.6,125.4
			v-0.5H81c-0.9,0-1.5,0.2-1.5,0.8c0,0.4,0.2,0.7,0.8,0.7C81.1,126.4,81.6,126,81.6,125.4z"/>
		<path class="st7" d="M86.3,124.7L86.3,124.7c0-1.7,1-2.8,2.3-2.8c0.8,0,1.4,0.4,1.7,0.9v-3.2h1.2v7.6h-1.2v-0.9
			c-0.3,0.5-0.9,1-1.7,1C87.2,127.3,86.3,126.4,86.3,124.7z M90.3,124.6L90.3,124.6c0-1.2-0.5-1.8-1.4-1.8c-0.9,0-1.4,0.6-1.4,1.7
			v0.1c0,1.1,0.6,1.7,1.4,1.7C89.7,126.3,90.3,125.8,90.3,124.6z"/>
		<path class="st7" d="M92.6,124.6L92.6,124.6c0-1.7,1.1-2.8,2.6-2.8c1.3,0,2.5,0.8,2.5,2.6v0.4h-3.8c0,1,0.5,1.5,1.4,1.5
			c0.7,0,1.1-0.3,1.2-0.8h1.2c-0.2,1.1-1.1,1.7-2.4,1.7C93.7,127.3,92.6,126.3,92.6,124.6z M96.4,124c-0.1-0.9-0.5-1.3-1.3-1.3
			c-0.7,0-1.2,0.5-1.3,1.3H96.4z"/>
		<path class="st7" d="M98.8,119.5h1.2v7.6h-1.2V119.5z"/>
		<path class="st7" d="M58,132h4.4v1.1h-3.1v2.1h2.4v1h-2.4v2.9H58V132z"/>
		<path class="st7" d="M62.9,136.6L62.9,136.6c0-1.7,1.1-2.8,2.6-2.8c1.3,0,2.5,0.8,2.5,2.6v0.4h-3.8c0,1,0.5,1.5,1.4,1.5
			c0.7,0,1.1-0.3,1.2-0.8h1.2c-0.2,1.1-1.1,1.7-2.4,1.7C64,139.3,62.9,138.3,62.9,136.6z M66.8,136c-0.1-0.9-0.5-1.3-1.3-1.3
			c-0.7,0-1.2,0.5-1.3,1.3H66.8z"/>
		<path class="st7" d="M68.7,137.6h1.1c0.1,0.5,0.3,0.8,1,0.8c0.6,0,0.9-0.2,0.9-0.7c0-0.4-0.3-0.6-1.1-0.7
			c-1.4-0.2-1.9-0.6-1.9-1.6c0-1,1-1.6,2-1.6c1.1,0,1.9,0.4,2,1.6h-1.1c-0.1-0.5-0.4-0.7-0.9-0.7c-0.5,0-0.8,0.2-0.8,0.6
			c0,0.4,0.2,0.5,1.1,0.7c1.2,0.2,2,0.5,2,1.6c0,1.1-0.8,1.7-2.1,1.7C69.5,139.3,68.7,138.7,68.7,137.6z"/>
		<path class="st7" d="M74.2,137.7v-2.9h-0.7V134h0.7v-1.1h1.2v1.1h1.1v0.9h-1.1v2.7c0,0.5,0.2,0.7,0.6,0.7c0.2,0,0.4,0,0.6-0.1v1
			c-0.2,0.1-0.4,0.1-0.8,0.1C74.8,139.3,74.2,138.7,74.2,137.7z"/>
		<path class="st7" d="M77.6,132.4c0-0.4,0.3-0.7,0.7-0.7s0.7,0.3,0.7,0.7c0,0.4-0.3,0.7-0.7,0.7S77.6,132.8,77.6,132.4z M77.7,134
			H79v5.2h-1.2V134z"/>
		<path class="st7" d="M79.9,134h1.3l1.4,4l1.3-4h1.2l-1.9,5.2h-1.4L79.9,134z"/>
		<path class="st7" d="M85.5,137.7c0-1.2,1.2-1.7,2.7-1.7h0.6v-0.3c0-0.7-0.2-1-0.9-1c-0.6,0-0.9,0.3-1,0.8h-1.2
			c0.1-1.2,1.1-1.7,2.2-1.7s2.1,0.5,2.1,1.9v3.4h-1.2v-0.6c-0.3,0.4-0.8,0.7-1.6,0.7C86.3,139.3,85.5,138.8,85.5,137.7z M88.8,137.4
			v-0.5h-0.6c-0.9,0-1.5,0.2-1.5,0.8c0,0.4,0.2,0.7,0.8,0.7C88.3,138.4,88.8,138,88.8,137.4z"/>
		<path class="st7" d="M91.5,131.5h1.2v7.6h-1.2V131.5z"/>
	</g>
	<g>
		<path class="st7" d="M315.5,120.3h4.5v1h-3.1v2h2.5v1h-2.5v2.1h3.3v1h-4.6V120.3z"/>
		<path class="st7" d="M320.9,125L320.9,125c0-1.7,1-2.8,2.3-2.8c0.8,0,1.4,0.4,1.7,0.9v-3.2h1.2v7.6h-1.2v-0.9
			c-0.3,0.5-0.9,1-1.7,1C321.9,127.6,320.9,126.7,320.9,125z M325,124.9L325,124.9c0-1.2-0.5-1.8-1.4-1.8c-0.9,0-1.4,0.6-1.4,1.7
			v0.1c0,1.1,0.6,1.7,1.4,1.7C324.3,126.6,325,126.1,325,124.9z"/>
		<path class="st7" d="M327.5,120.7c0-0.4,0.3-0.7,0.7-0.7s0.7,0.3,0.7,0.7c0,0.4-0.3,0.7-0.7,0.7S327.5,121.1,327.5,120.7z
			 M327.6,122.3h1.2v5.2h-1.2V122.3z"/>
		<path class="st7" d="M329.9,124.9L329.9,124.9c0-1.7,1.2-2.8,2.6-2.8c1.2,0,2.2,0.5,2.4,2h-1.2c-0.1-0.7-0.6-1-1.2-1
			c-0.8,0-1.4,0.6-1.4,1.7v0.1c0,1.1,0.6,1.7,1.4,1.7c0.6,0,1.2-0.4,1.3-1.1h1.1c-0.1,1.2-1,2-2.4,2
			C331.1,127.6,329.9,126.6,329.9,124.9z"/>
		<path class="st7" d="M335.9,120.7c0-0.4,0.3-0.7,0.7-0.7s0.7,0.3,0.7,0.7c0,0.4-0.3,0.7-0.7,0.7S335.9,121.1,335.9,120.7z
			 M336.1,122.3h1.2v5.2h-1.2V122.3z"/>
		<path class="st7" d="M338.4,124.9L338.4,124.9c0-1.7,1.1-2.8,2.7-2.8c1.5,0,2.7,1.1,2.7,2.7v0.1c0,1.6-1.1,2.7-2.7,2.7
			S338.4,126.5,338.4,124.9z M342.5,124.9L342.5,124.9c0-1.1-0.5-1.8-1.4-1.8c-0.9,0-1.4,0.6-1.4,1.7v0.1c0,1.1,0.5,1.7,1.4,1.7
			C342,126.7,342.5,126,342.5,124.9z"/>
		<path class="st7" d="M344.8,122.3h1.2v0.8c0.2-0.5,0.8-0.9,1.7-0.9c1,0,1.8,0.6,1.8,2v3.3h-1.2v-3.2c0-0.8-0.3-1.1-1-1.1
			c-0.7,0-1.2,0.4-1.2,1.2v3.1h-1.2V122.3z"/>
		<path class="st7" d="M350.6,124.9L350.6,124.9c0-1.7,1.1-2.8,2.6-2.8c1.3,0,2.5,0.8,2.5,2.6v0.4h-3.8c0,1,0.5,1.5,1.4,1.5
			c0.7,0,1.1-0.3,1.2-0.8h1.2c-0.2,1.1-1.1,1.7-2.4,1.7C351.7,127.6,350.6,126.6,350.6,124.9z M354.4,124.3
			c-0.1-0.9-0.5-1.3-1.3-1.3c-0.7,0-1.2,0.5-1.3,1.3H354.4z"/>
		<path class="st7" d="M356.4,125.9h1.1c0.1,0.5,0.3,0.8,1,0.8c0.6,0,0.9-0.2,0.9-0.7c0-0.4-0.3-0.6-1.1-0.7
			c-1.4-0.2-1.9-0.6-1.9-1.6c0-1,1-1.6,2-1.6c1.1,0,1.9,0.4,2,1.6h-1.1c-0.1-0.5-0.4-0.7-0.9-0.7c-0.5,0-0.8,0.2-0.8,0.6
			c0,0.4,0.2,0.5,1.1,0.7c1.2,0.2,2,0.5,2,1.6c0,1.1-0.8,1.7-2.1,1.7C357.2,127.6,356.4,127,356.4,125.9z"/>
		<path class="st7" d="M321.2,134.3h1.2v0.8c0.3-0.5,0.9-0.9,1.7-0.9c1.3,0,2.3,1,2.3,2.7v0.1c0,1.7-1,2.7-2.3,2.7
			c-0.8,0-1.4-0.4-1.7-0.9v2.6h-1.2V134.3z M325.2,136.9L325.2,136.9c0-1.2-0.6-1.8-1.4-1.8c-0.8,0-1.4,0.6-1.4,1.7v0.1
			c0,1.2,0.6,1.7,1.4,1.7C324.7,138.6,325.2,138,325.2,136.9z"/>
		<path class="st7" d="M327.5,134.3h1.2v1c0.3-0.7,0.8-1,1.7-1.1v1.1c-1.1,0-1.7,0.3-1.7,1.5v2.7h-1.2V134.3z"/>
		<path class="st7" d="M331.1,136.9L331.1,136.9c0-1.7,1.1-2.8,2.6-2.8c1.3,0,2.5,0.8,2.5,2.6v0.4h-3.8c0,1,0.5,1.5,1.4,1.5
			c0.7,0,1.1-0.3,1.2-0.8h1.2c-0.2,1.1-1.1,1.7-2.4,1.7C332.2,139.6,331.1,138.6,331.1,136.9z M334.9,136.3
			c-0.1-0.9-0.5-1.3-1.3-1.3c-0.7,0-1.2,0.5-1.3,1.3H334.9z"/>
		<path class="st7" d="M336.6,134.3h1.3l1.4,4l1.3-4h1.2l-1.9,5.2h-1.4L336.6,134.3z"/>
		<path class="st7" d="M342.6,132.7c0-0.4,0.3-0.7,0.7-0.7c0.4,0,0.7,0.3,0.7,0.7c0,0.4-0.3,0.7-0.7,0.7
			C342.9,133.4,342.6,133.1,342.6,132.7z M342.7,134.3h1.2v5.2h-1.2V134.3z"/>
		<path class="st7" d="M345,138c0-1.2,1.2-1.7,2.7-1.7h0.6v-0.3c0-0.7-0.2-1-0.9-1c-0.6,0-0.9,0.3-1,0.8h-1.2
			c0.1-1.2,1.1-1.7,2.2-1.7c1.2,0,2.1,0.5,2.1,1.9v3.4h-1.2v-0.6c-0.3,0.4-0.8,0.7-1.6,0.7C345.8,139.6,345,139.1,345,138z
			 M348.3,137.7v-0.5h-0.6c-0.9,0-1.5,0.2-1.5,0.8c0,0.4,0.2,0.7,0.8,0.7C347.8,138.7,348.3,138.3,348.3,137.7z"/>
		<path class="st7" d="M350.5,137.9h1.1c0.1,0.5,0.3,0.8,1,0.8c0.7,0,0.9-0.2,0.9-0.7c0-0.4-0.3-0.6-1.1-0.7
			c-1.4-0.2-1.9-0.6-1.9-1.6c0-1,1-1.6,2-1.6c1.1,0,1.9,0.4,2,1.6h-1.1c-0.1-0.5-0.4-0.7-0.9-0.7c-0.5,0-0.8,0.2-0.8,0.6
			c0,0.4,0.2,0.5,1.1,0.7c1.2,0.2,2,0.5,2,1.6c0,1.1-0.8,1.7-2.1,1.7C351.4,139.6,350.6,139,350.5,137.9z"/>
	</g>
	<g>
		<path class="st8" d="M196.7,144.1v6.1c7,0,12.8-5.7,12.8-12.8c0-3.9-1.7-7.4-4.5-9.7c2.8-2.3,4.5-5.8,4.5-9.7c0-0.5,0-1-0.1-1.5
			l-6.2,0c0.1,0.5,0.2,1,0.2,1.5c0,3.7-3,6.6-6.6,6.6v6.2c3.7,0,6.6,3,6.6,6.6C203.3,141.1,200.3,144.1,196.7,144.1L196.7,144.1z"/>
		<path class="st9" d="M217.2,128.5c0,2.4,1.2,4.5,3.1,5.7l3.6-3.6l3.6,3.6c1.9-1.2,3.1-3.3,3.1-5.6c0-3.7-3-6.7-6.7-6.7
			C220.2,121.8,217.2,124.8,217.2,128.5z M231.2,146.5l-5.3-5.3c-0.6,0.1-1.3,0.2-2,0.2c-7.1,0-12.9-5.8-12.9-12.9
			c0-7.1,5.8-12.9,12.9-12.9c7.1,0,12.9,5.8,12.9,12.9c0,4.1-1.9,7.7-4.8,10.1l3.6,3.6L231.2,146.5z"/>
		<polygon class="st10" points="177.2,116.5 177.2,140.5 183.2,140.5 183.2,130.9 193.4,130.9 193.4,126.2 183.2,126.2 183.2,121.2 
			193.4,121.2 193.4,116.5 		"/>
	</g>
	<g>
		<circle class="st8" cx="76.2" cy="780.2" r="18.7"/>
		<g>
			<path class="st7" d="M37.9,771.5h1.9c1.2,0,2.3,0.5,2.3,1.8v0c0,1.1-0.7,1.6-1.6,1.8l2,2.9h-0.9l-1.9-2.8h-1v2.8h-0.8V771.5z
				 M39.9,774.6c0.9,0,1.4-0.4,1.4-1.2v0c0-0.9-0.5-1.2-1.4-1.2h-1.2v2.4H39.9z"/>
			<path class="st7" d="M43,775.7L43,775.7c0-1.5,0.9-2.5,2.2-2.5c1.1,0,2.1,0.7,2.1,2.3v0.2h-3.5c0,1.1,0.5,1.7,1.5,1.7
				c0.7,0,1.2-0.3,1.3-0.8h0.7c-0.2,0.9-0.9,1.4-2,1.4C44,778.1,43,777.1,43,775.7z M46.6,775.2c-0.1-1-0.6-1.4-1.4-1.4
				c-0.8,0-1.3,0.5-1.4,1.4H46.6z"/>
			<path class="st7" d="M48.1,775.7L48.1,775.7c0-1.5,1-2.5,2.3-2.5c1,0,1.9,0.5,2,1.6h-0.7c-0.1-0.7-0.7-1-1.3-1
				c-0.9,0-1.5,0.7-1.5,1.8v0.1c0,1.2,0.6,1.8,1.5,1.8c0.7,0,1.3-0.4,1.4-1.2h0.7c-0.1,1-0.9,1.8-2.1,1.8
				C49.1,778.1,48.1,777.1,48.1,775.7z"/>
			<path class="st7" d="M53.3,775.7L53.3,775.7c0-1.5,1-2.5,2.3-2.5s2.3,1,2.3,2.4v0.1c0,1.4-1,2.4-2.3,2.4S53.3,777,53.3,775.7z
				 M57.1,775.7L57.1,775.7c0-1.2-0.6-1.9-1.5-1.9c-0.9,0-1.5,0.7-1.5,1.8v0.1c0,1.1,0.6,1.8,1.5,1.8
				C56.5,777.4,57.1,776.7,57.1,775.7z"/>
			<path class="st7" d="M59.1,773.3h0.7v0.7c0.2-0.4,0.7-0.8,1.4-0.8c0.6,0,1.1,0.3,1.4,0.9c0.3-0.6,1-0.9,1.6-0.9
				c0.8,0,1.6,0.5,1.6,1.9v2.9H65v-3c0-0.8-0.4-1.2-1-1.2c-0.6,0-1.2,0.4-1.2,1.3v2.9h-0.7v-3c0-0.8-0.4-1.2-1-1.2
				c-0.6,0-1.2,0.4-1.2,1.3v2.9h-0.7V773.3z"/>
			<path class="st7" d="M66.9,775.7L66.9,775.7c0-1.5,0.9-2.5,2.2-2.5c1.1,0,2.1,0.7,2.1,2.3v0.2h-3.5c0,1.1,0.5,1.7,1.5,1.7
				c0.7,0,1.2-0.3,1.3-0.8h0.7c-0.2,0.9-0.9,1.4-2,1.4C67.9,778.1,66.9,777.1,66.9,775.7z M70.5,775.2c-0.1-1-0.6-1.4-1.4-1.4
				c-0.8,0-1.3,0.5-1.4,1.4H70.5z"/>
			<path class="st7" d="M72.4,773.3h0.7v0.7c0.2-0.4,0.7-0.8,1.5-0.8c1,0,1.7,0.5,1.7,1.9v2.9h-0.7V775c0-0.8-0.4-1.2-1.1-1.2
				c-0.7,0-1.3,0.4-1.3,1.3v2.9h-0.7V773.3z"/>
			<path class="st7" d="M77.4,775.7L77.4,775.7c0-1.5,0.9-2.5,2.2-2.5c0.8,0,1.3,0.4,1.5,0.8v-3h0.7v7h-0.7v-0.8
				c-0.3,0.5-0.9,0.9-1.6,0.9C78.3,778.1,77.4,777.2,77.4,775.7z M81.2,775.7L81.2,775.7c0-1.3-0.6-1.8-1.5-1.8
				c-0.9,0-1.5,0.7-1.5,1.8v0.1c0,1.2,0.6,1.8,1.4,1.8C80.5,777.4,81.2,776.9,81.2,775.7z"/>
			<path class="st7" d="M83,776.7c0-1.1,1.2-1.5,2.4-1.5H86v-0.3c0-0.7-0.3-1.1-1-1.1c-0.6,0-1,0.3-1.1,0.8h-0.7
				c0.1-1.1,1-1.5,1.9-1.5c0.9,0,1.7,0.4,1.7,1.7v3.1H86v-0.6c-0.4,0.4-0.8,0.7-1.5,0.7C83.7,778.1,83,777.6,83,776.7z M86,776.3
				v-0.6h-0.6c-0.9,0-1.6,0.2-1.6,0.9c0,0.5,0.2,0.8,0.9,0.8C85.4,777.5,86,777.1,86,776.3z"/>
			<path class="st7" d="M87.9,775.7L87.9,775.7c0-1.5,1-2.5,2.3-2.5c1,0,1.9,0.5,2,1.6h-0.7c-0.1-0.7-0.7-1-1.3-1
				c-0.9,0-1.5,0.7-1.5,1.8v0.1c0,1.2,0.6,1.8,1.5,1.8c0.7,0,1.3-0.4,1.4-1.2h0.7c-0.1,1-0.9,1.8-2.1,1.8
				C88.9,778.1,87.9,777.1,87.9,775.7z"/>
			<path class="st7" d="M93.3,771.8c0-0.3,0.2-0.5,0.5-0.5s0.5,0.2,0.5,0.5c0,0.3-0.2,0.5-0.5,0.5S93.3,772.1,93.3,771.8z
				 M93.4,773.3h0.7v4.7h-0.7V773.3z"/>
			<path class="st7" d="M95.3,775.7L95.3,775.7c0-1.5,1-2.5,2.3-2.5s2.3,1,2.3,2.4v0.1c0,1.4-1,2.4-2.3,2.4
				C96.3,778.1,95.3,777,95.3,775.7z M99.2,775.7L99.2,775.7c0-1.2-0.6-1.9-1.5-1.9c-0.9,0-1.5,0.7-1.5,1.8v0.1
				c0,1.1,0.6,1.8,1.5,1.8C98.6,777.4,99.2,776.7,99.2,775.7z"/>
			<path class="st7" d="M101.1,773.3h0.7v0.7c0.2-0.4,0.7-0.8,1.5-0.8c1,0,1.7,0.5,1.7,1.9v2.9h-0.7V775c0-0.8-0.4-1.2-1.1-1.2
				c-0.7,0-1.3,0.4-1.3,1.3v2.9h-0.7V773.3z"/>
			<path class="st7" d="M106.1,775.7L106.1,775.7c0-1.5,0.9-2.5,2.2-2.5c1.1,0,2.1,0.7,2.1,2.3v0.2h-3.5c0,1.1,0.5,1.7,1.5,1.7
				c0.7,0,1.2-0.3,1.3-0.8h0.7c-0.2,0.9-0.9,1.4-2,1.4C107.1,778.1,106.1,777.1,106.1,775.7z M109.7,775.2c-0.1-1-0.6-1.4-1.4-1.4
				c-0.8,0-1.3,0.5-1.4,1.4H109.7z"/>
			<path class="st7" d="M111.3,776.5h0.7c0.1,0.6,0.4,0.9,1.1,0.9c0.7,0,1-0.2,1-0.7c0-0.5-0.4-0.7-1.1-0.8
				c-1.2-0.2-1.6-0.6-1.6-1.4c0-0.9,0.9-1.3,1.6-1.3c0.8,0,1.6,0.3,1.7,1.4H114c-0.1-0.5-0.4-0.7-1-0.7c-0.5,0-0.9,0.3-0.9,0.7
				c0,0.4,0.2,0.6,1.1,0.7c1,0.2,1.7,0.4,1.7,1.4c0,0.9-0.6,1.4-1.7,1.4C112,778.1,111.3,777.5,111.3,776.5z"/>
			<path class="st7" d="M41.9,786.5L41.9,786.5c0-1.5,0.9-2.5,2.2-2.5c0.8,0,1.3,0.4,1.5,0.8v-3h0.7v7h-0.7V788
				c-0.3,0.5-0.9,0.9-1.6,0.9C42.8,788.9,41.9,788,41.9,786.5z M45.6,786.5L45.6,786.5c0-1.3-0.6-1.8-1.5-1.8
				c-0.9,0-1.5,0.7-1.5,1.8v0.1c0,1.2,0.6,1.8,1.4,1.8C45,788.2,45.6,787.7,45.6,786.5z"/>
			<path class="st7" d="M47.5,786.5L47.5,786.5c0-1.5,0.9-2.5,2.2-2.5c1.1,0,2.1,0.7,2.1,2.3v0.2h-3.5c0,1.1,0.5,1.7,1.5,1.7
				c0.7,0,1.2-0.3,1.3-0.8h0.7c-0.2,0.9-0.9,1.4-2,1.4C48.5,788.9,47.5,787.9,47.5,786.5z M51.1,786c-0.1-1-0.6-1.4-1.4-1.4
				c-0.8,0-1.3,0.5-1.4,1.4H51.1z"/>
			<path class="st7" d="M55.3,787.1v-3h0.7v2.9c0,0.8,0.4,1.2,1.1,1.2c0.7,0,1.3-0.4,1.3-1.3v-2.9h0.7v4.7h-0.7V788
				c-0.2,0.4-0.7,0.8-1.5,0.8C56,788.9,55.3,788.4,55.3,787.1z"/>
			<path class="st7" d="M60.3,787.3H61c0.1,0.6,0.4,0.9,1.1,0.9c0.7,0,1-0.2,1-0.7c0-0.5-0.4-0.7-1.1-0.8c-1.2-0.2-1.6-0.6-1.6-1.4
				c0-0.9,0.9-1.3,1.6-1.3c0.8,0,1.6,0.3,1.7,1.4H63c-0.1-0.5-0.4-0.7-1-0.7c-0.5,0-0.9,0.3-0.9,0.7c0,0.4,0.2,0.6,1.1,0.7
				c1,0.2,1.7,0.4,1.7,1.4c0,0.9-0.6,1.4-1.7,1.4C61,788.9,60.4,788.3,60.3,787.3z"/>
			<path class="st7" d="M64.7,786.5L64.7,786.5c0-1.5,1-2.5,2.3-2.5s2.3,1,2.3,2.4v0.1c0,1.4-1,2.4-2.3,2.4S64.7,787.8,64.7,786.5z
				 M68.5,786.5L68.5,786.5c0-1.2-0.6-1.9-1.5-1.9c-0.9,0-1.5,0.7-1.5,1.8v0.1c0,1.1,0.6,1.8,1.5,1.8
				C67.9,788.2,68.5,787.5,68.5,786.5z"/>
			<path class="st7" d="M72.5,786.5L72.5,786.5c0-1.5,0.9-2.5,2.2-2.5c1.1,0,2.1,0.7,2.1,2.3v0.2h-3.5c0,1.1,0.5,1.7,1.5,1.7
				c0.7,0,1.2-0.3,1.3-0.8h0.7c-0.2,0.9-0.9,1.4-2,1.4C73.4,788.9,72.5,787.9,72.5,786.5z M76.1,786c-0.1-1-0.6-1.4-1.4-1.4
				c-0.8,0-1.3,0.5-1.4,1.4H76.1z"/>
			<path class="st7" d="M78,784.1h0.7v0.7c0.2-0.4,0.7-0.8,1.5-0.8c1,0,1.7,0.5,1.7,1.9v2.9h-0.7v-2.9c0-0.8-0.4-1.2-1.1-1.2
				c-0.7,0-1.3,0.4-1.3,1.3v2.9H78V784.1z"/>
			<path class="st7" d="M85.7,781.8h0.8v7h-0.8V781.8z"/>
			<path class="st7" d="M87.6,787.5c0-1.1,1.2-1.5,2.4-1.5h0.7v-0.3c0-0.7-0.3-1.1-1-1.1c-0.6,0-1,0.3-1.1,0.8h-0.7
				c0.1-1.1,1-1.5,1.9-1.5c0.9,0,1.7,0.4,1.7,1.7v3.1h-0.7v-0.6c-0.4,0.4-0.8,0.7-1.5,0.7C88.3,788.9,87.6,788.4,87.6,787.5z
				 M90.7,787.1v-0.6H90c-0.9,0-1.6,0.2-1.6,0.9c0,0.5,0.2,0.8,0.9,0.8C90.1,788.3,90.7,787.9,90.7,787.1z"/>
			<path class="st7" d="M94.9,787.3h0.7c0.1,0.6,0.4,0.9,1.1,0.9c0.7,0,1-0.2,1-0.7c0-0.5-0.4-0.7-1.1-0.8c-1.2-0.2-1.6-0.6-1.6-1.4
				c0-0.9,0.9-1.3,1.6-1.3c0.8,0,1.6,0.3,1.7,1.4h-0.7c-0.1-0.5-0.4-0.7-1-0.7c-0.5,0-0.9,0.3-0.9,0.7c0,0.4,0.2,0.6,1.1,0.7
				c1,0.2,1.7,0.4,1.7,1.4c0,0.9-0.6,1.4-1.7,1.4C95.6,788.9,94.9,788.3,94.9,787.3z"/>
			<path class="st7" d="M99.2,787.5c0-1.1,1.2-1.5,2.4-1.5h0.7v-0.3c0-0.7-0.3-1.1-1-1.1c-0.6,0-1,0.3-1.1,0.8h-0.7
				c0.1-1.1,1-1.5,1.9-1.5c0.9,0,1.7,0.4,1.7,1.7v3.1h-0.7v-0.6c-0.4,0.4-0.8,0.7-1.5,0.7C99.9,788.9,99.2,788.4,99.2,787.5z
				 M102.2,787.1v-0.6h-0.6c-0.9,0-1.6,0.2-1.6,0.9c0,0.5,0.2,0.8,0.9,0.8C101.6,788.3,102.2,787.9,102.2,787.1z"/>
			<path class="st7" d="M104.5,781.8h0.8v7h-0.8V781.8z"/>
			<path class="st7" d="M106.4,787.5c0-1.1,1.2-1.5,2.4-1.5h0.7v-0.3c0-0.7-0.3-1.1-1-1.1c-0.6,0-1,0.3-1.1,0.8h-0.7
				c0.1-1.1,1-1.5,1.9-1.5c0.9,0,1.7,0.4,1.7,1.7v3.1h-0.7v-0.6c-0.4,0.4-0.8,0.7-1.5,0.7C107.1,788.9,106.4,788.4,106.4,787.5z
				 M109.4,787.1v-0.6h-0.6c-0.9,0-1.6,0.2-1.6,0.9c0,0.5,0.2,0.8,0.9,0.8C108.8,788.3,109.4,787.9,109.4,787.1z"/>
		</g>
		<circle class="st8" cx="337.8" cy="780.2" r="18.7"/>
		<g>
			<path class="st7" d="M319.1,771.6h1.8c1.2,0,2.3,0.5,2.3,1.9v0c0,1.4-1,1.9-2.3,1.9h-1v2.6h-0.8V771.6z M321,774.8
				c0.9,0,1.4-0.5,1.4-1.3v0c0-0.9-0.5-1.3-1.4-1.3h-1.1v2.6H321z"/>
			<path class="st7" d="M323.8,775.7L323.8,775.7c0-1.5,0.9-2.5,2.2-2.5c1.1,0,2.1,0.7,2.1,2.3v0.2h-3.5c0,1.1,0.5,1.7,1.5,1.7
				c0.7,0,1.2-0.3,1.3-0.8h0.7c-0.2,0.9-0.9,1.4-2,1.4C324.8,778.1,323.8,777.2,323.8,775.7z M327.4,775.2c-0.1-1-0.6-1.4-1.4-1.4
				c-0.8,0-1.3,0.5-1.4,1.4H327.4z"/>
			<path class="st7" d="M329,778.3h0.8c0.1,0.5,0.6,0.8,1.4,0.8c0.9,0,1.5-0.4,1.5-1.4V777c-0.3,0.5-0.9,0.9-1.6,0.9
				c-1.2,0-2.1-0.9-2.1-2.2v-0.1c0-1.3,0.9-2.3,2.2-2.3c0.8,0,1.3,0.4,1.5,0.8v-0.8h0.7v4.4c0,1.4-0.9,2-2.3,2
				C329.8,779.8,329.2,779.1,329,778.3z M332.7,775.6L332.7,775.6c0-1.1-0.6-1.7-1.5-1.7c-0.9,0-1.5,0.7-1.5,1.7v0.1
				c0,1,0.7,1.6,1.4,1.6C332,777.3,332.7,776.7,332.7,775.6z"/>
			<path class="st7" d="M334.9,776.3v-3h0.7v2.9c0,0.8,0.4,1.2,1.1,1.2c0.7,0,1.3-0.4,1.3-1.3v-2.9h0.7v4.7H338v-0.7
				c-0.2,0.4-0.7,0.8-1.5,0.8C335.6,778.1,334.9,777.6,334.9,776.3z"/>
			<path class="st7" d="M340.3,773.3h0.7v0.7c0.2-0.4,0.7-0.8,1.5-0.8c1,0,1.7,0.5,1.7,1.9v2.9h-0.7v-2.9c0-0.8-0.4-1.2-1.1-1.2
				c-0.7,0-1.3,0.4-1.3,1.3v2.9h-0.7V773.3z"/>
			<path class="st7" d="M345.8,776.9V774h-0.7v-0.6h0.7v-1.1h0.7v1.1h1.1v0.6h-1.1v2.8c0,0.5,0.2,0.7,0.6,0.7c0.2,0,0.4,0,0.6-0.1
				v0.6c-0.2,0.1-0.3,0.1-0.6,0.1C346.2,778.1,345.8,777.6,345.8,776.9z"/>
			<path class="st7" d="M348.5,776.7c0-1.1,1.2-1.5,2.4-1.5h0.7v-0.3c0-0.7-0.3-1.1-1-1.1c-0.6,0-1,0.3-1.1,0.8h-0.7
				c0.1-1.1,1-1.5,1.9-1.5c0.9,0,1.7,0.4,1.7,1.7v3.1h-0.7v-0.6c-0.4,0.4-0.8,0.7-1.5,0.7C349.2,778.1,348.5,777.7,348.5,776.7z
				 M351.6,776.4v-0.6h-0.6c-0.9,0-1.6,0.2-1.6,0.9c0,0.5,0.2,0.8,0.9,0.8C351,777.5,351.6,777.1,351.6,776.4z"/>
			<path class="st7" d="M353.4,776.6h0.7c0.1,0.6,0.4,0.9,1.1,0.9c0.7,0,1-0.2,1-0.7c0-0.5-0.4-0.7-1.1-0.8
				c-1.2-0.2-1.6-0.6-1.6-1.4c0-0.9,0.9-1.3,1.6-1.3c0.8,0,1.6,0.3,1.7,1.4h-0.7c-0.1-0.5-0.4-0.7-1-0.7c-0.5,0-0.9,0.3-0.9,0.7
				c0,0.4,0.2,0.6,1.1,0.7c1,0.2,1.7,0.4,1.7,1.4c0,0.9-0.6,1.4-1.7,1.4C354.1,778.1,353.4,777.6,353.4,776.6z"/>
			<path class="st7" d="M316.2,784.8h-0.7v-0.6h0.7v-0.8c0-1,0.5-1.5,1.4-1.5c0.2,0,0.4,0,0.6,0.1v0.6c-0.1-0.1-0.3-0.1-0.5-0.1
				c-0.5,0-0.7,0.3-0.7,0.8v0.8h1.2v0.6h-1.2v4.1h-0.7V784.8z"/>
			<path class="st7" d="M319.1,784.1h0.7v0.8c0.3-0.5,0.7-0.9,1.5-0.9v0.7c-0.9,0-1.5,0.3-1.5,1.5v2.6h-0.7V784.1z"/>
			<path class="st7" d="M322,786.5L322,786.5c0-1.5,0.9-2.5,2.2-2.5c1.1,0,2.1,0.7,2.1,2.3v0.2h-3.5c0,1.1,0.5,1.7,1.5,1.7
				c0.7,0,1.2-0.3,1.3-0.8h0.7c-0.2,0.9-0.9,1.4-2,1.4C323,788.9,322,788,322,786.5z M325.6,786c-0.1-1-0.6-1.4-1.3-1.4
				c-0.8,0-1.3,0.5-1.4,1.4H325.6z"/>
			<path class="st7" d="M327.2,786.5L327.2,786.5c0-1.5,1-2.5,2.3-2.5c1,0,1.9,0.5,2,1.6h-0.7c-0.1-0.7-0.7-1-1.3-1
				c-0.9,0-1.5,0.7-1.5,1.8v0.1c0,1.2,0.6,1.8,1.5,1.8c0.7,0,1.3-0.4,1.4-1.2h0.7c-0.1,1-0.9,1.8-2.1,1.8
				C328.1,788.9,327.2,788,327.2,786.5z"/>
			<path class="st7" d="M332.6,787.1v-3h0.7v2.9c0,0.8,0.4,1.2,1.1,1.2c0.7,0,1.3-0.4,1.3-1.3v-2.9h0.7v4.7h-0.7v-0.7
				c-0.2,0.4-0.7,0.8-1.5,0.8C333.3,788.9,332.6,788.4,332.6,787.1z"/>
			<path class="st7" d="M337.6,786.5L337.6,786.5c0-1.5,0.9-2.5,2.2-2.5c1.1,0,2.1,0.7,2.1,2.3v0.2h-3.5c0,1.1,0.5,1.7,1.5,1.7
				c0.7,0,1.2-0.3,1.3-0.8h0.7c-0.2,0.9-0.9,1.4-2,1.4C338.6,788.9,337.6,788,337.6,786.5z M341.2,786c-0.1-1-0.6-1.4-1.3-1.4
				c-0.8,0-1.3,0.5-1.4,1.4H341.2z"/>
			<path class="st7" d="M343.1,784.1h0.7v0.7c0.2-0.4,0.7-0.8,1.5-0.8c1,0,1.7,0.5,1.7,1.9v2.9h-0.7v-2.9c0-0.8-0.4-1.2-1.1-1.2
				c-0.7,0-1.3,0.4-1.3,1.3v2.9h-0.7V784.1z"/>
			<path class="st7" d="M348.6,787.7v-2.9H348v-0.6h0.7v-1.1h0.7v1.1h1.1v0.6h-1.1v2.8c0,0.5,0.2,0.7,0.6,0.7c0.2,0,0.4,0,0.6-0.1
				v0.6c-0.2,0.1-0.3,0.1-0.6,0.1C349.1,788.9,348.6,788.4,348.6,787.7z"/>
			<path class="st7" d="M351.3,786.5L351.3,786.5c0-1.5,0.9-2.5,2.2-2.5c1.1,0,2.1,0.7,2.1,2.3v0.2h-3.5c0,1.1,0.5,1.7,1.5,1.7
				c0.7,0,1.2-0.3,1.3-0.8h0.7c-0.2,0.9-0.9,1.4-2,1.4C352.3,788.9,351.3,788,351.3,786.5z M354.9,786c-0.1-1-0.6-1.4-1.3-1.4
				c-0.8,0-1.3,0.5-1.4,1.4H354.9z"/>
			<path class="st7" d="M356.4,787.4h0.7c0.1,0.6,0.4,0.9,1.1,0.9c0.7,0,1-0.2,1-0.7c0-0.5-0.4-0.7-1.1-0.8
				c-1.2-0.2-1.6-0.6-1.6-1.4c0-0.9,0.9-1.3,1.6-1.3c0.8,0,1.6,0.3,1.7,1.4h-0.7c-0.1-0.5-0.4-0.7-1-0.7c-0.5,0-0.9,0.3-0.9,0.7
				c0,0.4,0.2,0.6,1.1,0.7c1,0.2,1.7,0.4,1.7,1.4c0,0.9-0.6,1.4-1.7,1.4C357.2,788.9,356.5,788.4,356.4,787.4z"/>
		</g>
	</g>
</g>
<g id="Layer_4_1_">
	
		<rect x="119" y="627.3" transform="matrix(0.7071 -0.7071 0.7071 0.7071 -445.1919 355.8889)" class="st11" width="176" height="176"/>
	<g>
		<path class="st7" d="M167.1,664.2h2.5v1.8c0.6-1,2-2,3.6-2c2.8,0,4.9,2,4.9,5.6v0.2c0,3.5-2,5.7-4.9,5.7c-1.7,0-3-0.9-3.6-1.9v5.5
			h-2.5V664.2z M175.5,669.8v-0.2c0-2.4-1.3-3.6-2.9-3.6c-1.8,0-3,1.2-3,3.6v0.2c0,2.5,1.2,3.6,3,3.6
			C174.5,673.4,175.5,672.1,175.5,669.8z"/>
		<path class="st7" d="M180.4,664.2h2.5v2.1c0.7-1.4,1.7-2.2,3.6-2.2v2.4c-2.2,0-3.6,0.7-3.6,3.1v5.7h-2.5V664.2z"/>
		<path class="st7" d="M188,669.8v-0.2c0-3.4,2.4-5.7,5.6-5.7c3.2,0,5.6,2.2,5.6,5.6v0.2c0,3.4-2.4,5.6-5.6,5.6S188,673.1,188,669.8
			z M196.7,669.8v-0.1c0-2.3-1.1-3.7-3-3.7s-3,1.4-3,3.6v0.2c0,2.2,1.1,3.7,3,3.7C195.6,673.4,196.7,672,196.7,669.8z M193.8,659.3
			h2.8l-2.2,3.3h-1.9L193.8,659.3z"/>
		<path class="st7" d="M204.3,669.5l-3.6-5.4h2.9l2.3,3.5l2.3-3.5h2.7l-3.5,5.2l3.9,5.8h-3l-2.6-4l-2.6,4h-2.6L204.3,669.5z"/>
		<path class="st7" d="M213.1,660.9c0-0.8,0.7-1.5,1.5-1.5s1.5,0.6,1.5,1.5c0,0.8-0.7,1.4-1.5,1.4S213.1,661.8,213.1,660.9z
			 M213.3,664.2h2.5v11h-2.5V664.2z"/>
		<path class="st7" d="M219,664.2h2.5v1.7c0.5-1,1.7-1.9,3.3-1.9c1.4,0,2.6,0.6,3.1,2c0.8-1.4,2.4-2,3.7-2c2,0,3.7,1.2,3.7,4.3v7
			h-2.5v-6.8c0-1.6-0.7-2.3-2-2.3s-2.4,0.8-2.4,2.5v6.6h-2.5v-6.8c0-1.6-0.7-2.3-2-2.3c-1.3,0-2.4,0.8-2.4,2.5v6.6H219V664.2z"/>
		<path class="st7" d="M237.4,672.1c0-2.6,2.5-3.5,5.6-3.5h1.4v-0.6c0-1.5-0.5-2.2-2-2.2c-1.3,0-2,0.6-2.1,1.7h-2.5
			c0.2-2.6,2.2-3.6,4.7-3.6c2.5,0,4.4,1,4.4,4v7.2h-2.5v-1.3c-0.7,0.9-1.7,1.6-3.4,1.6C239.1,675.4,237.4,674.4,237.4,672.1z
			 M244.4,671.3v-1.1h-1.3c-1.9,0-3.2,0.4-3.2,1.8c0,0.9,0.5,1.5,1.8,1.5C243.3,673.6,244.4,672.7,244.4,671.3z"/>
	</g>
	<g>
		<polygon class="st7" points="207,827.5 138.6,759.1 275.4,759.1 		"/>
		<path class="st11" d="M185.1,776.7h5.4v1.3h-3.8v2.3h3v1.2h-3v2.5h4v1.3h-5.6V776.7z"/>
		<path class="st11" d="M191.8,776.7h1.9l3.6,6.2v-6.2h1.5v8.6h-1.7l-3.9-6.6v6.6h-1.5V776.7z"/>
		<path class="st11" d="M202.2,778h-2.4v-1.3h6.4v1.3h-2.4v7.3h-1.6V778z"/>
		<path class="st11" d="M207.3,776.7h2.9c1.9,0,3.2,0.8,3.2,2.5v0c0,1.3-0.8,2-1.9,2.3l2.4,3.7h-1.7l-2.2-3.5h-1v3.5h-1.6V776.7z
			 M210.1,780.7c1.1,0,1.6-0.5,1.6-1.4v0c0-1-0.6-1.3-1.6-1.3h-1.3v2.7H210.1z"/>
		<path class="st11" d="M217.1,776.7h2.1l2.8,8.6h-1.7l-0.7-2.1h-3.3l-0.7,2.1h-1.5L217.1,776.7z M216.7,782h2.5l-1.3-4L216.7,782z"
			/>
		<path class="st11" d="M223,776.7h2.9c1.9,0,3.2,0.8,3.2,2.5v0c0,1.3-0.8,2-1.9,2.3l2.4,3.7h-1.7l-2.2-3.5h-1v3.5H223V776.7z
			 M225.9,780.7c1.1,0,1.6-0.5,1.6-1.4v0c0-1-0.6-1.3-1.6-1.3h-1.3v2.7H225.9z"/>
	</g>
	<g>
		<g>
			<path class="st7" d="M144.4,700h1.9c2.5,0,3.6,1.5,3.6,3.5v0.1c0,2-1.1,3.5-3.6,3.5h-1.9V700z M146.2,706.4
				c1.8,0,2.8-1.1,2.8-2.8v-0.1c0-1.6-0.8-2.8-2.8-2.8h-1v5.7H146.2z"/>
			<path class="st7" d="M150.9,704.5L150.9,704.5c0-1.7,1-2.8,2.4-2.8c1.2,0,2.3,0.7,2.3,2.6v0.3h-3.9c0,1.2,0.6,1.8,1.7,1.8
				c0.8,0,1.3-0.3,1.4-0.9h0.8c-0.2,1-1,1.6-2.2,1.6C151.9,707.2,150.9,706.2,150.9,704.5z M154.8,704c-0.1-1.1-0.6-1.5-1.5-1.5
				c-0.8,0-1.4,0.6-1.6,1.5H154.8z"/>
			<path class="st7" d="M156.5,705.5h0.8c0.1,0.6,0.4,1,1.2,1c0.8,0,1.1-0.3,1.1-0.8c0-0.5-0.4-0.7-1.2-0.9
				c-1.4-0.2-1.8-0.6-1.8-1.5c0-1,0.9-1.5,1.8-1.5c0.9,0,1.7,0.4,1.9,1.5h-0.8c-0.1-0.6-0.4-0.8-1.1-0.8c-0.6,0-1,0.3-1,0.8
				c0,0.5,0.3,0.7,1.2,0.8c1.1,0.2,1.8,0.4,1.8,1.5c0,0.9-0.6,1.6-1.9,1.6C157.3,707.2,156.6,706.6,156.5,705.5z"/>
			<path class="st7" d="M161.4,704.5L161.4,704.5c0-1.7,1.1-2.8,2.5-2.8c1.1,0,2.1,0.5,2.3,1.8h-0.8c-0.1-0.8-0.7-1.1-1.4-1.1
				c-0.9,0-1.7,0.8-1.7,2v0.1c0,1.3,0.7,2,1.7,2c0.7,0,1.4-0.4,1.5-1.3h0.8c-0.1,1.1-1,2-2.3,2C162.5,707.2,161.4,706.2,161.4,704.5
				z"/>
			<path class="st7" d="M167.4,705.2v-3.3h0.8v3.3c0,0.9,0.4,1.3,1.2,1.3c0.7,0,1.4-0.5,1.4-1.4v-3.2h0.8v5.2h-0.8v-0.8
				c-0.2,0.5-0.8,0.9-1.7,0.9C168.2,707.2,167.4,706.6,167.4,705.2z"/>
			<path class="st7" d="M174.2,706.2v0.9h-0.8v-7.7h0.8v3.4c0.3-0.5,1-1,1.8-1c1.4,0,2.4,1,2.4,2.6v0.1c0,1.6-0.9,2.7-2.4,2.7
				C175.1,707.2,174.5,706.8,174.2,706.2z M177.5,704.5L177.5,704.5c0-1.4-0.7-2.1-1.6-2.1c-1,0-1.7,0.6-1.7,2v0.1
				c0,1.3,0.7,2,1.7,2C177,706.5,177.5,705.8,177.5,704.5z"/>
			<path class="st7" d="M179.7,701.9h0.8v0.9c0.3-0.6,0.8-1,1.7-1v0.8c-1,0.1-1.7,0.4-1.7,1.7v2.9h-0.8V701.9z"/>
			<path class="st7" d="M183,704.5L183,704.5c0-1.7,1-2.8,2.4-2.8c1.2,0,2.3,0.7,2.3,2.6v0.3h-3.9c0,1.2,0.6,1.8,1.7,1.8
				c0.8,0,1.3-0.3,1.4-0.9h0.8c-0.2,1-1,1.6-2.2,1.6C184.1,707.2,183,706.2,183,704.5z M187,704c-0.1-1.1-0.6-1.5-1.5-1.5
				c-0.8,0-1.4,0.6-1.6,1.5H187z"/>
			<path class="st7" d="M191.8,699.4h0.8v7.7h-0.8V699.4z"/>
			<path class="st7" d="M193.9,704.5L193.9,704.5c0-1.6,1.1-2.7,2.6-2.7c1.5,0,2.6,1.1,2.6,2.7v0.1c0,1.6-1.1,2.7-2.6,2.7
				S193.9,706.1,193.9,704.5z M198.2,704.5L198.2,704.5c0-1.3-0.7-2.1-1.7-2.1c-1,0-1.7,0.8-1.7,2v0.1c0,1.2,0.6,2,1.7,2
				C197.5,706.5,198.2,705.7,198.2,704.5z"/>
			<path class="st7" d="M199.9,705.5h0.8c0.1,0.6,0.4,1,1.2,1c0.8,0,1.1-0.3,1.1-0.8c0-0.5-0.4-0.7-1.2-0.9
				c-1.4-0.2-1.8-0.6-1.8-1.5c0-1,0.9-1.5,1.8-1.5c0.9,0,1.7,0.4,1.9,1.5h-0.8c-0.1-0.6-0.4-0.8-1.1-0.8c-0.6,0-1,0.3-1,0.8
				c0,0.5,0.3,0.7,1.2,0.8c1.1,0.2,1.8,0.4,1.8,1.5c0,0.9-0.6,1.6-1.9,1.6C200.7,707.2,200,706.6,199.9,705.5z"/>
			<path class="st7" d="M207.2,706.9l2.8-3c0.7-0.7,1-1.3,1-2.1c0-0.8-0.5-1.3-1.3-1.3c-0.8,0-1.4,0.5-1.5,1.6h-0.8
				c0.1-1.4,1-2.3,2.3-2.3c1.3,0,2.2,0.8,2.2,2c0,0.9-0.6,1.7-1.4,2.6l-2,1.9h3.4v0.7h-4.8V706.9z"/>
			<path class="st7" d="M216.5,705.6h-3.6v-0.3l3.3-5.4h1.2v4.9h1v0.7h-1v1.5h-0.8V705.6z M216.5,704.9v-4.3l-2.5,4.3H216.5z"/>
			<path class="st7" d="M222.2,701.9h0.8v0.9c0.3-0.5,1-1,1.8-1c1.4,0,2.4,1,2.4,2.6v0.1c0,1.6-0.9,2.7-2.4,2.7
				c-0.9,0-1.5-0.4-1.8-0.9v2.7h-0.8V701.9z M226.3,704.5L226.3,704.5c0-1.4-0.7-2.1-1.6-2.1c-1,0-1.7,0.6-1.7,2v0.1
				c0,1.3,0.7,2,1.7,2C225.7,706.5,226.3,705.8,226.3,704.5z"/>
			<path class="st7" d="M228.4,701.9h0.8v0.9c0.3-0.6,0.8-1,1.7-1v0.8c-1,0.1-1.7,0.4-1.7,1.7v2.9h-0.8V701.9z"/>
			<path class="st7" d="M231.8,704.5L231.8,704.5c0-1.6,1.1-2.7,2.6-2.7c1.5,0,2.6,1.1,2.6,2.7v0.1c0,1.6-1.1,2.7-2.6,2.7
				S231.8,706.1,231.8,704.5z M236.1,704.5L236.1,704.5c0-1.3-0.7-2.1-1.7-2.1c-1.1,0-1.7,0.8-1.7,2v0.1c0,1.2,0.6,2,1.7,2
				C235.4,706.5,236.1,705.7,236.1,704.5z"/>
			<path class="st7" d="M239.7,706.6l-2-4.7h0.9l1.6,3.7l1.4-3.7h0.8l-2.9,7h-0.8L239.7,706.6z"/>
			<path class="st7" d="M243.1,704.5L243.1,704.5c0-1.7,1-2.8,2.4-2.8c1.2,0,2.3,0.7,2.3,2.6v0.3H244c0,1.2,0.6,1.8,1.7,1.8
				c0.8,0,1.3-0.3,1.4-0.9h0.8c-0.2,1-1,1.6-2.2,1.6C244.2,707.2,243.1,706.2,243.1,704.5z M247.1,704c-0.1-1.1-0.6-1.5-1.5-1.5
				c-0.8,0-1.4,0.6-1.6,1.5H247.1z"/>
			<path class="st7" d="M248.8,704.5L248.8,704.5c0-1.7,1.1-2.8,2.5-2.8c1.1,0,2.1,0.5,2.3,1.8h-0.8c-0.1-0.8-0.7-1.1-1.4-1.1
				c-0.9,0-1.7,0.8-1.7,2v0.1c0,1.3,0.7,2,1.7,2c0.7,0,1.4-0.4,1.5-1.3h0.8c-0.1,1.1-1,2-2.3,2C249.9,707.2,248.8,706.2,248.8,704.5
				z"/>
			<path class="st7" d="M255.1,705.8v-3.2h-0.8v-0.7h0.8v-1.2h0.8v1.2h1.2v0.7h-1.2v3.1c0,0.5,0.2,0.8,0.6,0.8c0.3,0,0.5,0,0.6-0.1
				v0.7c-0.2,0.1-0.4,0.1-0.7,0.1C255.5,707.2,255.1,706.6,255.1,705.8z"/>
			<path class="st7" d="M258.1,704.5L258.1,704.5c0-1.6,1.1-2.7,2.6-2.7c1.5,0,2.6,1.1,2.6,2.7v0.1c0,1.6-1.1,2.7-2.6,2.7
				S258.1,706.1,258.1,704.5z M262.3,704.5L262.3,704.5c0-1.3-0.7-2.1-1.7-2.1c-1.1,0-1.7,0.8-1.7,2v0.1c0,1.2,0.6,2,1.7,2
				C261.7,706.5,262.3,705.7,262.3,704.5z"/>
			<path class="st7" d="M264.1,705.5h0.8c0.1,0.6,0.4,1,1.2,1c0.8,0,1.1-0.3,1.1-0.8c0-0.5-0.4-0.7-1.2-0.9
				c-1.4-0.2-1.8-0.6-1.8-1.5c0-1,0.9-1.5,1.8-1.5c0.9,0,1.7,0.4,1.9,1.5h-0.8c-0.1-0.6-0.4-0.8-1.1-0.8c-0.6,0-1,0.3-1,0.8
				c0,0.5,0.3,0.7,1.2,0.8c1.1,0.2,1.8,0.4,1.8,1.5c0,0.9-0.6,1.6-1.9,1.6C264.9,707.2,264.1,706.6,264.1,705.5z"/>
			<path class="st7" d="M153,717.5h0.8c0.1,0.6,0.4,1,1.2,1c0.8,0,1.1-0.3,1.1-0.8c0-0.5-0.4-0.7-1.2-0.9c-1.4-0.2-1.8-0.6-1.8-1.5
				c0-1,0.9-1.5,1.8-1.5c0.9,0,1.7,0.4,1.9,1.5H156c-0.1-0.6-0.4-0.8-1.1-0.8c-0.6,0-1,0.3-1,0.8c0,0.5,0.3,0.7,1.2,0.8
				c1.1,0.2,1.8,0.4,1.8,1.5c0,0.9-0.6,1.6-1.9,1.6C153.8,719.2,153.1,718.6,153,717.5z"/>
			<path class="st7" d="M157.8,716.5L157.8,716.5c0-1.7,1-2.8,2.4-2.8c1.2,0,2.3,0.7,2.3,2.6v0.3h-3.9c0,1.2,0.6,1.8,1.7,1.8
				c0.8,0,1.3-0.3,1.4-0.9h0.8c-0.2,1-1,1.6-2.2,1.6C158.9,719.2,157.8,718.2,157.8,716.5z M161.8,716c-0.1-1.1-0.6-1.5-1.5-1.5
				c-0.8,0-1.4,0.6-1.6,1.5H161.8z"/>
			<path class="st7" d="M163.9,711.4h0.8v7.7h-0.8V711.4z"/>
			<path class="st7" d="M166.1,716.5L166.1,716.5c0-1.7,1-2.8,2.4-2.8c1.2,0,2.3,0.7,2.3,2.6v0.3h-3.9c0,1.2,0.6,1.8,1.7,1.8
				c0.8,0,1.3-0.3,1.4-0.9h0.8c-0.2,1-1,1.6-2.2,1.6C167.1,719.2,166.1,718.2,166.1,716.5z M170,716c-0.1-1.1-0.6-1.5-1.5-1.5
				c-0.8,0-1.4,0.6-1.6,1.5H170z"/>
			<path class="st7" d="M171.8,716.5L171.8,716.5c0-1.7,1.1-2.8,2.5-2.8c1.1,0,2.1,0.5,2.3,1.8h-0.8c-0.1-0.8-0.7-1.1-1.4-1.1
				c-0.9,0-1.7,0.8-1.7,2v0.1c0,1.3,0.7,2,1.7,2c0.7,0,1.4-0.4,1.5-1.3h0.8c-0.1,1.1-1,2-2.3,2C172.9,719.2,171.8,718.2,171.8,716.5
				z"/>
			<path class="st7" d="M177.5,716.5L177.5,716.5c0-1.7,1.1-2.8,2.5-2.8c1.1,0,2.1,0.5,2.3,1.8h-0.8c-0.1-0.8-0.7-1.1-1.4-1.1
				c-0.9,0-1.7,0.8-1.7,2v0.1c0,1.3,0.7,2,1.7,2c0.7,0,1.4-0.4,1.5-1.3h0.8c-0.1,1.1-1,2-2.3,2C178.6,719.2,177.5,718.2,177.5,716.5
				z"/>
			<path class="st7" d="M183.4,712.2c0-0.3,0.2-0.6,0.5-0.6s0.5,0.2,0.5,0.6c0,0.3-0.2,0.5-0.5,0.5S183.4,712.5,183.4,712.2z
				 M183.6,713.9h0.8v5.2h-0.8V713.9z"/>
			<path class="st7" d="M185.7,716.5L185.7,716.5c0-1.6,1.1-2.7,2.6-2.7c1.5,0,2.6,1.1,2.6,2.7v0.1c0,1.6-1.1,2.7-2.6,2.7
				S185.7,718.1,185.7,716.5z M190,716.5L190,716.5c0-1.3-0.7-2.1-1.7-2.1c-1,0-1.7,0.8-1.7,2v0.1c0,1.2,0.6,2,1.7,2
				C189.3,718.5,190,717.7,190,716.5z"/>
			<path class="st7" d="M192.1,713.9h0.8v0.8c0.2-0.5,0.8-0.9,1.7-0.9c1.1,0,1.8,0.6,1.8,2.1v3.2h-0.8v-3.3c0-0.9-0.4-1.3-1.2-1.3
				c-0.8,0-1.5,0.5-1.5,1.4v3.2h-0.8V713.9z"/>
			<path class="st7" d="M197.7,717.7c0-1.2,1.3-1.6,2.6-1.6h0.7v-0.4c0-0.8-0.3-1.2-1.1-1.2c-0.7,0-1.1,0.3-1.2,0.9h-0.8
				c0.1-1.2,1.1-1.6,2.1-1.6c1,0,1.9,0.4,1.9,1.9v3.4h-0.8v-0.7c-0.4,0.5-0.9,0.7-1.6,0.7C198.5,719.2,197.7,718.7,197.7,717.7z
				 M201.1,717.3v-0.7h-0.7c-1,0-1.8,0.3-1.8,1c0,0.5,0.3,0.9,1,0.9C200.4,718.5,201.1,718.1,201.1,717.3z"/>
			<path class="st7" d="M203.1,716.6L203.1,716.6c0-1.7,1-2.8,2.4-2.8c0.9,0,1.4,0.4,1.7,0.9v-3.3h0.8v7.7h-0.8v-0.9
				c-0.3,0.5-1,1-1.8,1C204.1,719.2,203.1,718.2,203.1,716.6z M207.3,716.5L207.3,716.5c0-1.4-0.6-2-1.7-2c-1,0-1.7,0.7-1.7,2v0.1
				c0,1.3,0.7,1.9,1.6,1.9C206.6,718.5,207.3,717.9,207.3,716.5z"/>
			<path class="st7" d="M209.4,716.5L209.4,716.5c0-1.6,1.1-2.7,2.6-2.7c1.5,0,2.6,1.1,2.6,2.7v0.1c0,1.6-1.1,2.7-2.6,2.7
				S209.4,718.1,209.4,716.5z M213.7,716.5L213.7,716.5c0-1.3-0.7-2.1-1.7-2.1c-1.1,0-1.7,0.8-1.7,2v0.1c0,1.2,0.6,2,1.7,2
				C213,718.5,213.7,717.7,213.7,716.5z"/>
			<path class="st7" d="M215.4,717.5h0.8c0.1,0.6,0.4,1,1.2,1c0.8,0,1.1-0.3,1.1-0.8c0-0.5-0.4-0.7-1.2-0.9
				c-1.4-0.2-1.8-0.6-1.8-1.5c0-1,0.9-1.5,1.8-1.5c0.9,0,1.7,0.4,1.9,1.5h-0.8c-0.1-0.6-0.4-0.8-1.1-0.8c-0.6,0-1,0.3-1,0.8
				c0,0.5,0.3,0.7,1.2,0.8c1.1,0.2,1.8,0.4,1.8,1.5c0,0.9-0.6,1.6-1.9,1.6C216.2,719.2,215.5,718.6,215.4,717.5z"/>
			<path class="st7" d="M223.3,713.9h0.8v0.9c0.3-0.5,1-1,1.8-1c1.4,0,2.4,1,2.4,2.6v0.1c0,1.6-0.9,2.7-2.4,2.7
				c-0.9,0-1.5-0.4-1.8-0.9v2.7h-0.8V713.9z M227.4,716.5L227.4,716.5c0-1.4-0.7-2.1-1.6-2.1c-1,0-1.7,0.6-1.7,2v0.1
				c0,1.3,0.7,2,1.7,2C226.8,718.5,227.4,717.8,227.4,716.5z"/>
			<path class="st7" d="M229.1,717.7c0-1.2,1.3-1.6,2.6-1.6h0.7v-0.4c0-0.8-0.3-1.2-1.1-1.2c-0.7,0-1.1,0.3-1.2,0.9h-0.8
				c0.1-1.2,1.1-1.6,2.1-1.6c1,0,1.9,0.4,1.9,1.9v3.4h-0.8v-0.7c-0.4,0.5-0.9,0.7-1.6,0.7C229.9,719.2,229.1,718.7,229.1,717.7z
				 M232.5,717.3v-0.7h-0.7c-1,0-1.8,0.3-1.8,1c0,0.5,0.3,0.9,1,0.9C231.8,718.5,232.5,718.1,232.5,717.3z"/>
			<path class="st7" d="M235,713.9h0.8v0.9c0.3-0.6,0.8-1,1.7-1v0.8c-1,0.1-1.7,0.4-1.7,1.7v2.9H235V713.9z"/>
			<path class="st7" d="M238.3,717.7c0-1.2,1.3-1.6,2.6-1.6h0.7v-0.4c0-0.8-0.3-1.2-1.1-1.2c-0.7,0-1.1,0.3-1.2,0.9h-0.8
				c0.1-1.2,1.1-1.6,2.1-1.6c1,0,1.9,0.4,1.9,1.9v3.4h-0.8v-0.7c-0.4,0.5-0.9,0.7-1.6,0.7C239.1,719.2,238.3,718.7,238.3,717.7z
				 M241.7,717.3v-0.7h-0.7c-1,0-1.8,0.3-1.8,1c0,0.5,0.3,0.9,1,0.9C241,718.5,241.7,718.1,241.7,717.3z"/>
			<path class="st7" d="M246.8,711.4h0.8v7.7h-0.8V711.4z"/>
			<path class="st7" d="M248.9,716.5L248.9,716.5c0-1.6,1.1-2.7,2.6-2.7c1.5,0,2.6,1.1,2.6,2.7v0.1c0,1.6-1.1,2.7-2.6,2.7
				S248.9,718.1,248.9,716.5z M253.2,716.5L253.2,716.5c0-1.3-0.7-2.1-1.7-2.1c-1.1,0-1.7,0.8-1.7,2v0.1c0,1.2,0.6,2,1.7,2
				C252.6,718.5,253.2,717.7,253.2,716.5z"/>
			<path class="st7" d="M254.9,717.5h0.8c0.1,0.6,0.4,1,1.2,1c0.8,0,1.1-0.3,1.1-0.8c0-0.5-0.4-0.7-1.2-0.9
				c-1.4-0.2-1.8-0.6-1.8-1.5c0-1,0.9-1.5,1.8-1.5c0.9,0,1.7,0.4,1.9,1.5h-0.8c-0.1-0.6-0.4-0.8-1.1-0.8c-0.6,0-1,0.3-1,0.8
				c0,0.5,0.3,0.7,1.2,0.8c1.1,0.2,1.8,0.4,1.8,1.5c0,0.9-0.6,1.6-1.9,1.6C255.7,719.2,255,718.6,254.9,717.5z"/>
			<path class="st7" d="M147.9,725.9h0.8v0.9c0.3-0.5,1-1,1.8-1c1.4,0,2.4,1,2.4,2.6v0.1c0,1.6-0.9,2.7-2.4,2.7
				c-0.9,0-1.5-0.4-1.8-0.9v2.7h-0.8V725.9z M152,728.5L152,728.5c0-1.4-0.7-2.1-1.6-2.1c-1,0-1.7,0.6-1.7,2v0.1c0,1.3,0.7,2,1.7,2
				C151.4,730.5,152,729.8,152,728.5z"/>
			<path class="st7" d="M154.1,725.9h0.8v0.9c0.3-0.6,0.8-1,1.7-1v0.8c-1,0.1-1.7,0.4-1.7,1.7v2.9h-0.8V725.9z"/>
			<path class="st7" d="M157.5,728.5L157.5,728.5c0-1.7,1-2.8,2.4-2.8c1.2,0,2.3,0.7,2.3,2.6v0.3h-3.9c0,1.2,0.6,1.8,1.7,1.8
				c0.8,0,1.3-0.3,1.4-0.9h0.8c-0.2,1-1,1.6-2.2,1.6C158.5,731.2,157.5,730.2,157.5,728.5z M161.4,728c-0.1-1.1-0.6-1.5-1.5-1.5
				c-0.8,0-1.4,0.6-1.6,1.5H161.4z"/>
			<path class="st7" d="M163.6,725.9h0.8v0.8c0.2-0.5,0.8-0.9,1.6-0.9c0.7,0,1.3,0.3,1.5,1c0.4-0.7,1.1-1,1.8-1
				c0.9,0,1.8,0.6,1.8,2.1v3.2h-0.8v-3.3c0-0.9-0.4-1.3-1.1-1.3c-0.7,0-1.4,0.5-1.4,1.4v3.2h-0.8v-3.3c0-0.9-0.4-1.3-1.1-1.3
				c-0.7,0-1.4,0.5-1.4,1.4v3.2h-0.8V725.9z"/>
			<path class="st7" d="M172.5,724.2c0-0.3,0.2-0.6,0.5-0.6s0.5,0.2,0.5,0.6c0,0.3-0.2,0.5-0.5,0.5S172.5,724.5,172.5,724.2z
				 M172.7,725.9h0.8v5.2h-0.8V725.9z"/>
			<path class="st7" d="M174.8,728.5L174.8,728.5c0-1.6,1.1-2.7,2.6-2.7c1.5,0,2.6,1.1,2.6,2.7v0.1c0,1.6-1.1,2.7-2.6,2.7
				S174.8,730.1,174.8,728.5z M179.1,728.5L179.1,728.5c0-1.3-0.7-2.1-1.7-2.1c-1,0-1.7,0.8-1.7,2v0.1c0,1.2,0.6,2,1.7,2
				C178.4,730.5,179.1,729.7,179.1,728.5z"/>
			<path class="st7" d="M180.8,729.5h0.8c0.1,0.6,0.4,1,1.2,1c0.8,0,1.1-0.3,1.1-0.8c0-0.5-0.4-0.7-1.2-0.9
				c-1.4-0.2-1.8-0.6-1.8-1.5c0-1,0.9-1.5,1.8-1.5c0.9,0,1.7,0.4,1.9,1.5h-0.8c-0.1-0.6-0.4-0.8-1.1-0.8c-0.6,0-1,0.3-1,0.8
				c0,0.5,0.3,0.7,1.2,0.8c1.1,0.2,1.8,0.4,1.8,1.5c0,0.9-0.6,1.6-1.9,1.6C181.6,731.2,180.9,730.6,180.8,729.5z"/>
			<path class="st7" d="M188.3,729.7c0-1.2,1.3-1.6,2.6-1.6h0.7v-0.4c0-0.8-0.3-1.2-1.1-1.2c-0.7,0-1.1,0.3-1.2,0.9h-0.8
				c0.1-1.2,1.1-1.6,2.1-1.6c1,0,1.9,0.4,1.9,1.9v3.4h-0.8v-0.7c-0.4,0.5-0.9,0.7-1.6,0.7C189,731.2,188.3,730.7,188.3,729.7z
				 M191.6,729.3v-0.7h-0.7c-1,0-1.8,0.3-1.8,1c0,0.5,0.3,0.9,1,0.9C191,730.5,191.6,730.1,191.6,729.3z"/>
			<path class="st7" d="M194.1,725.9h0.8v0.9c0.3-0.6,0.8-1,1.7-1v0.8c-1,0.1-1.7,0.4-1.7,1.7v2.9h-0.8V725.9z"/>
			<path class="st7" d="M201.6,730.2c-0.3,0.5-1,1-1.8,1c-1.4,0-2.4-1-2.4-2.6v-0.1c0-1.6,1-2.7,2.4-2.7c0.9,0,1.4,0.4,1.7,0.9v-0.8
				h0.8v7h-0.8V730.2z M201.7,728.5L201.7,728.5c0-1.4-0.6-2-1.7-2c-1,0-1.7,0.7-1.7,2v0.1c0,1.3,0.7,1.9,1.6,1.9
				C200.9,730.5,201.7,729.9,201.7,728.5z"/>
			<path class="st7" d="M204.1,729.2v-3.3h0.8v3.3c0,0.9,0.4,1.3,1.2,1.3c0.7,0,1.4-0.5,1.4-1.4v-3.2h0.8v5.2h-0.8v-0.8
				c-0.2,0.5-0.8,0.9-1.7,0.9C204.9,731.2,204.1,730.6,204.1,729.2z"/>
			<path class="st7" d="M209.9,724.2c0-0.3,0.2-0.6,0.5-0.6s0.5,0.2,0.5,0.6c0,0.3-0.2,0.5-0.5,0.5S209.9,724.5,209.9,724.2z
				 M210.1,725.9h0.8v5.2h-0.8V725.9z"/>
			<path class="st7" d="M212.2,729.7c0-1.2,1.3-1.6,2.6-1.6h0.8v-0.4c0-0.8-0.3-1.2-1.1-1.2c-0.7,0-1.1,0.3-1.2,0.9h-0.8
				c0.1-1.2,1.1-1.6,2.1-1.6c1,0,1.9,0.4,1.9,1.9v3.4h-0.8v-0.7c-0.4,0.5-0.9,0.7-1.6,0.7C213,731.2,212.2,730.7,212.2,729.7z
				 M215.6,729.3v-0.7h-0.7c-1,0-1.8,0.3-1.8,1c0,0.5,0.3,0.9,1,0.9C214.9,730.5,215.6,730.1,215.6,729.3z"/>
			<path class="st7" d="M222.8,723.3h0.8l-2.9,9.2h-0.8L222.8,723.3z"/>
			<path class="st7" d="M227.4,725.9h0.8v0.9c0.3-0.5,1-1,1.8-1c1.4,0,2.4,1,2.4,2.6v0.1c0,1.6-0.9,2.7-2.4,2.7
				c-0.9,0-1.5-0.4-1.8-0.9v2.7h-0.8V725.9z M231.5,728.5L231.5,728.5c0-1.4-0.7-2.1-1.6-2.1c-1,0-1.7,0.6-1.7,2v0.1
				c0,1.3,0.7,2,1.7,2C230.9,730.5,231.5,729.8,231.5,728.5z"/>
			<path class="st7" d="M233.6,725.9h0.8v0.9c0.3-0.6,0.8-1,1.7-1v0.8c-1,0.1-1.7,0.4-1.7,1.7v2.9h-0.8V725.9z"/>
			<path class="st7" d="M237,728.5L237,728.5c0-1.6,1.1-2.7,2.6-2.7c1.5,0,2.6,1.1,2.6,2.7v0.1c0,1.6-1.1,2.7-2.6,2.7
				C238.1,731.2,237,730.1,237,728.5z M241.3,728.5L241.3,728.5c0-1.3-0.7-2.1-1.7-2.1c-1,0-1.7,0.8-1.7,2v0.1c0,1.2,0.6,2,1.7,2
				C240.6,730.5,241.3,729.7,241.3,728.5z M239.8,723.5h1l-1,1.5h-0.6L239.8,723.5z"/>
			<path class="st7" d="M244.7,728.4l-1.7-2.5h1l1.3,1.9l1.3-1.9h0.9l-1.7,2.5l1.9,2.7h-1l-1.4-2.1l-1.4,2.1h-0.9L244.7,728.4z"/>
			<path class="st7" d="M248.6,724.2c0-0.3,0.2-0.6,0.5-0.6s0.5,0.2,0.5,0.6c0,0.3-0.2,0.5-0.5,0.5S248.6,724.5,248.6,724.2z
				 M248.7,725.9h0.8v5.2h-0.8V725.9z"/>
			<path class="st7" d="M251.3,725.9h0.8v0.8c0.2-0.5,0.8-0.9,1.6-0.9c0.7,0,1.3,0.3,1.5,1c0.4-0.7,1.1-1,1.8-1
				c0.9,0,1.8,0.6,1.8,2.1v3.2h-0.8v-3.3c0-0.9-0.4-1.3-1.1-1.3c-0.7,0-1.4,0.5-1.4,1.4v3.2h-0.8v-3.3c0-0.9-0.4-1.3-1.1-1.3
				c-0.7,0-1.4,0.5-1.4,1.4v3.2h-0.8V725.9z"/>
			<path class="st7" d="M259.9,729.7c0-1.2,1.3-1.6,2.6-1.6h0.7v-0.4c0-0.8-0.3-1.2-1.1-1.2c-0.7,0-1.1,0.3-1.2,0.9h-0.8
				c0.1-1.2,1.1-1.6,2.1-1.6c1,0,1.9,0.4,1.9,1.9v3.4h-0.8v-0.7c-0.4,0.5-0.9,0.7-1.6,0.7C260.7,731.2,259.9,730.7,259.9,729.7z
				 M263.3,729.3v-0.7h-0.7c-1,0-1.8,0.3-1.8,1c0,0.5,0.3,0.9,1,0.9C262.6,730.5,263.3,730.1,263.3,729.3z"/>
		</g>
	</g>
	<g>
		<path class="st7" d="M52.4,519.1h1.7v1.2c0.4-0.7,1.3-1.3,2.4-1.3c1.8,0,3.2,1.4,3.2,3.7v0.1c0,2.4-1.4,3.8-3.2,3.8
			c-1.2,0-2-0.6-2.4-1.3v3.7h-1.7V519.1z M58,522.8v-0.1c0-1.6-0.8-2.4-1.9-2.4c-1.2,0-2,0.8-2,2.4v0.1c0,1.6,0.8,2.4,2,2.4
			C57.3,525.2,58,524.4,58,522.8z"/>
		<path class="st7" d="M61.3,519.1H63v1.4c0.5-0.9,1.1-1.5,2.4-1.5v1.6c-1.5,0-2.4,0.5-2.4,2v3.8h-1.7V519.1z"/>
		<path class="st7" d="M66.4,522.8v-0.1c0-2.3,1.6-3.8,3.8-3.8c2.1,0,3.8,1.5,3.8,3.7v0.1c0,2.3-1.6,3.8-3.8,3.8
			S66.4,525,66.4,522.8z M72.1,522.8L72.1,522.8c0-1.6-0.8-2.5-2-2.5s-2,0.9-2,2.4v0.1c0,1.5,0.7,2.4,2,2.4
			C71.4,525.2,72.1,524.3,72.1,522.8z M70.2,515.8h1.9l-1.5,2.2h-1.2L70.2,515.8z"/>
		<path class="st7" d="M77.2,522.6l-2.4-3.6h2l1.5,2.4l1.5-2.4h1.8l-2.4,3.4l2.6,3.9h-2l-1.7-2.6l-1.8,2.6h-1.8L77.2,522.6z"/>
		<path class="st7" d="M83,516.9c0-0.6,0.4-1,1-1c0.6,0,1,0.4,1,1c0,0.5-0.4,1-1,1C83.5,517.9,83,517.5,83,516.9z M83.2,519.1h1.7
			v7.3h-1.7V519.1z"/>
		<path class="st7" d="M87,519.1h1.7v1.1c0.4-0.7,1.1-1.3,2.2-1.3c1,0,1.7,0.4,2.1,1.3c0.6-0.9,1.6-1.3,2.5-1.3
			c1.3,0,2.4,0.8,2.4,2.8v4.6h-1.7v-4.5c0-1.1-0.5-1.5-1.3-1.5s-1.6,0.6-1.6,1.7v4.4h-1.7v-4.5c0-1.1-0.5-1.5-1.3-1.5
			c-0.8,0-1.6,0.6-1.6,1.7v4.4H87V519.1z"/>
		<path class="st7" d="M99.3,524.4c0-1.7,1.7-2.3,3.8-2.3h0.9v-0.4c0-1-0.3-1.5-1.3-1.5c-0.9,0-1.3,0.4-1.4,1.1h-1.6
			c0.1-1.7,1.5-2.4,3.1-2.4c1.6,0,2.9,0.7,2.9,2.7v4.8H104v-0.9c-0.5,0.6-1.1,1-2.2,1C100.4,526.5,99.3,525.9,99.3,524.4z
			 M104,523.8v-0.7h-0.9c-1.3,0-2.1,0.3-2.1,1.2c0,0.6,0.3,1,1.2,1C103.2,525.3,104,524.8,104,523.8z"/>
	</g>
	<g>
		<path class="st7" d="M126.2,588.7c0-1.7,1.5-2.2,3.3-2.2h1.8v-0.7c0-1.5-0.6-2.2-2-2.2c-1.2,0-2.1,0.5-2.3,1.7h-0.5
			c0.2-1.4,1.4-2.1,2.8-2.1c1.6,0,2.5,0.8,2.5,2.6v4.9h-0.5v-1.2c-0.4,0.7-1.3,1.4-2.6,1.4C127.2,590.7,126.2,590,126.2,588.7z
			 M131.3,588.4v-1.5h-1.8c-1.6,0-2.8,0.3-2.8,1.8c0,1.1,0.7,1.7,2.1,1.7C130.1,590.3,131.3,589.4,131.3,588.4z"/>
		<path class="st7" d="M134,583.3h0.5v1.7c0.4-0.9,1.2-1.7,2.5-1.8v0.4c-1.4,0.1-2.5,0.8-2.5,2.9v4.1H134V583.3z"/>
		<path class="st7" d="M138.1,587v-0.1c0-2.2,1.4-3.7,3.3-3.7c1.8,0,3.1,1.2,3.1,3.5v0.2h-6c0,2.1,1.1,3.4,2.9,3.4
			c1.3,0,2.2-0.6,2.5-1.7h0.5c-0.3,1.4-1.5,2.1-3,2.1C139.4,590.7,138.1,589.2,138.1,587z M144.1,586.5c-0.1-1.9-1.1-2.9-2.7-2.9
			c-1.6,0-2.7,1.1-2.8,2.9H144.1z"/>
		<path class="st7" d="M146.3,583.3h0.5v1.6c0.3-0.9,1.4-1.7,2.7-1.7c1.6,0,2.6,0.9,2.6,2.9v4.5h-0.5v-4.5c0-1.7-0.8-2.5-2.2-2.5
			c-1.3,0-2.7,0.9-2.7,2.6v4.4h-0.5V583.3z"/>
		<path class="st7" d="M153.8,588.7c0-1.7,1.5-2.2,3.3-2.2h1.8v-0.7c0-1.5-0.6-2.2-2-2.2c-1.2,0-2.1,0.5-2.3,1.7h-0.5
			c0.2-1.4,1.4-2.1,2.8-2.1c1.6,0,2.5,0.8,2.5,2.6v4.9h-0.5v-1.2c-0.4,0.7-1.3,1.4-2.6,1.4C154.8,590.7,153.8,590,153.8,588.7z
			 M158.9,588.4v-1.5h-1.8c-1.6,0-2.8,0.3-2.8,1.8c0,1.1,0.7,1.7,2.1,1.7C157.7,590.3,158.9,589.4,158.9,588.4z"/>
	</g>
	<g>
		<path class="st7" d="M317.9,524.6v2h-0.5v-10.8h0.5v5.5c0.4-1.1,1.5-2.1,3-2.1c1.8,0,3.2,1.4,3.2,3.7v0.1c0,2.3-1.4,3.7-3.2,3.7
			C319.3,526.6,318.3,525.6,317.9,524.6z M323.7,522.9v-0.1c0-2.1-1.3-3.3-2.8-3.3c-1.5,0-2.9,1.2-2.9,3.3v0.1c0,2.1,1.4,3.3,3,3.3
			C322.5,526.2,323.7,525,323.7,522.9z"/>
		<path class="st7" d="M325.3,522.9v-0.1c0-2.2,1.4-3.7,3.3-3.7c1.8,0,3.1,1.2,3.1,3.5v0.2h-6c0,2.1,1.1,3.4,2.9,3.4
			c1.3,0,2.2-0.6,2.5-1.7h0.5c-0.3,1.4-1.5,2.1-3,2.1C326.6,526.6,325.3,525.1,325.3,522.9z M331.3,522.4c-0.1-1.9-1.1-2.9-2.7-2.9
			s-2.7,1.1-2.8,2.9H331.3z"/>
		<path class="st7" d="M332.9,522.9v-0.1c0-2.2,1.6-3.7,3.5-3.7c1.5,0,2.8,0.9,3,2.4h-0.5c-0.2-1.3-1.3-1.9-2.5-1.9
			c-1.6,0-3,1.3-3,3.3v0.1c0,2,1.3,3.3,3,3.3c1.3,0,2.4-0.8,2.6-2.2h0.4c-0.2,1.6-1.5,2.6-3.1,2.6
			C334.5,526.6,332.9,525.1,332.9,522.9z"/>
		<path class="st7" d="M340.7,524.6c0-1.7,1.5-2.2,3.3-2.2h1.8v-0.7c0-1.5-0.6-2.2-2-2.2c-1.2,0-2.1,0.5-2.3,1.7H341
			c0.2-1.4,1.4-2.1,2.8-2.1c1.6,0,2.5,0.8,2.5,2.6v4.9h-0.5v-1.2c-0.4,0.7-1.3,1.4-2.6,1.4C341.7,526.6,340.7,525.9,340.7,524.6z
			 M345.8,524.3v-1.5H344c-1.6,0-2.8,0.3-2.8,1.8c0,1.1,0.7,1.7,2.1,1.7C344.6,526.2,345.8,525.4,345.8,524.3z"/>
		<path class="st7" d="M347.8,524.4h0.5c0.1,1.1,0.9,1.9,2.3,1.9c1.3,0,2-0.7,2-1.6c0-1.1-0.5-1.4-2-1.7c-1.7-0.3-2.5-0.7-2.5-2
			c0-1.1,1.1-1.9,2.4-1.9s2.3,0.6,2.5,1.9h-0.5c-0.2-1-0.9-1.5-2-1.5c-1.1,0-1.9,0.6-1.9,1.5c0,1,0.6,1.3,2.2,1.6
			c1.6,0.3,2.4,0.7,2.4,2c0,1.1-0.9,2.1-2.5,2.1C348.9,526.6,347.9,525.7,347.8,524.4z"/>
	</g>
	<g>
		<path class="st7" d="M234,587v-0.1c0-2.3,1.5-3.7,3.4-3.7c1.6,0,2.4,1,2.8,2v-5.4h0.5v10.8h-0.5v-2c-0.4,1-1.4,2.1-2.9,2.1
			C235.5,590.7,234,589.4,234,587z M240.3,587v-0.1c0-2.1-1.2-3.3-2.8-3.3c-1.6,0-2.9,1.2-2.9,3.3v0.1c0,2.1,1.2,3.3,2.8,3.3
			C238.9,590.3,240.3,589.1,240.3,587z"/>
		<path class="st7" d="M242.4,587v-0.1c0-2.2,1.6-3.7,3.5-3.7s3.5,1.5,3.5,3.7v0.1c0,2.2-1.6,3.7-3.5,3.7S242.4,589.2,242.4,587z
			 M248.9,587v-0.1c0-2.1-1.4-3.3-3-3.3c-1.6,0-3,1.3-3,3.3v0.1c0,2,1.4,3.3,3,3.3C247.6,590.3,248.9,589,248.9,587z"/>
		<path class="st7" d="M250.6,587v-0.1c0-2.2,1.6-3.7,3.5-3.7c1.5,0,2.8,0.9,3,2.4h-0.5c-0.2-1.3-1.3-1.9-2.5-1.9
			c-1.6,0-3,1.3-3,3.3v0.1c0,2,1.3,3.3,3,3.3c1.3,0,2.4-0.8,2.6-2.2h0.4c-0.2,1.6-1.5,2.6-3.1,2.6
			C252.1,590.7,250.6,589.2,250.6,587z"/>
		<path class="st7" d="M258.7,587.9v-4.6h0.5v4.6c0,1.7,0.8,2.4,2.2,2.4c1.3,0,2.6-0.9,2.6-2.5v-4.5h0.5v7.3H264V589
			c-0.3,0.9-1.3,1.7-2.7,1.7C259.8,590.7,258.7,589.9,258.7,587.9z"/>
		<path class="st7" d="M266.8,583.3h0.5v1.6c0.3-0.9,1.3-1.7,2.5-1.7c1.2,0,2,0.5,2.3,1.8c0.4-1.1,1.4-1.8,2.7-1.8
			c1.5,0,2.4,0.8,2.4,2.8v4.6h-0.5V586c0-1.7-0.7-2.4-2-2.4c-1.2,0-2.5,0.9-2.5,2.6v4.5h-0.5V586c0-1.7-0.7-2.4-2-2.4
			c-1.2,0-2.5,0.9-2.5,2.6v4.5h-0.5V583.3z"/>
		<path class="st7" d="M278.8,587v-0.1c0-2.2,1.4-3.7,3.3-3.7c1.8,0,3.1,1.2,3.1,3.5v0.2h-6c0,2.1,1.1,3.4,2.9,3.4
			c1.3,0,2.2-0.6,2.5-1.7h0.5c-0.3,1.4-1.5,2.1-3,2.1C280.1,590.7,278.8,589.2,278.8,587z M284.8,586.5c-0.1-1.9-1.1-2.9-2.7-2.9
			s-2.7,1.1-2.8,2.9H284.8z"/>
		<path class="st7" d="M287,583.3h0.5v1.6c0.3-0.9,1.4-1.7,2.7-1.7c1.6,0,2.6,0.9,2.6,2.9v4.5h-0.5v-4.5c0-1.7-0.8-2.5-2.2-2.5
			c-1.3,0-2.7,0.9-2.7,2.6v4.4H287V583.3z"/>
		<path class="st7" d="M295.3,588.9v-5.2h-1.1v-0.4h1.1v-1.7h0.5v1.7h2v0.4h-2v5.2c0,1,0.5,1.4,1.2,1.4c0.4,0,0.7-0.1,0.9-0.2v0.4
			c-0.2,0.1-0.5,0.2-1,0.2C295.9,590.7,295.3,590.1,295.3,588.9z"/>
		<path class="st7" d="M299.1,588.7c0-1.7,1.5-2.2,3.3-2.2h1.8v-0.7c0-1.5-0.6-2.2-2-2.2c-1.2,0-2.1,0.5-2.3,1.7h-0.5
			c0.2-1.4,1.4-2.1,2.8-2.1c1.6,0,2.5,0.8,2.5,2.6v4.9h-0.5v-1.2c-0.4,0.7-1.3,1.4-2.6,1.4C300.1,590.7,299.1,590,299.1,588.7z
			 M304.2,588.4v-1.5h-1.8c-1.6,0-2.8,0.3-2.8,1.8c0,1.1,0.7,1.7,2.1,1.7C303.1,590.3,304.2,589.4,304.2,588.4z"/>
		<path class="st7" d="M306.9,579.8h0.5v10.8h-0.5V579.8z"/>
	</g>
	<g id="BUTTONS_10_">
		<g>
			<g>
				<path class="st7" d="M63.6,510.2h0.3c0.1,0.6,0.7,1.1,1.8,1.1c1,0,1.8-0.5,1.8-1.7v-1.1c-0.2,0.6-0.9,1.3-1.9,1.3
					c-1.2,0-2.1-0.8-2.1-2.3v-0.1c0-1.4,1-2.3,2.2-2.3c1,0,1.6,0.6,1.8,1.3v-1.2h0.3v4.4c0,1.4-0.9,2-2.1,2
					C64.3,511.6,63.7,510.9,63.6,510.2z M67.5,507.5L67.5,507.5c0-1.3-0.8-2.1-1.8-2.1c-1,0-1.9,0.7-1.9,2v0.1c0,1.3,0.8,2,1.8,2
					C66.6,509.5,67.5,508.8,67.5,507.5z"/>
				<path class="st7" d="M68.9,508.7c0-1.1,1-1.4,2.1-1.4h1.2v-0.5c0-1-0.4-1.4-1.3-1.4c-0.7,0-1.3,0.3-1.5,1.1h-0.3
					c0.1-0.9,0.9-1.4,1.8-1.4c1,0,1.6,0.5,1.6,1.7v3.1h-0.3v-0.8c-0.3,0.5-0.8,0.9-1.7,0.9C69.5,510,68.9,509.5,68.9,508.7z
					 M72.2,508.5v-1H71c-1,0-1.8,0.2-1.8,1.2c0,0.7,0.5,1.1,1.3,1.1C71.4,509.7,72.2,509.2,72.2,508.5z"/>
				<path class="st7" d="M73.9,503h0.3v7h-0.3V503z"/>
				<path class="st7" d="M75.4,507.6L75.4,507.6c0-1.5,0.9-2.5,2.1-2.5c1.2,0,2,0.8,2,2.3v0.1h-3.8c0,1.4,0.7,2.2,1.9,2.2
					c0.8,0,1.4-0.4,1.6-1.1h0.3c-0.2,0.9-0.9,1.4-1.9,1.4C76.2,510,75.4,509,75.4,507.6z M79.2,507.3c0-1.2-0.7-1.9-1.7-1.9
					c-1,0-1.7,0.7-1.8,1.9H79.2z"/>
				<path class="st7" d="M80.6,505.2h0.3v1.1c0.2-0.6,0.8-1.1,1.6-1.1v0.3c-0.9,0-1.6,0.5-1.6,1.8v2.6h-0.3V505.2z"/>
				<path class="st7" d="M84.3,503.2h0.4l-0.8,1.3h-0.3L84.3,503.2z M83.6,505.2h0.3v4.7h-0.3V505.2z"/>
				<path class="st7" d="M85.1,508.7c0-1.1,1-1.4,2.1-1.4h1.2v-0.5c0-1-0.4-1.4-1.3-1.4c-0.7,0-1.3,0.3-1.5,1.1h-0.3
					c0.1-0.9,0.9-1.4,1.8-1.4c1,0,1.6,0.5,1.6,1.7v3.1h-0.3v-0.8c-0.3,0.5-0.8,0.9-1.7,0.9C85.7,510,85.1,509.5,85.1,508.7z
					 M88.4,508.5v-1h-1.2c-1,0-1.8,0.2-1.8,1.2c0,0.7,0.5,1.1,1.3,1.1C87.6,509.7,88.4,509.2,88.4,508.5z"/>
				<path class="st7" d="M94.3,502.9h0.3l-2.6,8.3h-0.3L94.3,502.9z"/>
			</g>
		</g>
	</g>
	<g id="BUTTONS_1_">
		<g>
			<g>
				<path class="st7" d="M319.6,510.2h0.3c0.1,0.6,0.7,1.1,1.8,1.1c1,0,1.8-0.5,1.8-1.7v-1.1c-0.2,0.6-0.9,1.3-1.9,1.3
					c-1.2,0-2.1-0.8-2.1-2.3v-0.1c0-1.4,1-2.3,2.2-2.3c1,0,1.6,0.6,1.8,1.3v-1.2h0.3v4.4c0,1.4-0.9,2-2.1,2
					C320.3,511.6,319.7,510.9,319.6,510.2z M323.5,507.5L323.5,507.5c0-1.3-0.8-2.1-1.8-2.1c-1,0-1.9,0.7-1.9,2v0.1
					c0,1.3,0.8,2,1.8,2C322.6,509.5,323.5,508.8,323.5,507.5z"/>
				<path class="st7" d="M324.9,508.7c0-1.1,1-1.4,2.1-1.4h1.2v-0.5c0-1-0.4-1.4-1.3-1.4c-0.7,0-1.3,0.3-1.5,1.1h-0.3
					c0.1-0.9,0.9-1.4,1.8-1.4c1,0,1.6,0.5,1.6,1.7v3.1h-0.3v-0.8c-0.3,0.5-0.8,0.9-1.7,0.9C325.5,510,324.9,509.5,324.9,508.7z
					 M328.2,508.5v-1H327c-1,0-1.8,0.2-1.8,1.2c0,0.7,0.5,1.1,1.3,1.1C327.4,509.7,328.2,509.2,328.2,508.5z"/>
				<path class="st7" d="M329.9,503h0.3v7h-0.3V503z"/>
				<path class="st7" d="M331.4,507.6L331.4,507.6c0-1.5,0.9-2.5,2.1-2.5c1.2,0,2,0.8,2,2.3v0.1h-3.8c0,1.4,0.7,2.2,1.9,2.2
					c0.8,0,1.4-0.4,1.6-1.1h0.3c-0.2,0.9-0.9,1.4-1.9,1.4C332.2,510,331.4,509,331.4,507.6z M335.2,507.3c0-1.2-0.7-1.9-1.7-1.9
					s-1.7,0.7-1.8,1.9H335.2z"/>
				<path class="st7" d="M336.6,505.2h0.3v1.1c0.2-0.6,0.8-1.1,1.6-1.1v0.3c-0.9,0-1.6,0.5-1.6,1.8v2.6h-0.3V505.2z"/>
				<path class="st7" d="M340.3,503.2h0.4l-0.8,1.3h-0.3L340.3,503.2z M339.6,505.2h0.3v4.7h-0.3V505.2z"/>
				<path class="st7" d="M341.1,508.7c0-1.1,1-1.4,2.1-1.4h1.2v-0.5c0-1-0.4-1.4-1.3-1.4c-0.7,0-1.3,0.3-1.5,1.1h-0.3
					c0.1-0.9,0.9-1.4,1.8-1.4c1,0,1.6,0.5,1.6,1.7v3.1h-0.3v-0.8c-0.3,0.5-0.8,0.9-1.7,0.9C341.7,510,341.1,509.5,341.1,508.7z
					 M344.4,508.5v-1h-1.2c-1,0-1.8,0.2-1.8,1.2c0,0.7,0.5,1.1,1.3,1.1C343.6,509.7,344.4,509.2,344.4,508.5z"/>
				<path class="st7" d="M350.3,502.9h0.3l-2.6,8.3h-0.3L350.3,502.9z"/>
			</g>
		</g>
	</g>
</g>
</svg>
