<?xml version="1.0" encoding="UTF-8" standalone="no"?>
<!-- Generator: Adobe Illustrator 24.2.0, SVG Export Plug-In . SVG Version: 6.00 Build 0)  -->

<svg
   xmlns:dc="http://purl.org/dc/elements/1.1/"
   xmlns:cc="http://creativecommons.org/ns#"
   xmlns:rdf="http://www.w3.org/1999/02/22-rdf-syntax-ns#"
   xmlns:svg="http://www.w3.org/2000/svg"
   xmlns="http://www.w3.org/2000/svg"
   xmlns:sodipodi="http://sodipodi.sourceforge.net/DTD/sodipodi-0.dtd"
   xmlns:inkscape="http://www.inkscape.org/namespaces/inkscape"
   version="1.1"
   x="0px"
   y="0px"
   viewBox="0 0 415 897"
   style="enable-background:new 0 0 415 897;"
   xml:space="preserve"
   id="svg110696"
   sodipodi:docname="virtualText.svg"
   inkscape:version="0.92.5 (2060ec1f9f, 2020-04-08)"><metadata
   id="metadata110702"><rdf:RDF><cc:Work
       rdf:about=""><dc:format>image/svg+xml</dc:format><dc:type
         rdf:resource="http://purl.org/dc/dcmitype/StillImage" /><dc:title></dc:title></cc:Work></rdf:RDF></metadata><defs
   id="defs110700" /><sodipodi:namedview
   pagecolor="#ffffff"
   bordercolor="#666666"
   borderopacity="1"
   objecttolerance="10"
   gridtolerance="10"
   guidetolerance="10"
   inkscape:pageopacity="0"
   inkscape:pageshadow="2"
   inkscape:window-width="1366"
   inkscape:window-height="704"
   id="namedview110698"
   showgrid="false"
   inkscape:zoom="0.74415697"
   inkscape:cx="307.06752"
   inkscape:cy="649.82508"
   inkscape:window-x="0"
   inkscape:window-y="27"
   inkscape:window-maximized="1"
   inkscape:current-layer="Layer_3" />
<style
   type="text/css"
   id="style110223">
	.st0{fill:none;stroke:#1D1E1B;stroke-width:0.9921;stroke-miterlimit:10;}
	.st1{fill:#1D1D1B;}
	.st2{fill:#FAB900;}
	.st3{fill-rule:evenodd;clip-rule:evenodd;fill:#FAB900;}
	.st4{fill-rule:evenodd;clip-rule:evenodd;fill:#1D1D1B;}
	.st5{fill:#FFFFFF;}
</style>
<g
   id="Layer_2_1_">
	<g
   id="HIGHLIGHT_9_">
		<polygon
   class="st0"
   points="251.2,397.6 213.7,435.1 200.3,435.1 162.8,397.6 162.8,384.1 200.3,346.6 213.7,346.6 251.2,384.1       "
   id="polygon110225" />
		<g
   id="g110231">
			<polygon
   class="st0"
   points="120.6,397.6 83.1,435.1 69.6,435.1 32.1,397.6 32.1,384.1 69.6,346.6 83.1,346.6 120.6,384.1    "
   id="polygon110227" />
			<polygon
   class="st0"
   points="381.9,397.6 344.4,435.1 330.9,435.1 293.4,397.6 293.4,384.1 330.9,346.6 344.4,346.6 381.9,384.1         "
   id="polygon110229" />
		</g>
		<g
   id="g110237">
			<polygon
   class="st0"
   points="213.7,477.3 251.2,514.8 251.2,528.2 213.7,565.7 200.3,565.7 162.8,528.2 162.8,514.8 200.3,477.3         "
   id="polygon110233" />
			<polygon
   class="st0"
   points="213.7,216 251.2,253.5 251.2,267 213.7,304.5 200.3,304.5 162.8,267 162.8,253.5 200.3,216    "
   id="polygon110235" />
		</g>
		<g
   id="g110247">
			<polygon
   class="st0"
   points="185.9,332.3 148.4,369.8 134.9,369.8 97.4,332.3 97.4,318.8 134.9,281.3 148.4,281.3 185.9,318.8         "
   id="polygon110239" />
			<polygon
   class="st0"
   points="185.9,462.9 148.4,500.4 134.9,500.4 97.4,462.9 97.4,449.5 134.9,412 148.4,412 185.9,449.5    "
   id="polygon110241" />
			<polygon
   class="st0"
   points="316.5,332.3 279.1,369.8 265.6,369.8 228.1,332.3 228.1,318.8 265.6,281.3 279.1,281.3 316.5,318.8         "
   id="polygon110243" />
			<polygon
   class="st0"
   points="316.5,462.9 279.1,500.4 265.6,500.4 228.1,462.9 228.1,449.5 265.6,412 279.1,412 316.5,449.5         "
   id="polygon110245" />
		</g>
	</g>
</g>
<g
   id="Layer_3">
	
	
	<g
   id="g110327">
		<path
   class="st2"
   d="M196.7,144.1v6.1c7,0,12.8-5.7,12.8-12.8c0-3.9-1.7-7.4-4.5-9.7c2.8-2.3,4.5-5.8,4.5-9.7c0-0.5,0-1-0.1-1.5    l-6.2,0c0.1,0.5,0.2,1,0.2,1.5c0,3.7-3,6.6-6.6,6.6v6.2c3.7,0,6.6,3,6.6,6.6C203.3,141.1,200.3,144.1,196.7,144.1L196.7,144.1z"
   id="path110321" />
		<path
   class="st3"
   d="M217.2,128.5c0,2.4,1.2,4.5,3.1,5.7l3.6-3.6l3.6,3.6c1.9-1.2,3.1-3.3,3.1-5.6c0-3.7-3-6.7-6.7-6.7    C220.2,121.8,217.2,124.8,217.2,128.5z M231.2,146.5l-5.3-5.3c-0.6,0.1-1.3,0.2-2,0.2c-7.1,0-12.9-5.8-12.9-12.9    c0-7.1,5.8-12.9,12.9-12.9c7.1,0,12.9,5.8,12.9,12.9c0,4.1-1.9,7.7-4.8,10.1l3.6,3.6L231.2,146.5z"
   id="path110323" />
		<polygon
   class="st4"
   points="177.2,116.5 177.2,140.5 183.2,140.5 183.2,130.9 193.4,130.9 193.4,126.2 183.2,126.2 183.2,121.2     193.4,121.2 193.4,116.5   "
   id="polygon110325" />
	</g>
	<g
   id="INFO_10_">
		
			<rect
   x="119"
   y="627.3"
   transform="matrix(0.7071 -0.7071 0.7071 0.7071 -445.1919 355.8889)"
   class="st5"
   width="176"
   height="176"
   id="rect110329" />
		<g
   id="g110431">
			<g
   id="g110429">
				<path
   class="st1"
   d="M146.7,700h4.2v0.7h-3.3v2.4h2.7v0.7h-2.7v2.6h3.5v0.7h-4.3V700z"
   id="path110331" />
				<path
   class="st1"
   d="M153.6,704.4l-1.7-2.5h1l1.3,1.9l1.3-1.9h0.9l-1.7,2.5l1.9,2.7h-1l-1.4-2.1l-1.4,2.1h-0.9L153.6,704.4z"
   id="path110333" />
				<path
   class="st1"
   d="M157.6,701.9h0.8v0.9c0.3-0.5,1-1,1.8-1c1.4,0,2.4,1,2.4,2.6v0.1c0,1.6-0.9,2.7-2.4,2.7      c-0.9,0-1.5-0.4-1.8-0.9v2.7h-0.8V701.9z M161.7,704.5L161.7,704.5c0-1.4-0.7-2.1-1.6-2.1c-1,0-1.7,0.6-1.7,2v0.1      c0,1.3,0.7,2,1.7,2C161.2,706.5,161.7,705.8,161.7,704.5z"
   id="path110335" />
				<path
   class="st1"
   d="M163.9,699.4h0.8v7.7h-0.8V699.4z"
   id="path110337" />
				<path
   class="st1"
   d="M166,704.5L166,704.5c0-1.6,1.1-2.7,2.6-2.7c1.5,0,2.6,1.1,2.6,2.7v0.1c0,1.6-1.1,2.7-2.6,2.7      S166,706.1,166,704.5z M170.3,704.5L170.3,704.5c0-1.3-0.7-2.1-1.7-2.1c-1,0-1.7,0.8-1.7,2v0.1c0,1.2,0.7,2,1.7,2      C169.7,706.5,170.3,705.7,170.3,704.5z"
   id="path110339" />
				<path
   class="st1"
   d="M172.5,701.9h0.8v0.9c0.3-0.6,0.8-1,1.7-1v0.8c-1,0.1-1.7,0.4-1.7,1.7v2.9h-0.8V701.9z"
   id="path110341" />
				<path
   class="st1"
   d="M175.8,705.7c0-1.2,1.3-1.6,2.6-1.6h0.7v-0.4c0-0.8-0.3-1.2-1.1-1.2c-0.7,0-1.1,0.3-1.2,0.9H176      c0.1-1.2,1.1-1.6,2.1-1.6c1,0,1.9,0.4,1.9,1.9v3.4h-0.8v-0.7c-0.4,0.5-0.9,0.8-1.6,0.8C176.6,707.2,175.8,706.7,175.8,705.7z       M179.2,705.3v-0.6h-0.7c-1,0-1.8,0.3-1.8,1c0,0.5,0.3,0.9,1,0.9C178.5,706.5,179.2,706.1,179.2,705.3z"
   id="path110343" />
				<path
   class="st1"
   d="M184.3,699.4h0.8v7.7h-0.8V699.4z"
   id="path110345" />
				<path
   class="st1"
   d="M186.4,705.7c0-1.2,1.3-1.6,2.6-1.6h0.8v-0.4c0-0.8-0.3-1.2-1.1-1.2c-0.7,0-1.1,0.3-1.2,0.9h-0.8      c0.1-1.2,1.1-1.6,2.1-1.6c1,0,1.9,0.4,1.9,1.9v3.4h-0.8v-0.7c-0.4,0.5-0.9,0.8-1.6,0.8C187.2,707.2,186.4,706.7,186.4,705.7z       M189.8,705.3v-0.6h-0.7c-1,0-1.8,0.3-1.8,1c0,0.5,0.3,0.9,1,0.9C189.1,706.5,189.8,706.1,189.8,705.3z"
   id="path110347" />
				<path
   class="st1"
   d="M191.8,705.5h0.8c0.1,0.6,0.4,1,1.2,1c0.8,0,1.1-0.3,1.1-0.8c0-0.5-0.4-0.7-1.2-0.9      c-1.4-0.2-1.8-0.6-1.8-1.5c0-1,0.9-1.5,1.8-1.5c0.9,0,1.7,0.4,1.9,1.5h-0.8c-0.1-0.6-0.4-0.8-1.1-0.8c-0.6,0-1,0.3-1,0.8      c0,0.5,0.3,0.7,1.2,0.8c1.1,0.2,1.8,0.4,1.8,1.5c0,0.9-0.6,1.6-1.9,1.6C192.6,707.2,191.9,706.6,191.8,705.5z"
   id="path110349" />
				<path
   class="st1"
   d="M199.3,704.5L199.3,704.5c0-1.7,1-2.8,2.4-2.8c1.2,0,2.3,0.7,2.3,2.6v0.3h-3.9c0,1.2,0.6,1.8,1.7,1.8      c0.8,0,1.3-0.3,1.4-0.9h0.8c-0.2,1-1,1.6-2.2,1.6C200.4,707.2,199.3,706.2,199.3,704.5z M203.3,704c-0.1-1.1-0.6-1.5-1.5-1.5      c-0.8,0-1.4,0.6-1.6,1.5H203.3z"
   id="path110351" />
				<path
   class="st1"
   d="M206.7,704.4l-1.7-2.5h1l1.3,1.9l1.3-1.9h0.9l-1.7,2.5l1.9,2.7h-1l-1.4-2.1l-1.4,2.1h-0.9L206.7,704.4z"
   id="path110353" />
				<path
   class="st1"
   d="M210.7,701.9h0.8v0.9c0.3-0.5,1-1,1.8-1c1.4,0,2.4,1,2.4,2.6v0.1c0,1.6-0.9,2.7-2.4,2.7      c-0.9,0-1.5-0.4-1.8-0.9v2.7h-0.8V701.9z M214.8,704.5L214.8,704.5c0-1.4-0.7-2.1-1.6-2.1c-1,0-1.7,0.6-1.7,2v0.1      c0,1.3,0.7,2,1.7,2C214.2,706.5,214.8,705.8,214.8,704.5z"
   id="path110355" />
				<path
   class="st1"
   d="M216.5,704.5L216.5,704.5c0-1.6,1.1-2.7,2.6-2.7c1.5,0,2.6,1.1,2.6,2.7v0.1c0,1.6-1.1,2.7-2.6,2.7      S216.5,706.1,216.5,704.5z M220.8,704.5L220.8,704.5c0-1.3-0.7-2.1-1.7-2.1c-1,0-1.7,0.8-1.7,2v0.1c0,1.2,0.7,2,1.7,2      C220.2,706.5,220.8,705.7,220.8,704.5z"
   id="path110357" />
				<path
   class="st1"
   d="M222.5,705.5h0.8c0.1,0.6,0.4,1,1.2,1c0.8,0,1.1-0.3,1.1-0.8c0-0.5-0.4-0.7-1.2-0.9      c-1.4-0.2-1.8-0.6-1.8-1.5c0-1,0.9-1.5,1.8-1.5c0.9,0,1.7,0.4,1.9,1.5h-0.8c-0.1-0.6-0.4-0.8-1.1-0.8c-0.6,0-1,0.3-1,0.8      c0,0.5,0.3,0.7,1.2,0.8c1.1,0.2,1.8,0.4,1.8,1.5c0,0.9-0.6,1.6-1.9,1.6C223.3,707.2,222.6,706.6,222.5,705.5z"
   id="path110359" />
				<path
   class="st1"
   d="M227.6,700.2c0-0.3,0.2-0.5,0.5-0.5s0.5,0.2,0.5,0.5s-0.2,0.5-0.5,0.5S227.6,700.5,227.6,700.2z       M227.8,701.9h0.8v5.2h-0.8V701.9z"
   id="path110361" />
				<path
   class="st1"
   d="M229.9,704.5L229.9,704.5c0-1.7,1.1-2.8,2.5-2.8c1.1,0,2.1,0.5,2.3,1.8h-0.8c-0.1-0.8-0.7-1.1-1.4-1.1      c-0.9,0-1.7,0.8-1.7,2v0.1c0,1.3,0.7,2,1.7,2c0.7,0,1.4-0.4,1.5-1.3h0.8c-0.1,1.1-1,2-2.3,2C231,707.2,229.9,706.2,229.9,704.5z      "
   id="path110363" />
				<path
   class="st1"
   d="M235.9,700.2c0-0.3,0.2-0.5,0.5-0.5s0.5,0.2,0.5,0.5s-0.2,0.5-0.5,0.5S235.9,700.5,235.9,700.2z M236,701.9      h0.8v5.2H236V701.9z"
   id="path110365" />
				<path
   class="st1"
   d="M238.2,704.5L238.2,704.5c0-1.6,1.1-2.7,2.6-2.7s2.6,1.1,2.6,2.7v0.1c0,1.6-1.1,2.7-2.6,2.7      S238.2,706.1,238.2,704.5z M242.5,704.5L242.5,704.5c0-1.3-0.7-2.1-1.7-2.1c-1,0-1.7,0.8-1.7,2v0.1c0,1.2,0.6,2,1.7,2      C241.8,706.5,242.5,705.7,242.5,704.5z"
   id="path110367" />
				<path
   class="st1"
   d="M244.6,701.9h0.8v0.8c0.2-0.5,0.8-0.9,1.7-0.9c1.1,0,1.8,0.6,1.8,2.1v3.2h-0.8v-3.3c0-0.9-0.4-1.3-1.2-1.3      c-0.8,0-1.5,0.5-1.5,1.4v3.2h-0.8V701.9z"
   id="path110369" />
				<path
   class="st1"
   d="M250.2,704.5L250.2,704.5c0-1.7,1-2.8,2.4-2.8c1.2,0,2.3,0.7,2.3,2.6v0.3h-3.9c0,1.2,0.6,1.8,1.7,1.8      c0.8,0,1.3-0.3,1.4-0.9h0.8c-0.2,1-1,1.6-2.2,1.6C251.2,707.2,250.2,706.2,250.2,704.5z M254.1,704c-0.1-1.1-0.6-1.5-1.5-1.5      c-0.8,0-1.4,0.6-1.6,1.5H254.1z"
   id="path110371" />
				<path
   class="st1"
   d="M255.8,705.5h0.8c0.1,0.6,0.4,1,1.2,1c0.8,0,1.1-0.3,1.1-0.8c0-0.5-0.4-0.7-1.2-0.9      c-1.4-0.2-1.8-0.6-1.8-1.5c0-1,0.9-1.5,1.8-1.5c0.9,0,1.7,0.4,1.9,1.5h-0.8c-0.1-0.6-0.4-0.8-1.1-0.8c-0.6,0-1,0.3-1,0.8      c0,0.5,0.3,0.7,1.2,0.8c1.1,0.2,1.8,0.4,1.8,1.5c0,0.9-0.6,1.6-1.9,1.6C256.6,707.2,255.9,706.6,255.8,705.5z"
   id="path110373" />
				<path
   class="st1"
   d="M265.2,706.6l-2-4.7h0.9l1.6,3.7l1.4-3.7h0.8l-2.9,7h-0.8L265.2,706.6z"
   id="path110375" />
				<path
   class="st1"
   d="M162.9,716.5L162.9,716.5c0-1.7,1-2.8,2.4-2.8c1.2,0,2.3,0.7,2.3,2.6v0.3h-3.9c0,1.2,0.6,1.8,1.7,1.8      c0.8,0,1.3-0.3,1.4-0.9h0.8c-0.2,1-1,1.6-2.2,1.6C163.9,719.2,162.9,718.2,162.9,716.5z M166.8,716c-0.1-1.1-0.6-1.5-1.5-1.5      c-0.8,0-1.4,0.6-1.6,1.5H166.8z"
   id="path110377" />
				<path
   class="st1"
   d="M168.4,713.9h0.9l1.5,4.4l1.5-4.4h0.9l-1.9,5.2h-1.1L168.4,713.9z"
   id="path110379" />
				<path
   class="st1"
   d="M173.9,716.5L173.9,716.5c0-1.7,1-2.8,2.4-2.8c1.2,0,2.3,0.7,2.3,2.6v0.3h-3.9c0,1.2,0.6,1.8,1.7,1.8      c0.8,0,1.3-0.3,1.4-0.9h0.8c-0.2,1-1,1.6-2.2,1.6C174.9,719.2,173.9,718.2,173.9,716.5z M177.8,716c-0.1-1.1-0.6-1.5-1.5-1.5      c-0.8,0-1.4,0.6-1.6,1.5H177.8z"
   id="path110381" />
				<path
   class="st1"
   d="M180,713.9h0.8v0.8c0.2-0.5,0.8-0.9,1.7-0.9c1.1,0,1.8,0.6,1.8,2.1v3.2h-0.8v-3.3c0-0.9-0.4-1.3-1.2-1.3      c-0.8,0-1.5,0.5-1.5,1.4v3.2H180V713.9z"
   id="path110383" />
				<path
   class="st1"
   d="M186.1,717.8v-3.2h-0.7v-0.7h0.7v-1.2h0.8v1.2h1.2v0.7H187v3.1c0,0.5,0.2,0.8,0.6,0.8c0.3,0,0.5,0,0.6-0.1      v0.7c-0.2,0.1-0.4,0.1-0.7,0.1C186.6,719.2,186.1,718.6,186.1,717.8z"
   id="path110385" />
				<path
   class="st1"
   d="M189.1,716.5L189.1,716.5c0-1.6,1.1-2.7,2.6-2.7s2.6,1.1,2.6,2.7v0.1c0,1.6-1.1,2.7-2.6,2.7      S189.1,718.1,189.1,716.5z M193.4,716.5L193.4,716.5c0-1.3-0.7-2.1-1.7-2.1c-1,0-1.7,0.8-1.7,2v0.1c0,1.2,0.6,2,1.7,2      C192.7,718.5,193.4,717.7,193.4,716.5z"
   id="path110387" />
				<path
   class="st1"
   d="M195.1,717.5h0.8c0.1,0.6,0.4,1,1.2,1c0.8,0,1.1-0.3,1.1-0.8c0-0.5-0.4-0.7-1.2-0.9      c-1.4-0.2-1.8-0.6-1.8-1.5c0-1,0.9-1.5,1.8-1.5c0.9,0,1.7,0.4,1.9,1.5h-0.8c-0.1-0.6-0.4-0.8-1.1-0.8c-0.6,0-1,0.3-1,0.8      c0,0.5,0.3,0.7,1.2,0.8c1.1,0.2,1.8,0.4,1.8,1.5c0,0.9-0.6,1.6-1.9,1.6C195.9,719.2,195.2,718.6,195.1,717.5z"
   id="path110389" />
				<path
   class="st1"
   d="M202.6,716.5L202.6,716.5c0-1.7,1-2.8,2.4-2.8c1.2,0,2.3,0.7,2.3,2.6v0.3h-3.9c0,1.2,0.6,1.8,1.7,1.8      c0.8,0,1.3-0.3,1.4-0.9h0.8c-0.2,1-1,1.6-2.2,1.6C203.6,719.2,202.6,718.2,202.6,716.5z M206.5,716c-0.1-1.1-0.6-1.5-1.5-1.5      c-0.8,0-1.4,0.6-1.6,1.5H206.5z"
   id="path110391" />
				<path
   class="st1"
   d="M208.7,713.9h0.8v0.8c0.2-0.5,0.8-0.9,1.7-0.9c1.1,0,1.8,0.6,1.8,2.1v3.2h-0.8v-3.3c0-0.9-0.4-1.3-1.2-1.3      c-0.8,0-1.5,0.5-1.5,1.4v3.2h-0.8V713.9z"
   id="path110393" />
				<path
   class="st1"
   d="M217.3,713.9h0.8v0.8c0.2-0.5,0.8-0.9,1.7-0.9c1.1,0,1.8,0.6,1.8,2.1v3.2h-0.8v-3.3c0-0.9-0.4-1.3-1.2-1.3      c-0.8,0-1.5,0.5-1.5,1.4v3.2h-0.8V713.9z"
   id="path110395" />
				<path
   class="st1"
   d="M223.2,717.2v-3.3h0.8v3.3c0,0.9,0.4,1.3,1.2,1.3c0.7,0,1.4-0.5,1.4-1.4v-3.2h0.8v5.2h-0.8v-0.8      c-0.2,0.5-0.8,0.9-1.7,0.9C224,719.2,223.2,718.6,223.2,717.2z"
   id="path110397" />
				<path
   class="st1"
   d="M228.8,716.5L228.8,716.5c0-1.7,1-2.8,2.4-2.8c1.2,0,2.3,0.7,2.3,2.6v0.3h-3.9c0,1.2,0.6,1.8,1.7,1.8      c0.8,0,1.3-0.3,1.4-0.9h0.8c-0.2,1-1,1.6-2.2,1.6C229.9,719.2,228.8,718.2,228.8,716.5z M232.8,716c-0.1-1.1-0.6-1.5-1.5-1.5      c-0.8,0-1.4,0.6-1.6,1.5H232.8z"
   id="path110399" />
				<path
   class="st1"
   d="M234.5,717.5h0.8c0.1,0.6,0.4,1,1.2,1c0.8,0,1.1-0.3,1.1-0.8c0-0.5-0.4-0.7-1.2-0.9      c-1.4-0.2-1.8-0.6-1.8-1.5c0-1,0.9-1.5,1.8-1.5c0.9,0,1.7,0.4,1.9,1.5h-0.8c-0.1-0.6-0.4-0.8-1.1-0.8c-0.6,0-1,0.3-1,0.8      c0,0.5,0.3,0.7,1.2,0.8c1.1,0.2,1.8,0.4,1.8,1.5c0,0.9-0.6,1.6-1.9,1.6C235.3,719.2,234.5,718.6,234.5,717.5z"
   id="path110401" />
				<path
   class="st1"
   d="M239.9,717.8v-3.2h-0.8v-0.7h0.8v-1.2h0.8v1.2h1.2v0.7h-1.2v3.1c0,0.5,0.2,0.8,0.6,0.8c0.3,0,0.5,0,0.6-0.1      v0.7c-0.2,0.1-0.4,0.1-0.7,0.1C240.3,719.2,239.9,718.6,239.9,717.8z"
   id="path110403" />
				<path
   class="st1"
   d="M243.2,713.9h0.8v0.9c0.3-0.6,0.8-1,1.7-1v0.8c-1,0.1-1.7,0.4-1.7,1.7v2.9h-0.8V713.9z"
   id="path110405" />
				<path
   class="st1"
   d="M246.6,717.7c0-1.2,1.3-1.6,2.6-1.6h0.7v-0.4c0-0.8-0.3-1.2-1.1-1.2c-0.7,0-1.1,0.3-1.2,0.9h-0.8      c0.1-1.2,1.1-1.6,2.1-1.6c1,0,1.9,0.4,1.9,1.9v3.4h-0.8v-0.7c-0.4,0.5-0.9,0.8-1.6,0.8C247.3,719.2,246.6,718.7,246.6,717.7z       M249.9,717.3v-0.6h-0.7c-1,0-1.8,0.3-1.8,1c0,0.5,0.3,0.9,1,0.9C249.3,718.5,249.9,718.1,249.9,717.3z"
   id="path110407" />
				<path
   class="st1"
   d="M181.1,725.9h0.9l1.2,4.2l1.3-4.2h0.7l1.2,4.2l1.2-4.2h0.8l-1.6,5.2h-0.9l-1.1-3.9l-1.2,3.9h-0.9      L181.1,725.9z"
   id="path110409" />
				<path
   class="st1"
   d="M189.2,728.5L189.2,728.5c0-1.7,1-2.8,2.4-2.8c1.2,0,2.3,0.7,2.3,2.6v0.3H190c0,1.2,0.6,1.8,1.7,1.8      c0.8,0,1.3-0.3,1.4-0.9h0.8c-0.2,1-1,1.6-2.2,1.6C190.2,731.2,189.2,730.2,189.2,728.5z M193.1,728c-0.1-1.1-0.6-1.5-1.5-1.5      c-0.8,0-1.4,0.6-1.6,1.5H193.1z"
   id="path110411" />
				<path
   class="st1"
   d="M196.1,730.2v0.9h-0.8v-7.7h0.8v3.4c0.3-0.5,1-1,1.8-1c1.4,0,2.4,1,2.4,2.6v0.1c0,1.6-0.9,2.7-2.4,2.7      C197,731.2,196.4,730.8,196.1,730.2z M199.4,728.5L199.4,728.5c0-1.4-0.7-2.1-1.6-2.1c-1,0-1.7,0.6-1.7,2v0.1c0,1.3,0.7,2,1.7,2      C198.8,730.5,199.4,729.8,199.4,728.5z"
   id="path110413" />
				<path
   class="st1"
   d="M203.7,729.5h0.8c0.1,0.6,0.4,1,1.2,1c0.8,0,1.1-0.3,1.1-0.8c0-0.5-0.4-0.7-1.2-0.9      c-1.4-0.2-1.8-0.6-1.8-1.5c0-1,0.9-1.5,1.8-1.5c0.9,0,1.7,0.4,1.9,1.5h-0.8c-0.1-0.6-0.4-0.8-1.1-0.8c-0.6,0-1,0.3-1,0.8      c0,0.5,0.3,0.7,1.2,0.8c1.1,0.2,1.8,0.4,1.8,1.5c0,0.9-0.6,1.6-1.9,1.6C204.5,731.2,203.8,730.6,203.7,729.5z"
   id="path110415" />
				<path
   class="st1"
   d="M208.6,728.5L208.6,728.5c0-1.6,1.1-2.7,2.6-2.7c1.5,0,2.6,1.1,2.6,2.7v0.1c0,1.6-1.1,2.7-2.6,2.7      S208.6,730.1,208.6,728.5z M212.9,728.5L212.9,728.5c0-1.3-0.7-2.1-1.7-2.1c-1,0-1.7,0.8-1.7,2v0.1c0,1.2,0.7,2,1.7,2      C212.2,730.5,212.9,729.7,212.9,728.5z"
   id="path110417" />
				<path
   class="st1"
   d="M214.6,728.5L214.6,728.5c0-1.7,1.1-2.8,2.5-2.8c1.1,0,2.1,0.5,2.3,1.8h-0.8c-0.1-0.8-0.7-1.1-1.4-1.1      c-0.9,0-1.7,0.8-1.7,2v0.1c0,1.3,0.7,2,1.7,2c0.7,0,1.4-0.4,1.5-1.3h0.8c-0.1,1.1-1,2-2.3,2      C215.7,731.2,214.6,730.2,214.6,728.5z"
   id="path110419" />
				<path
   class="st1"
   d="M220.6,724.2c0-0.3,0.2-0.5,0.5-0.5s0.5,0.2,0.5,0.5s-0.2,0.5-0.5,0.5S220.6,724.5,220.6,724.2z       M220.7,725.9h0.8v5.2h-0.8V725.9z"
   id="path110421" />
				<path
   class="st1"
   d="M222.8,729.7c0-1.2,1.3-1.6,2.6-1.6h0.8v-0.4c0-0.8-0.3-1.2-1.1-1.2c-0.7,0-1.1,0.3-1.2,0.9h-0.8      c0.1-1.2,1.1-1.6,2.1-1.6c1,0,1.9,0.4,1.9,1.9v3.4h-0.8v-0.7c-0.4,0.5-0.9,0.8-1.6,0.8C223.6,731.2,222.8,730.7,222.8,729.7z       M226.2,729.3v-0.6h-0.7c-1,0-1.8,0.3-1.8,1c0,0.5,0.3,0.9,1,0.9C225.5,730.5,226.2,730.1,226.2,729.3z"
   id="path110423" />
				<path
   class="st1"
   d="M228.7,723.4h0.8v7.7h-0.8V723.4z"
   id="path110425" />
				<path
   class="st1"
   d="M231.2,730.5c0-0.4,0.3-0.6,0.6-0.6c0.4,0,0.6,0.3,0.6,0.6c0,0.4-0.3,0.6-0.6,0.6      C231.4,731.2,231.2,730.9,231.2,730.5z"
   id="path110427" />
			</g>
		</g>
		<g
   id="g110467">
			<path
   class="st1"
   d="M181.3,770.5h1.8c1.2,0,2.3,0.5,2.3,1.9v0c0,1.4-1,1.9-2.3,1.9h-1v2.6h-0.8V770.5z M183.2,773.7     c0.9,0,1.4-0.5,1.4-1.3v0c0-0.9-0.5-1.3-1.4-1.3h-1.1v2.6H183.2z"
   id="path110433" />
			<path
   class="st1"
   d="M186.5,770.5h1.9c1.2,0,2.3,0.5,2.3,1.8v0c0,1.1-0.7,1.6-1.6,1.8l2,2.9h-0.9l-1.9-2.8h-1v2.8h-0.8V770.5z      M188.5,773.5c0.9,0,1.4-0.4,1.4-1.2v0c0-0.9-0.5-1.2-1.4-1.2h-1.2v2.4H188.5z"
   id="path110435" />
			<path
   class="st1"
   d="M192.2,770.5h0.8v6.4h-0.8V770.5z"
   id="path110437" />
			<path
   class="st1"
   d="M194.2,770.5h0.8l1.9,5.7l1.9-5.7h0.7l-2.2,6.4h-0.9L194.2,770.5z"
   id="path110439" />
			<path
   class="st1"
   d="M202.3,770.5h1l2.2,6.4h-0.8l-0.6-1.9h-2.7l-0.6,1.9h-0.7L202.3,770.5z M201.7,774.5h2.2l-1.1-3.3     L201.7,774.5z"
   id="path110441" />
			<path
   class="st1"
   d="M206.3,773.8L206.3,773.8c0-2,1.3-3.4,3-3.4c1.3,0,2.5,0.7,2.6,2.1h-0.8c-0.2-1-0.7-1.5-1.8-1.5     c-1.3,0-2.2,1-2.2,2.7v0.1c0,1.6,0.8,2.6,2.2,2.6c1.1,0,1.8-0.5,1.9-1.6h0.7c-0.2,1.5-1.3,2.2-2.7,2.2     C207.5,777,206.3,775.7,206.3,773.8z"
   id="path110443" />
			<path
   class="st1"
   d="M213.3,770.5h0.8v6.4h-0.8V770.5z"
   id="path110445" />
			<path
   class="st1"
   d="M215.7,770.5h1.7c2.2,0,3.3,1.4,3.3,3.2v0.1c0,1.8-1,3.2-3.3,3.2h-1.7V770.5z M217.4,776.3     c1.7,0,2.5-1,2.5-2.6v-0.1c0-1.5-0.7-2.5-2.5-2.5h-0.9v5.2H217.4z"
   id="path110447" />
			<path
   class="st1"
   d="M223.7,770.5h1l2.2,6.4h-0.8l-0.6-1.9h-2.7l-0.6,1.9h-0.7L223.7,770.5z M223.1,774.5h2.2l-1.1-3.3     L223.1,774.5z"
   id="path110449" />
			<path
   class="st1"
   d="M228,770.5h1.7c2.2,0,3.3,1.4,3.3,3.2v0.1c0,1.8-1,3.2-3.3,3.2H228V770.5z M229.7,776.3c1.7,0,2.5-1,2.5-2.6     v-0.1c0-1.5-0.7-2.5-2.5-2.5h-0.9v5.2H229.7z"
   id="path110451" />
			<path
   class="st1"
   d="M185.8,781.3h1.7c2.2,0,3.3,1.4,3.3,3.2v0.1c0,1.8-1,3.2-3.3,3.2h-1.7V781.3z M187.4,787.1     c1.7,0,2.5-1,2.5-2.6v-0.1c0-1.5-0.7-2.5-2.5-2.5h-0.9v5.2H187.4z"
   id="path110453" />
			<path
   class="st1"
   d="M192,781.3h3.8v0.6h-3v2.2h2.4v0.6h-2.4v2.3h3.1v0.6H192V781.3z"
   id="path110455" />
			<path
   class="st1"
   d="M199.5,781.3h1.7c2.2,0,3.3,1.4,3.3,3.2v0.1c0,1.8-1,3.2-3.3,3.2h-1.7V781.3z M201.2,787.1     c1.7,0,2.5-1,2.5-2.6v-0.1c0-1.5-0.7-2.5-2.5-2.5h-0.9v5.2H201.2z"
   id="path110457" />
			<path
   class="st1"
   d="M207.5,781.3h1l2.2,6.4h-0.8l-0.6-1.9h-2.7l-0.6,1.9h-0.7L207.5,781.3z M206.9,785.3h2.2L208,782     L206.9,785.3z"
   id="path110459" />
			<path
   class="st1"
   d="M213.2,781.9h-1.9v-0.6h4.5v0.6H214v5.8h-0.8V781.9z"
   id="path110461" />
			<path
   class="st1"
   d="M216.6,784.6L216.6,784.6c0-1.9,1.3-3.3,3.2-3.3s3.1,1.4,3.1,3.2v0.1c0,1.8-1.3,3.3-3.1,3.3     C217.9,787.8,216.6,786.4,216.6,784.6z M222.1,784.5L222.1,784.5c0-1.5-0.8-2.7-2.3-2.7c-1.5,0-2.4,1.1-2.4,2.6v0.1     c0,1.6,1,2.6,2.4,2.6C221.2,787.2,222.1,786.1,222.1,784.5z"
   id="path110463" />
			<path
   class="st1"
   d="M223.8,785.8h0.8c0.1,0.8,0.4,1.4,1.7,1.4c0.8,0,1.5-0.5,1.5-1.2s-0.3-1-1.6-1.2c-1.4-0.2-2.2-0.6-2.2-1.8     c0-1,0.9-1.7,2.1-1.7c1.3,0,2.1,0.6,2.2,1.8h-0.7c-0.2-0.8-0.6-1.1-1.5-1.1c-0.9,0-1.3,0.4-1.3,1c0,0.6,0.2,1,1.5,1.2     c1.4,0.2,2.2,0.7,2.2,1.9c0,1.1-0.9,1.9-2.2,1.9C224.6,787.8,223.9,786.9,223.8,785.8z"
   id="path110465" />
		</g>
		<g
   id="g110481">
			<g
   id="g110479">
				<path
   class="st1"
   d="M182.8,671.8h2.4c0.1,1.1,0.7,1.8,2.2,1.8c1.4,0,2-0.5,2-1.4c0-0.9-0.7-1.2-2.4-1.5c-2.9-0.5-4-1.3-4-3.3      c0-2.2,2.1-3.3,4.1-3.3c2.2,0,4,0.8,4.3,3.3h-2.4c-0.2-1-0.8-1.5-2-1.5c-1.1,0-1.7,0.5-1.7,1.3c0,0.8,0.5,1.1,2.3,1.4      c2.6,0.4,4.1,1,4.1,3.4c0,2.2-1.6,3.5-4.4,3.5C184.6,675.4,182.9,674.1,182.8,671.8z"
   id="path110469" />
				<path
   class="st1"
   d="M193.2,672.1c0-2.6,2.5-3.5,5.6-3.5h1.4v-0.6c0-1.5-0.5-2.2-2-2.2c-1.3,0-2,0.6-2.1,1.7h-2.5      c0.2-2.6,2.2-3.6,4.7-3.6s4.4,1,4.4,4v7.2h-2.5v-1.3c-0.7,0.9-1.7,1.6-3.4,1.6C194.9,675.4,193.2,674.4,193.2,672.1z       M200.2,671.3v-1.1h-1.3c-1.9,0-3.2,0.4-3.2,1.8c0,0.9,0.5,1.5,1.8,1.5C199.1,673.6,200.2,672.7,200.2,671.3z"
   id="path110471" />
				<path
   class="st1"
   d="M205.7,659.1h2.5v16.1h-2.5V659.1z"
   id="path110473" />
				<path
   class="st1"
   d="M210.6,672.1c0-2.6,2.5-3.5,5.6-3.5h1.4v-0.6c0-1.5-0.5-2.2-2-2.2c-1.3,0-2,0.6-2.1,1.7H211      c0.2-2.6,2.2-3.6,4.7-3.6c2.5,0,4.4,1,4.4,4v7.2h-2.5v-1.3c-0.7,0.9-1.7,1.6-3.4,1.6C212.2,675.4,210.6,674.4,210.6,672.1z       M217.6,671.3v-1.1h-1.3c-1.9,0-3.2,0.4-3.2,1.8c0,0.9,0.5,1.5,1.8,1.5C216.4,673.6,217.6,672.7,217.6,671.3z"
   id="path110475" />
				<path
   class="st1"
   d="M222.2,671.8h2.4c0.1,1.1,0.7,1.8,2.2,1.8c1.4,0,2-0.5,2-1.4c0-0.9-0.7-1.2-2.4-1.5c-2.9-0.5-4-1.3-4-3.3      c0-2.2,2.1-3.3,4.1-3.3c2.2,0,4,0.8,4.3,3.3h-2.4c-0.2-1-0.8-1.5-2-1.5c-1.1,0-1.7,0.5-1.7,1.3c0,0.8,0.5,1.1,2.3,1.4      c2.6,0.4,4.1,1,4.1,3.4c0,2.2-1.6,3.5-4.4,3.5C223.9,675.4,222.3,674.1,222.2,671.8z"
   id="path110477" />
			</g>
		</g>
	</g>
	<g
   id="BUTTONS_2_">
		<g
   id="g110546">
			<g
   id="g110498">
				<path
   class="st1"
   d="M52.4,519.1h1.7v1.2c0.4-0.7,1.3-1.3,2.4-1.3c1.8,0,3.2,1.4,3.2,3.7v0.1c0,2.4-1.4,3.8-3.2,3.8      c-1.2,0-2-0.6-2.4-1.3v3.7h-1.7V519.1z M58,522.8v-0.1c0-1.6-0.8-2.4-1.9-2.4c-1.2,0-2,0.8-2,2.4v0.1c0,1.6,0.8,2.4,2,2.4      C57.3,525.2,58,524.4,58,522.8z"
   id="path110484" />
				<path
   class="st1"
   d="M61.3,519.1H63v1.4c0.5-0.9,1.1-1.5,2.4-1.5v1.6c-1.5,0-2.4,0.5-2.4,2v3.8h-1.7V519.1z"
   id="path110486" />
				<path
   class="st1"
   d="M66.4,522.8v-0.1c0-2.3,1.6-3.8,3.8-3.8c2.1,0,3.8,1.5,3.8,3.7v0.1c0,2.3-1.6,3.8-3.8,3.8      S66.4,525,66.4,522.8z M72.1,522.8L72.1,522.8c0-1.6-0.8-2.5-2-2.5s-2,0.9-2,2.4v0.1c0,1.5,0.7,2.4,2,2.4      C71.4,525.2,72.1,524.3,72.1,522.8z M70.2,515.8h1.9l-1.5,2.2h-1.2L70.2,515.8z"
   id="path110488" />
				<path
   class="st1"
   d="M77.2,522.7l-2.4-3.6h2l1.5,2.4l1.5-2.4h1.8l-2.4,3.4l2.6,3.9h-2l-1.7-2.6l-1.8,2.6h-1.8L77.2,522.7z"
   id="path110490" />
				<path
   class="st1"
   d="M83,516.9c0-0.6,0.4-1,1-1c0.6,0,1,0.4,1,1c0,0.5-0.4,1-1,1C83.5,517.9,83,517.5,83,516.9z M83.2,519.1h1.7      v7.3h-1.7V519.1z"
   id="path110492" />
				<path
   class="st1"
   d="M87,519.1h1.7v1.1c0.4-0.7,1.1-1.3,2.2-1.3c1,0,1.7,0.4,2.1,1.3c0.6-0.9,1.6-1.3,2.5-1.3      c1.3,0,2.4,0.8,2.4,2.8v4.6h-1.7v-4.5c0-1.1-0.5-1.5-1.3-1.5s-1.6,0.6-1.6,1.7v4.4h-1.7v-4.5c0-1.1-0.5-1.5-1.3-1.5      c-0.8,0-1.6,0.6-1.6,1.7v4.4H87V519.1z"
   id="path110494" />
				<path
   class="st1"
   d="M99.3,524.4c0-1.7,1.7-2.3,3.8-2.3h0.9v-0.4c0-1-0.3-1.5-1.3-1.5c-0.9,0-1.3,0.4-1.4,1.1h-1.6      c0.1-1.7,1.5-2.4,3.1-2.4c1.6,0,2.9,0.7,2.9,2.7v4.8H104v-0.9c-0.5,0.6-1.1,1-2.2,1C100.4,526.5,99.3,525.9,99.3,524.4z       M104,523.8v-0.7h-0.9c-1.3,0-2.1,0.3-2.1,1.2c0,0.6,0.3,1,1.2,1C103.2,525.3,104,524.8,104,523.8z"
   id="path110496" />
			</g>
			<g
   id="g110510">
				<path
   class="st1"
   d="M124.6,588.5c0-1.7,1.7-2.3,3.8-2.3h0.9v-0.4c0-1-0.3-1.5-1.3-1.5c-0.9,0-1.3,0.4-1.4,1.1h-1.6      c0.1-1.7,1.5-2.4,3.1-2.4c1.6,0,2.9,0.7,2.9,2.7v4.8h-1.7v-0.9c-0.5,0.6-1.1,1-2.2,1C125.7,590.6,124.6,590,124.6,588.5z       M129.3,587.9v-0.7h-0.9c-1.3,0-2.1,0.3-2.1,1.2c0,0.6,0.3,1,1.2,1C128.5,589.4,129.3,588.9,129.3,587.9z"
   id="path110500" />
				<path
   class="st1"
   d="M132.9,583.2h1.7v1.4c0.5-0.9,1.1-1.5,2.4-1.5v1.6c-1.5,0-2.4,0.5-2.4,2v3.8h-1.7V583.2z"
   id="path110502" />
				<path
   class="st1"
   d="M138,586.9v-0.1c0-2.3,1.6-3.8,3.6-3.8c1.8,0,3.5,1.1,3.5,3.7v0.5h-5.4c0.1,1.4,0.8,2.2,2,2.2      c1,0,1.6-0.4,1.7-1.1h1.6c-0.2,1.5-1.5,2.4-3.4,2.4C139.5,590.6,138,589.2,138,586.9z M143.4,586.1c-0.1-1.3-0.7-1.8-1.8-1.8      c-1,0-1.7,0.7-1.9,1.8H143.4z"
   id="path110504" />
				<path
   class="st1"
   d="M146.6,583.2h1.7v1.2c0.4-0.7,1.2-1.3,2.4-1.3c1.5,0,2.5,0.9,2.5,2.9v4.6h-1.7V586c0-1.1-0.4-1.6-1.5-1.6      c-1,0-1.7,0.6-1.7,1.8v4.3h-1.7V583.2z"
   id="path110506" />
				<path
   class="st1"
   d="M154.6,588.5c0-1.7,1.7-2.3,3.8-2.3h0.9v-0.4c0-1-0.3-1.5-1.3-1.5c-0.9,0-1.3,0.4-1.4,1.1h-1.6      c0.1-1.7,1.5-2.4,3.1-2.4c1.6,0,2.9,0.7,2.9,2.7v4.8h-1.7v-0.9c-0.5,0.6-1.1,1-2.2,1C155.7,590.6,154.6,590,154.6,588.5z       M159.2,587.9v-0.7h-0.9c-1.3,0-2.1,0.3-2.1,1.2c0,0.6,0.3,1,1.2,1C158.5,589.4,159.2,588.9,159.2,587.9z"
   id="path110508" />
			</g>
			<g
   id="g110522">
				<path
   class="st1"
   d="M317.8,525.2v1.2h-1.7v-10.7h1.7v4.6c0.4-0.7,1.3-1.3,2.4-1.3c1.8,0,3.2,1.4,3.2,3.7v0.1      c0,2.4-1.4,3.8-3.2,3.8C319.1,526.5,318.2,526,317.8,525.2z M321.8,522.8v-0.1c0-1.6-0.8-2.4-1.9-2.4c-1.2,0-2,0.8-2,2.4v0.1      c0,1.6,0.8,2.4,2,2.4C321.1,525.2,321.8,524.4,321.8,522.8z"
   id="path110512" />
				<path
   class="st1"
   d="M324.5,522.8v-0.1c0-2.3,1.6-3.8,3.6-3.8c1.8,0,3.5,1.1,3.5,3.7v0.5h-5.4c0.1,1.4,0.8,2.2,2,2.2      c1,0,1.6-0.4,1.7-1.1h1.6c-0.2,1.5-1.5,2.4-3.4,2.4C326.1,526.5,324.5,525.1,324.5,522.8z M329.9,522c-0.1-1.3-0.7-1.8-1.8-1.8      c-1,0-1.7,0.7-1.9,1.8H329.9z"
   id="path110514" />
				<path
   class="st1"
   d="M332.6,522.8v-0.1c0-2.3,1.7-3.8,3.7-3.8c1.6,0,3.2,0.7,3.3,2.7H338c-0.1-1-0.8-1.4-1.7-1.4      c-1.2,0-2,0.9-2,2.4v0.1c0,1.6,0.8,2.4,2,2.4c0.9,0,1.7-0.5,1.8-1.6h1.6c-0.1,1.7-1.4,2.9-3.4,2.9      C334.2,526.5,332.6,525.2,332.6,522.8z"
   id="path110516" />
				<path
   class="st1"
   d="M340.6,524.4c0-1.7,1.7-2.3,3.8-2.3h0.9v-0.4c0-1-0.3-1.5-1.3-1.5c-0.9,0-1.3,0.4-1.4,1.1h-1.6      c0.1-1.7,1.5-2.4,3.1-2.4c1.6,0,2.9,0.7,2.9,2.7v4.8h-1.7v-0.9c-0.5,0.6-1.1,1-2.2,1C341.8,526.5,340.6,525.9,340.6,524.4z       M345.3,523.8v-0.7h-0.9c-1.3,0-2.1,0.3-2.1,1.2c0,0.6,0.3,1,1.2,1C344.5,525.3,345.3,524.8,345.3,523.8z"
   id="path110518" />
				<path
   class="st1"
   d="M348.4,524.1h1.6c0.1,0.7,0.5,1.2,1.5,1.2c0.9,0,1.3-0.3,1.3-0.9c0-0.6-0.5-0.8-1.6-1      c-1.9-0.3-2.6-0.9-2.6-2.2c0-1.5,1.4-2.2,2.7-2.2c1.5,0,2.7,0.6,2.9,2.2h-1.6c-0.1-0.7-0.5-1-1.3-1c-0.7,0-1.2,0.4-1.2,0.9      c0,0.5,0.3,0.7,1.5,0.9c1.7,0.3,2.7,0.7,2.7,2.2c0,1.5-1,2.3-2.9,2.3C349.6,526.5,348.5,525.7,348.4,524.1z"
   id="path110520" />
			</g>
			<g
   id="g110544">
				<path
   class="st1"
   d="M231.5,586.9v-0.1c0-2.3,1.4-3.8,3.3-3.8c1.2,0,1.9,0.5,2.3,1.3v-4.5h1.7v10.7h-1.7v-1.2      c-0.4,0.7-1.3,1.4-2.4,1.4C232.8,590.6,231.5,589.3,231.5,586.9z M237.1,586.9v-0.1c0-1.6-0.7-2.4-2-2.4c-1.2,0-2,0.9-2,2.5v0.1      c0,1.6,0.8,2.4,1.9,2.4C236.3,589.3,237.1,588.5,237.1,586.9z"
   id="path110524" />
				<path
   class="st1"
   d="M240.3,586.9v-0.1c0-2.3,1.6-3.8,3.8-3.8c2.1,0,3.8,1.5,3.8,3.7v0.1c0,2.3-1.6,3.8-3.8,3.8      S240.3,589.1,240.3,586.9z M246.1,586.9L246.1,586.9c0-1.6-0.8-2.5-2-2.5s-2,0.9-2,2.4v0.1c0,1.5,0.7,2.4,2,2.4      C245.3,589.3,246.1,588.4,246.1,586.9z"
   id="path110526" />
				<path
   class="st1"
   d="M248.9,586.9v-0.1c0-2.3,1.7-3.8,3.7-3.8c1.6,0,3.2,0.7,3.3,2.7h-1.6c-0.1-1-0.8-1.4-1.7-1.4      c-1.2,0-2,0.9-2,2.4v0.1c0,1.6,0.8,2.4,2,2.4c0.9,0,1.7-0.5,1.8-1.6h1.6c-0.1,1.7-1.4,2.9-3.4,2.9      C250.5,590.6,248.9,589.3,248.9,586.9z"
   id="path110528" />
				<path
   class="st1"
   d="M257.3,587.9v-4.7h1.7v4.5c0,1.1,0.5,1.6,1.4,1.6c0.9,0,1.7-0.6,1.7-1.8v-4.4h1.7v7.3h-1.7v-1.1      c-0.4,0.7-1.1,1.3-2.3,1.3C258.4,590.6,257.3,589.8,257.3,587.9z"
   id="path110530" />
				<path
   class="st1"
   d="M265.9,583.2h1.7v1.1c0.4-0.7,1.1-1.3,2.2-1.3c1,0,1.7,0.4,2.1,1.3c0.6-0.9,1.6-1.3,2.5-1.3      c1.3,0,2.4,0.8,2.4,2.8v4.6h-1.7V586c0-1.1-0.5-1.5-1.3-1.5c-0.8,0-1.6,0.6-1.6,1.7v4.4h-1.7V586c0-1.1-0.5-1.5-1.3-1.5      c-0.8,0-1.6,0.6-1.6,1.7v4.4h-1.7V583.2z"
   id="path110532" />
				<path
   class="st1"
   d="M278.2,586.9v-0.1c0-2.3,1.6-3.8,3.6-3.8c1.8,0,3.5,1.1,3.5,3.7v0.5H280c0.1,1.4,0.8,2.2,2,2.2      c1,0,1.6-0.4,1.7-1.1h1.6c-0.2,1.5-1.5,2.4-3.4,2.4C279.8,590.6,278.2,589.2,278.2,586.9z M283.7,586.1      c-0.1-1.3-0.7-1.8-1.8-1.8c-1,0-1.7,0.7-1.9,1.8H283.7z"
   id="path110534" />
				<path
   class="st1"
   d="M286.8,583.2h1.7v1.2c0.4-0.7,1.2-1.3,2.4-1.3c1.5,0,2.5,0.9,2.5,2.9v4.6h-1.7V586c0-1.1-0.4-1.6-1.5-1.6      c-1,0-1.7,0.6-1.7,1.8v4.3h-1.7V583.2z"
   id="path110536" />
				<path
   class="st1"
   d="M295.6,588.4v-4h-1v-1.3h1v-1.6h1.7v1.6h1.6v1.3h-1.6v3.9c0,0.6,0.3,0.9,0.8,0.9c0.3,0,0.6,0,0.8-0.1v1.3      c-0.3,0.1-0.6,0.2-1.1,0.2C296.4,590.6,295.6,589.8,295.6,588.4z"
   id="path110538" />
				<path
   class="st1"
   d="M300,588.5c0-1.7,1.7-2.3,3.8-2.3h0.9v-0.4c0-1-0.3-1.5-1.3-1.5c-0.9,0-1.3,0.4-1.4,1.1h-1.6      c0.1-1.7,1.5-2.4,3.1-2.4c1.6,0,2.9,0.7,2.9,2.7v4.8h-1.7v-0.9c-0.5,0.6-1.1,1-2.2,1C301.1,590.6,300,590,300,588.5z       M304.7,587.9v-0.7h-0.9c-1.3,0-2.1,0.3-2.1,1.2c0,0.6,0.3,1,1.2,1C303.9,589.4,304.7,588.9,304.7,587.9z"
   id="path110540" />
				<path
   class="st1"
   d="M308.3,579.8h1.7v10.7h-1.7V579.8z"
   id="path110542" />
			</g>
		</g>
	</g>
	<g
   id="g110591">
		<g
   id="BUTTONS_3_">
			<g
   id="g110567">
				<g
   id="g110565">
					<path
   class="st1"
   d="M63.6,510.2h0.3c0.1,0.6,0.7,1.1,1.8,1.1c1,0,1.8-0.5,1.8-1.7v-1.1c-0.2,0.6-0.9,1.3-1.9,1.3       c-1.2,0-2.1-0.8-2.1-2.3v-0.1c0-1.4,1-2.3,2.2-2.3c1,0,1.6,0.6,1.8,1.3v-1.2h0.3v4.4c0,1.4-0.9,2-2.1,2       C64.3,511.6,63.7,510.9,63.6,510.2z M67.5,507.5L67.5,507.5c0-1.3-0.8-2.1-1.8-2.1c-1,0-1.9,0.7-1.9,2v0.1c0,1.3,0.8,2,1.8,2       C66.6,509.5,67.5,508.8,67.5,507.5z"
   id="path110549" />
					<path
   class="st1"
   d="M68.9,508.7c0-1.1,1-1.4,2.1-1.4h1.2v-0.5c0-1-0.4-1.4-1.3-1.4c-0.7,0-1.3,0.3-1.5,1.1h-0.3       c0.1-0.9,0.9-1.4,1.8-1.4c1,0,1.6,0.5,1.6,1.7v3.1h-0.3v-0.8c-0.3,0.5-0.8,0.9-1.7,0.9C69.5,510,68.9,509.5,68.9,508.7z        M72.2,508.5v-1H71c-1,0-1.8,0.2-1.8,1.2c0,0.7,0.5,1.1,1.3,1.1C71.4,509.7,72.2,509.2,72.2,508.5z"
   id="path110551" />
					<path
   class="st1"
   d="M73.9,503h0.3v7h-0.3V503z"
   id="path110553" />
					<path
   class="st1"
   d="M75.4,507.6L75.4,507.6c0-1.5,0.9-2.5,2.1-2.5c1.2,0,2,0.8,2,2.3v0.1h-3.8c0,1.4,0.7,2.2,1.9,2.2       c0.8,0,1.4-0.4,1.6-1.1h0.3c-0.2,0.9-0.9,1.4-1.9,1.4C76.2,510,75.4,509,75.4,507.6z M79.2,507.3c0-1.2-0.7-1.9-1.7-1.9       c-1,0-1.7,0.7-1.8,1.9H79.2z"
   id="path110555" />
					<path
   class="st1"
   d="M80.6,505.2h0.3v1.1c0.2-0.6,0.8-1.1,1.6-1.1v0.3c-0.9,0-1.6,0.5-1.6,1.8v2.6h-0.3V505.2z"
   id="path110557" />
					<path
   class="st1"
   d="M84.3,503.2h0.4l-0.8,1.3h-0.3L84.3,503.2z M83.6,505.2h0.3v4.7h-0.3V505.2z"
   id="path110559" />
					<path
   class="st1"
   d="M85.1,508.7c0-1.1,1-1.4,2.1-1.4h1.2v-0.5c0-1-0.4-1.4-1.3-1.4c-0.7,0-1.3,0.3-1.5,1.1h-0.3       c0.1-0.9,0.9-1.4,1.8-1.4c1,0,1.6,0.5,1.6,1.7v3.1h-0.3v-0.8c-0.3,0.5-0.8,0.9-1.7,0.9C85.7,510,85.1,509.5,85.1,508.7z        M88.4,508.5v-1h-1.2c-1,0-1.8,0.2-1.8,1.2c0,0.7,0.5,1.1,1.3,1.1C87.6,509.7,88.4,509.2,88.4,508.5z"
   id="path110561" />
					<path
   class="st1"
   d="M94.3,502.9h0.3l-2.6,8.3h-0.3L94.3,502.9z"
   id="path110563" />
				</g>
			</g>
		</g>
		<g
   id="BUTTONS_4_">
			<g
   id="g110588">
				<g
   id="g110586">
					<path
   class="st1"
   d="M319.6,510.2h0.3c0.1,0.6,0.7,1.1,1.8,1.1c1,0,1.8-0.5,1.8-1.7v-1.1c-0.2,0.6-0.9,1.3-1.9,1.3       c-1.2,0-2.1-0.8-2.1-2.3v-0.1c0-1.4,1-2.3,2.2-2.3c1,0,1.6,0.6,1.8,1.3v-1.2h0.3v4.4c0,1.4-0.9,2-2.1,2       C320.3,511.6,319.7,510.9,319.6,510.2z M323.5,507.5L323.5,507.5c0-1.3-0.8-2.1-1.8-2.1c-1,0-1.9,0.7-1.9,2v0.1       c0,1.3,0.8,2,1.8,2C322.6,509.5,323.5,508.8,323.5,507.5z"
   id="path110570" />
					<path
   class="st1"
   d="M324.9,508.7c0-1.1,1-1.4,2.1-1.4h1.2v-0.5c0-1-0.4-1.4-1.3-1.4c-0.7,0-1.3,0.3-1.5,1.1h-0.3       c0.1-0.9,0.9-1.4,1.8-1.4c1,0,1.6,0.5,1.6,1.7v3.1h-0.3v-0.8c-0.3,0.5-0.8,0.9-1.7,0.9C325.5,510,324.9,509.5,324.9,508.7z        M328.2,508.5v-1H327c-1,0-1.8,0.2-1.8,1.2c0,0.7,0.5,1.1,1.3,1.1C327.4,509.7,328.2,509.2,328.2,508.5z"
   id="path110572" />
					<path
   class="st1"
   d="M329.9,503h0.3v7h-0.3V503z"
   id="path110574" />
					<path
   class="st1"
   d="M331.4,507.6L331.4,507.6c0-1.5,0.9-2.5,2.1-2.5c1.2,0,2,0.8,2,2.3v0.1h-3.8c0,1.4,0.7,2.2,1.9,2.2       c0.8,0,1.4-0.4,1.6-1.1h0.3c-0.2,0.9-0.9,1.4-1.9,1.4C332.2,510,331.4,509,331.4,507.6z M335.2,507.3c0-1.2-0.7-1.9-1.7-1.9       s-1.7,0.7-1.8,1.9H335.2z"
   id="path110576" />
					<path
   class="st1"
   d="M336.6,505.2h0.3v1.1c0.2-0.6,0.8-1.1,1.6-1.1v0.3c-0.9,0-1.6,0.5-1.6,1.8v2.6h-0.3V505.2z"
   id="path110578" />
					<path
   class="st1"
   d="M340.3,503.2h0.4l-0.8,1.3h-0.3L340.3,503.2z M339.6,505.2h0.3v4.7h-0.3V505.2z"
   id="path110580" />
					<path
   class="st1"
   d="M341.1,508.7c0-1.1,1-1.4,2.1-1.4h1.2v-0.5c0-1-0.4-1.4-1.3-1.4c-0.7,0-1.3,0.3-1.5,1.1h-0.3       c0.1-0.9,0.9-1.4,1.8-1.4c1,0,1.6,0.5,1.6,1.7v3.1h-0.3v-0.8c-0.3,0.5-0.8,0.9-1.7,0.9C341.7,510,341.1,509.5,341.1,508.7z        M344.4,508.5v-1h-1.2c-1,0-1.8,0.2-1.8,1.2c0,0.7,0.5,1.1,1.3,1.1C343.6,509.7,344.4,509.2,344.4,508.5z"
   id="path110582" />
					<path
   class="st1"
   d="M350.3,502.9h0.3l-2.6,8.3h-0.3L350.3,502.9z"
   id="path110584" />
				</g>
			</g>
		</g>
	</g>
	<g
   id="g110693">
		<circle
   class="st2"
   cx="76.2"
   cy="780.2"
   r="18.7"
   id="circle110593" />
		<g
   id="g110651">
			<path
   class="st1"
   d="M37.9,771.5h1.9c1.2,0,2.3,0.5,2.3,1.8v0c0,1.1-0.7,1.6-1.6,1.8l2,2.9h-0.9l-1.9-2.8h-1v2.8h-0.8V771.5z      M39.9,774.6c0.9,0,1.4-0.4,1.4-1.2v0c0-0.9-0.5-1.2-1.4-1.2h-1.2v2.4H39.9z"
   id="path110595" />
			<path
   class="st1"
   d="M43,775.7L43,775.7c0-1.5,0.9-2.5,2.2-2.5c1.1,0,2.1,0.7,2.1,2.3v0.2h-3.5c0,1.1,0.5,1.7,1.5,1.7     c0.7,0,1.2-0.3,1.3-0.8h0.7c-0.2,0.9-0.9,1.4-2,1.4C44,778.1,43,777.1,43,775.7z M46.6,775.2c-0.1-1-0.6-1.4-1.4-1.4     c-0.8,0-1.3,0.5-1.4,1.4H46.6z"
   id="path110597" />
			<path
   class="st1"
   d="M48.1,775.7L48.1,775.7c0-1.5,1-2.5,2.3-2.5c1,0,1.9,0.5,2,1.6h-0.7c-0.1-0.7-0.7-1-1.3-1     c-0.9,0-1.5,0.7-1.5,1.8v0.1c0,1.2,0.6,1.8,1.5,1.8c0.7,0,1.3-0.4,1.4-1.2h0.7c-0.1,1-0.9,1.8-2.1,1.8     C49.1,778.1,48.1,777.1,48.1,775.7z"
   id="path110599" />
			<path
   class="st1"
   d="M53.3,775.7L53.3,775.7c0-1.5,1-2.5,2.3-2.5s2.3,1,2.3,2.4v0.1c0,1.4-1,2.4-2.3,2.4S53.3,777,53.3,775.7z      M57.1,775.7L57.1,775.7c0-1.2-0.6-1.9-1.5-1.9c-0.9,0-1.5,0.7-1.5,1.8v0.1c0,1.1,0.6,1.8,1.5,1.8     C56.5,777.4,57.1,776.7,57.1,775.7z"
   id="path110601" />
			<path
   class="st1"
   d="M59.1,773.3h0.7v0.7c0.2-0.4,0.7-0.8,1.4-0.8c0.6,0,1.1,0.3,1.4,0.9c0.3-0.6,1-0.9,1.6-0.9     c0.8,0,1.6,0.5,1.6,1.9v2.9H65v-3c0-0.8-0.4-1.2-1-1.2c-0.6,0-1.2,0.4-1.2,1.3v2.9h-0.7v-3c0-0.8-0.4-1.2-1-1.2     c-0.6,0-1.2,0.4-1.2,1.3v2.9h-0.7V773.3z"
   id="path110603" />
			<path
   class="st1"
   d="M66.9,775.7L66.9,775.7c0-1.5,0.9-2.5,2.2-2.5c1.1,0,2.1,0.7,2.1,2.3v0.2h-3.5c0,1.1,0.5,1.7,1.5,1.7     c0.7,0,1.2-0.3,1.3-0.8h0.7c-0.2,0.9-0.9,1.4-2,1.4C67.9,778.1,66.9,777.1,66.9,775.7z M70.5,775.2c-0.1-1-0.6-1.4-1.4-1.4     c-0.8,0-1.3,0.5-1.4,1.4H70.5z"
   id="path110605" />
			<path
   class="st1"
   d="M72.4,773.3h0.7v0.7c0.2-0.4,0.7-0.8,1.5-0.8c1,0,1.7,0.5,1.7,1.9v2.9h-0.7V775c0-0.8-0.4-1.2-1.1-1.2     c-0.7,0-1.3,0.4-1.3,1.3v2.9h-0.7V773.3z"
   id="path110607" />
			<path
   class="st1"
   d="M77.4,775.7L77.4,775.7c0-1.5,0.9-2.5,2.2-2.5c0.8,0,1.3,0.4,1.5,0.8v-3h0.7v7h-0.7v-0.8     c-0.3,0.5-0.9,0.9-1.6,0.9C78.3,778.1,77.4,777.2,77.4,775.7z M81.2,775.7L81.2,775.7c0-1.3-0.6-1.8-1.5-1.8     c-0.9,0-1.5,0.7-1.5,1.8v0.1c0,1.2,0.6,1.8,1.4,1.8C80.5,777.4,81.2,776.9,81.2,775.7z"
   id="path110609" />
			<path
   class="st1"
   d="M83,776.7c0-1.1,1.2-1.5,2.4-1.5H86v-0.3c0-0.7-0.3-1.1-1-1.1c-0.6,0-1,0.3-1.1,0.8h-0.7     c0.1-1.1,1-1.5,1.9-1.5c0.9,0,1.7,0.4,1.7,1.7v3.1H86v-0.6c-0.4,0.4-0.8,0.7-1.5,0.7C83.7,778.1,83,777.6,83,776.7z M86,776.3     v-0.6h-0.6c-0.9,0-1.6,0.2-1.6,0.9c0,0.5,0.2,0.8,0.9,0.8C85.4,777.5,86,777.1,86,776.3z"
   id="path110611" />
			<path
   class="st1"
   d="M87.9,775.7L87.9,775.7c0-1.5,1-2.5,2.3-2.5c1,0,1.9,0.5,2,1.6h-0.7c-0.1-0.7-0.7-1-1.3-1     c-0.9,0-1.5,0.7-1.5,1.8v0.1c0,1.2,0.6,1.8,1.5,1.8c0.7,0,1.3-0.4,1.4-1.2h0.7c-0.1,1-0.9,1.8-2.1,1.8     C88.9,778.1,87.9,777.1,87.9,775.7z"
   id="path110613" />
			<path
   class="st1"
   d="M93.3,771.8c0-0.3,0.2-0.5,0.5-0.5s0.5,0.2,0.5,0.5c0,0.3-0.2,0.5-0.5,0.5S93.3,772.1,93.3,771.8z      M93.4,773.3h0.7v4.7h-0.7V773.3z"
   id="path110615" />
			<path
   class="st1"
   d="M95.3,775.7L95.3,775.7c0-1.5,1-2.5,2.3-2.5s2.3,1,2.3,2.4v0.1c0,1.4-1,2.4-2.3,2.4     C96.3,778.1,95.3,777,95.3,775.7z M99.2,775.7L99.2,775.7c0-1.2-0.6-1.9-1.5-1.9c-0.9,0-1.5,0.7-1.5,1.8v0.1     c0,1.1,0.6,1.8,1.5,1.8C98.6,777.4,99.2,776.7,99.2,775.7z"
   id="path110617" />
			<path
   class="st1"
   d="M101.1,773.3h0.7v0.7c0.2-0.4,0.7-0.8,1.5-0.8c1,0,1.7,0.5,1.7,1.9v2.9h-0.7V775c0-0.8-0.4-1.2-1.1-1.2     c-0.7,0-1.3,0.4-1.3,1.3v2.9h-0.7V773.3z"
   id="path110619" />
			<path
   class="st1"
   d="M106.1,775.7L106.1,775.7c0-1.5,0.9-2.5,2.2-2.5c1.1,0,2.1,0.7,2.1,2.3v0.2h-3.5c0,1.1,0.5,1.7,1.5,1.7     c0.7,0,1.2-0.3,1.3-0.8h0.7c-0.2,0.9-0.9,1.4-2,1.4C107.1,778.1,106.1,777.1,106.1,775.7z M109.7,775.2c-0.1-1-0.6-1.4-1.4-1.4     c-0.8,0-1.3,0.5-1.4,1.4H109.7z"
   id="path110621" />
			<path
   class="st1"
   d="M111.3,776.5h0.7c0.1,0.6,0.4,0.9,1.1,0.9c0.7,0,1-0.2,1-0.7c0-0.5-0.4-0.7-1.1-0.8     c-1.2-0.2-1.6-0.6-1.6-1.4c0-0.9,0.9-1.3,1.6-1.3c0.8,0,1.6,0.3,1.7,1.4H114c-0.1-0.5-0.4-0.7-1-0.7c-0.5,0-0.9,0.3-0.9,0.7     c0,0.4,0.2,0.6,1.1,0.7c1,0.2,1.7,0.4,1.7,1.4c0,0.9-0.6,1.4-1.7,1.4C112,778.1,111.3,777.5,111.3,776.5z"
   id="path110623" />
			<path
   class="st1"
   d="M41.9,786.5L41.9,786.5c0-1.5,0.9-2.5,2.2-2.5c0.8,0,1.3,0.4,1.5,0.8v-3h0.7v7h-0.7V788     c-0.3,0.5-0.9,0.9-1.6,0.9C42.8,788.9,41.9,788,41.9,786.5z M45.6,786.5L45.6,786.5c0-1.3-0.6-1.8-1.5-1.8     c-0.9,0-1.5,0.7-1.5,1.8v0.1c0,1.2,0.6,1.8,1.4,1.8C45,788.2,45.6,787.7,45.6,786.5z"
   id="path110625" />
			<path
   class="st1"
   d="M47.5,786.5L47.5,786.5c0-1.5,0.9-2.5,2.2-2.5c1.1,0,2.1,0.7,2.1,2.3v0.2h-3.5c0,1.1,0.5,1.7,1.5,1.7     c0.7,0,1.2-0.3,1.3-0.8h0.7c-0.2,0.9-0.9,1.4-2,1.4C48.5,788.9,47.5,787.9,47.5,786.5z M51.1,786c-0.1-1-0.6-1.4-1.4-1.4     c-0.8,0-1.3,0.5-1.4,1.4H51.1z"
   id="path110627" />
			<path
   class="st1"
   d="M55.3,787.1v-3h0.7v2.9c0,0.8,0.4,1.2,1.1,1.2c0.7,0,1.3-0.4,1.3-1.3v-2.9h0.7v4.7h-0.7V788     c-0.2,0.4-0.7,0.8-1.5,0.8C56,788.9,55.3,788.4,55.3,787.1z"
   id="path110629" />
			<path
   class="st1"
   d="M60.3,787.3H61c0.1,0.6,0.4,0.9,1.1,0.9c0.7,0,1-0.2,1-0.7c0-0.5-0.4-0.7-1.1-0.8c-1.2-0.2-1.6-0.6-1.6-1.4     c0-0.9,0.9-1.3,1.6-1.3c0.8,0,1.6,0.3,1.7,1.4H63c-0.1-0.5-0.4-0.7-1-0.7c-0.5,0-0.9,0.3-0.9,0.7c0,0.4,0.2,0.6,1.1,0.7     c1,0.2,1.7,0.4,1.7,1.4c0,0.9-0.6,1.4-1.7,1.4C61,788.9,60.4,788.3,60.3,787.3z"
   id="path110631" />
			<path
   class="st1"
   d="M64.7,786.5L64.7,786.5c0-1.5,1-2.5,2.3-2.5s2.3,1,2.3,2.4v0.1c0,1.4-1,2.4-2.3,2.4S64.7,787.8,64.7,786.5z      M68.5,786.5L68.5,786.5c0-1.2-0.6-1.9-1.5-1.9c-0.9,0-1.5,0.7-1.5,1.8v0.1c0,1.1,0.6,1.8,1.5,1.8     C67.9,788.2,68.5,787.5,68.5,786.5z"
   id="path110633" />
			<path
   class="st1"
   d="M72.5,786.5L72.5,786.5c0-1.5,0.9-2.5,2.2-2.5c1.1,0,2.1,0.7,2.1,2.3v0.2h-3.5c0,1.1,0.5,1.7,1.5,1.7     c0.7,0,1.2-0.3,1.3-0.8h0.7c-0.2,0.9-0.9,1.4-2,1.4C73.4,788.9,72.5,787.9,72.5,786.5z M76.1,786c-0.1-1-0.6-1.4-1.4-1.4     c-0.8,0-1.3,0.5-1.4,1.4H76.1z"
   id="path110635" />
			<path
   class="st1"
   d="M78,784.1h0.7v0.7c0.2-0.4,0.7-0.8,1.5-0.8c1,0,1.7,0.5,1.7,1.9v2.9h-0.7v-2.9c0-0.8-0.4-1.2-1.1-1.2     c-0.7,0-1.3,0.4-1.3,1.3v2.9H78V784.1z"
   id="path110637" />
			<path
   class="st1"
   d="M85.7,781.8h0.8v7h-0.8V781.8z"
   id="path110639" />
			<path
   class="st1"
   d="M87.6,787.5c0-1.1,1.2-1.5,2.4-1.5h0.7v-0.3c0-0.7-0.3-1.1-1-1.1c-0.6,0-1,0.3-1.1,0.8h-0.7     c0.1-1.1,1-1.5,1.9-1.5c0.9,0,1.7,0.4,1.7,1.7v3.1h-0.7v-0.6c-0.4,0.4-0.8,0.7-1.5,0.7C88.3,788.9,87.6,788.4,87.6,787.5z      M90.7,787.1v-0.6H90c-0.9,0-1.6,0.2-1.6,0.9c0,0.5,0.2,0.8,0.9,0.8C90.1,788.3,90.7,787.9,90.7,787.1z"
   id="path110641" />
			<path
   class="st1"
   d="M94.9,787.3h0.7c0.1,0.6,0.4,0.9,1.1,0.9c0.7,0,1-0.2,1-0.7c0-0.5-0.4-0.7-1.1-0.8c-1.2-0.2-1.6-0.6-1.6-1.4     c0-0.9,0.9-1.3,1.6-1.3c0.8,0,1.6,0.3,1.7,1.4h-0.7c-0.1-0.5-0.4-0.7-1-0.7c-0.5,0-0.9,0.3-0.9,0.7c0,0.4,0.2,0.6,1.1,0.7     c1,0.2,1.7,0.4,1.7,1.4c0,0.9-0.6,1.4-1.7,1.4C95.6,788.9,94.9,788.3,94.9,787.3z"
   id="path110643" />
			<path
   class="st1"
   d="M99.2,787.5c0-1.1,1.2-1.5,2.4-1.5h0.7v-0.3c0-0.7-0.3-1.1-1-1.1c-0.6,0-1,0.3-1.1,0.8h-0.7     c0.1-1.1,1-1.5,1.9-1.5c0.9,0,1.7,0.4,1.7,1.7v3.1h-0.7v-0.6c-0.4,0.4-0.8,0.7-1.5,0.7C99.9,788.9,99.2,788.4,99.2,787.5z      M102.2,787.1v-0.6h-0.6c-0.9,0-1.6,0.2-1.6,0.9c0,0.5,0.2,0.8,0.9,0.8C101.6,788.3,102.2,787.9,102.2,787.1z"
   id="path110645" />
			<path
   class="st1"
   d="M104.5,781.8h0.8v7h-0.8V781.8z"
   id="path110647" />
			<path
   class="st1"
   d="M106.4,787.5c0-1.1,1.2-1.5,2.4-1.5h0.7v-0.3c0-0.7-0.3-1.1-1-1.1c-0.6,0-1,0.3-1.1,0.8h-0.7     c0.1-1.1,1-1.5,1.9-1.5c0.9,0,1.7,0.4,1.7,1.7v3.1h-0.7v-0.6c-0.4,0.4-0.8,0.7-1.5,0.7C107.1,788.9,106.4,788.4,106.4,787.5z      M109.4,787.1v-0.6h-0.6c-0.9,0-1.6,0.2-1.6,0.9c0,0.5,0.2,0.8,0.9,0.8C108.8,788.3,109.4,787.9,109.4,787.1z"
   id="path110649" />
		</g>
		<circle
   class="st2"
   cx="337.8"
   cy="780.2"
   r="18.7"
   id="circle110653" />
		<g
   id="g110691">
			<path
   class="st1"
   d="M319.1,771.6h1.8c1.2,0,2.3,0.5,2.3,1.9v0c0,1.4-1,1.9-2.3,1.9h-1v2.6h-0.8V771.6z M321,774.8     c0.9,0,1.4-0.5,1.4-1.3v0c0-0.9-0.5-1.3-1.4-1.3h-1.1v2.6H321z"
   id="path110655" />
			<path
   class="st1"
   d="M323.8,775.7L323.8,775.7c0-1.5,0.9-2.5,2.2-2.5c1.1,0,2.1,0.7,2.1,2.3v0.2h-3.5c0,1.1,0.5,1.7,1.5,1.7     c0.7,0,1.2-0.3,1.3-0.8h0.7c-0.2,0.9-0.9,1.4-2,1.4C324.8,778.1,323.8,777.2,323.8,775.7z M327.4,775.2c-0.1-1-0.6-1.4-1.4-1.4     c-0.8,0-1.3,0.5-1.4,1.4H327.4z"
   id="path110657" />
			<path
   class="st1"
   d="M329,778.3h0.8c0.1,0.5,0.6,0.8,1.4,0.8c0.9,0,1.5-0.4,1.5-1.4V777c-0.3,0.5-0.9,0.9-1.6,0.9     c-1.2,0-2.1-0.9-2.1-2.2v-0.1c0-1.3,0.9-2.3,2.2-2.3c0.8,0,1.3,0.4,1.5,0.8v-0.8h0.7v4.4c0,1.4-0.9,2-2.3,2     C329.8,779.8,329.2,779.1,329,778.3z M332.7,775.6L332.7,775.6c0-1.1-0.6-1.7-1.5-1.7c-0.9,0-1.5,0.7-1.5,1.7v0.1     c0,1,0.7,1.6,1.4,1.6C332,777.3,332.7,776.7,332.7,775.6z"
   id="path110659" />
			<path
   class="st1"
   d="M334.9,776.3v-3h0.7v2.9c0,0.8,0.4,1.2,1.1,1.2c0.7,0,1.3-0.4,1.3-1.3v-2.9h0.7v4.7H338v-0.7     c-0.2,0.4-0.7,0.8-1.5,0.8C335.6,778.1,334.9,777.6,334.9,776.3z"
   id="path110661" />
			<path
   class="st1"
   d="M340.3,773.3h0.7v0.7c0.2-0.4,0.7-0.8,1.5-0.8c1,0,1.7,0.5,1.7,1.9v2.9h-0.7v-2.9c0-0.8-0.4-1.2-1.1-1.2     c-0.7,0-1.3,0.4-1.3,1.3v2.9h-0.7V773.3z"
   id="path110663" />
			<path
   class="st1"
   d="M345.8,776.9V774h-0.7v-0.6h0.7v-1.1h0.7v1.1h1.1v0.6h-1.1v2.8c0,0.5,0.2,0.7,0.6,0.7c0.2,0,0.4,0,0.6-0.1     v0.6c-0.2,0.1-0.3,0.1-0.6,0.1C346.2,778.1,345.8,777.6,345.8,776.9z"
   id="path110665" />
			<path
   class="st1"
   d="M348.5,776.7c0-1.1,1.2-1.5,2.4-1.5h0.7v-0.3c0-0.7-0.3-1.1-1-1.1c-0.6,0-1,0.3-1.1,0.8h-0.7     c0.1-1.1,1-1.5,1.9-1.5c0.9,0,1.7,0.4,1.7,1.7v3.1h-0.7v-0.6c-0.4,0.4-0.8,0.7-1.5,0.7C349.2,778.1,348.5,777.7,348.5,776.7z      M351.6,776.4v-0.6h-0.6c-0.9,0-1.6,0.2-1.6,0.9c0,0.5,0.2,0.8,0.9,0.8C351,777.5,351.6,777.1,351.6,776.4z"
   id="path110667" />
			<path
   class="st1"
   d="M353.4,776.6h0.7c0.1,0.6,0.4,0.9,1.1,0.9c0.7,0,1-0.2,1-0.7c0-0.5-0.4-0.7-1.1-0.8     c-1.2-0.2-1.6-0.6-1.6-1.4c0-0.9,0.9-1.3,1.6-1.3c0.8,0,1.6,0.3,1.7,1.4h-0.7c-0.1-0.5-0.4-0.7-1-0.7c-0.5,0-0.9,0.3-0.9,0.7     c0,0.4,0.2,0.6,1.1,0.7c1,0.2,1.7,0.4,1.7,1.4c0,0.9-0.6,1.4-1.7,1.4C354.1,778.1,353.4,777.6,353.4,776.6z"
   id="path110669" />
			<path
   class="st1"
   d="M316.2,784.8h-0.7v-0.6h0.7v-0.8c0-1,0.5-1.5,1.4-1.5c0.2,0,0.4,0,0.6,0.1v0.6c-0.1-0.1-0.3-0.1-0.5-0.1     c-0.5,0-0.7,0.3-0.7,0.8v0.8h1.2v0.6h-1.2v4.1h-0.7V784.8z"
   id="path110671" />
			<path
   class="st1"
   d="M319.1,784.1h0.7v0.8c0.3-0.5,0.7-0.9,1.5-0.9v0.7c-0.9,0-1.5,0.3-1.5,1.5v2.6h-0.7V784.1z"
   id="path110673" />
			<path
   class="st1"
   d="M322,786.5L322,786.5c0-1.5,0.9-2.5,2.2-2.5c1.1,0,2.1,0.7,2.1,2.3v0.2h-3.5c0,1.1,0.5,1.7,1.5,1.7     c0.7,0,1.2-0.3,1.3-0.8h0.7c-0.2,0.9-0.9,1.4-2,1.4C323,788.9,322,788,322,786.5z M325.6,786c-0.1-1-0.6-1.4-1.3-1.4     c-0.8,0-1.3,0.5-1.4,1.4H325.6z"
   id="path110675" />
			<path
   class="st1"
   d="M327.2,786.5L327.2,786.5c0-1.5,1-2.5,2.3-2.5c1,0,1.9,0.5,2,1.6h-0.7c-0.1-0.7-0.7-1-1.3-1     c-0.9,0-1.5,0.7-1.5,1.8v0.1c0,1.2,0.6,1.8,1.5,1.8c0.7,0,1.3-0.4,1.4-1.2h0.7c-0.1,1-0.9,1.8-2.1,1.8     C328.1,788.9,327.2,788,327.2,786.5z"
   id="path110677" />
			<path
   class="st1"
   d="M332.6,787.1v-3h0.7v2.9c0,0.8,0.4,1.2,1.1,1.2c0.7,0,1.3-0.4,1.3-1.3v-2.9h0.7v4.7h-0.7v-0.7     c-0.2,0.4-0.7,0.8-1.5,0.8C333.3,788.9,332.6,788.4,332.6,787.1z"
   id="path110679" />
			<path
   class="st1"
   d="M337.6,786.5L337.6,786.5c0-1.5,0.9-2.5,2.2-2.5c1.1,0,2.1,0.7,2.1,2.3v0.2h-3.5c0,1.1,0.5,1.7,1.5,1.7     c0.7,0,1.2-0.3,1.3-0.8h0.7c-0.2,0.9-0.9,1.4-2,1.4C338.6,788.9,337.6,788,337.6,786.5z M341.2,786c-0.1-1-0.6-1.4-1.3-1.4     c-0.8,0-1.3,0.5-1.4,1.4H341.2z"
   id="path110681" />
			<path
   class="st1"
   d="M343.1,784.1h0.7v0.7c0.2-0.4,0.7-0.8,1.5-0.8c1,0,1.7,0.5,1.7,1.9v2.9h-0.7v-2.9c0-0.8-0.4-1.2-1.1-1.2     c-0.7,0-1.3,0.4-1.3,1.3v2.9h-0.7V784.1z"
   id="path110683" />
			<path
   class="st1"
   d="M348.6,787.7v-2.9H348v-0.6h0.7v-1.1h0.7v1.1h1.1v0.6h-1.1v2.8c0,0.5,0.2,0.7,0.6,0.7c0.2,0,0.4,0,0.6-0.1     v0.6c-0.2,0.1-0.3,0.1-0.6,0.1C349.1,788.9,348.6,788.4,348.6,787.7z"
   id="path110685" />
			<path
   class="st1"
   d="M351.3,786.5L351.3,786.5c0-1.5,0.9-2.5,2.2-2.5c1.1,0,2.1,0.7,2.1,2.3v0.2h-3.5c0,1.1,0.5,1.7,1.5,1.7     c0.7,0,1.2-0.3,1.3-0.8h0.7c-0.2,0.9-0.9,1.4-2,1.4C352.3,788.9,351.3,788,351.3,786.5z M354.9,786c-0.1-1-0.6-1.4-1.3-1.4     c-0.8,0-1.3,0.5-1.4,1.4H354.9z"
   id="path110687" />
			<path
   class="st1"
   d="M356.4,787.4h0.7c0.1,0.6,0.4,0.9,1.1,0.9c0.7,0,1-0.2,1-0.7c0-0.5-0.4-0.7-1.1-0.8     c-1.2-0.2-1.6-0.6-1.6-1.4c0-0.9,0.9-1.3,1.6-1.3c0.8,0,1.6,0.3,1.7,1.4h-0.7c-0.1-0.5-0.4-0.7-1-0.7c-0.5,0-0.9,0.3-0.9,0.7     c0,0.4,0.2,0.6,1.1,0.7c1,0.2,1.7,0.4,1.7,1.4c0,0.9-0.6,1.4-1.7,1.4C357.2,788.9,356.5,788.4,356.4,787.4z"
   id="path110689" />
		</g>
	</g>
</g>
</svg>